<svg width="18" height="16" viewBox="0 0 18 16" fill="none" xmlns="http://www.w3.org/2000/svg">
<path d="M1.44109 9.39805C1.49243 11.8054 1.5181 13.009 2.40635 13.9007C3.29459 14.7923 4.53081 14.8233 7.00325 14.8854C8.52706 14.9237 10.0359 14.9237 11.5597 14.8854C14.0322 14.8233 15.2683 14.7923 16.1566 13.9007C17.0449 13.009 17.0705 11.8054 17.1218 9.39805C17.1384 8.62401 17.1384 7.85459 17.1218 7.08055C17.0705 4.67325 17.0449 3.4696 16.1566 2.57798C15.2683 1.68635 14.0322 1.65529 11.5597 1.59317C10.0359 1.55488 8.52706 1.55488 7.00324 1.59316C4.53081 1.65528 3.29459 1.68634 2.40634 2.57797C1.51809 3.4696 1.49243 4.67324 1.44109 7.08055C1.42458 7.85459 1.42459 8.62401 1.44109 9.39805Z" fill="white" stroke="white" stroke-width="1.17791" stroke-linejoin="round"/>
<path d="M1.42871 3.13501L6.85734 6.21092C8.85868 7.34488 9.70426 7.34488 11.7056 6.21092L17.1342 3.13501" stroke="black" stroke-width="1.17791" stroke-linejoin="round"/>
</svg>
