<svg width="228" height="236" viewBox="0 0 228 236" fill="none" xmlns="http://www.w3.org/2000/svg">
<path d="M56.295 0.177979H6.31718C3.07181 0.177979 0.440918 2.80887 0.440918 6.05424V50.6901C0.440918 53.9354 3.07181 56.5663 6.31718 56.5663H56.295C59.5404 56.5663 62.1713 53.9354 62.1713 50.6901V6.05424C62.1713 2.80887 59.5404 0.177979 56.295 0.177979Z" fill="#FFFFFE"/>
<path d="M56.2355 56.6851H6.31702C2.99308 56.6851 0.262695 53.9547 0.262695 50.6308V6.05433C0.262695 2.73038 2.99308 0 6.31702 0H56.2355C59.5595 0 62.2899 2.73038 62.2899 6.05433V50.6308C62.2899 53.9547 59.5595 56.6851 56.2355 56.6851ZM6.31702 0.356138C3.17115 0.356138 0.618833 2.90845 0.618833 6.05433V50.6308C0.618833 53.7767 3.17115 56.329 6.31702 56.329H56.2355C59.3814 56.329 61.9337 53.7767 61.9337 50.6308V6.05433C61.9337 2.90845 59.3814 0.356138 56.2355 0.356138H6.31702Z" fill="#101720"/>
<path d="M7.08887 45.6449L24.4802 15.4919L41.8716 45.6449H7.08887Z" fill="#CD88DA"/>
<path d="M41.8709 45.823H7.08824C7.02888 45.823 6.96953 45.823 6.91017 45.7636C6.85081 45.7043 6.91017 45.6449 6.91017 45.5856L24.3015 15.4327C24.3609 15.3139 24.5389 15.3139 24.5983 15.4327L41.9896 45.5856C41.9896 45.5856 41.9896 45.7043 41.9896 45.7636C41.9896 45.823 41.8709 45.823 41.8116 45.823H41.8709ZM7.38502 45.4669H41.5742L24.4796 15.8482L7.38502 45.4669Z" fill="#101720"/>
<path d="M28.1597 45.6449L41.6929 22.1992L55.2261 45.6449H28.1597Z" fill="#CD88DA"/>
<path d="M55.2264 45.823H28.16C28.1007 45.823 28.0413 45.823 27.9819 45.7637C27.9226 45.7043 27.9819 45.645 27.9819 45.5856L41.5151 22.1399C41.5745 22.0212 41.7526 22.0212 41.8119 22.1399L55.3451 45.5856C55.3451 45.5856 55.3451 45.7043 55.3451 45.7637C55.3451 45.823 55.2264 45.823 55.1671 45.823H55.2264ZM28.4568 45.4669H54.9296L41.6932 22.5554L28.4568 45.4669Z" fill="#101720"/>
<path d="M133.695 0.177979H83.7767C80.5313 0.177979 77.9004 2.80887 77.9004 6.05424V50.6901C77.9004 53.9354 80.5313 56.5663 83.7767 56.5663H133.695C136.941 56.5663 139.571 53.9354 139.571 50.6901V6.05424C139.571 2.80887 136.941 0.177979 133.695 0.177979Z" fill="#FFFFFE"/>
<path d="M133.695 56.6851C133.576 56.6851 133.517 56.6258 133.517 56.507C133.517 56.3883 133.576 56.329 133.695 56.329C135.476 56.329 137.138 55.5573 138.206 54.1328C138.265 54.0734 138.384 54.0141 138.443 54.1328C138.503 54.1922 138.562 54.3109 138.443 54.3702C137.256 55.8541 135.535 56.6851 133.636 56.6851H133.695ZM128.294 56.6851H122.892C122.773 56.6851 122.714 56.6258 122.714 56.507C122.714 56.3883 122.773 56.329 122.892 56.329H128.294C128.412 56.329 128.472 56.3883 128.472 56.507C128.472 56.6258 128.412 56.6851 128.294 56.6851ZM117.55 56.6851H112.149C112.03 56.6851 111.971 56.6258 111.971 56.507C111.971 56.3883 112.03 56.329 112.149 56.329H117.55C117.669 56.329 117.728 56.3883 117.728 56.507C117.728 56.6258 117.669 56.6851 117.55 56.6851ZM106.747 56.6851H101.346C101.227 56.6851 101.168 56.6258 101.168 56.507C101.168 56.3883 101.227 56.329 101.346 56.329H106.747C106.866 56.329 106.925 56.3883 106.925 56.507C106.925 56.6258 106.866 56.6851 106.747 56.6851ZM96.0039 56.6851H90.6024C90.4837 56.6851 90.4244 56.6258 90.4244 56.507C90.4244 56.3883 90.4837 56.329 90.6024 56.329H96.0039C96.1226 56.329 96.1819 56.3883 96.1819 56.507C96.1819 56.6258 96.1226 56.6851 96.0039 56.6851ZM85.201 56.6851H83.7765C82.4113 56.6851 81.0461 56.2103 79.9777 55.3793C79.9183 55.3199 79.859 55.2012 79.9777 55.1418C80.0371 55.0825 80.1558 55.0231 80.2151 55.1418C81.2242 55.9728 82.4707 56.3883 83.7765 56.3883H85.201C85.3197 56.3883 85.3791 56.4477 85.3791 56.5664C85.3791 56.6851 85.3197 56.7445 85.201 56.7445V56.6851ZM77.9002 50.7495C77.7815 50.7495 77.7222 50.6901 77.7222 50.5714V45.17C77.7222 45.0513 77.7815 44.992 77.9002 44.992C78.0189 44.992 78.0783 45.0513 78.0783 45.17V50.5714C78.0783 50.6901 78.0189 50.7495 77.9002 50.7495ZM139.631 49.3249C139.512 49.3249 139.453 49.2656 139.453 49.1469V43.7455C139.453 43.6268 139.512 43.5674 139.631 43.5674C139.749 43.5674 139.809 43.6268 139.809 43.7455V49.1469C139.809 49.2656 139.749 49.3249 139.631 49.3249ZM77.9002 39.9467C77.7815 39.9467 77.7222 39.8873 77.7222 39.7686V34.3672C77.7222 34.2485 77.7815 34.1891 77.9002 34.1891C78.0189 34.1891 78.0783 34.2485 78.0783 34.3672V39.7686C78.0783 39.8873 78.0189 39.9467 77.9002 39.9467ZM139.631 38.5815C139.512 38.5815 139.453 38.5221 139.453 38.4034V33.002C139.453 32.8833 139.512 32.8239 139.631 32.8239C139.749 32.8239 139.809 32.8833 139.809 33.002V38.4034C139.809 38.5221 139.749 38.5815 139.631 38.5815ZM77.9002 29.2032C77.7815 29.2032 77.7222 29.1439 77.7222 29.0251V23.6237C77.7222 23.505 77.7815 23.4457 77.9002 23.4457C78.0189 23.4457 78.0783 23.505 78.0783 23.6237V29.0251C78.0783 29.1439 78.0189 29.2032 77.9002 29.2032ZM139.631 27.838C139.512 27.838 139.453 27.7787 139.453 27.66V22.2586C139.453 22.1398 139.512 22.0805 139.631 22.0805C139.749 22.0805 139.809 22.1398 139.809 22.2586V27.66C139.809 27.7787 139.749 27.838 139.631 27.838ZM77.9002 18.4004C77.7815 18.4004 77.7222 18.341 77.7222 18.2223V12.8209C77.7222 12.7022 77.7815 12.6429 77.9002 12.6429C78.0189 12.6429 78.0783 12.7022 78.0783 12.8209V18.2223C78.0783 18.341 78.0189 18.4004 77.9002 18.4004ZM139.631 17.0352C139.512 17.0352 139.453 16.9759 139.453 16.8571V11.4557C139.453 11.337 139.512 11.2777 139.631 11.2777C139.749 11.2777 139.809 11.337 139.809 11.4557V16.8571C139.809 16.9759 139.749 17.0352 139.631 17.0352ZM77.9002 7.65694C77.7815 7.65694 77.7222 7.59759 77.7222 7.47887V6.05433C77.7222 4.68914 78.197 3.3833 79.028 2.25553C79.0874 2.19618 79.2061 2.13682 79.2654 2.25553C79.3248 2.31489 79.3841 2.4336 79.2654 2.49296C78.4344 3.50201 78.0189 4.74849 78.0189 6.05433V7.47887C78.0189 7.59759 77.9596 7.65694 77.8409 7.65694H77.9002ZM139.631 6.29175C139.512 6.29175 139.453 6.23239 139.453 6.11368C139.453 4.27364 138.681 2.67103 137.256 1.54326C137.197 1.4839 137.138 1.36519 137.256 1.30584C137.316 1.24648 137.434 1.18712 137.494 1.30584C138.978 2.49296 139.809 4.21429 139.809 6.05433C139.809 6.17304 139.749 6.29175 139.631 6.29175ZM132.27 0.356138H126.869C126.75 0.356138 126.691 0.29678 126.691 0.178068C126.691 0.0593557 126.75 0 126.869 0H132.27C132.389 0 132.449 0.0593557 132.449 0.178068C132.449 0.29678 132.389 0.356138 132.27 0.356138ZM121.468 0.356138H116.066C115.948 0.356138 115.888 0.29678 115.888 0.178068C115.888 0.0593557 115.948 0 116.066 0H121.468C121.586 0 121.646 0.0593557 121.646 0.178068C121.646 0.29678 121.586 0.356138 121.468 0.356138ZM110.724 0.356138H105.323C105.204 0.356138 105.145 0.29678 105.145 0.178068C105.145 0.0593557 105.204 0 105.323 0H110.724C110.843 0 110.902 0.0593557 110.902 0.178068C110.902 0.29678 110.843 0.356138 110.724 0.356138ZM99.9807 0.356138H94.5793C94.4606 0.356138 94.4012 0.29678 94.4012 0.178068C94.4012 0.0593557 94.4606 0 94.5793 0H99.9807C100.099 0 100.159 0.0593557 100.159 0.178068C100.159 0.29678 100.099 0.356138 99.9807 0.356138ZM89.1779 0.356138H83.7765C83.6578 0.356138 83.5984 0.29678 83.5984 0.178068C83.5984 0.0593557 83.6578 0 83.7765 0H89.1779C89.2966 0 89.356 0.0593557 89.356 0.178068C89.356 0.29678 89.2966 0.356138 89.1779 0.356138Z" fill="#101720"/>
<path d="M100.931 214.216L100.515 209.112C100.515 209.112 95.4698 210.833 89.1187 210.774L89.6529 218.787L96.004 218.431L100.931 214.276V214.216Z" fill="#FF7E6E"/>
<path d="M89.6532 218.905C89.5345 218.905 89.4751 218.846 89.4751 218.727L88.9409 210.714V210.596C88.9409 210.596 89.0003 210.596 89.0596 210.596C89.1783 210.596 89.2377 210.596 89.3564 210.596C95.4701 210.596 100.397 208.934 100.397 208.934C100.397 208.934 100.515 208.934 100.575 208.934C100.575 208.934 100.634 208.993 100.634 209.052L101.05 214.157C101.05 214.157 101.05 214.276 100.99 214.276L96.0637 218.431C96.0637 218.431 96.0043 218.431 95.9449 218.431L89.5938 218.787L89.6532 218.905ZM89.2971 210.952L89.8313 218.609L95.9449 218.253L100.753 214.157L100.397 209.349C99.3876 209.646 94.8765 210.952 89.4158 210.952H89.2971Z" fill="#101720"/>
<path d="M71.49 228.759C72.321 230.895 73.6268 232.32 85.7948 230.064C98.0222 227.75 102.771 227.156 103.661 225.138C103.898 224.544 103.898 223.12 103.839 221.458C103.72 219.202 103.364 216.531 103.067 214.691C102.889 213.385 102.711 212.495 102.711 212.495C99.9809 209.527 98.2003 215.403 96.1228 215.997C94.995 216.294 93.3924 215.225 91.9085 214.216C90.6027 213.326 89.4155 212.554 88.7033 212.732C87.5161 213.029 81.8773 216.828 77.7224 219.677C77.4256 219.855 77.1288 220.093 76.8914 220.271C76.1198 220.805 75.4075 221.28 74.8139 221.695C71.0745 224.307 70.659 226.622 71.49 228.759Z" fill="#FFFFFE"/>
<path d="M71.4897 228.759C72.3207 230.895 73.6266 232.32 85.7946 230.064C98.0219 227.75 102.77 227.156 103.661 225.138C103.898 224.544 103.898 223.12 103.839 221.458C96.8348 224.604 75.0511 229.174 71.4897 228.759Z" fill="black"/>
<path d="M77.7222 219.677C77.7222 219.677 79.5622 221.398 84.4294 218.846C89.2966 216.294 91.9083 214.216 91.9083 214.216C90.6024 213.326 89.4153 212.554 88.7031 212.732C87.5159 213.029 81.8771 216.828 77.7222 219.677Z" fill="black"/>
<path d="M90.009 222.882C88.0503 222.882 86.1509 221.576 84.2515 218.965C84.2515 218.905 84.2515 218.787 84.2515 218.727C84.3108 218.727 84.4295 218.727 84.4889 218.727C86.507 221.517 88.5251 222.764 90.5432 222.467C93.0955 222.111 103.245 218.668 103.305 218.609C103.423 218.609 103.483 218.609 103.542 218.727C103.542 218.846 103.542 218.905 103.423 218.965C103.008 219.083 93.1549 222.467 90.5432 222.823C90.3058 222.823 90.1277 222.823 89.8903 222.823L90.009 222.882Z" fill="#101720"/>
<path d="M76.3572 231.37C72.6771 231.37 71.9055 230.302 71.3119 228.818C71.3119 228.818 71.3119 228.818 71.3119 228.759C70.3622 226.147 71.4306 223.832 74.6952 221.576C75.2888 221.161 76.001 220.686 76.7727 220.152C76.8914 220.033 77.0695 219.974 77.2475 219.855L77.663 219.558C81.2244 217.125 87.3974 212.97 88.7033 212.614C89.4749 212.376 90.7214 213.207 92.0272 214.098C93.4517 215.047 95.0544 216.175 96.1228 215.878C96.8351 215.7 97.488 214.81 98.2002 213.92C99.0906 212.792 100.04 211.605 101.168 211.545C101.762 211.545 102.296 211.783 102.889 212.436C102.889 212.436 102.889 212.436 102.889 212.554C102.889 212.554 103.067 213.445 103.246 214.751C103.483 216.234 103.839 219.143 104.017 221.517C104.136 223.476 104.077 224.722 103.839 225.316C103.067 227.156 99.3874 227.809 90.4246 229.471C89.0594 229.708 87.5161 230.005 85.8542 230.302C81.4618 231.133 78.4346 231.489 76.3572 231.489V231.37ZM71.668 228.759C72.499 230.895 74.0423 232.083 85.7948 229.827C87.4568 229.53 88.9407 229.233 90.3652 228.996C99.1499 227.393 102.83 226.681 103.483 225.019C103.72 224.485 103.78 223.298 103.602 221.398C103.424 219.024 103.067 216.116 102.83 214.632C102.652 213.504 102.533 212.732 102.474 212.495C101.999 211.961 101.524 211.783 101.049 211.783C100.1 211.783 99.2093 212.91 98.3783 214.038C97.6067 214.988 96.8944 215.878 96.1228 216.116C94.9357 216.472 93.2737 215.344 91.7898 214.335C90.6027 213.504 89.3562 212.673 88.7626 212.851C87.8129 213.089 83.8361 215.641 77.8411 219.736L77.4256 220.033C77.2475 220.152 77.1288 220.211 77.0101 220.33C76.2385 220.864 75.5262 221.339 74.9326 221.755C70.7777 224.663 71.0745 227.037 71.668 228.64C71.668 228.64 71.668 228.64 71.668 228.699V228.759Z" fill="#101720" fill-opacity="0.35"/>
<path d="M164.976 203.888L162.602 198.843C162.602 198.843 158.387 198.428 157.082 204.66L161.889 218.193L168.122 209.587L164.976 203.948V203.888Z" fill="#FF7E6E"/>
<path d="M161.83 218.252C161.771 218.252 161.711 218.252 161.711 218.134L156.903 204.601C156.903 204.601 156.903 204.541 156.903 204.482C158.269 198.19 162.542 198.546 162.602 198.546C162.661 198.546 162.72 198.546 162.72 198.665L165.094 203.71L168.24 209.349C168.24 209.408 168.24 209.468 168.24 209.527L162.008 218.134C162.008 218.134 161.949 218.193 161.889 218.193L161.83 218.252ZM157.259 204.601L161.889 217.718L167.884 209.527L164.857 204.007L162.483 199.021C161.83 199.021 158.447 199.14 157.259 204.66V204.601Z" fill="#101720"/>
<path d="M173.404 235.644C175.66 235.288 177.322 234.279 177.5 221.873C177.678 209.468 178.034 204.66 176.254 203.413C175.719 203.057 174.354 202.761 172.692 202.523C170.496 202.226 167.766 202.048 165.866 201.93C164.56 201.87 163.67 201.811 163.67 201.811C160.227 203.888 165.629 206.797 165.807 208.934C165.926 210.121 164.501 211.486 163.195 212.732C162.067 213.801 161.058 214.81 161.118 215.581C161.177 216.828 163.789 223.12 165.747 227.749C165.866 228.046 166.044 228.402 166.163 228.699C166.519 229.59 166.875 230.361 167.172 231.014C168.953 235.228 171.149 236.059 173.464 235.644H173.404Z" fill="#FFFFFE"/>
<path d="M173.404 235.644C175.66 235.288 177.322 234.279 177.5 221.873C177.678 209.468 178.034 204.66 176.253 203.413C175.719 203.057 174.354 202.761 172.692 202.523C174.413 210.002 174.532 232.261 173.464 235.644H173.404Z" fill="black"/>
<path d="M165.688 227.69C165.688 227.69 167.766 226.266 166.222 220.924C164.679 215.641 163.195 212.673 163.195 212.673C162.067 213.741 161.058 214.75 161.118 215.522C161.177 216.769 163.789 223.06 165.747 227.69H165.688Z" fill="black"/>
<path d="M166.223 221.161C166.163 221.161 166.104 221.161 166.044 221.042C166.044 220.924 166.044 220.864 166.104 220.805C169.25 219.38 170.852 217.659 170.971 215.582C171.09 213.029 169.725 202.404 169.725 202.286C169.725 202.167 169.725 202.108 169.903 202.108C170.021 202.108 170.081 202.108 170.081 202.286C170.081 202.701 171.446 213.089 171.327 215.641C171.208 217.837 169.546 219.618 166.282 221.161C166.282 221.161 166.282 221.161 166.223 221.161Z" fill="#101720"/>
<path d="M172.455 235.881C170.14 235.881 168.359 234.338 166.935 231.073C166.638 230.421 166.341 229.649 165.926 228.759C165.807 228.462 165.629 228.106 165.51 227.809C163.433 222.942 160.999 216.828 160.88 215.581C160.88 214.81 161.83 213.801 162.958 212.673C162.958 212.614 162.958 212.614 162.958 212.614C164.204 211.427 165.569 210.061 165.451 208.993C165.451 208.281 164.679 207.45 163.908 206.559C162.958 205.432 162.008 204.304 162.186 203.235C162.305 202.642 162.661 202.167 163.373 201.752C163.373 201.752 163.433 201.752 163.492 201.752C163.492 201.752 164.382 201.752 165.688 201.87C167.231 201.93 170.081 202.167 172.514 202.464C174.414 202.701 175.66 203.057 176.194 203.354C177.856 204.482 177.797 208.221 177.619 217.362C177.619 218.787 177.619 220.33 177.559 221.992C177.381 234.338 175.779 235.525 173.286 235.941C172.989 235.941 172.633 236 172.336 236L172.455 235.881ZM163.314 212.851C162.305 213.92 161.296 214.869 161.355 215.522C161.415 216.472 163.077 220.805 165.926 227.631C166.044 227.928 166.163 228.284 166.341 228.58C166.697 229.471 167.053 230.242 167.35 230.895C169.368 235.525 171.802 235.703 173.405 235.466C175.66 235.05 177.144 233.863 177.322 221.873C177.322 220.211 177.322 218.668 177.381 217.243C177.559 208.281 177.619 204.541 176.135 203.532C175.779 203.295 174.948 202.998 172.633 202.642C170.259 202.345 167.35 202.108 165.866 202.048C164.739 201.989 163.908 201.93 163.729 201.93C163.136 202.286 162.839 202.701 162.72 203.176C162.542 204.126 163.492 205.194 164.382 206.263C165.154 207.212 165.926 208.043 165.985 208.874C166.104 210.121 164.679 211.486 163.373 212.792L163.314 212.851Z" fill="black"/>
<path d="M76.2383 120.374V212.732H109.953L108.884 141.624L150.493 209.883L183.91 203.829L134.823 120.374H76.2383Z" fill="black" fill-opacity="0.85"/>
<mask id="mask0_68_1021" style="mask-type:luminance" maskUnits="userSpaceOnUse" x="76" y="120" width="108" height="93">
<path d="M76.2383 120.374V212.732H109.953L108.884 141.624L150.493 209.883L183.91 203.829L134.823 120.374H76.2383Z" fill="white"/>
</mask>
<g mask="url(#mask0_68_1021)">
<path d="M107.401 139.309C102.237 132.245 100.99 130.287 99.1502 129.337C97.3102 128.387 98.4379 131.83 101.703 140.971C104.967 150.052 108.766 164.654 110.012 173.735C111.259 182.817 112.802 167.028 112.802 167.028L111.615 155.454L107.46 139.368" fill="#CD88DA"/>
<path d="M123.664 119.425C129.303 121.68 134.467 129.931 145.448 145.66C156.429 161.389 169.012 178.424 169.012 178.424L139.809 113.489L123.664 119.425Z" fill="#CD88DA"/>
<path d="M105.264 149.459C105.204 149.162 104.729 149.281 104.789 149.577C105.56 153.792 106.213 158.006 106.748 162.22C106.748 162.517 107.282 162.517 107.222 162.22C106.688 157.947 106.035 153.673 105.204 149.459H105.264Z" fill="#CD88DA"/>
<path d="M107.044 163.586C106.748 163.586 106.748 164.06 107.044 164.06C107.341 164.06 107.341 163.586 107.044 163.586Z" fill="#CD88DA"/>
</g>
<path d="M109.953 212.91H76.2386C76.1199 212.91 76.0605 212.851 76.0605 212.732V120.374C76.0605 120.256 76.1199 120.196 76.2386 120.196H134.823C134.882 120.196 134.942 120.196 135.001 120.256L184.089 203.71C184.089 203.71 184.089 203.829 184.089 203.888C184.089 203.948 184.029 204.007 183.97 204.007L150.552 210.061C150.493 210.061 150.434 210.061 150.374 210.002L109.122 142.336L110.19 212.792V212.91C110.19 212.91 110.131 212.91 110.072 212.91H109.953ZM76.4167 212.554H109.775L108.706 141.624C108.706 141.564 108.706 141.446 108.825 141.446C108.884 141.446 109.003 141.446 109.003 141.505L150.552 209.646L183.614 203.651L134.764 120.493H76.4167V212.495V212.554Z" fill="#101720"/>
<path d="M108.884 141.624C105.085 136.104 101.821 130.584 99.1497 129.278C96.4786 127.972 104.136 136.875 106.094 140.199C108.053 143.523 109.003 145.838 109.003 145.838V141.624H108.943H108.884Z" fill="#101720"/>
<path d="M108.944 146.016C108.884 146.016 108.825 146.016 108.766 145.897C108.766 145.897 107.816 143.523 105.917 140.259C105.204 139.071 103.72 137.113 102.296 135.213C99.2686 131.236 98.0815 129.515 98.4377 129.1C98.6157 128.862 99.0312 129.1 99.2093 129.1C101.405 130.168 103.898 133.848 106.748 138.181C107.46 139.25 108.231 140.377 109.003 141.505C109.003 141.505 109.003 141.564 109.003 141.624V145.838C109.062 145.897 109.003 146.016 108.944 146.016ZM98.7344 129.337C98.7344 129.871 100.931 132.839 102.593 135.035C104.017 136.935 105.501 138.893 106.213 140.08C107.46 142.217 108.291 143.998 108.766 144.948V141.683C107.935 140.555 107.222 139.487 106.51 138.419C103.661 134.145 101.168 130.465 99.0906 129.456C98.9125 129.396 98.7938 129.337 98.7938 129.337H98.7344Z" fill="#CD88DA"/>
<path d="M154.885 118.772C154.767 118.772 154.648 118.772 154.529 118.772C145.507 119.187 135.06 113.133 135.06 113.133L135.595 120.671H76.2979L76.0011 117.347C76.0011 117.347 69.9468 127.497 56.2355 126.251C42.5242 125.063 31.2466 83.158 31.2466 83.158L47.6289 76.7475L50.4186 75.6791L62.1711 100.371C62.1711 100.371 72.321 85.6509 79.5031 77.4598C86.6852 69.2093 98.2597 64.3421 108.113 66.8944C117.966 69.506 130.015 78.825 135.595 83.2767C141.234 87.7284 154.767 98.5312 159.278 103.992C163.789 109.453 163.908 118.059 154.767 118.712L154.885 118.772Z" fill="#FFFFFE"/>
<path d="M58.55 126.547C57.8377 126.547 57.0661 126.547 56.2944 126.429C50.5369 125.894 44.5419 118.475 38.4876 104.289C33.9765 93.7827 31.1274 83.2766 31.1274 83.1579C31.1274 83.0985 31.1274 82.9798 31.2462 82.9205L50.4182 75.4416C50.4775 75.4416 50.5963 75.4416 50.6556 75.5603L62.2894 100.015C63.6546 98.0563 72.8548 84.8792 79.5027 77.2816C87.219 68.4376 98.7934 64.1639 108.29 66.6569C118.44 69.3279 130.668 78.9436 135.891 83.0985C140.64 86.838 155.004 98.2344 159.574 103.873C162.364 107.256 163.314 111.649 162.008 114.676C161.236 116.397 159.396 118.534 154.944 118.89H154.588C146.456 119.306 137.078 114.379 135.357 113.43L135.891 120.671V120.79C135.891 120.79 135.832 120.79 135.772 120.79H76.4755C76.3568 120.79 76.2975 120.73 76.2975 120.612L76.06 117.763C75.4665 118.594 73.9826 120.493 71.549 122.333C68.8779 124.292 64.6043 126.488 58.6687 126.488L58.55 126.547ZM31.4836 83.2766C32.2552 86.0664 43.2955 124.945 56.2944 126.132C63.2985 126.785 68.225 124.351 71.1928 122.155C74.3387 119.84 75.882 117.288 75.882 117.288C75.882 117.228 76.0007 117.169 76.06 117.228C76.1194 117.228 76.1787 117.288 76.1787 117.406L76.4755 120.552H135.416L134.882 113.192C134.882 113.133 134.882 113.073 134.941 113.014C134.941 113.014 135.06 113.014 135.119 113.014C135.238 113.073 145.625 119.068 154.469 118.594H154.826C158.209 118.356 160.524 116.991 161.533 114.617C162.779 111.649 161.83 107.494 159.159 104.17C154.588 98.5311 140.224 87.1941 135.535 83.4547C130.786 79.7152 118.203 69.7434 108.112 67.0724C98.7341 64.6388 87.2783 68.8531 79.6808 77.5784C72.558 85.7102 62.4675 100.371 62.3488 100.49C62.3488 100.49 62.2301 100.549 62.1707 100.549C62.1113 100.549 62.052 100.549 62.052 100.431L50.3588 75.8571L31.4836 83.2173V83.2766Z" fill="#101720"/>
<path d="M155.182 118.653C157.319 117.703 158.803 116.101 159.456 113.964C160.346 110.877 159.456 106.96 157.2 103.933C153.164 98.6498 122.833 75.5009 111.021 70.1589C108.469 68.9717 105.738 68.4375 102.889 68.4375C93.6298 68.4375 84.9638 74.5512 79.9779 80.3088C75.17 85.7695 68.0473 97.0472 64.2485 103.28C63.7737 104.051 62.9427 104.526 61.993 104.526C61.0433 104.526 60.0342 103.933 59.6187 102.983L47.8662 76.8661L50.4185 75.8571L62.2304 100.668L62.3491 100.549C62.4678 100.431 72.5584 85.7695 79.6811 77.6378C85.7354 70.6931 94.5201 66.4194 102.711 66.4194C110.902 66.4194 106.451 66.6569 108.172 67.1317C118.263 69.7434 130.431 79.4184 135.654 83.514C140.343 87.2534 154.707 98.5905 159.337 104.229C162.067 107.553 163.017 111.768 161.711 114.735C160.702 117.05 158.447 118.415 155.182 118.712V118.653Z" fill="#303030" fill-opacity="0.9"/>
<path d="M93.7485 102.093L95.7073 102.33L113.692 97.5815L114.048 99.0654L96.0634 103.814L94.5202 105.001L91.3149 104.289L93.7485 102.093Z" fill="#FFFFFE"/>
<path d="M94.5205 105.179L91.2559 104.467C91.1966 104.467 91.1372 104.407 91.1372 104.348C91.1372 104.289 91.1372 104.229 91.1372 104.17L93.6302 101.974H93.7489L95.6483 102.211L113.574 97.4628H113.693C113.693 97.4628 113.752 97.5221 113.752 97.5815L114.167 99.0654C114.167 99.1841 114.167 99.2435 114.049 99.3028L96.1231 104.051L94.5799 105.179C94.5799 105.179 94.5205 105.179 94.4612 105.179H94.5205ZM91.6714 104.229L94.4612 104.823L95.9451 103.695C95.9451 103.695 95.9451 103.695 96.0044 103.695L113.811 98.9467L113.514 97.8189L95.7076 102.567C95.7076 102.567 95.7076 102.567 95.6483 102.567L93.8082 102.33L91.6714 104.229Z" fill="#101720"/>
<path d="M112.801 101.499L111.377 96.0382L123.723 92.7736C124.495 92.5955 125.266 93.011 125.504 93.7826L126.216 96.4536C126.394 97.2253 125.979 97.9969 125.207 98.2343L112.861 101.499H112.801Z" fill="black" fill-opacity="0.85"/>
<path d="M112.802 101.677C112.742 101.677 112.624 101.677 112.624 101.558L111.199 96.0976V95.9789C111.199 95.9789 111.259 95.9195 111.318 95.9195L123.664 92.6549C124.554 92.4175 125.385 92.9517 125.623 93.7827L126.335 96.4537C126.454 96.8692 126.335 97.2847 126.157 97.7002C125.92 98.0563 125.563 98.3531 125.148 98.4718L112.802 101.736V101.677ZM111.555 96.2163L112.921 101.321L125.089 98.0563C125.385 97.997 125.682 97.7596 125.86 97.4628C126.038 97.166 126.098 96.8099 125.979 96.5131L125.267 93.842C125.089 93.1891 124.376 92.7736 123.723 92.9517L111.555 96.2163Z" fill="#101720"/>
<path d="M110.656 95.2317L109.911 95.4301C109.657 95.4976 109.506 95.7577 109.574 96.0111L111.283 102.435C111.351 102.689 111.611 102.84 111.864 102.772L112.61 102.574C112.863 102.506 113.014 102.246 112.947 101.993L111.237 95.5685C111.17 95.3151 110.91 95.1643 110.656 95.2317Z" fill="#303030"/>
<path d="M111.674 102.983C111.555 102.983 111.436 102.983 111.377 102.924C111.258 102.864 111.14 102.686 111.08 102.567L109.359 96.0976C109.3 95.7414 109.478 95.4447 109.775 95.326L110.606 95.0885C110.962 94.9698 111.258 95.2072 111.377 95.504L113.098 101.974C113.098 102.152 113.098 102.33 113.039 102.449C112.98 102.567 112.802 102.686 112.683 102.745L111.852 102.983C111.852 102.983 111.733 102.983 111.674 102.983ZM110.784 95.3853C110.784 95.3853 110.784 95.3853 110.724 95.3853L109.893 95.6227C109.834 95.6227 109.775 95.6821 109.715 95.7415C109.715 95.8008 109.715 95.8602 109.715 95.9195L111.436 102.389C111.436 102.449 111.496 102.508 111.555 102.567C111.615 102.567 111.674 102.567 111.733 102.567L112.564 102.33C112.624 102.33 112.683 102.271 112.742 102.211C112.742 102.152 112.742 102.093 112.742 102.033L111.021 95.5634C111.021 95.4447 110.902 95.3853 110.784 95.3853Z" fill="#101720"/>
<path d="M136.188 94.3169L129.837 110.462C129.837 110.462 115.651 103.695 113.692 102.567C111.733 101.44 112.742 99.2434 114.76 99.3028C116.778 99.3028 120.755 99.837 120.755 99.837C120.755 99.837 119.984 95.504 121.289 93.4265C121.289 93.4265 116.66 95.2072 112.683 95.6821C108.706 96.1569 109.656 93.3078 112.208 92.6549C114.76 92.002 119.034 90.2807 120.755 89.331C122.477 88.3813 124.851 88.9748 126.691 90.2807C126.691 90.2807 128.471 90.5181 130.015 91.3491C131.558 92.1801 136.247 94.3169 136.247 94.3169H136.188Z" fill="#FF7E6D"/>
<mask id="mask1_68_1021" style="mask-type:luminance" maskUnits="userSpaceOnUse" x="109" y="88" width="28" height="23">
<path d="M136.188 94.3169L129.837 110.462C129.837 110.462 115.651 103.695 113.692 102.567C111.733 101.44 112.742 99.2435 114.76 99.3028C116.778 99.3028 120.755 99.837 120.755 99.837C120.755 99.837 119.984 95.504 121.289 93.4266C121.289 93.4266 116.66 95.2073 112.683 95.6821C108.706 96.157 109.656 93.3079 112.208 92.7143C114.76 92.1207 119.034 90.3401 120.755 89.3904C122.477 88.4407 124.851 89.0342 126.691 90.3401C126.691 90.3401 128.471 90.5775 130.015 91.4085C131.558 92.2395 136.247 94.3763 136.247 94.3763L136.188 94.3169Z" fill="white"/>
</mask>
<g mask="url(#mask1_68_1021)">
<path d="M109.299 93.842C109.359 95.0885 111.792 94.7324 115.71 93.6046C119.627 92.4769 123.011 91.4084 123.011 91.4084C123.011 91.4084 120.755 93.4859 120.34 94.5543C119.924 95.6227 113.632 96.9286 113.632 96.9286H109.774L108.528 95.2666L109.359 93.842H109.299Z" fill="#CD88DA"/>
<path d="M121.467 101.083C122.298 101.024 122.654 99.9557 122.714 98.3531C122.714 96.7505 123.367 95.2072 124.554 94.1982C125.741 93.1891 126.335 93.3672 126.572 93.6046C126.809 93.842 126.156 94.6137 126.156 94.6137C126.156 94.6137 124.969 95.6227 124.435 97.344C123.901 99.0654 123.723 100.312 123.901 101.44C124.079 102.567 125.504 103.042 125.978 102.211C126.453 101.38 126.335 99.9557 127.166 98.4125C127.997 96.8692 128.709 96.5131 129.184 96.6318C129.658 96.7505 129.599 96.9285 129.124 97.4034C128.649 97.8782 127.7 98.8873 127.344 100.49C126.987 102.093 126.691 103.458 127.047 104.289C127.403 105.12 128.887 105.535 129.184 104.585C129.48 103.636 129.184 102.567 129.896 102.033C130.608 101.499 131.914 102.033 131.439 103.873C130.964 105.713 129.658 106.722 126.869 106.01C124.02 105.357 121.23 101.974 120.043 101.024C118.856 100.074 115.532 99.006 115.532 99.006L120.518 99.3621C120.518 99.3621 120.933 100.787 121.527 101.083" fill="#CD88DA"/>
</g>
<path d="M129.837 110.699C129.837 110.699 129.837 110.699 129.778 110.699C129.659 110.64 115.532 103.933 113.573 102.805C112.505 102.211 112.268 101.321 112.446 100.668C112.683 99.7776 113.633 99.184 114.701 99.184C116.422 99.184 119.568 99.5995 120.459 99.7183C120.34 98.8279 119.984 95.7414 120.815 93.842C119.568 94.3168 115.829 95.5633 112.564 95.9195C110.19 96.2162 109.775 95.3259 109.715 94.9104C109.537 94.0201 110.606 92.8923 112.089 92.5362C114.582 91.9426 118.856 90.2213 120.637 89.2122C122.239 88.3219 124.614 88.678 126.691 90.1026C126.988 90.1026 128.59 90.3993 130.074 91.171C131.618 92.0019 136.247 94.1388 136.307 94.1388C136.366 94.1388 136.425 94.2575 136.425 94.3168C136.425 94.3762 136.425 94.3168 136.425 94.3762L130.074 110.521C130.074 110.521 130.074 110.58 129.956 110.64C129.956 110.64 129.956 110.64 129.896 110.64L129.837 110.699ZM114.642 99.4808C113.633 99.4808 112.98 100.134 112.802 100.727C112.624 101.38 112.98 102.033 113.751 102.449C115.591 103.458 128.116 109.453 129.718 110.224L135.951 94.3762C135.12 94.0201 131.261 92.2394 129.837 91.4677C128.353 90.6368 126.572 90.4587 126.572 90.4587C126.572 90.4587 126.572 90.4587 126.513 90.4587C125.029 89.3903 122.595 88.5593 120.815 89.5683C119.093 90.5774 114.76 92.2987 112.208 92.8923C110.843 93.2484 110.012 94.1981 110.131 94.851C110.249 95.4446 111.14 95.7414 112.624 95.5633C116.541 95.0885 121.171 93.3671 121.23 93.3078C121.29 93.3078 121.408 93.3078 121.408 93.3078C121.408 93.3078 121.408 93.4265 121.408 93.4859C120.221 95.504 120.934 99.7182 120.934 99.7776C120.934 99.7776 120.934 99.8963 120.934 99.9557C120.934 99.9557 120.815 100.015 120.755 99.9557C120.755 99.9557 116.779 99.4808 114.76 99.4215C114.76 99.4215 114.76 99.4215 114.701 99.4215L114.642 99.4808Z" fill="#101720"/>
<path d="M121.231 93.664C121.231 93.664 121.171 93.664 121.112 93.664C121.053 93.664 120.993 93.4859 121.112 93.4266C122.952 90.4588 125.386 90.1026 126.691 90.162C126.81 90.162 126.87 90.2213 126.87 90.34C126.87 90.4588 126.81 90.5181 126.691 90.5181C125.445 90.4588 123.189 90.8149 121.468 93.6046C121.468 93.6046 121.349 93.664 121.29 93.664H121.231Z" fill="#101720"/>
<path d="M128.828 105.773C128.472 105.773 128.056 105.654 127.7 105.476C127.047 105.12 126.691 104.407 126.691 103.339C126.572 101.084 127.878 97.997 129.362 97.0473C129.421 97.0473 129.54 97.0473 129.6 97.0473C129.6 97.1067 129.6 97.2254 129.6 97.2847C128.234 98.1751 126.988 101.143 127.107 103.28C127.107 103.933 127.285 104.764 127.938 105.12C128.65 105.476 129.303 105.476 129.778 105.12C130.431 104.645 130.727 103.636 130.549 102.745C130.549 102.627 130.549 102.567 130.668 102.508C130.787 102.508 130.846 102.508 130.905 102.627C131.143 103.576 130.787 104.764 130.015 105.357C129.659 105.595 129.303 105.713 128.887 105.713L128.828 105.773Z" fill="#101720"/>
<path d="M125.564 103.695C125.326 103.695 125.089 103.695 124.911 103.517C124.08 103.102 123.545 101.915 123.545 100.193C123.545 96.8692 126.216 94.1982 126.335 94.0795C126.395 94.0201 126.513 94.0201 126.573 94.0795C126.632 94.1388 126.632 94.2576 126.573 94.3169C126.513 94.3763 123.902 97.0473 123.902 100.193C123.902 103.339 124.317 102.805 125.029 103.161C125.504 103.398 126.098 103.28 126.691 102.805C126.751 102.745 126.869 102.805 126.929 102.805C126.988 102.864 126.929 102.983 126.929 103.042C126.454 103.398 125.979 103.576 125.564 103.576V103.695Z" fill="#101720"/>
<path d="M122.536 101.618C122.477 101.618 122.358 101.618 122.239 101.618C121.527 101.499 120.696 100.965 120.518 99.9557C120.518 99.837 120.518 99.7776 120.637 99.7776C120.755 99.7776 120.815 99.7777 120.815 99.8964C120.934 100.727 121.646 101.202 122.239 101.262C122.833 101.321 123.308 101.143 123.486 100.668C123.486 100.609 123.664 100.549 123.723 100.609C123.783 100.609 123.842 100.787 123.783 100.846C123.545 101.38 123.011 101.677 122.417 101.677L122.536 101.618Z" fill="#101720"/>
<path d="M53.0898 37.5131L51.962 47.1288L33.3242 46.0604L33.9771 35.9698L53.0898 37.5131Z" fill="#303030"/>
<mask id="mask2_68_1021" style="mask-type:luminance" maskUnits="userSpaceOnUse" x="33" y="36" width="21" height="12">
<path d="M53.0898 37.5131L51.962 47.1288L33.3242 46.0604L33.9771 36.0292L53.0898 37.5131Z" fill="white"/>
</mask>
<g mask="url(#mask2_68_1021)">
<path d="M51.0714 36.9789C52.0805 37.7505 51.6056 42.2022 51.0714 44.339C50.5966 46.4759 48.8753 43.0926 48.8753 43.0926C48.8753 43.0926 47.9256 44.7545 46.5604 44.6358C45.1952 44.5171 44.9578 41.5493 44.9578 41.5493C44.9578 41.5493 44.5423 44.1016 43.1771 44.4577C41.8119 44.8139 41.2777 42.3803 41.2777 42.3803C41.2777 42.3803 40.8622 44.5171 39.3783 44.6952C37.8944 44.8732 37.4195 41.9648 37.4195 41.9648C37.4195 41.9648 37.1228 43.5674 35.6388 44.1016C34.1549 44.6358 33.0865 43.0926 33.0865 43.0926L31.8994 48.0191L58.0161 49.7998L54.8109 36.0292L51.0714 37.0382V36.9789Z" fill="#CD88DA"/>
</g>
<path d="M51.9618 47.3068L33.3834 46.2384C33.3834 46.2384 33.2646 46.2384 33.2646 46.179C33.2646 46.179 33.2646 46.1196 33.2646 46.0603L33.9176 36.0291C33.9176 36.0291 33.9176 35.9104 33.9769 35.9104C33.9769 35.9104 34.0363 35.9104 34.0956 35.9104L53.2083 37.4537C53.2083 37.4537 53.327 37.4537 53.327 37.513C53.327 37.513 53.327 37.5724 53.327 37.6317L52.1399 47.2474C52.1399 47.3661 52.0805 47.4255 51.9618 47.4255V47.3068ZM33.5021 45.8822L51.7838 46.9506L52.9115 37.6911L34.155 36.2072L33.5021 45.8822Z" fill="#101720"/>
<path d="M51.9621 47.1288L51.784 48.494L51.0717 54.5484C50.953 55.3793 50.4188 56.151 49.6472 56.5665L46.7387 58.0504C45.8484 58.4659 45.3142 59.3562 45.2548 60.3653L44.8987 66.9538L37.0637 67.3693L37.5979 60.3653C37.5979 59.5343 37.3011 58.7033 36.6482 58.1097L33.8584 55.6761C33.2055 55.1419 32.8494 54.3109 32.9087 53.4206L33.1462 49.7999L33.3836 46.0604L51.9621 47.1288Z" fill="black" fill-opacity="0.85"/>
<mask id="mask3_68_1021" style="mask-type:luminance" maskUnits="userSpaceOnUse" x="32" y="46" width="20" height="22">
<path d="M51.9621 47.1288L51.784 48.494L51.0717 54.5484C50.953 55.4387 50.4188 56.151 49.6472 56.5665L46.7387 58.0504C45.8484 58.4659 45.3142 59.3562 45.2548 60.3653L44.8987 66.9538L37.0637 67.3693L37.5979 60.3653C37.5979 59.5343 37.3011 58.7033 36.6482 58.1097L33.8584 55.6761C33.2055 55.1419 32.8494 54.3109 32.9087 53.4206L33.1462 49.7999L33.3836 46.0604L51.9621 47.1288Z" fill="white"/>
</mask>
<g mask="url(#mask3_68_1021)">
<path d="M43.2365 49.7405C47.4508 51.8773 47.0947 53.7767 45.6108 55.6168C44.1269 57.4568 42.9397 56.9226 42.5242 59.2375C42.1087 61.5524 40.4468 63.8079 40.4468 63.8079L44.3049 67.3099L47.6882 65.2918L53.6238 54.6077L54.2174 48.0192L43.2959 49.7405H43.2365Z" fill="#CD88DA"/>
</g>
<path d="M37.0041 67.4879H36.8854C36.8854 67.4879 36.8854 67.4286 36.8854 67.3692L37.4196 60.3652C37.4196 59.5342 37.1822 58.7626 36.5293 58.2877L33.7396 55.8541C33.0273 55.2606 32.6711 54.3702 32.7305 53.4799L33.2053 46.1197C33.2053 46.001 33.3241 45.9417 33.3834 45.9417L51.9619 47.0101C51.9619 47.0101 52.0806 47.0101 52.0806 47.0694C52.0806 47.0694 52.0806 47.1288 52.0806 47.1881L51.1903 54.667C51.0715 55.6167 50.478 56.3883 49.647 56.8038L46.7385 58.2877C45.9076 58.7032 45.3734 59.5342 45.3734 60.4246L45.0766 67.0131C45.0766 67.1318 45.0172 67.1911 44.8985 67.1911L37.0635 67.6066L37.0041 67.4879ZM33.5021 46.2384L33.0273 53.4205C33.0273 54.1922 33.3241 54.9638 33.9176 55.498L36.7074 57.9316C37.4196 58.5251 37.7758 59.4155 37.7164 60.3058L37.2416 67.1318L44.6611 66.7757L44.9579 60.3652C44.9579 59.3561 45.6108 58.4064 46.5605 57.9316L49.4689 56.4477C50.1812 56.0915 50.7154 55.3793 50.8341 54.6076L51.7245 47.3662L33.5021 46.2978V46.2384Z" fill="#101720"/>
<path d="M51.9617 47.1287L51.7836 48.4939L51.4868 50.8088L33.0864 49.7997L33.3239 46.0603L51.9617 47.1287Z" fill="#FFFFFE"/>
<path d="M51.4869 50.9869L33.0865 49.9184C33.0865 49.9184 32.9678 49.9185 32.9678 49.8591C32.9678 49.8591 32.9678 49.7997 32.9678 49.7404L33.2052 46.0009C33.2052 45.8822 33.2646 45.8229 33.3833 45.8229L51.9617 46.8913C51.9617 46.8913 52.0804 46.8913 52.0804 46.9506C52.0804 46.9506 52.0804 47.01 52.0804 47.0694L51.6056 50.7494C51.6056 50.8681 51.5462 50.9275 51.4275 50.9275L51.4869 50.9869ZM33.2646 49.6217L51.3088 50.6307L51.7243 47.2474L33.502 46.179L33.2646 49.5623V49.6217Z" fill="#101720"/>
<path d="M50.478 75.6791C50.478 75.6791 48.4599 69.4467 47.6289 67.5473C46.7979 65.6479 44.0675 65.826 44.0675 65.826C44.0675 65.826 45.0172 62.9769 40.981 62.5614C36.9448 62.1459 30.8311 63.5111 32.7899 65.7666C32.7899 65.7666 27.2698 67.9034 29.644 70.4557C29.644 70.4557 25.311 72.7706 28.3975 75.2636C28.3975 75.2636 26.2607 76.6288 27.7446 78.5875C29.2285 80.6056 31.306 83.0986 31.306 83.0986L50.478 75.6197V75.6791Z" fill="#FF7E6D"/>
<mask id="mask4_68_1021" style="mask-type:luminance" maskUnits="userSpaceOnUse" x="27" y="62" width="24" height="22">
<path d="M50.478 75.6791C50.478 75.6791 48.4599 69.4467 47.6289 67.5473C46.7979 65.6479 44.0675 65.826 44.0675 65.826C44.0675 65.826 45.0172 62.9769 40.981 62.5614C36.9448 62.1459 30.8311 63.5111 32.7899 65.7666C32.7899 65.7666 27.2698 67.9034 29.644 70.4557C29.644 70.4557 25.311 72.7113 28.3975 75.2636C28.3975 75.2636 26.2607 76.6288 27.7446 78.5875C29.2285 80.6056 31.306 83.0986 31.306 83.0986L50.478 75.6197V75.6791Z" fill="white"/>
</mask>
<g mask="url(#mask4_68_1021)">
<path d="M44.0674 63.6891C44.0674 64.5795 41.7526 64.8169 39.2596 64.8169C36.7666 64.8169 32.0775 64.1046 32.0775 64.1046L31.9588 65.9447C31.9588 65.9447 32.9678 65.4698 34.9266 65.7073C36.8853 65.9447 38.1912 66.7757 38.1912 66.7757C38.1912 66.7757 38.5473 66.8944 38.4286 67.1318C38.3099 67.3692 37.7163 67.9628 37.8944 68.9125C38.0725 69.8622 35.995 68.8531 33.6208 68.3189C31.2465 67.8441 28.8129 68.9125 28.8129 68.9125L29.2284 70.6338L31.2465 70.0403C31.2465 70.0403 34.155 69.506 35.6982 70.2183C37.2415 70.9306 37.657 71.4054 37.657 72.1177C37.657 72.83 36.4105 72.9487 34.7485 72.8893C33.0866 72.83 31.662 72.5926 29.6439 73.4829C27.6258 74.3733 27.0322 73.839 27.0322 73.839L27.6851 75.6791L30.3562 74.492C30.3562 74.492 32.493 73.6016 33.8582 73.839C35.2234 74.0765 35.5202 74.2545 35.5202 74.2545C35.5202 74.2545 35.8763 74.3733 36.0544 74.7887C36.0544 74.7887 37.835 74.7887 38.7847 74.0765C39.7344 73.3642 45.0765 71.999 46.2636 71.6429C47.3914 71.2867 47.2133 69.8622 44.0674 69.8622C40.9216 69.8622 38.1912 69.6841 38.0725 68.3189C38.0725 68.3189 38.0725 67.3099 38.7847 66.8944C39.497 66.4789 40.5061 66.1821 41.7526 66.0634C42.999 65.9447 44.8984 65.9447 44.8984 65.9447L44.1268 63.8079L44.0674 63.6891Z" fill="#CD88DA"/>
<path d="M36.1136 75.2636C35.5794 76.0946 32.6709 76.6288 31.1277 77.4598C29.6438 78.2908 32.1961 79.3592 34.3922 78.5875C36.5884 77.8159 36.1136 75.2636 36.1136 75.2636Z" fill="#CD88DA"/>
</g>
<path d="M31.3061 83.3361C31.3061 83.3361 31.1873 83.3361 31.1873 83.2768C31.1873 83.2768 29.1099 80.7245 27.626 78.7657C27.1511 78.1128 26.9731 77.5192 27.0918 76.8663C27.2105 76.0947 27.804 75.5011 28.1008 75.2637C27.3885 74.6108 27.0324 73.8985 27.1511 73.1862C27.2698 71.821 28.8724 70.7526 29.4067 70.3965C28.9912 69.8623 28.8131 69.2687 28.9318 68.7345C29.2879 67.1319 31.7215 66.0041 32.4932 65.7074C32.137 65.1732 32.1964 64.7577 32.3151 64.4609C33.0867 62.9176 37.6572 62.0866 40.9811 62.4428C42.465 62.6208 43.4741 63.0957 43.9489 63.8673C44.4238 64.5796 44.3644 65.3512 44.2457 65.7074C44.958 65.7074 47.0354 65.8261 47.7477 67.5474C48.5787 69.4468 50.5374 75.6198 50.5968 75.6792C50.5968 75.7385 50.5968 75.8573 50.5374 75.8573C50.5374 75.8573 50.5374 75.8573 50.4781 75.8573L31.3654 83.3361C31.3654 83.3361 31.3654 83.3361 31.3061 83.3361ZM39.3785 62.6802C36.47 62.6802 33.2054 63.3925 32.6119 64.5796C32.4338 64.9357 32.5525 65.2325 32.8493 65.648C32.8493 65.648 32.8493 65.7667 32.8493 65.8261C32.8493 65.8261 32.8493 65.9448 32.7306 65.9448C32.7306 65.9448 29.5254 67.1913 29.1099 68.8532C28.9912 69.3874 29.1099 69.8623 29.6441 70.3965C29.6441 70.3965 29.6441 70.5152 29.6441 70.5746C29.6441 70.5746 29.6441 70.6933 29.5254 70.6933C29.5254 70.6933 27.4479 71.821 27.2698 73.3049C27.2105 73.9579 27.5666 74.6108 28.2789 75.2637L28.3382 75.3824C28.3382 75.3824 28.3382 75.5011 28.2789 75.5011C28.2789 75.5011 27.3885 76.0947 27.2105 76.985C27.0918 77.5192 27.2698 78.0534 27.6853 78.5876C28.9912 80.309 30.7718 82.5051 31.128 83.0393L50.0032 75.6792C49.7065 74.6701 47.9851 69.4468 47.2135 67.7255C46.4419 66.0041 43.8302 66.1229 43.8302 66.1229C43.7708 66.1229 43.7115 66.1229 43.6521 66.0635C43.5928 66.0041 43.6521 65.9448 43.6521 65.8854C43.6521 65.8854 43.9489 64.9357 43.4147 64.1047C42.9399 63.3925 42.0495 62.977 40.6843 62.8583C40.2095 62.8583 39.6753 62.7989 39.1411 62.7989L39.3785 62.6802Z" fill="#101720"/>
<path d="M39.5563 70.5745C41.9305 70.8119 44.3047 70.9306 44.3047 70.9306C44.3047 70.9306 44.0673 74.2545 41.4557 74.7294C38.844 75.2042 37.4194 73.4829 37.4194 73.4829C37.4194 73.4829 37.9536 72.6519 37.4194 71.3461C37.4194 71.3461 38.844 71.9397 39.5563 70.5745Z" fill="black" fill-opacity="0.85"/>
<mask id="mask5_68_1021" style="mask-type:luminance" maskUnits="userSpaceOnUse" x="37" y="70" width="8" height="5">
<path d="M39.5563 70.5744C41.9305 70.8119 44.3047 70.9306 44.3047 70.9306C44.3047 70.9306 44.0673 74.2545 41.4557 74.67C38.844 75.1449 37.4194 73.4235 37.4194 73.4235C37.4194 73.4235 37.9536 72.5925 37.4194 71.2867C37.4194 71.2867 38.844 71.8803 39.5563 70.5151V70.5744Z" fill="white"/>
</mask>
<g mask="url(#mask5_68_1021)">
<path d="M38.2508 70.9306C42.0495 71.8803 40.8031 75.3823 40.8031 75.3823L46.1451 74.7294L44.958 69.2093L37.2417 69.6841L38.3101 70.8713L38.2508 70.9306Z" fill="#CD88DA"/>
</g>
<path d="M40.5058 74.9668C38.4283 74.9668 37.3006 73.6016 37.2412 73.5422C37.2412 73.4828 37.2412 73.4235 37.2412 73.3641C37.2412 73.3641 37.7161 72.5925 37.2412 71.4054C37.2412 71.346 37.2412 71.2867 37.2412 71.2273C37.2412 71.2273 37.3599 71.168 37.4193 71.2273C37.4193 71.2273 38.7251 71.7615 39.378 70.5744C39.378 70.515 39.4967 70.4557 39.5561 70.4557C41.9303 70.6931 44.2452 70.8118 44.3046 70.8118C44.3046 70.8118 44.4233 70.8118 44.4233 70.8712C44.4233 70.9305 44.4233 70.9305 44.4233 70.9899C44.4233 70.9899 44.1265 74.4325 41.3961 74.9074C41.0994 74.9074 40.7432 74.9668 40.5058 74.9668ZM37.5973 73.4235C37.8941 73.7796 39.2 74.9074 41.3961 74.5513C43.533 74.1951 44.0078 71.8209 44.1265 71.1086C43.533 71.1086 41.6336 70.9305 39.6748 70.7525C39.0813 71.7022 38.1909 71.7022 37.7161 71.5835C38.0128 72.5331 37.7161 73.1861 37.6567 73.4235H37.5973Z" fill="#101720"/>
<path d="M45.3734 71.168C45.0767 71.168 44.7205 71.168 44.305 71.168C44.1863 71.168 44.127 71.1086 44.127 70.9899C44.127 70.8712 44.1863 70.8118 44.305 70.8118C45.6109 70.8118 46.1451 70.8118 46.1451 70.8118C46.2638 70.8118 46.3231 70.8712 46.3231 70.9899C46.3231 71.1086 46.2638 71.168 46.1451 71.168C46.1451 71.168 45.9076 71.168 45.3734 71.168Z" fill="#101720"/>
<path d="M39.5566 70.7525C38.6069 70.6337 37.8947 69.8028 37.7166 68.7344C37.5979 67.9034 37.8947 66.835 39.0818 66.3601C41.1592 65.5291 43.949 65.7072 44.0677 65.7072C44.1864 65.7072 44.2458 65.8259 44.2458 65.8853C44.2458 66.004 44.127 66.0633 44.0677 66.0633C44.0677 66.0633 41.1592 65.8853 39.2005 66.7162C38.2508 67.1317 37.954 68.0221 38.0727 68.7344C38.1914 69.4466 38.6663 70.2776 39.5566 70.3963C39.6753 70.3963 39.7347 70.515 39.7347 70.5744C39.7347 70.6337 39.6753 70.7525 39.5566 70.7525Z" fill="#101720"/>
<path d="M38.4881 67.1318H38.3694C37.5977 66.3008 34.6893 65.4698 32.8492 66.004C32.7305 66.004 32.6712 66.004 32.6118 65.8853C32.6118 65.7666 32.6118 65.7072 32.7305 65.6479C34.7486 65.0543 37.7758 65.9447 38.6661 66.835C38.7255 66.8944 38.7255 67.0131 38.6661 67.0724C38.6661 67.0724 38.6068 67.0724 38.5474 67.0724L38.4881 67.1318Z" fill="#101720"/>
<path d="M37.3602 71.5242C37.3602 71.5242 37.2415 71.5242 37.2415 71.4648C35.9356 69.8622 32.493 69.5061 29.7032 70.6932C29.5845 70.6932 29.5252 70.6932 29.4658 70.5745C29.4658 70.4558 29.4658 70.3964 29.5845 70.3371C32.5523 69.0906 36.1137 69.5061 37.5383 71.2274C37.5976 71.2868 37.5383 71.4055 37.5383 71.4648C37.5383 71.4648 37.4789 71.4648 37.4195 71.4648L37.3602 71.5242Z" fill="#101720"/>
<path d="M33.8583 77.6378C33.7989 77.6378 33.7396 77.6378 33.6802 77.5191C33.6802 77.4004 33.6802 77.341 33.7989 77.2817C34.9267 76.9256 35.7577 76.2133 35.9357 75.501C35.9951 75.0855 35.9357 74.7294 35.5796 74.4326C34.5112 73.4829 31.1873 73.9577 28.5162 75.4416C28.4569 75.4416 28.3382 75.4417 28.2788 75.3823C28.2788 75.3229 28.2788 75.2042 28.3382 75.1449C31.2466 73.5423 34.6299 73.1268 35.817 74.1952C36.2325 74.6107 36.4106 75.0855 36.2919 75.5604C36.1138 76.3914 35.1641 77.2223 33.9176 77.6378H33.8583Z" fill="#101720"/>
<path d="M35.639 74.492C35.5203 74.492 35.4609 74.4326 35.4609 74.3139C35.4609 74.1952 35.4609 74.1358 35.639 74.1358C35.639 74.1358 36.9448 73.9578 37.2416 73.3642C37.2416 73.3049 37.4197 73.2455 37.479 73.3049C37.5384 73.3049 37.5978 73.4829 37.5384 73.5423C37.1229 74.3733 35.6984 74.492 35.639 74.5513V74.492Z" fill="#101720"/>
<path d="M51.7836 48.3752L33.2645 47.3068C33.1458 47.3068 33.0864 47.1881 33.0864 47.1288C33.0864 47.01 33.2051 46.9507 33.2645 46.9507L51.7836 48.0191C51.9023 48.0191 51.9617 48.1378 51.9617 48.1972C51.9617 48.3159 51.9023 48.3752 51.7836 48.3752Z" fill="#101720"/>
<path d="M51.6652 49.6811L33.2054 48.6127C33.0867 48.6127 33.0273 48.494 33.0273 48.4347C33.0273 48.3159 33.1461 48.2566 33.2054 48.2566L51.6652 49.325C51.7839 49.325 51.8432 49.4437 51.8432 49.5031C51.8432 49.6218 51.7839 49.6811 51.6652 49.6811Z" fill="#101720"/>
<path d="M48.5785 47.1288C48.4597 47.1288 48.4004 47.0101 48.4004 46.9507L49.0533 39.2938C49.0533 39.1751 49.172 39.1157 49.2314 39.1157C49.3501 39.1157 49.4094 39.2344 49.4094 39.2938L48.7565 46.9507C48.7565 47.0694 48.6972 47.1288 48.5785 47.1288Z" fill="#101720"/>
<path d="M44.661 46.8913C44.5423 46.8913 44.4829 46.7725 44.4829 46.7132L45.0765 39.0562C45.0765 38.9375 45.1952 38.8782 45.2545 38.8782C45.3732 38.8782 45.4326 38.9969 45.4326 39.0562L44.839 46.7132C44.839 46.8319 44.7797 46.8913 44.661 46.8913Z" fill="#101720"/>
<path d="M41.0999 46.6538C40.9812 46.6538 40.9219 46.5945 40.9219 46.4758L41.1593 41.1931C41.1593 41.0744 41.278 41.015 41.3374 41.015C41.4561 41.015 41.5154 41.0744 41.5154 41.1931L41.278 46.4758C41.278 46.5945 41.2187 46.6538 41.0999 46.6538Z" fill="#101720"/>
<path d="M37.1825 46.4759C37.0638 46.4759 37.0044 46.4165 37.0044 46.2978L37.3605 39.2938C37.3605 39.1751 37.4792 39.1157 37.5386 39.1157C37.6573 39.1157 37.7167 39.1751 37.7167 39.2938L37.3605 46.2978C37.3605 46.4165 37.3012 46.4759 37.1825 46.4759Z" fill="#101720"/>
<path d="M135.06 113.311C135.06 113.311 135.001 113.311 134.942 113.311C134.942 113.311 132.805 112.064 129.718 110.64C129.6 110.64 129.6 110.521 129.6 110.402C129.6 110.284 129.718 110.284 129.837 110.284C132.924 111.708 135.06 112.955 135.12 112.955C135.179 112.955 135.238 113.133 135.179 113.192C135.179 113.192 135.06 113.251 135.001 113.251L135.06 113.311Z" fill="#101720"/>
<path d="M153.995 102.33C153.995 102.33 153.995 102.33 153.935 102.33L136.128 94.495C136.01 94.495 136.01 94.3763 136.01 94.2576C136.01 94.1389 136.128 94.1389 136.247 94.1389L154.054 101.974C154.173 101.974 154.173 102.093 154.173 102.211C154.173 102.271 154.054 102.33 153.995 102.33Z" fill="#101720"/>
<path d="M119.924 89.9839C119.924 89.9839 119.865 89.9839 119.806 89.9839C117.728 88.6187 117.194 85.176 118.5 81.7927C118.5 81.674 118.619 81.674 118.737 81.674C118.856 81.674 118.856 81.7927 118.856 81.9114C117.61 85.1167 118.084 88.3813 120.043 89.6277C120.103 89.6277 120.162 89.8058 120.043 89.8652L119.924 89.9245V89.9839Z" fill="#101720"/>
<path d="M76.0602 117.347L74.7544 119.128L74.9325 101.499C75.2886 106.485 75.6447 112.361 76.0602 117.347Z" fill="#101720"/>
<path d="M74.7545 119.306C74.6951 119.306 74.6357 119.187 74.6357 119.128L74.8138 101.499C74.8138 101.38 74.8732 101.321 74.9919 101.321C75.1106 101.321 75.17 101.38 75.17 101.499C75.4667 105.713 75.8822 111.946 76.2977 117.347V117.466L74.9919 119.246C74.9919 119.246 74.9325 119.306 74.8732 119.306H74.7545ZM75.0512 106.069L74.9325 118.594L75.8822 117.288C75.5854 113.608 75.2887 109.571 75.0512 106.069Z" fill="#101720"/>
<path d="M74.9323 101.677C74.8136 101.677 74.7543 101.677 74.7543 101.499C74.3388 95.2666 74.042 90.2807 74.042 90.2213C74.042 90.1026 74.1014 90.0433 74.2201 90.0433C74.3388 90.0433 74.3981 90.1026 74.3981 90.2213C74.3981 90.2213 74.6949 95.2073 75.1104 101.44C75.1104 101.558 75.051 101.618 74.9323 101.618V101.677Z" fill="#101720"/>
<path d="M99.2093 56.0322C105.857 59.1781 111.733 60.7214 112.327 59.5343C112.327 59.5343 112.327 59.4749 112.327 59.4155C112.624 58.1097 107.757 54.6671 101.287 51.5805C95.4105 48.7908 90.1278 47.2475 88.5846 47.7817C88.3471 47.8411 88.2284 47.9598 88.1691 48.0785C87.5755 49.325 92.5614 52.827 99.2093 56.0322Z" fill="#101720"/>
<path d="M111.14 60.1277C108.944 60.1277 104.195 58.5845 99.1501 56.2102C93.2145 53.4205 87.3383 49.6217 88.0505 48.0784C88.1692 47.9004 88.288 47.7817 88.5254 47.7223C90.1873 47.1881 95.47 48.7314 101.346 51.5211C106.985 54.1921 112.861 57.9316 112.505 59.5342C112.505 59.5342 112.505 59.5935 112.505 59.6529C112.387 59.831 112.268 60.009 112.03 60.0684C111.793 60.1277 111.556 60.1871 111.199 60.1871L111.14 60.1277ZM88.3473 48.1971C87.9912 49.2062 92.3835 52.5895 99.3282 55.8541C105.026 58.5251 110.428 60.1871 111.912 59.6529C112.03 59.6529 112.149 59.5342 112.208 59.4155C112.208 59.4155 112.208 59.4155 112.208 59.2967C112.446 58.2283 108.054 54.9044 101.228 51.6992C95.47 48.9688 90.1873 47.3662 88.6441 47.9004C88.5254 47.9004 88.4067 48.0191 88.3473 48.1378V48.1971Z" fill="#101720"/>
<path d="M91.0775 53.7174L96.3602 63.5705L98.497 67.5473C98.9125 69.2687 100.159 70.7526 101.702 71.7616C103.245 72.7707 105.026 73.2455 106.807 73.483C108.231 73.661 109.775 73.7204 111.199 73.3642C112.624 73.0081 113.989 72.2365 114.82 71.0494C115.532 70.0403 115.948 68.7938 116.007 67.6067C116.066 66.7164 116.007 65.7667 115.71 64.9357C115.117 62.9176 113.752 61.0775 111.911 60.0685C111.733 58.1691 111.199 56.2697 110.071 54.7264C109.062 53.3019 107.519 52.2335 105.857 51.9367C105.857 50.3934 105.026 48.9095 104.017 47.7224C102.889 46.5353 101.465 45.6449 100.04 44.8733C99.5654 44.6359 99.0905 44.3984 98.6157 44.3391C98.0221 44.2204 97.4879 44.3391 96.8944 44.4578C96.1821 44.5765 95.4698 44.7546 94.7575 45.0514C93.2143 45.7636 92.0272 47.1288 91.4336 48.7314C90.84 50.3341 90.84 52.0554 91.1962 53.7174H91.0775Z" fill="#FF9C10"/>
<path d="M90.9586 53.8361C91.9083 55.5574 92.7986 57.2787 93.689 59C94.52 60.6027 95.4103 62.2053 96.2413 63.7485C96.7755 64.7576 97.3691 65.826 97.9033 66.8351C98.0813 67.1912 98.3188 67.5473 98.4375 67.9628C98.7343 68.9719 99.3278 69.9216 100.04 70.6932C101.702 72.4145 104.076 73.3049 106.391 73.6017C108.706 73.8984 111.377 73.8984 113.455 72.5333C117.491 69.8622 116.66 63.6298 113.277 60.7807C112.861 60.4246 112.446 60.1278 111.971 59.8904V60.0091C111.852 58.0503 111.318 56.151 110.131 54.5483C109.062 53.1238 107.578 52.0554 105.857 51.6992L105.976 51.8773C105.798 48.3159 102.711 46.0011 99.8027 44.5765C99.031 44.2204 98.2594 44.0423 97.4284 44.161C96.5974 44.2797 95.5884 44.4578 94.7574 44.8139C93.3328 45.4075 92.2051 46.5946 91.5522 47.9598C90.7212 49.7405 90.6025 51.818 91.018 53.7174C91.018 53.9548 91.3741 53.8361 91.3741 53.658C90.7212 50.6308 91.4928 47.0101 94.4606 45.3481C95.1729 44.9326 96.0039 44.7546 96.7755 44.5765C97.6658 44.3984 98.4968 44.3391 99.3872 44.6952C100.812 45.2888 102.236 46.1791 103.364 47.2475C104.67 48.4347 105.62 50.0373 105.738 51.8773C105.738 51.9367 105.738 51.996 105.857 52.0554C108.587 52.5896 110.487 54.8451 111.318 57.3974C111.555 58.0504 111.674 58.7033 111.793 59.4155C111.793 59.5936 111.793 60.0091 111.911 60.1278C111.971 60.1872 112.149 60.2465 112.267 60.3059C112.386 60.3652 112.564 60.4839 112.683 60.6027C113.751 61.3149 114.523 62.324 115.117 63.4518C116.363 65.8854 116.422 69.2093 114.464 71.3461C112.505 73.4829 109.3 73.661 106.569 73.2455C103.839 72.83 101.168 71.7616 99.6246 69.3874C99.2685 68.8532 99.031 68.2596 98.7936 67.6067C98.7936 67.488 98.6749 67.3693 98.6155 67.1912L97.6658 65.4699C96.7755 63.8079 95.8852 62.1459 95.0542 60.484C93.8671 58.2284 92.6206 55.9729 91.4334 53.7174V53.5986C91.2554 53.4206 90.9586 53.5986 91.0773 53.7767L90.9586 53.8361Z" fill="#101720"/>
<path d="M96.3599 63.6298L98.4967 67.6066C98.9122 69.3279 100.159 70.8119 101.702 71.8209C103.245 72.83 105.026 73.3048 106.807 73.5422C108.231 73.7203 109.774 73.7797 111.199 73.4235C112.623 73.0674 113.989 72.2958 114.82 71.1086C115.532 70.0996 115.947 68.8531 116.007 67.666C116.066 66.7756 116.007 65.8259 115.71 64.9949C115.71 64.9949 112.802 68.7344 109.834 68.7344C106.807 68.7344 103.72 64.4607 103.008 60.7807L102.533 59.7716L98.4373 60.5432L96.4786 63.7485L96.3599 63.6298Z" fill="#101720"/>
<path d="M108.706 73.7797C108.113 73.7797 107.4 73.7797 106.688 73.661C104.611 73.3642 102.949 72.83 101.524 71.9396C99.8623 70.8712 98.6751 69.328 98.2597 67.666L96.0635 63.5704L96.1822 63.4517L98.2003 60.2465L102.533 59.4749L103.127 60.662C103.839 64.2827 106.866 68.497 109.715 68.497C112.624 68.497 115.473 64.8763 115.473 64.8169L115.651 64.5795L115.77 64.8763C116.007 65.7666 116.126 66.7163 116.066 67.6066C116.007 68.9718 115.532 70.2183 114.82 71.168C113.989 72.2958 112.624 73.1268 111.081 73.5423C110.309 73.7203 109.537 73.839 108.647 73.839L108.706 73.7797ZM96.5977 63.6298L98.6751 67.5473C99.0313 69.1499 100.218 70.6338 101.762 71.6429C103.127 72.4738 104.729 73.0674 106.807 73.3048C108.469 73.5423 109.893 73.4829 111.14 73.1861C112.624 72.83 113.93 71.999 114.701 70.9306C115.354 70.0402 115.77 68.8531 115.829 67.5473C115.829 66.7757 115.829 66.004 115.651 65.2324C114.939 66.1227 112.446 68.7344 109.834 68.7938C106.748 68.7938 103.602 64.5795 102.889 60.7213L102.474 59.831L98.5564 60.5433L96.657 63.5704L96.5977 63.6298Z" fill="#101720"/>
<path d="M103.839 61.671C103.661 61.4929 103.542 61.3149 103.542 61.3149L103.661 61.1962C103.661 61.1962 103.78 61.3149 103.958 61.5523L103.839 61.671Z" fill="#5C2F00"/>
<path d="M98.8531 75.501C97.7847 75.7385 96.7756 75.6198 96.1227 75.0855C94.2826 73.3642 95.4104 70.99 95.4104 70.99L96.5975 65.7666L102.118 62.9769L102.949 62.5614L103.72 70.5151C103.602 73.0674 101.049 75.0262 98.8531 75.5604V75.501Z" fill="#FF7E6D"/>
<path d="M98.8531 75.5011C97.7847 75.7385 96.7756 75.6198 96.1227 75.0856C94.2826 73.3643 95.4104 70.99 95.4104 70.99L96.5975 65.7667L102.118 62.9769L102.652 63.5111C102.652 63.5111 100.752 66.657 98.7344 68.5564C97.1911 70.0403 98.0221 73.5423 98.7937 75.5011H98.8531Z" fill="#CD88DA"/>
<path d="M103.245 64.995C103.245 64.995 99.7434 67.8441 96.3008 67.4286L96.6569 65.7666L103.008 63.0363L103.186 64.995H103.245Z" fill="#101720"/>
<path d="M96.9538 67.666C96.7164 67.666 96.479 67.666 96.2415 67.666H96.0635L96.5383 65.7073L103.186 62.8582L103.424 65.1137H103.364C103.246 65.2918 100.218 67.666 97.0132 67.666H96.9538ZM96.479 67.3099C99.5061 67.5473 102.533 65.3511 103.068 64.9356L102.889 63.2736L96.8351 65.8853L96.5383 67.3099H96.479Z" fill="#101720"/>
<path d="M97.8443 75.7978C97.132 75.7978 96.4791 75.6197 96.0636 75.2042C94.1048 73.4235 95.292 70.9306 95.3513 70.8712L96.5384 65.7072C96.5384 65.7072 96.5384 65.5885 96.6571 65.5885L103.008 62.3833C103.008 62.3833 103.127 62.3833 103.186 62.3833C103.186 62.3833 103.246 62.4427 103.305 62.502L104.077 70.4557C103.958 73.0674 101.465 75.1449 99.0907 75.6791C98.7346 75.7384 98.3191 75.7978 98.0223 75.7978H97.8443ZM96.8352 65.8853L95.6481 71.0493C95.6481 71.168 94.5203 73.3642 96.301 74.9668C96.8352 75.4417 97.7256 75.6197 98.794 75.3823C101.049 74.8481 103.424 72.8893 103.542 70.5151L102.83 62.8582L96.8352 65.9447V65.8853Z" fill="#101720"/>
<path d="M90.1277 62.324C90.187 62.9769 90.3651 63.5111 90.4838 63.9859C91.7303 67.5473 95.2917 67.9034 99.1498 66.2415C101.287 65.2918 102.889 63.6298 103.898 61.6117C104.492 62.2646 105.916 63.4517 106.925 61.2555C107.994 58.8219 106.688 56.4477 105.085 57.5755C105.085 57.5755 104.967 57.6348 104.907 57.6942C104.551 58.169 104.195 58.7032 103.898 59.2374C103.839 59.4155 103.78 59.5342 103.661 59.6529C103.423 59.8904 103.127 59.9497 102.83 59.831C102.949 59.4155 103.067 59 103.127 58.6439C103.245 58.1097 103.423 57.5161 103.483 56.9819C102.474 56.6851 101.583 56.1509 100.752 55.4386C99.7434 54.5483 98.9124 53.4205 98.2001 52.2334H98.0814C94.6981 52.3521 94.2826 50.2747 94.2826 50.2747L93.5703 51.2244C92.2052 53.005 91.1961 55.0232 90.6025 57.16C90.187 58.7032 89.9496 60.4839 90.1277 62.324Z" fill="#FF7E6D"/>
<path d="M90.5435 63.9859C91.7899 67.5473 95.3513 67.9034 99.2095 66.2414C101.346 65.2917 102.949 63.6298 103.958 61.6117C104.552 62.2646 105.976 63.4517 106.985 61.2555C108.054 58.8219 106.748 56.4477 105.145 57.5755C105.145 57.5755 105.026 57.6348 104.967 57.6942C104.611 58.169 104.255 58.7032 103.958 59.2374C103.899 59.4155 103.839 59.5342 103.721 59.6529C103.483 59.8903 103.186 59.9497 102.89 59.831C103.008 59.4155 103.127 59 103.186 58.6439C103.305 58.1097 103.483 57.5161 103.542 56.9819C102.533 56.6851 101.643 56.1509 100.812 55.4386C99.803 54.5483 98.972 53.4205 98.2598 52.2334H98.141C99.0314 55.1418 102.949 57.4567 100.456 61.671C97.0133 67.4286 92.799 64.8763 90.6028 63.9859H90.5435Z" fill="#CD88DA"/>
<path d="M99.2688 70.515C99.5062 69.6841 99.9217 68.9718 100.515 68.3782C100.634 68.2595 100.812 68.2595 100.871 68.3782C101.109 68.3782 101.287 68.6156 101.168 68.8531C100.931 69.3279 100.634 69.8028 100.397 70.2776C100.218 70.5744 100.04 70.8712 99.6249 70.9305C99.3875 70.9305 99.1501 70.8118 99.2094 70.515H99.2688Z" fill="black"/>
<path d="M96.894 58.169C96.894 58.169 97.7844 57.1599 99.2683 57.6941C100.752 58.2283 100.693 59.2374 100.693 59.2374C100.693 59.2374 99.7431 60.3058 98.4373 59.7716C97.1315 59.2967 96.894 58.1096 96.894 58.1096V58.169Z" fill="#FFFFFE"/>
<mask id="mask6_68_1021" style="mask-type:luminance" maskUnits="userSpaceOnUse" x="96" y="57" width="5" height="3">
<path d="M96.894 58.169C96.894 58.169 97.7844 57.1599 99.2683 57.6941C100.752 58.2283 100.693 59.2374 100.693 59.2374C100.693 59.2374 99.7431 60.3058 98.4373 59.7716C97.1315 59.2967 96.894 58.1096 96.894 58.1096V58.169Z" fill="white"/>
</mask>
<g mask="url(#mask6_68_1021)">
<path d="M98.1409 59.831C98.6982 59.831 99.1499 59.3792 99.1499 58.8219C99.1499 58.2646 98.6982 57.8129 98.1409 57.8129C97.5836 57.8129 97.1318 58.2646 97.1318 58.8219C97.1318 59.3792 97.5836 59.831 98.1409 59.831Z" fill="#101720"/>
</g>
<path d="M93.808 61.1368C93.808 61.1368 93.808 61.1368 93.7486 61.1368C93.3925 60.9587 93.0957 60.662 93.0957 60.2465C93.0957 59.831 93.2144 59.4155 93.5112 59.2374C93.9267 58.9406 94.7577 58.1096 95.0545 56.9225C95.0545 56.8038 95.1732 56.7444 95.2919 56.8038C95.4106 56.8038 95.4699 56.9225 95.4106 57.0412C95.0545 58.3471 94.2235 59.2374 93.7486 59.5342C93.5706 59.6529 93.4518 59.9497 93.4518 60.2465C93.4518 60.4245 93.5705 60.7213 93.9267 60.84C94.0454 60.84 94.0454 60.9587 94.0454 61.0774C94.0454 61.1368 93.9267 61.1962 93.8673 61.1962L93.808 61.1368Z" fill="#101720"/>
<path d="M96.5381 62.9176C96.2413 62.9176 95.9445 62.7989 95.7071 62.5615C95.6478 62.5021 95.6478 62.3834 95.7071 62.3241C95.7665 62.2647 95.8852 62.2647 95.9445 62.3241C96.182 62.5615 96.4788 62.6208 96.7162 62.5021C97.013 62.3834 97.191 62.0866 97.3097 61.7305C97.3097 61.6118 97.4284 61.5524 97.4878 61.6118C97.6065 61.6118 97.6659 61.7305 97.6065 61.7898C97.5472 62.3241 97.191 62.7395 96.7755 62.8583C96.6568 62.8583 96.5381 62.8583 96.4194 62.8583L96.5381 62.9176Z" fill="#101720"/>
<path d="M100.93 57.8723C100.871 57.8723 100.812 57.8723 100.752 57.7536C100.574 57.3381 100.099 56.9226 99.4466 56.6852C98.7343 56.4477 98.0814 56.5071 97.5472 56.8039C97.4878 56.8039 97.3691 56.8039 97.3097 56.7445C97.2504 56.6852 97.3097 56.5665 97.3691 56.5071C97.9627 56.151 98.7343 56.0916 99.5653 56.3884C100.278 56.6258 100.871 57.1007 101.049 57.6349C101.049 57.7536 101.049 57.8129 100.93 57.8723C100.93 57.8723 100.93 57.8723 100.871 57.8723H100.93Z" fill="#101720"/>
<path d="M95.2917 55.9135C95.2324 55.9135 95.173 55.9135 95.1137 55.8542C95.1137 55.8542 94.342 54.6077 93.1549 55.0232C93.0362 55.0232 92.9768 55.0232 92.9175 54.9045C92.9175 54.7858 92.9175 54.7264 93.0362 54.667C94.4607 54.1328 95.4104 55.6167 95.4104 55.6167C95.4104 55.6761 95.4104 55.7948 95.4104 55.8542C95.4104 55.8542 95.3511 55.8542 95.2917 55.8542V55.9135Z" fill="#101720"/>
<path d="M99.209 57.6942C99.209 57.6942 99.9213 57.9316 100.337 58.4658C100.752 59.0001 100.812 59.4155 100.99 59.5343L100.693 59.7123C100.693 59.7123 100.159 58.1691 99.209 57.6942Z" fill="#101720"/>
<path d="M94.8759 57.3973C94.8759 57.3973 94.7571 56.2696 93.5107 55.9134C92.2642 55.5573 91.73 56.2696 91.73 56.2696C91.73 56.2696 91.8487 57.4567 92.9765 57.8128C94.1042 58.169 94.8759 57.4567 94.8759 57.4567V57.3973Z" fill="#FFFFFE"/>
<mask id="mask7_68_1021" style="mask-type:luminance" maskUnits="userSpaceOnUse" x="91" y="55" width="4" height="3">
<path d="M94.8759 57.3973C94.8759 57.3973 94.7571 56.2696 93.5107 55.9134C92.2642 55.5573 91.73 56.2696 91.73 56.2696C91.73 56.2696 91.8487 57.4567 92.9765 57.8128C94.1042 58.169 94.8759 57.4567 94.8759 57.4567V57.3973Z" fill="white"/>
</mask>
<g mask="url(#mask7_68_1021)">
<path d="M93.2739 57.813C93.7328 57.813 94.1048 57.4409 94.1048 56.982C94.1048 56.5231 93.7328 56.151 93.2739 56.151C92.8149 56.151 92.4429 56.5231 92.4429 56.982C92.4429 57.4409 92.8149 57.813 93.2739 57.813Z" fill="#101720"/>
</g>
<path d="M93.4518 55.9135C93.4518 55.9135 92.8582 55.7354 92.324 55.9135C91.7898 56.0916 91.493 56.329 91.3149 56.329L91.4337 56.5664C91.4337 56.5664 92.5614 55.7948 93.4518 55.9135Z" fill="#101720"/>
<path d="M95.1138 67.3693C94.2828 67.3693 93.5705 67.2506 92.9176 66.9538C91.7305 66.4196 90.8401 65.4699 90.3653 64.0453C90.1872 63.5111 90.0685 62.9769 90.0091 62.3834C89.8311 60.7807 90.0091 59.0001 90.484 57.16C91.0776 55.0232 92.0866 53.0051 93.5111 51.1651L94.2234 50.2154C94.2234 50.2154 94.3421 50.156 94.4015 50.156C94.4608 50.156 94.5202 50.2154 94.5202 50.2747C94.5202 50.3341 94.9951 52.2335 98.1409 52.1148H98.2596C98.319 52.1148 98.3784 52.1148 98.4377 52.1741C99.2093 53.4799 100.04 54.5484 100.931 55.32C101.762 56.0323 102.652 56.5665 103.602 56.8039C103.661 56.8039 103.72 56.9226 103.72 56.982C103.72 57.5755 103.483 58.1691 103.364 58.7033C103.305 58.9407 103.246 59.1781 103.186 59.3562L103.067 59.7123C103.246 59.7123 103.424 59.7123 103.542 59.5343C103.661 59.4156 103.72 59.2968 103.78 59.1188C104.077 58.5252 104.373 57.991 104.789 57.5162C104.908 57.4568 104.908 57.3974 104.967 57.3381C105.56 56.9226 106.213 56.9226 106.688 57.3381C107.46 57.991 107.816 59.5343 107.044 61.2556C106.688 62.0866 106.213 62.5614 105.62 62.6208C104.967 62.7395 104.314 62.324 103.898 61.8492C102.83 63.9266 101.168 65.4699 99.2093 66.3602C97.7254 67.0131 96.3009 67.3099 95.1138 67.3099V67.3693ZM90.3059 62.2647C90.3653 62.8582 90.484 63.3924 90.6621 63.9266C91.1369 65.2325 91.9085 66.1228 93.0363 66.657C94.5796 67.3099 96.7164 67.1319 99.0906 66.1228C101.049 65.2325 102.652 63.6892 103.72 61.5524C103.72 61.5524 103.78 61.493 103.839 61.4337C103.839 61.4337 103.958 61.4337 104.017 61.4337C104.314 61.7898 104.967 62.3834 105.62 62.2647C106.035 62.2053 106.451 61.7898 106.748 61.0775C107.4 59.5936 107.163 58.1691 106.51 57.5755C106.154 57.2787 105.679 57.2787 105.204 57.5755C105.204 57.5755 105.086 57.6349 105.026 57.6942C104.67 58.1097 104.373 58.6439 104.077 59.1781C104.017 59.3562 103.898 59.5343 103.78 59.653C103.542 59.9498 103.067 60.0091 102.711 59.8904C102.652 59.8904 102.593 59.7717 102.593 59.653L102.711 59.1188C102.711 58.8814 102.83 58.6439 102.889 58.4659C103.008 57.9317 103.127 57.4568 103.186 56.982C102.296 56.6852 101.346 56.151 100.575 55.4387C99.6842 54.6671 98.8532 53.5987 98.0222 52.2928C95.3512 52.4115 94.4609 51.1057 94.1641 50.5121L93.6299 51.2244C92.2647 53.0051 91.2556 55.0232 90.6621 57.1007C90.1872 58.8814 90.0091 60.6027 90.2466 62.1459L90.3059 62.2647Z" fill="#101720"/>
<path d="M104.729 59.5341H104.67C104.611 59.5341 104.551 59.356 104.611 59.2967C104.611 59.2967 105.204 58.347 105.857 58.2283C106.154 58.2283 106.391 58.2283 106.629 58.4657C106.688 58.5251 106.688 58.6438 106.629 58.7031C106.569 58.7625 106.451 58.7625 106.391 58.7031C106.272 58.5844 106.094 58.5251 105.916 58.5251C105.501 58.5844 105.026 59.178 104.907 59.4154C104.907 59.4154 104.789 59.4748 104.729 59.4748V59.5341Z" fill="#101720"/>
<path d="M106.273 59.6528C106.154 59.6528 106.095 59.5934 106.095 59.4747C106.095 58.9999 105.679 58.525 105.679 58.525C105.62 58.4657 105.679 58.347 105.679 58.2876C105.739 58.2283 105.857 58.2876 105.917 58.2876C105.917 58.2876 106.391 58.8218 106.451 59.4747C106.451 59.5934 106.391 59.6528 106.273 59.6528Z" fill="#101720"/>
<path d="M94.2831 50.4528C94.2238 50.4528 94.1644 50.4528 94.1051 50.3341C93.3334 48.8502 93.7489 47.7224 93.7489 47.663C93.7489 47.5443 93.8676 47.5443 93.9863 47.5443C94.1051 47.5443 94.1051 47.663 94.1051 47.7817C94.1051 47.7817 93.7489 48.8502 94.4018 50.156C94.4018 50.2153 94.4018 50.3341 94.3425 50.3934C94.3425 50.3934 94.3425 50.3934 94.2831 50.3934V50.4528Z" fill="#101720"/>
<path d="M88.5845 47.7817C90.1277 47.2475 95.4104 48.8501 101.287 51.5805C104.789 53.2425 107.816 55.0231 109.834 56.507C111.496 57.7535 112.446 58.8219 112.327 59.4155C113.099 57.0413 110.902 53.7173 110.902 53.7173C110.902 53.7173 111.259 51.6992 111.259 48.2566C111.259 47.3069 110.428 46.1791 109.24 45.17C109.003 44.992 108.766 44.7545 108.469 44.5765C105.382 42.2616 100.693 40.3622 99.3873 40.3622C97.3692 40.4215 93.511 45.4075 93.511 45.4075C91.1368 46.0604 89.3561 47.1881 88.5845 47.7223V47.7817Z" fill="#CD88DA"/>
<path d="M112.327 59.5935C112.208 59.5935 112.208 59.4748 112.208 59.3561C112.208 59.1187 112.09 58.4064 109.775 56.6257C107.697 55.0825 104.611 53.3018 101.227 51.6992C95.4698 48.9688 90.1872 47.3662 88.6439 47.9004C88.5845 47.9004 88.5252 47.9004 88.4658 47.7817C88.4658 47.7223 88.4658 47.6036 88.5252 47.6036C89.3562 47.01 91.1369 45.9416 93.4517 45.2887C93.8672 44.7545 97.4286 40.3028 99.4467 40.1841C100.753 40.1841 105.501 42.0835 108.647 44.3984C108.944 44.5764 109.181 44.8139 109.419 44.9919C110.784 46.1791 111.496 47.2475 111.496 48.1972C111.496 51.2243 111.259 53.2424 111.14 53.5986C111.437 54.0734 113.277 57.1006 112.564 59.4155C112.564 59.4748 112.446 59.5342 112.386 59.5342L112.327 59.5935ZM89.3562 47.4849C91.5523 47.4849 96.2415 48.9688 101.346 51.4024C104.729 53.005 107.875 54.7857 109.953 56.3289C111.14 57.2193 111.971 57.9909 112.327 58.5845C112.505 56.3883 110.784 53.7766 110.784 53.7766C110.784 53.7766 110.784 53.7173 110.784 53.6579C110.784 53.6579 111.14 51.6398 111.14 48.2565C111.14 47.4255 110.428 46.4165 109.181 45.2887C108.944 45.1106 108.706 44.8732 108.469 44.6952C105.442 42.3803 100.871 40.5402 99.5654 40.5402C97.666 40.5996 93.8672 45.4668 93.8079 45.5261C93.8079 45.5261 93.8079 45.5261 93.6892 45.5855C91.8491 46.0603 90.4246 46.832 89.4749 47.4255L89.3562 47.4849Z" fill="#101720"/>
<path d="M112.327 58.8219C112.624 56.5663 110.784 53.8359 110.784 53.8359V53.7172C110.784 53.7172 111.14 51.6991 111.14 48.3158C111.14 47.4848 110.547 46.5945 109.419 45.5854C109.656 47.7223 108.885 51.343 108.825 51.8178C109.003 52.174 110.309 54.6076 110.072 56.507C111.318 57.4567 112.149 58.2283 112.446 58.8219H112.327Z" fill="#101720"/>
<path d="M112.327 58.9999C112.267 58.9999 112.208 58.9999 112.149 58.8812C111.852 58.2876 111.08 57.516 109.834 56.6257C109.834 56.6257 109.775 56.5069 109.775 56.4476C110.012 54.6075 108.706 52.1146 108.587 51.8772C108.587 51.8772 108.587 51.8178 108.587 51.7585C108.706 51.1055 109.478 47.6629 109.181 45.5854C109.181 45.5261 109.181 45.4667 109.3 45.4073C109.359 45.4073 109.418 45.4073 109.478 45.4073C110.665 46.4758 111.258 47.4255 111.258 48.3158C111.258 51.521 110.962 53.5391 110.902 53.7172C111.08 54.014 112.742 56.6257 112.446 58.8218C112.446 58.8812 112.386 58.9405 112.327 58.9999ZM110.19 56.3882C111.14 57.1005 111.793 57.6941 112.208 58.2283C112.208 56.2102 110.665 53.8953 110.665 53.8953C110.665 53.8359 110.665 53.7766 110.665 53.7172C110.665 53.6579 111.021 51.5804 111.021 48.3158C111.021 47.6629 110.546 46.8913 109.656 46.0009C109.775 48.0784 109.181 50.9868 109.003 51.7585C109.3 52.352 110.427 54.5482 110.249 56.3882H110.19Z" fill="#101720"/>
<path d="M110.902 53.8953H110.784C110.724 53.836 103.72 46.8319 93.5111 45.7042C93.3924 45.7042 93.333 45.5854 93.333 45.5261C93.333 45.4074 93.4517 45.348 93.5111 45.348C103.898 46.5351 110.962 53.5985 111.021 53.6579C111.08 53.7172 111.08 53.836 111.021 53.8953C111.021 53.8953 110.962 53.8953 110.902 53.8953Z" fill="#101720"/>
<path d="M87.5751 119.781L81.6395 115.27C81.402 115.092 81.2833 114.795 81.2833 114.439C81.2833 114.32 81.2833 114.142 81.2833 114.023V112.183C81.2833 112.064 81.2833 111.886 81.2833 111.708C81.2833 111.411 81.402 111.115 81.6395 110.937L87.6344 106.426C87.9906 106.129 88.1093 105.654 87.8719 105.298L81.1646 93.7233C80.9272 93.3672 80.4524 93.1891 80.0962 93.3672L73.2109 96.2757C72.9141 96.3944 72.6173 96.335 72.3799 96.2163C72.0238 95.9789 71.6083 95.6821 71.2521 95.4447C70.896 95.2073 70.4805 95.0292 70.0057 94.7918C69.7089 94.673 69.5308 94.4356 69.4715 94.1388L68.5218 86.7193C68.5218 86.3038 68.1063 85.9477 67.6908 85.9477H54.3356C53.8608 85.9477 53.5047 86.3038 53.4453 86.7193L52.4956 94.1388C52.4956 94.4356 52.2582 94.673 52.0208 94.7918C51.6053 94.9698 51.1898 95.2073 50.8336 95.4447C50.4181 95.6821 50.062 95.9195 49.6465 96.2163C49.4091 96.3944 49.1123 96.3944 48.8155 96.2757L41.8709 93.3672C41.4554 93.1891 40.9805 93.3672 40.8024 93.7233L34.0952 105.298C33.8578 105.654 33.9765 106.188 34.3326 106.426L40.3276 110.937C40.565 111.115 40.6837 111.411 40.6837 111.708C40.6837 111.886 40.6837 112.005 40.6837 112.183V114.023C40.6837 114.142 40.6837 114.32 40.6837 114.498C40.6837 114.795 40.565 115.092 40.3276 115.27L34.3326 119.781C33.9765 120.077 33.8578 120.552 34.0952 120.908L40.8024 132.483C41.0399 132.839 41.5147 133.017 41.8709 132.839L48.8155 129.931C49.1123 129.812 49.4091 129.812 49.6465 129.99C50.0026 130.227 50.4181 130.524 50.7743 130.762C51.1304 130.999 51.5459 131.236 51.9614 131.415C52.2582 131.533 52.4363 131.771 52.4956 132.067L53.4453 139.487C53.4453 139.902 53.8608 140.259 54.3356 140.259H67.6908C68.1656 140.259 68.5218 139.962 68.5218 139.487L69.4715 132.067C69.4715 131.771 69.7089 131.533 69.9463 131.415C70.3618 131.236 70.7179 130.999 71.1334 130.821C71.5489 130.584 71.9644 130.346 72.3206 130.049C72.558 129.871 72.8548 129.871 73.1515 129.99L79.9775 132.898C80.393 133.076 80.8678 132.898 81.0459 132.542L87.7532 120.968C87.9906 120.612 87.8719 120.077 87.5157 119.84L87.5751 119.781ZM60.9835 124.945C54.4544 124.945 49.231 119.662 49.231 113.192C49.231 106.722 54.5137 101.44 60.9835 101.44C67.4534 101.44 72.736 106.722 72.736 113.192C72.736 119.662 67.4534 124.945 60.9835 124.945Z" fill="#CD88DA"/>
<path d="M67.6908 140.496H54.3357C53.8015 140.496 53.386 140.08 53.2673 139.606L52.3176 132.186C52.3176 131.949 52.1395 131.711 51.9021 131.652C51.4866 131.474 51.1305 131.296 50.6556 130.999C50.2401 130.762 49.8246 130.465 49.4685 130.227C49.2904 130.109 49.053 130.049 48.8156 130.168L41.8709 133.076C41.3961 133.255 40.8025 133.076 40.5651 132.661L33.8578 121.086C33.6204 120.612 33.7391 120.077 34.1546 119.721L40.1496 115.21C40.3276 115.092 40.4464 114.854 40.4464 114.617C40.4464 114.439 40.4464 114.32 40.4464 114.142V112.302C40.4464 112.124 40.4464 112.005 40.4464 111.827C40.4464 111.59 40.387 111.352 40.2089 111.233L34.214 106.722C33.7985 106.426 33.6798 105.832 33.9172 105.357L40.6244 93.7827C40.8618 93.3078 41.4554 93.1298 41.9303 93.3672L48.8749 96.2756C49.1124 96.335 49.3498 96.335 49.5279 96.2756C49.9433 95.9789 50.3588 95.7414 50.715 95.504C51.1305 95.2666 51.546 95.0292 51.9614 94.8511C52.1989 94.7324 52.3176 94.5543 52.3176 94.3169L53.2673 86.8974C53.3266 86.3632 53.8015 86.007 54.3357 86.007H67.6908C68.225 86.007 68.6999 86.4225 68.6999 86.8974L69.6496 94.3169C69.6496 94.5543 69.8276 94.7324 70.0651 94.8511C70.5399 95.0885 70.9554 95.2666 71.3116 95.504C71.727 95.7414 72.0832 95.9789 72.4987 96.2756C72.6767 96.3943 72.9142 96.4537 73.1516 96.335L80.0369 93.4265C80.5118 93.1891 81.1053 93.4265 81.3427 93.842L88.05 105.416C88.2874 105.891 88.1687 106.426 87.7532 106.782L81.7582 111.293C81.5802 111.411 81.4614 111.649 81.4614 111.886C81.4614 112.064 81.4614 112.183 81.4614 112.361V114.201C81.4614 114.32 81.4614 114.498 81.4614 114.617C81.4614 114.854 81.4615 115.151 81.6989 115.27L87.6345 119.721C88.05 120.018 88.1687 120.612 87.9313 121.086L81.224 132.661C80.9272 133.136 80.393 133.314 79.9182 133.076L73.0922 130.168C72.8548 130.049 72.6174 130.109 72.4393 130.168C72.0832 130.405 71.6677 130.702 71.2522 130.94C70.7773 131.177 70.4212 131.414 70.0651 131.593C69.8276 131.711 69.7089 131.889 69.6496 132.127L68.6999 139.546C68.6999 140.08 68.225 140.437 67.6908 140.437V140.496ZM49.1717 129.693C49.3498 129.693 49.5872 129.752 49.7653 129.871C50.1214 130.109 50.4775 130.346 50.893 130.583C51.3085 130.821 51.724 131.058 52.0802 131.177C52.4363 131.296 52.6737 131.652 52.6737 132.008L53.6234 139.428C53.6234 139.784 53.9796 140.021 54.3357 140.021H67.6908C68.047 140.021 68.3437 139.784 68.4031 139.428L69.3528 132.008C69.3528 131.652 69.5902 131.355 69.9464 131.177C70.3025 130.999 70.718 130.821 71.1335 130.583C71.549 130.346 71.9051 130.109 72.3206 129.812C72.6174 129.634 72.9735 129.574 73.3297 129.693L80.1556 132.602C80.4524 132.72 80.8679 132.602 81.046 132.305L87.7532 120.73C87.9313 120.434 87.8719 120.077 87.5751 119.84L81.6395 115.329C81.3427 115.092 81.1647 114.735 81.224 114.32C81.224 114.201 81.224 114.082 81.224 113.904V112.064C81.224 111.946 81.224 111.768 81.224 111.649C81.224 111.293 81.3427 110.937 81.6395 110.759L87.6345 106.247C87.9313 106.01 87.9906 105.654 87.8126 105.357L81.1053 93.7827C80.9272 93.4859 80.5711 93.3672 80.215 93.4859L73.3297 96.3943C72.9735 96.5131 72.6174 96.5131 72.3206 96.2756C71.9645 96.0382 71.6083 95.8008 71.1928 95.5634C70.8367 95.3259 70.4212 95.1479 70.0057 94.9698C69.6496 94.8511 69.4122 94.4949 69.4122 94.1388L68.4625 86.7193C68.4625 86.3632 68.1063 86.1257 67.7502 86.1257H54.3951C54.0389 86.1257 53.7421 86.3632 53.6828 86.7193L52.7331 94.1388C52.7331 94.4949 52.4957 94.7917 52.1395 94.9698C51.7834 95.1479 51.3679 95.3259 50.9524 95.5634C50.5963 95.8008 50.1808 96.0382 49.7653 96.335C49.4685 96.5131 49.1124 96.5724 48.7562 96.4537L41.8116 93.5452C41.5148 93.4265 41.0993 93.5452 40.9212 93.842L34.214 105.416C34.0359 105.713 34.0952 106.129 34.392 106.307L40.387 110.818C40.6838 110.996 40.8025 111.352 40.8025 111.708C40.8025 111.886 40.8025 112.005 40.8025 112.124V113.964C40.8025 114.082 40.8025 114.261 40.8025 114.379C40.8025 114.735 40.6838 115.092 40.387 115.27L34.392 119.781C34.0952 120.018 34.0359 120.374 34.214 120.671L40.9212 132.245C41.0993 132.542 41.4554 132.661 41.8116 132.542L48.7562 129.634C48.8749 129.634 49.053 129.574 49.1717 129.574V129.693ZM60.9836 125.123C54.395 125.123 49.053 119.781 49.053 113.192C49.053 106.604 54.395 101.262 60.9836 101.262C67.5721 101.262 72.9142 106.604 72.9142 113.192C72.9142 119.781 67.5721 125.123 60.9836 125.123ZM60.9836 101.558C54.5731 101.558 49.4091 106.782 49.4091 113.133C49.4091 119.484 54.6325 124.707 60.9836 124.707C67.3347 124.707 72.558 119.484 72.558 113.133C72.558 106.782 67.3347 101.558 60.9836 101.558Z" fill="#101720"/>
<path d="M164.56 92.4769H225.994C226.766 92.4769 227.418 93.1298 227.418 93.9014C227.418 94.673 226.766 95.326 225.994 95.326H164.56C163.789 95.326 163.136 94.673 163.136 93.9014C163.136 93.1298 163.789 92.4769 164.56 92.4769Z" fill="#FFFFFE"/>
<path d="M225.935 95.504H164.501C163.611 95.504 162.898 94.7917 162.898 93.9014C162.898 93.011 163.611 92.2988 164.501 92.2988H225.935C226.825 92.2988 227.537 93.011 227.537 93.9014C227.537 94.7917 226.825 95.504 225.935 95.504ZM164.56 92.6549C163.907 92.6549 163.314 93.1891 163.314 93.9014C163.314 94.6137 163.848 95.1479 164.56 95.1479H225.994C226.647 95.1479 227.24 94.6137 227.24 93.9014C227.24 93.1891 226.706 92.6549 225.994 92.6549H164.56Z" fill="black"/>
<path d="M204.389 97.5814C206.65 97.5814 208.484 95.7478 208.484 93.4858C208.484 91.2239 206.65 89.3903 204.389 89.3903C202.127 89.3903 200.293 91.2239 200.293 93.4858C200.293 95.7478 202.127 97.5814 204.389 97.5814Z" fill="black"/>
<path d="M204.388 97.7596C202.014 97.7596 200.115 95.8602 200.115 93.4859C200.115 91.1117 202.014 89.2123 204.388 89.2123C206.763 89.2123 208.662 91.1117 208.662 93.4859C208.662 95.8602 206.763 97.7596 204.388 97.7596ZM204.388 89.5684C202.252 89.5684 200.471 91.3491 200.471 93.4859C200.471 95.6227 202.252 97.4034 204.388 97.4034C206.525 97.4034 208.306 95.6227 208.306 93.4859C208.306 91.3491 206.525 89.5684 204.388 89.5684Z" fill="black"/>
<path d="M164.56 103.992H225.994C226.766 103.992 227.418 104.645 227.418 105.416C227.418 106.188 226.766 106.841 225.994 106.841H164.56C163.789 106.841 163.136 106.188 163.136 105.416C163.136 104.645 163.789 103.992 164.56 103.992Z" fill="#FFFFFE"/>
<path d="M225.935 107.019H164.501C163.611 107.019 162.898 106.307 162.898 105.417C162.898 104.526 163.611 103.814 164.501 103.814H225.935C226.825 103.814 227.537 104.526 227.537 105.417C227.537 106.307 226.825 107.019 225.935 107.019ZM164.56 104.17C163.907 104.17 163.314 104.704 163.314 105.417C163.314 106.129 163.848 106.663 164.56 106.663H225.994C226.647 106.663 227.24 106.129 227.24 105.417C227.24 104.704 226.706 104.17 225.994 104.17H164.56Z" fill="black"/>
<path d="M188.006 109.097C190.268 109.097 192.101 107.263 192.101 105.001C192.101 102.739 190.268 100.905 188.006 100.905C185.744 100.905 183.91 102.739 183.91 105.001C183.91 107.263 185.744 109.097 188.006 109.097Z" fill="black"/>
<path d="M188.007 109.275C185.632 109.275 183.733 107.375 183.733 105.001C183.733 102.627 185.632 100.727 188.007 100.727C190.381 100.727 192.28 102.627 192.28 105.001C192.28 107.375 190.381 109.275 188.007 109.275ZM188.007 101.083C185.87 101.083 184.089 102.864 184.089 105.001C184.089 107.138 185.87 108.919 188.007 108.919C190.143 108.919 191.924 107.138 191.924 105.001C191.924 102.864 190.143 101.083 188.007 101.083Z" fill="black"/>
<path d="M164.56 115.566H225.994C226.766 115.566 227.418 116.219 227.418 116.991C227.418 117.763 226.766 118.416 225.994 118.416H164.56C163.789 118.416 163.136 117.763 163.136 116.991C163.136 116.219 163.789 115.566 164.56 115.566Z" fill="#FFFFFE"/>
<path d="M225.935 118.534H164.501C163.611 118.534 162.898 117.822 162.898 116.932C162.898 116.041 163.611 115.329 164.501 115.329H225.935C226.825 115.329 227.537 116.041 227.537 116.932C227.537 117.822 226.825 118.534 225.935 118.534ZM164.56 115.744C163.907 115.744 163.314 116.279 163.314 116.991C163.314 117.703 163.848 118.237 164.56 118.237H225.994C226.647 118.237 227.24 117.703 227.24 116.991C227.24 116.279 226.706 115.744 225.994 115.744H164.56Z" fill="black"/>
<path d="M211.63 120.612C213.892 120.612 215.725 118.778 215.725 116.516C215.725 114.254 213.892 112.421 211.63 112.421C209.368 112.421 207.534 114.254 207.534 116.516C207.534 118.778 209.368 120.612 211.63 120.612Z" fill="black"/>
<path d="M211.63 120.79C209.256 120.79 207.356 118.89 207.356 116.516C207.356 114.142 209.256 112.242 211.63 112.242C214.004 112.242 215.904 114.142 215.904 116.516C215.904 118.89 214.004 120.79 211.63 120.79ZM211.63 112.599C209.493 112.599 207.713 114.379 207.713 116.516C207.713 118.653 209.493 120.434 211.63 120.434C213.767 120.434 215.548 118.653 215.548 116.516C215.548 114.379 213.767 112.599 211.63 112.599Z" fill="#101720"/>
<path d="M164.56 127.081H225.994C226.766 127.081 227.418 127.734 227.418 128.506C227.418 129.278 226.766 129.931 225.994 129.931H164.56C163.789 129.931 163.136 129.278 163.136 128.506C163.136 127.734 163.789 127.081 164.56 127.081Z" fill="#FFFFFE"/>
<path d="M225.935 130.049H164.501C163.611 130.049 162.898 129.337 162.898 128.447C162.898 127.556 163.611 126.844 164.501 126.844H225.935C226.825 126.844 227.537 127.556 227.537 128.447C227.537 129.337 226.825 130.049 225.935 130.049ZM164.56 127.26C163.907 127.26 163.314 127.794 163.314 128.506C163.314 129.218 163.848 129.753 164.56 129.753H225.994C226.647 129.753 227.24 129.218 227.24 128.506C227.24 127.794 226.706 127.26 225.994 127.26H164.56Z" fill="black"/>
<path d="M180.765 132.186C183.026 132.186 184.86 130.352 184.86 128.091C184.86 125.829 183.026 123.995 180.765 123.995C178.503 123.995 176.669 125.829 176.669 128.091C176.669 130.352 178.503 132.186 180.765 132.186Z" fill="black"/>
<path d="M180.765 132.305C178.391 132.305 176.491 130.405 176.491 128.031C176.491 125.657 178.391 123.758 180.765 123.758C183.139 123.758 185.038 125.657 185.038 128.031C185.038 130.405 183.139 132.305 180.765 132.305ZM180.765 124.173C178.628 124.173 176.847 125.954 176.847 128.091C176.847 130.227 178.628 132.008 180.765 132.008C182.902 132.008 184.682 130.227 184.682 128.091C184.682 125.954 182.902 124.173 180.765 124.173Z" fill="black"/>
<path d="M211.927 0.177979H162.008C158.763 0.177979 156.132 2.80887 156.132 6.05424V50.6901C156.132 53.9354 158.763 56.5663 162.008 56.5663H211.927C215.172 56.5663 217.803 53.9354 217.803 50.6901V6.05424C217.803 2.80887 215.172 0.177979 211.927 0.177979Z" fill="#FFFFFE"/>
<path d="M211.927 56.6851V56.507V56.329C213.708 56.329 215.37 55.5573 216.438 54.1328C216.497 54.0734 216.616 54.0141 216.675 54.1328C216.735 54.1922 216.794 54.3109 216.675 54.3702C215.488 55.8541 213.767 56.6851 211.868 56.6851H211.927ZM206.526 56.6851H201.124C201.005 56.6851 200.946 56.6258 200.946 56.507C200.946 56.3883 201.005 56.329 201.124 56.329H206.526C206.644 56.329 206.704 56.3883 206.704 56.507C206.704 56.6258 206.644 56.6851 206.526 56.6851ZM195.723 56.6851H190.321C190.203 56.6851 190.143 56.6258 190.143 56.507C190.143 56.3883 190.203 56.329 190.321 56.329H195.723C195.841 56.329 195.901 56.3883 195.901 56.507C195.901 56.6258 195.841 56.6851 195.723 56.6851ZM184.979 56.6851H179.578C179.459 56.6851 179.4 56.6258 179.4 56.507C179.4 56.3883 179.459 56.329 179.578 56.329H184.979C185.098 56.329 185.157 56.3883 185.157 56.507C185.157 56.6258 185.098 56.6851 184.979 56.6851ZM174.176 56.6851H168.775C168.656 56.6851 168.597 56.6258 168.597 56.507C168.597 56.3883 168.656 56.329 168.775 56.329H174.176C174.295 56.329 174.355 56.3883 174.355 56.507C174.355 56.6258 174.295 56.6851 174.176 56.6851ZM163.433 56.6851H162.008C160.643 56.6851 159.278 56.2103 158.21 55.3793C158.15 55.3199 158.091 55.2012 158.21 55.1418C158.269 55.0825 158.388 55.0231 158.447 55.1418C159.456 55.9728 160.703 56.3883 162.008 56.3883H163.433C163.552 56.3883 163.611 56.4477 163.611 56.5664C163.611 56.6851 163.552 56.7445 163.433 56.7445V56.6851ZM156.132 50.7495C156.013 50.7495 155.954 50.6901 155.954 50.5714V45.17C155.954 45.0513 156.013 44.992 156.132 44.992C156.251 44.992 156.31 45.0513 156.31 45.17V50.5714C156.31 50.6901 156.251 50.7495 156.132 50.7495ZM217.803 49.3249C217.684 49.3249 217.625 49.2656 217.625 49.1469V43.7455C217.625 43.6268 217.684 43.5674 217.803 43.5674C217.922 43.5674 217.981 43.6268 217.981 43.7455V49.1469C217.981 49.2656 217.922 49.3249 217.803 49.3249ZM156.132 39.9467C156.013 39.9467 155.954 39.8873 155.954 39.7686V34.3672C155.954 34.2485 156.013 34.1891 156.132 34.1891C156.251 34.1891 156.31 34.2485 156.31 34.3672V39.7686C156.31 39.8873 156.251 39.9467 156.132 39.9467ZM217.803 38.5815C217.684 38.5815 217.625 38.5221 217.625 38.4034V33.002C217.625 32.8833 217.684 32.8239 217.803 32.8239C217.922 32.8239 217.981 32.8833 217.981 33.002V38.4034C217.981 38.5221 217.922 38.5815 217.803 38.5815ZM156.132 29.2032C156.013 29.2032 155.954 29.1439 155.954 29.0251V23.6237C155.954 23.505 156.013 23.4457 156.132 23.4457C156.251 23.4457 156.31 23.505 156.31 23.6237V29.0251C156.31 29.1439 156.251 29.2032 156.132 29.2032ZM217.803 27.838C217.684 27.838 217.625 27.7787 217.625 27.66V22.2586C217.625 22.1398 217.684 22.0805 217.803 22.0805C217.922 22.0805 217.981 22.1398 217.981 22.2586V27.66C217.981 27.7787 217.922 27.838 217.803 27.838ZM156.132 18.4004C156.013 18.4004 155.954 18.341 155.954 18.2223V12.8209C155.954 12.7022 156.013 12.6429 156.132 12.6429C156.251 12.6429 156.31 12.7022 156.31 12.8209V18.2223C156.31 18.341 156.251 18.4004 156.132 18.4004ZM217.803 17.0352C217.684 17.0352 217.625 16.9759 217.625 16.8571V11.4557C217.625 11.337 217.684 11.2777 217.803 11.2777C217.922 11.2777 217.981 11.337 217.981 11.4557V16.8571C217.981 16.9759 217.922 17.0352 217.803 17.0352ZM156.132 7.65694C156.013 7.65694 155.954 7.59759 155.954 7.47887V6.05433C155.954 4.68914 156.429 3.3833 157.26 2.25553C157.319 2.19618 157.438 2.13682 157.497 2.25553C157.557 2.31489 157.616 2.4336 157.497 2.49296C156.666 3.50201 156.251 4.74849 156.251 6.05433V7.47887C156.251 7.59759 156.192 7.65694 156.073 7.65694H156.132ZM217.803 6.29175C217.684 6.29175 217.625 6.23239 217.625 6.11368C217.625 4.27364 216.854 2.67103 215.429 1.54326C215.37 1.4839 215.31 1.36519 215.429 1.30584C215.488 1.24648 215.607 1.18712 215.666 1.30584C217.15 2.49296 217.981 4.21429 217.981 6.05433C217.981 6.17304 217.922 6.29175 217.803 6.29175ZM210.502 0.356138H205.101C204.982 0.356138 204.923 0.29678 204.923 0.178068C204.923 0.0593557 204.982 0 205.101 0H210.502C210.621 0 210.68 0.0593557 210.68 0.178068C210.68 0.29678 210.621 0.356138 210.502 0.356138ZM199.7 0.356138H194.298C194.179 0.356138 194.12 0.29678 194.12 0.178068C194.12 0.0593557 194.179 0 194.298 0H199.7C199.818 0 199.878 0.0593557 199.878 0.178068C199.878 0.29678 199.818 0.356138 199.7 0.356138ZM188.956 0.356138H183.555C183.436 0.356138 183.377 0.29678 183.377 0.178068C183.377 0.0593557 183.436 0 183.555 0H188.956C189.075 0 189.134 0.0593557 189.134 0.178068C189.134 0.29678 189.075 0.356138 188.956 0.356138ZM178.153 0.356138H172.752C172.633 0.356138 172.574 0.29678 172.574 0.178068C172.574 0.0593557 172.633 0 172.752 0H178.153C178.272 0 178.331 0.0593557 178.331 0.178068C178.331 0.29678 178.272 0.356138 178.153 0.356138ZM167.41 0.356138H162.008C161.89 0.356138 161.83 0.29678 161.83 0.178068C161.83 0.0593557 161.89 0 162.008 0H167.41C167.529 0 167.588 0.0593557 167.588 0.178068C167.588 0.29678 167.529 0.356138 167.41 0.356138Z" fill="#101720"/>
<path d="M183.687 29.57L170.172 43.0847L173.026 45.9388L186.541 32.424L183.687 29.57Z" fill="black"/>
<path d="M172.989 46.0604H172.87L170.021 43.2113C169.962 43.1519 169.962 43.0332 170.021 42.9738L183.554 29.4406C183.614 29.3813 183.732 29.3813 183.792 29.4406L186.641 32.2897C186.641 32.2897 186.641 32.3491 186.641 32.4084C186.641 32.4678 186.641 32.5272 186.641 32.5272L173.108 46.0604C173.108 46.0604 173.048 46.0604 172.989 46.0604ZM170.377 43.0332L172.989 45.6449L186.285 32.3491L183.673 29.7374L170.377 43.0332Z" fill="black"/>
<path d="M181.121 32.1117L184.682 34.2485L185.572 33.3581L182.664 30.509L181.121 32.1117Z" fill="#101720"/>
<path d="M184.682 34.4267C184.682 34.4267 184.622 34.4267 184.563 34.4267L181.002 32.2898C181.002 32.2898 180.942 32.2305 180.942 32.1711V32.0524L182.545 30.4498C182.604 30.3904 182.723 30.3904 182.782 30.4498L185.632 33.2989C185.632 33.2989 185.632 33.3582 185.632 33.4176C185.632 33.477 185.632 33.5363 185.632 33.5363L184.741 34.4267C184.741 34.4267 184.682 34.4267 184.622 34.4267H184.682ZM181.417 32.0524L184.682 34.0112L185.335 33.3582L182.723 30.7466L181.417 32.0524Z" fill="#101720"/>
<path d="M200.293 15.7294C195.663 11.0996 188.065 11.0996 183.436 15.7294C178.806 20.3592 178.806 27.9568 183.436 32.5866C188.125 37.2757 195.663 37.2757 200.293 32.5866C204.982 27.9568 204.982 20.3592 200.293 15.7294ZM186.285 29.7375C183.198 26.6509 183.198 21.665 186.285 18.5785C189.371 15.492 194.357 15.492 197.444 18.5785C200.53 21.665 200.53 26.6509 197.444 29.7375C194.357 32.824 189.371 32.824 186.285 29.7375Z" fill="black" fill-opacity="0.85"/>
<path d="M191.864 36.2667C188.659 36.2667 185.573 35.0202 183.317 32.7053C178.628 27.9568 178.628 20.2999 183.317 15.6107C188.006 10.9216 195.663 10.9216 200.412 15.6107C205.16 20.3592 205.16 28.0162 200.412 32.7053C195.663 37.3944 195.07 36.2667 191.864 36.2667ZM191.864 12.4649C188.837 12.4649 185.869 13.5926 183.555 15.9075C178.984 20.4779 178.984 27.9568 183.555 32.5272C185.751 34.7234 188.719 35.9699 191.864 35.9699C195.01 35.9699 197.978 34.7234 200.174 32.5272C204.745 27.9568 204.745 20.5373 200.174 15.9669C197.859 13.652 194.892 12.5242 191.864 12.5242V12.4649ZM191.864 32.2304C189.787 32.2304 187.709 31.4588 186.166 29.8562C184.682 28.3129 183.851 26.2948 183.851 24.158C183.851 22.0212 184.682 19.9437 186.226 18.4598C187.769 16.9166 189.787 16.0856 191.924 16.0856C194.061 16.0856 196.138 16.9166 197.622 18.4598C200.768 21.6057 200.768 26.7103 197.622 29.9156C196.019 31.5182 194.001 32.2898 191.924 32.2898L191.864 32.2304ZM186.463 29.6781C189.49 32.6459 194.357 32.6459 197.385 29.6781C200.412 26.651 200.412 21.7838 197.385 18.7566C195.901 17.2727 194.001 16.5011 191.924 16.5011C189.846 16.5011 187.947 17.3321 186.463 18.7566C184.979 20.2405 184.207 22.1399 184.207 24.2174C184.207 26.2948 185.038 28.1942 186.463 29.6781Z" fill="black"/>
<path d="M195.901 28.3722H195.782C195.722 28.3128 195.722 28.1941 195.782 28.1348C196.85 27.0664 197.384 25.7012 197.384 24.2173C197.384 22.7334 196.791 21.3682 195.782 20.2998C195.722 20.2404 195.722 20.1217 195.782 20.0623C195.841 20.003 195.96 20.003 196.019 20.0623C197.147 21.1901 197.741 22.674 197.741 24.2173C197.741 25.7605 197.147 27.2444 196.019 28.3722C196.019 28.3722 195.96 28.3722 195.901 28.3722Z" fill="#101720"/>
</svg>
