<svg width="268" height="173" viewBox="0 0 268 173" fill="none" xmlns="http://www.w3.org/2000/svg">
<path d="M261.515 70.3691L191.161 91.4495L196.625 109.685L266.979 88.6049L261.515 70.3691Z" fill="white"/>
<path d="M196.626 109.981C196.578 109.981 196.53 109.969 196.481 109.945C196.409 109.909 196.36 109.842 196.336 109.764L190.869 91.5252C190.821 91.3679 190.912 91.1986 191.069 91.1502L261.423 70.0695C261.501 70.0453 261.58 70.0574 261.653 70.0937C261.725 70.13 261.774 70.1965 261.798 70.2751L267.265 88.5136C267.313 88.6709 267.222 88.8402 267.065 88.8886L196.711 109.969C196.711 109.969 196.651 109.981 196.626 109.981ZM191.541 91.6461L196.832 109.304L266.605 88.3927L261.314 70.7347L191.541 91.6461Z" fill="#732A09"/>
<path d="M227.486 84.7379L216.902 87.9091L220.074 98.4926L230.657 95.3214L227.486 84.7379Z" fill="#CD88DA"/>
<path d="M220.071 98.788C219.938 98.788 219.823 98.7033 219.781 98.5703L216.606 87.9876C216.558 87.8304 216.649 87.6611 216.806 87.6127L227.389 84.4379C227.552 84.3895 227.715 84.4802 227.763 84.6374L230.938 95.2201C230.987 95.3774 230.896 95.5467 230.739 95.5951L220.156 98.7699C220.156 98.7699 220.096 98.782 220.071 98.782V98.788ZM217.278 88.1025L220.277 98.1107L230.285 95.1113L227.286 85.1031L217.278 88.1025Z" fill="#732A09"/>
<path d="M241.558 80.5195L230.975 83.6906L234.146 94.2741L244.729 91.1029L241.558 80.5195Z" fill="#CD88DA"/>
<path d="M234.144 94.5731C234.011 94.5731 233.896 94.4884 233.853 94.3554L230.679 83.7727C230.654 83.6941 230.666 83.6155 230.703 83.5429C230.739 83.4703 230.806 83.422 230.884 83.3978L241.467 80.223C241.63 80.1746 241.793 80.2653 241.842 80.4225L245.017 91.0052C245.041 91.0838 245.029 91.1625 244.992 91.235C244.956 91.3076 244.89 91.356 244.811 91.3802L234.228 94.555C234.228 94.555 234.168 94.5671 234.144 94.5671V94.5731ZM231.35 83.8876L234.349 93.8958L244.357 90.8964L241.358 80.8882L231.35 83.8876Z" fill="#732A09"/>
<path d="M255.629 76.3012L245.045 79.4723L248.217 90.0558L258.8 86.8846L255.629 76.3012Z" fill="#CD88DA"/>
<path d="M248.215 90.3521C248.167 90.3521 248.119 90.34 248.07 90.3158C247.998 90.2796 247.949 90.213 247.925 90.1344L244.75 79.5517C244.702 79.3945 244.793 79.2252 244.95 79.1768L255.533 76.002C255.611 75.9778 255.69 75.9899 255.762 76.0262C255.835 76.0625 255.883 76.129 255.908 76.2076L259.082 86.7903C259.131 86.9475 259.04 87.1168 258.883 87.1652L248.3 90.34C248.3 90.34 248.24 90.3521 248.215 90.3521ZM245.422 79.6666L248.421 89.6748L258.429 86.6754L255.43 76.6672L245.422 79.6666Z" fill="#732A09"/>
<path d="M242.224 42.599L186.444 90.375L198.827 104.833L254.608 57.0574L242.224 42.599Z" fill="white"/>
<path d="M198.827 105.119C198.827 105.119 198.809 105.119 198.803 105.119C198.724 105.119 198.646 105.077 198.597 105.017L186.213 90.5576C186.104 90.4306 186.116 90.2371 186.243 90.1283L242.023 42.3489C242.083 42.2945 242.162 42.2703 242.241 42.2763C242.319 42.2763 242.398 42.3187 242.446 42.3791L254.831 56.8381C254.94 56.9651 254.928 57.1586 254.801 57.2675L199.021 105.047C198.966 105.095 198.894 105.119 198.821 105.119H198.827ZM186.872 90.3883L198.864 104.388L254.184 57.0014L242.192 43.002L186.872 90.3883Z" fill="#732A09"/>
<path d="M216.931 69.5144L208.54 76.7015L215.727 85.0927L224.118 77.9056L216.931 69.5144Z" fill="#CD88DA"/>
<path d="M215.73 85.3813C215.645 85.3813 215.561 85.345 215.5 85.2785L208.31 76.8849C208.201 76.7579 208.213 76.5644 208.34 76.4555L216.734 69.2653C216.794 69.2109 216.873 69.1867 216.951 69.1928C217.03 69.1928 217.109 69.2351 217.157 69.2956L224.347 77.6892C224.456 77.8162 224.444 78.0097 224.317 78.1185L215.923 85.3087C215.869 85.3571 215.796 85.3813 215.724 85.3813H215.73ZM208.963 76.7216L215.76 84.6556L223.694 77.8585L216.897 69.9245L208.963 76.7216Z" fill="#732A09"/>
<path d="M228.091 59.9585L219.7 67.1456L226.887 75.5368L235.278 68.3497L228.091 59.9585Z" fill="#CD88DA"/>
<path d="M226.881 75.8266C226.796 75.8266 226.711 75.7903 226.651 75.7238L219.461 67.3302C219.352 67.2032 219.364 67.0097 219.491 66.9008L227.885 59.7107C228.012 59.6018 228.205 59.6199 228.314 59.7409L235.504 68.1345C235.613 68.2615 235.601 68.455 235.474 68.5638L227.08 75.754C227.026 75.8024 226.953 75.8266 226.881 75.8266ZM220.12 67.1669L226.917 75.1009L234.851 68.3038L228.054 60.3698L220.12 67.1669Z" fill="#732A09"/>
<path d="M239.245 50.4087L230.854 57.5958L238.041 65.987L246.432 58.7999L239.245 50.4087Z" fill="#CD88DA"/>
<path d="M238.038 66.2719C237.953 66.2719 237.869 66.2356 237.808 66.1691L230.618 57.7755C230.509 57.6485 230.521 57.455 230.648 57.3462L239.042 50.156C239.169 50.0471 239.362 50.0653 239.471 50.1862L246.661 58.5798C246.77 58.7068 246.758 58.9003 246.631 59.0092L238.238 66.1993C238.183 66.2477 238.111 66.2719 238.038 66.2719ZM231.277 57.6062L238.074 65.5402L246.008 58.7431L239.211 50.8091L231.277 57.6062Z" fill="#732A09"/>
<path d="M215.99 24.3488L179.557 88.1191L196.086 97.5626L232.519 33.7923L215.99 24.3488Z" fill="white"/>
<path d="M196.082 97.8567C196.028 97.8567 195.979 97.8446 195.931 97.8143L179.404 88.3685C179.259 88.2839 179.21 88.1024 179.289 87.9573L215.718 24.189C215.76 24.1164 215.82 24.068 215.899 24.0499C215.978 24.0317 216.062 24.0378 216.129 24.0801L232.656 33.5259C232.801 33.6106 232.849 33.792 232.771 33.9371L196.342 97.7055C196.3 97.778 196.239 97.8264 196.161 97.8446C196.137 97.8506 196.106 97.8567 196.082 97.8567ZM179.966 87.9996L195.967 97.1431L232.1 33.9009L216.099 24.7574L179.966 87.9996Z" fill="#732A09"/>
<path d="M201.244 58.22L195.764 67.8131L205.357 73.2938L210.837 63.7007L201.244 58.22Z" fill="white"/>
<path d="M205.347 73.5889C205.298 73.5889 205.244 73.5768 205.195 73.5465L195.598 68.0677C195.526 68.0254 195.477 67.9649 195.459 67.8863C195.441 67.8077 195.447 67.7291 195.49 67.6565L200.968 58.0595C201.053 57.9144 201.234 57.866 201.38 57.9446L210.977 63.4234C211.122 63.5081 211.17 63.6895 211.092 63.8346L205.613 73.4316C205.558 73.5284 205.455 73.5828 205.353 73.5828L205.347 73.5889ZM196.167 67.6928L205.238 72.8753L210.42 63.8044L201.349 58.6219L196.167 67.6928Z" fill="#732A09"/>
<path d="M208.53 45.4604L203.049 55.0535L212.642 60.5342L218.123 50.941L208.53 45.4604Z" fill="white"/>
<path d="M212.633 60.8292C212.585 60.8292 212.531 60.8171 212.482 60.7868L202.885 55.308C202.74 55.2234 202.692 55.042 202.77 54.8968L208.249 45.2998C208.292 45.2272 208.352 45.1789 208.431 45.1607C208.509 45.1426 208.594 45.1486 208.66 45.191L218.257 50.6698C218.403 50.7544 218.451 50.9359 218.372 51.081L212.893 60.678C212.839 60.7748 212.736 60.8292 212.633 60.8292ZM203.454 54.9331L212.525 60.1156L217.707 51.0447L208.636 45.8622L203.454 54.9331Z" fill="#732A09"/>
<path d="M215.814 32.7038L210.333 42.2969L219.926 47.7776L225.407 38.1845L215.814 32.7038Z" fill="white"/>
<path d="M219.921 48.0756C219.866 48.0756 219.818 48.0635 219.769 48.0332L210.172 42.5544C210.027 42.4698 209.979 42.2884 210.057 42.1432L215.536 32.5462C215.579 32.4737 215.639 32.4253 215.718 32.4071C215.796 32.389 215.875 32.395 215.947 32.4374L225.544 37.9162C225.69 38.0008 225.738 38.1823 225.659 38.3274L220.181 47.9244C220.138 47.997 220.078 48.0453 219.999 48.0635C219.975 48.0695 219.945 48.0756 219.921 48.0756ZM210.741 42.1795L219.812 47.362L224.994 38.2911L215.923 33.1086L210.741 42.1795Z" fill="#732A09"/>
<path d="M263.54 162.877H0.302363C0.13304 162.877 0 162.744 0 162.575C0 162.405 0.13304 162.272 0.302363 162.272H263.54C263.709 162.272 263.842 162.405 263.842 162.575C263.842 162.744 263.709 162.877 263.54 162.877Z" fill="#CD88DA"/>
<path d="M198.332 77.1934C198.332 77.1934 205.806 79.3523 217.786 101.667C229.765 123.981 227.522 131.468 223.924 135.955C220.325 140.442 210.831 146.422 210.831 146.422L205.358 136.85L198.338 77.1873L198.332 77.1934Z" fill="black"/>
<path d="M176.344 72.2104C161.861 71.3033 147.795 78.8986 145.799 85.8893C143.804 92.8799 135.187 162.575 135.187 162.575H211.551C211.551 162.575 209.054 99.683 206.308 87.4434C203.563 75.2037 188.342 72.9602 176.35 72.2104H176.344Z" fill="black"/>
<path d="M161.559 154.393C158.166 155.796 157.58 160.718 158.747 162.006C159.69 163.04 176.254 162.411 182.688 162.127C184.23 162.061 185.343 160.639 185.065 159.122C184.587 156.485 182.936 152.814 177.596 151.587C168.93 149.597 161.553 154.399 161.553 154.399L161.559 154.393Z" fill="black"/>
<path d="M166.457 162.877C162.133 162.877 158.976 162.702 158.529 162.206C157.912 161.528 157.725 160.029 158.075 158.487C158.293 157.501 159.061 155.112 161.425 154.121C161.909 153.818 169.232 149.343 177.674 151.284C183.093 152.53 184.853 156.201 185.373 159.055C185.524 159.871 185.312 160.712 184.798 161.353C184.29 161.994 183.528 162.381 182.712 162.411C177.239 162.653 171.162 162.865 166.463 162.865L166.457 162.877ZM173.314 151.405C166.801 151.405 161.788 154.604 161.728 154.647C161.71 154.659 161.698 154.665 161.679 154.671C159.557 155.548 158.861 157.725 158.662 158.62C158.36 159.962 158.493 161.268 158.976 161.801C159.672 162.423 168.978 162.429 182.676 161.819C183.317 161.788 183.915 161.486 184.314 160.984C184.72 160.476 184.889 159.811 184.768 159.17C184.278 156.491 182.627 153.05 177.529 151.877C176.078 151.544 174.663 151.405 173.308 151.405H173.314Z" fill="#CD88DA"/>
<path d="M185.506 139.014C179.186 140.774 179.253 139.674 176.12 139.141C172.988 138.603 171.978 138.156 171.367 139.522C170.756 140.889 174.252 142.54 174.252 142.54C174.252 142.54 169.553 143.381 166.922 145.4C164.292 147.42 157.712 155.372 157.712 155.372C157.712 155.372 158.105 157.023 159.98 155.874C161.849 154.731 166.735 151.024 166.735 151.024C166.735 151.024 162.689 158.559 162.32 159.757C161.952 160.954 164.225 162.079 165.489 159.757C166.753 157.434 170.865 152.929 170.865 152.929C170.865 152.929 168.61 159.115 168.132 160.936C167.654 162.756 169.662 164.225 170.762 161.885C171.863 159.545 173.774 156.152 173.774 156.152L174.173 164.256C174.173 164.256 176.048 165.38 176.574 162.048C177.1 158.716 177.566 156.66 177.566 156.66C177.566 156.66 181.587 156.787 184.828 153.213C188.07 149.633 188.656 148.902 188.656 148.902C188.656 148.902 189.63 146.846 188.372 143.453C187.114 140.061 185.494 139.008 185.494 139.008L185.506 139.014Z" fill="white"/>
<path d="M174.88 164.746C174.403 164.746 174.046 164.534 174.022 164.522C173.937 164.473 173.883 164.377 173.877 164.28L173.532 157.235C172.885 158.408 171.778 160.458 171.04 162.024C170.424 163.337 169.529 163.56 168.894 163.324C168.138 163.046 167.533 162.055 167.841 160.869C168.174 159.593 169.347 156.267 170.043 154.314C168.743 155.802 166.596 158.366 165.755 159.908C164.969 161.353 163.76 161.631 162.901 161.274C162.205 160.984 161.837 160.307 162.03 159.672C162.314 158.747 164.655 154.284 165.822 152.095C164.268 153.256 161.468 155.324 160.137 156.14C159.418 156.582 158.789 156.703 158.275 156.485C157.61 156.207 157.422 155.475 157.416 155.445C157.392 155.354 157.416 155.257 157.476 155.185C157.749 154.858 164.104 147.184 166.735 145.165C168.749 143.616 171.875 142.758 173.363 142.419C172.286 141.802 170.557 140.587 171.083 139.401C171.7 138.023 172.697 138.21 174.887 138.615C175.268 138.688 175.691 138.767 176.163 138.845C176.931 138.978 177.511 139.141 178.025 139.287C179.634 139.74 180.692 140.042 185.421 138.73C185.506 138.706 185.596 138.718 185.669 138.767C185.741 138.815 187.386 139.909 188.668 143.356C189.956 146.827 188.983 148.95 188.94 149.041C188.928 149.065 188.916 149.083 188.904 149.101C188.88 149.132 188.275 149.881 185.064 153.425C182.198 156.588 178.781 156.939 177.826 156.969C177.692 157.598 177.305 159.454 176.888 162.103C176.677 163.445 176.217 164.286 175.528 164.606C175.304 164.709 175.086 164.746 174.887 164.746H174.88ZM174.469 164.068C174.645 164.135 174.959 164.207 175.268 164.062C175.757 163.832 176.108 163.119 176.283 162.012C176.804 158.71 177.275 156.624 177.281 156.606C177.311 156.467 177.438 156.37 177.584 156.37C177.614 156.37 181.508 156.449 184.611 153.02C187.459 149.875 188.263 148.926 188.402 148.757C188.511 148.497 189.206 146.574 188.1 143.574C187.078 140.823 185.808 139.649 185.445 139.359C180.674 140.671 179.495 140.339 177.868 139.879C177.366 139.74 176.804 139.577 176.066 139.45C175.594 139.371 175.165 139.287 174.784 139.22C172.583 138.809 172.05 138.748 171.639 139.662C171.27 140.49 173.326 141.784 174.379 142.286C174.5 142.34 174.566 142.467 174.548 142.6C174.53 142.734 174.433 142.836 174.3 142.861C174.252 142.867 169.644 143.713 167.104 145.666C164.715 147.505 158.916 154.417 158.051 155.457C158.117 155.608 158.257 155.844 158.511 155.947C158.831 156.08 159.285 155.971 159.823 155.638C161.661 154.514 166.505 150.843 166.553 150.807C166.668 150.722 166.826 150.728 166.934 150.819C167.043 150.909 167.073 151.067 167.007 151.194C165.61 153.788 162.901 158.946 162.617 159.871C162.496 160.265 162.804 160.597 163.143 160.742C163.705 160.978 164.588 160.833 165.235 159.642C166.505 157.313 170.484 152.941 170.653 152.754C170.75 152.645 170.907 152.621 171.034 152.699C171.155 152.772 171.21 152.929 171.161 153.062C171.137 153.123 168.906 159.255 168.44 161.045C168.222 161.885 168.616 162.605 169.111 162.78C169.607 162.962 170.127 162.593 170.508 161.788C171.603 159.466 173.514 156.074 173.532 156.037C173.598 155.923 173.738 155.862 173.865 155.892C173.998 155.923 174.088 156.037 174.094 156.171L174.481 164.092L174.469 164.068Z" fill="#CD88DA"/>
<path d="M166.735 151.327C166.687 151.327 166.632 151.315 166.59 151.29C166.445 151.212 166.391 151.024 166.475 150.879L167.914 148.297C167.993 148.152 168.181 148.097 168.326 148.182C168.471 148.261 168.525 148.448 168.441 148.593L167.001 151.175C166.947 151.272 166.844 151.333 166.735 151.333V151.327Z" fill="#CD88DA"/>
<path d="M170.865 153.232C170.829 153.232 170.793 153.225 170.756 153.213C170.599 153.153 170.52 152.978 170.581 152.82L171.264 151.03C171.325 150.873 171.5 150.794 171.657 150.855C171.815 150.915 171.893 151.091 171.833 151.248L171.149 153.038C171.101 153.159 170.986 153.232 170.865 153.232Z" fill="#CD88DA"/>
<path d="M173.78 156.461H173.774C173.605 156.461 173.472 156.316 173.478 156.152L173.526 154.024C173.526 153.854 173.671 153.752 173.835 153.727C174.004 153.727 174.137 153.872 174.131 154.036L174.082 156.164C174.082 156.328 173.943 156.461 173.78 156.461Z" fill="#CD88DA"/>
<path d="M174.252 142.842C174.119 142.842 173.998 142.752 173.962 142.619C173.919 142.455 174.016 142.292 174.179 142.25C178.443 141.131 179.386 140.726 179.392 140.72C179.543 140.653 179.725 140.72 179.791 140.871C179.858 141.022 179.791 141.204 179.64 141.27C179.604 141.288 178.684 141.693 174.33 142.83C174.306 142.836 174.282 142.842 174.252 142.842Z" fill="#CD88DA"/>
<path d="M152.983 159.37H89.1726V162.575H152.983V159.37Z" fill="white"/>
<path d="M152.983 162.877H89.1727C89.0034 162.877 88.8704 162.744 88.8704 162.575V159.37C88.8704 159.2 89.0034 159.067 89.1727 159.067H152.983C153.153 159.067 153.286 159.2 153.286 159.37V162.575C153.286 162.744 153.153 162.877 152.983 162.877ZM89.4751 162.272H152.681V159.672H89.4751V162.272Z" fill="#CD88DA"/>
<path d="M153.66 77.544C153.66 77.544 141.687 84.069 135.186 95.8007C128.685 107.532 125.117 126.575 125.117 126.575L105.681 146.156L109.534 152.034C109.534 152.034 110.676 157.325 118.489 156.763C126.303 156.201 130.149 152.929 133.378 149.464C136.607 145.999 141.185 140.272 141.185 140.272L153.654 77.544H153.66Z" fill="black"/>
<path d="M111.276 143.737C114.765 141.554 120.093 142.867 124.894 144.699C129.696 146.531 130.839 147.656 130.149 149.748C129.641 151.29 127.077 151.157 123.328 150.722C123.328 150.722 118.176 154.302 111.282 153.776C104.388 153.25 103.777 150.244 104.388 148.212C104.999 146.18 111.282 143.737 111.282 143.737H111.276Z" fill="white"/>
<path d="M112.642 154.133C112.188 154.133 111.723 154.115 111.251 154.078C107.816 153.818 105.549 152.917 104.508 151.405C103.698 150.226 103.831 148.968 104.091 148.128C104.72 146.041 110.368 143.768 111.142 143.465C115.031 141.059 120.915 142.855 125.003 144.415C129.435 146.108 131.274 147.293 130.433 149.839C129.846 151.623 127.149 151.466 123.4 151.03C122.705 151.484 118.375 154.127 112.648 154.127L112.642 154.133ZM115.787 142.891C114.045 142.891 112.612 143.26 111.439 143.991C111.42 144.004 111.408 144.01 111.39 144.016C109.679 144.681 105.143 146.749 104.672 148.297C104.454 149.017 104.339 150.081 105.01 151.061C105.942 152.415 108.052 153.226 111.3 153.467C118 153.975 123.098 150.498 123.152 150.468C123.213 150.426 123.285 150.408 123.358 150.414C126.647 150.795 129.411 151 129.859 149.646C130.421 147.934 129.84 146.906 124.785 144.977C121.132 143.58 118.169 142.891 115.787 142.891Z" fill="#CD88DA"/>
<path d="M103.402 146.156C100.463 146.398 98.0439 148.696 97.3182 150.758C96.5925 152.82 96.2902 154.937 97.3182 155.118C98.3463 155.3 99.4348 151.605 100.711 150.637C101.987 149.67 103.408 146.156 103.408 146.156H103.402Z" fill="white"/>
<path d="M97.3967 155.427C97.3544 155.427 97.3121 155.427 97.2697 155.415C96.9795 155.366 96.7436 155.197 96.5864 154.931C95.9877 153.909 96.7013 151.605 97.0339 150.655C97.7898 148.521 100.269 146.108 103.377 145.854C103.48 145.848 103.583 145.89 103.644 145.975C103.704 146.06 103.716 146.168 103.68 146.265C103.619 146.41 102.21 149.863 100.886 150.873C100.366 151.266 99.8277 152.258 99.3561 153.129C98.6909 154.356 98.1103 155.421 97.3907 155.421L97.3967 155.427ZM102.918 146.525C100.384 146.961 98.2615 148.999 97.6023 150.861C96.9855 152.609 96.792 154.09 97.1065 154.629C97.173 154.743 97.2516 154.804 97.3726 154.822C97.7354 154.883 98.3945 153.655 98.8299 152.845C99.356 151.877 99.9003 150.873 100.523 150.395C101.442 149.694 102.482 147.499 102.918 146.525Z" fill="#CD88DA"/>
<path d="M107.247 144.584C104.466 143.435 100.771 147.553 99.8637 151.423C98.9567 155.294 100.287 156.63 101.376 155.602C102.464 154.574 103.613 150.032 105.01 148.702C106.407 147.372 107.247 144.584 107.247 144.584Z" fill="white"/>
<path d="M100.657 156.237C100.481 156.237 100.306 156.195 100.149 156.098C99.4289 155.681 98.8968 154.217 99.568 151.351C100.233 148.527 102.277 145.672 104.43 144.566C105.47 144.034 106.486 143.937 107.363 144.3C107.508 144.36 107.581 144.517 107.538 144.669C107.502 144.784 106.649 147.547 105.216 148.914C104.527 149.573 103.849 151.2 103.251 152.627C102.658 154.054 102.144 155.288 101.582 155.814C101.292 156.086 100.965 156.231 100.657 156.231V156.237ZM106.244 144.693C105.76 144.693 105.246 144.832 104.708 145.11C102.731 146.126 100.777 148.871 100.161 151.496C99.6043 153.866 99.9248 155.275 100.457 155.578C100.735 155.735 101.025 155.523 101.177 155.384C101.642 154.943 102.18 153.655 102.701 152.403C103.354 150.843 104.025 149.234 104.805 148.484C105.875 147.462 106.625 145.497 106.873 144.777C106.674 144.723 106.462 144.693 106.25 144.693H106.244Z" fill="#CD88DA"/>
<path d="M112.007 143.344C112.007 143.344 106.359 142.528 104.2 146.519C102.041 150.51 103.13 157.005 104.648 157.295C106.166 157.586 106.008 147.849 108.645 145.793" fill="white"/>
<path d="M104.708 157.604C104.666 157.604 104.629 157.604 104.587 157.592C104.17 157.513 103.801 157.138 103.486 156.479C102.531 154.459 102.132 149.7 103.934 146.374C106.165 142.238 111.814 143.012 112.049 143.042C112.213 143.066 112.328 143.217 112.303 143.387C112.279 143.556 112.128 143.665 111.959 143.641C111.904 143.635 106.492 142.903 104.46 146.664C102.821 149.694 103.105 154.272 104.031 156.219C104.248 156.673 104.49 156.957 104.696 156.999C105.149 156.703 105.488 154.792 105.784 153.105C106.317 150.129 106.915 146.755 108.445 145.558C108.578 145.455 108.766 145.479 108.868 145.612C108.971 145.745 108.947 145.933 108.814 146.035C107.466 147.088 106.861 150.48 106.377 153.213C105.942 155.675 105.663 157.084 105.071 157.489C104.956 157.567 104.829 157.61 104.696 157.61L104.708 157.604Z" fill="#CD88DA"/>
<path d="M111.275 143.737C108.638 145.733 106.824 152.451 108.155 155.662C109.485 158.874 111.245 154.393 111.971 151C112.696 147.608 113.785 145.672 113.785 145.672" fill="white"/>
<path d="M109.177 157.066C108.669 157.066 108.233 156.63 107.877 155.777C106.51 152.488 108.318 145.6 111.094 143.495C111.227 143.393 111.414 143.423 111.517 143.556C111.62 143.689 111.59 143.876 111.457 143.979C108.899 145.92 107.175 152.512 108.433 155.548C108.681 156.152 108.965 156.485 109.201 156.461C109.927 156.394 111.033 153.915 111.674 150.94C112.4 147.541 113.476 145.606 113.525 145.527C113.603 145.382 113.791 145.328 113.936 145.412C114.081 145.491 114.135 145.679 114.051 145.824C114.039 145.842 112.974 147.765 112.267 151.067C112.14 151.665 110.967 156.908 109.261 157.066C109.231 157.066 109.207 157.066 109.177 157.066Z" fill="#CD88DA"/>
<path d="M123.322 150.722C120.322 150.335 117.238 148.212 117.238 148.212L123.322 150.722Z" fill="white"/>
<path d="M123.322 151.024C123.322 151.024 123.297 151.024 123.285 151.024C120.25 150.631 117.196 148.557 117.069 148.466C116.93 148.37 116.893 148.182 116.99 148.043C117.087 147.91 117.274 147.868 117.413 147.964C117.444 147.982 120.479 150.051 123.364 150.42C123.527 150.444 123.648 150.595 123.624 150.758C123.606 150.909 123.473 151.024 123.322 151.024Z" fill="#732A09"/>
<path d="M183.522 139.825C183.431 139.825 183.34 139.782 183.28 139.704C183.244 139.662 182.451 138.597 182.711 137.079C182.947 135.707 183.963 134.437 185.723 133.3C189.998 130.542 204.633 120.921 206.731 119.542C206.072 118.532 203.315 114.457 197.328 106.94C190.627 98.5281 187.592 85.1697 193.754 78.6931C193.869 78.5721 194.062 78.5661 194.183 78.681C194.304 78.7959 194.31 78.9894 194.195 79.1103C188.251 85.3571 191.262 98.3527 197.805 106.565C204.772 115.309 207.384 119.427 207.408 119.47C207.499 119.609 207.457 119.796 207.318 119.881C207.155 119.99 190.645 130.845 186.05 133.808C184.447 134.842 183.522 135.973 183.31 137.17C183.086 138.428 183.752 139.329 183.758 139.335C183.86 139.468 183.83 139.655 183.697 139.758C183.643 139.801 183.576 139.819 183.516 139.819L183.522 139.825Z" fill="#CD88DA"/>
<path d="M192.212 153.685C189.721 153.685 188.003 152.845 187.042 150.571C186.975 150.42 187.048 150.238 187.205 150.172C187.356 150.105 187.538 150.178 187.604 150.335C188.832 153.25 191.329 153.746 197.479 152.294C203.097 150.97 212.307 145.098 212.398 145.038C212.537 144.947 212.724 144.989 212.815 145.128C212.906 145.267 212.864 145.455 212.724 145.545C212.343 145.787 203.333 151.532 197.618 152.881C195.532 153.371 193.73 153.685 192.218 153.685H192.212Z" fill="#CD88DA"/>
<path d="M137.121 147.481C137.121 147.481 137.091 147.481 137.079 147.481C136.916 147.456 136.801 147.305 136.819 147.142L144.747 89.5237C144.771 89.3604 144.928 89.2455 145.086 89.2637C145.249 89.2879 145.364 89.439 145.346 89.6023L137.418 147.221C137.4 147.372 137.267 147.481 137.121 147.481Z" fill="#732A09"/>
<path d="M151.157 42.6816C151.157 42.6816 148.339 45.6327 151 49.7992C153.66 53.9718 178.061 64.5787 178.061 64.5787L179.367 67.0097C179.367 67.0097 184.513 64.3187 186.473 60.001C188.432 55.6832 185.929 49.2368 185.929 49.2368L157.694 39.6035L151.163 42.6756L151.157 42.6816Z" fill="#732A09"/>
<path d="M179.374 67.3121C179.265 67.3121 179.162 67.2517 179.108 67.1549L177.856 64.8207C175.945 63.9861 153.377 54.0747 150.752 49.9686C147.994 45.6508 150.915 42.5063 150.946 42.476C150.97 42.4518 151 42.4277 151.036 42.4095L157.567 39.3375C157.64 39.3012 157.718 39.3012 157.791 39.3254L186.026 48.9587C186.11 48.9889 186.177 49.0555 186.207 49.1341C186.31 49.4002 188.735 55.7498 186.745 60.134C184.768 64.4941 179.718 67.173 179.507 67.2819C179.464 67.3061 179.416 67.3182 179.368 67.3182L179.374 67.3121ZM151.345 42.9296C151.024 43.2924 148.895 45.9351 151.26 49.642C153.842 53.6877 177.947 64.2038 178.188 64.3066C178.249 64.3308 178.303 64.3792 178.334 64.4397L179.495 66.5985C180.553 65.9878 184.556 63.5023 186.201 59.88C187.937 56.0582 186.032 50.404 185.699 49.4788L157.712 39.9362L151.345 42.9356V42.9296Z" fill="#732A09"/>
<path d="M180.547 62.1417C180.111 67.681 180.153 72.1076 180.317 75.2038C180.51 78.8745 177.674 82.0614 173.997 82.1581C173.937 82.1581 173.876 82.1581 173.816 82.1581C170.024 82.2065 167.025 78.941 167.243 75.1554L167.521 70.4385L180.547 62.1356V62.1417Z" fill="white"/>
<path d="M173.738 82.4605C171.887 82.4605 170.158 81.7167 168.864 80.3561C167.533 78.9592 166.832 77.0603 166.947 75.1373L167.225 70.4204C167.225 70.3237 167.279 70.233 167.364 70.1846L180.39 61.8817C180.487 61.8212 180.608 61.8212 180.71 61.8817C180.807 61.9422 180.868 62.051 180.855 62.1659C180.493 66.78 180.414 71.1642 180.626 75.1857C180.722 77.0543 180.051 78.9108 178.787 80.2835C177.536 81.6381 175.836 82.4121 174.016 82.4545H173.829C173.829 82.4545 173.774 82.4545 173.744 82.4545L173.738 82.4605ZM167.818 70.6139L167.551 75.1736C167.449 76.9273 168.09 78.6689 169.305 79.9388C170.484 81.1725 172.057 81.8558 173.744 81.8558C173.768 81.8558 173.792 81.8558 173.822 81.8558H173.998C175.661 81.8074 177.203 81.1059 178.346 79.8723C179.507 78.6205 180.118 76.9212 180.027 75.2159C179.821 71.3396 179.882 67.1428 180.208 62.7162L167.824 70.6079L167.818 70.6139Z" fill="#732A09"/>
<path d="M187.912 56.8565C188.172 62.3353 182.367 61.9483 182.367 61.9483C182.367 61.9483 174.493 76.4678 161.884 74.6717C155.753 73.807 152.469 69.2534 151.163 63.3331C150.129 58.6586 150.334 53.1314 151.338 47.8703C154.156 46.9511 156.696 44.9555 158.528 43.1957C160.101 45.0583 162.308 46.0319 164.455 46.1105C165.87 48.088 167.835 49.8356 170.381 50.0775C178.031 50.7971 180.226 54.7218 180.468 55.8527C180.716 56.9835 179.446 60.0434 179.446 60.0434L181.81 60.1643L184.368 53.1012C184.489 53.1012 187.736 53.1374 187.918 56.8565H187.912Z" fill="white"/>
<path d="M164.008 75.1252C163.3 75.1252 162.575 75.0768 161.837 74.9679C156.146 74.1637 152.355 70.1604 150.867 63.3935C149.894 59.0032 149.96 53.4639 151.043 47.8097C151.061 47.7009 151.139 47.6101 151.248 47.5799C153.534 46.8361 155.911 45.288 158.323 42.9779C158.384 42.9235 158.463 42.8872 158.547 42.8933C158.632 42.8933 158.71 42.9356 158.765 43.0021C160.204 44.7075 162.284 45.7294 164.467 45.8081C164.558 45.8081 164.649 45.8564 164.703 45.9351C166.39 48.2874 168.307 49.5816 170.412 49.7751C177.989 50.4826 180.456 54.3589 180.771 55.786C180.983 56.7596 180.239 58.858 179.888 59.7591L181.605 59.8498L184.085 52.9983C184.127 52.8773 184.242 52.7987 184.369 52.7987C184.52 52.7987 188.028 52.8471 188.221 56.8383C188.3 58.4892 187.858 59.7954 186.909 60.7327C185.433 62.178 183.22 62.2747 182.549 62.2566C181.672 63.7684 174.73 75.1252 164.02 75.1252H164.008ZM151.599 48.1C150.565 53.6151 150.51 58.9971 151.454 63.2665C152.452 67.8019 155.076 73.4077 161.922 74.3753C174.155 76.1169 182.017 61.9482 182.095 61.8091C182.15 61.7063 182.271 61.6398 182.379 61.6519C182.41 61.6519 184.956 61.797 186.473 60.3033C187.296 59.493 187.677 58.338 187.604 56.8745C187.459 53.9356 185.258 53.4881 184.562 53.4216L182.083 60.2731C182.041 60.4001 181.902 60.4908 181.781 60.4727L179.416 60.3517C179.32 60.3517 179.229 60.2973 179.174 60.2126C179.12 60.128 179.114 60.0252 179.15 59.9345C179.495 59.106 180.341 56.7717 180.16 55.9251C180.148 55.8767 178.896 51.1901 170.339 50.3858C168.096 50.1742 166.058 48.8438 164.286 46.4128C162.091 46.2918 160.005 45.294 158.499 43.6371C156.159 45.8322 153.836 47.338 151.593 48.106L151.599 48.1Z" fill="#CD88DA"/>
<path d="M182.361 61.9482C182.361 61.9482 174.488 76.4677 161.879 74.6716C155.747 73.8069 152.463 69.2533 151.157 63.333C152.566 65.51 156.515 65.9575 158.65 64.8025C160.797 63.6475 167.043 63.2363 169.402 64.3731C171.754 65.51 178.019 62.2445 179.44 60.0433L181.805 60.1642C181.805 60.1642 182.494 60.7932 182.367 61.9482H182.361Z" fill="#732A09"/>
<path d="M164.008 75.1252C163.3 75.1252 162.575 75.0768 161.837 74.968C156.146 74.1637 152.355 70.1604 150.867 63.3935C150.837 63.2484 150.909 63.1032 151.049 63.0488C151.182 62.9944 151.339 63.0428 151.417 63.1637C152.736 65.2016 156.485 65.631 158.511 64.5304C160.736 63.333 167.038 62.8916 169.541 64.095C171.76 65.1714 177.862 61.9482 179.192 59.874C179.253 59.7833 179.368 59.7228 179.465 59.7349L181.829 59.8559C181.902 59.8559 181.968 59.8861 182.017 59.9345C182.047 59.9647 182.821 60.6843 182.676 61.9785C182.676 62.0147 182.658 62.051 182.639 62.0873C182.567 62.2264 175.431 75.1192 164.02 75.1192L164.008 75.1252ZM151.738 64.4155C152.917 68.697 155.644 73.4864 161.922 74.3693C173.786 76.0565 181.539 62.7948 182.071 61.8515C182.138 61.1016 181.817 60.6299 181.666 60.4546L179.598 60.3457C177.935 62.6678 171.766 65.8427 169.275 64.6393C167.013 63.5507 160.833 63.962 158.795 65.0626C156.848 66.1148 153.594 65.9273 151.738 64.4095V64.4155Z" fill="#CD88DA"/>
<path d="M165.634 54.0202C167.152 52.3512 169.994 52.3149 171.482 54.0323C171.669 54.3468 172.34 54.8124 171.947 55.1631C171.584 55.3688 171.228 54.8003 170.931 54.6552C170.333 54.2319 169.625 53.8872 168.905 53.8086C167.914 53.6755 166.874 54.0202 166.003 54.4919C165.712 54.6612 165.398 54.25 165.64 54.0142L165.634 54.0202Z" fill="#732A09"/>
<path d="M153.908 51.3354C154.398 50.6702 155.1 50.4766 155.837 50.3496C157.918 50.0533 159.992 51.2205 161.111 52.9197C161.207 53.0588 161.177 53.2463 161.038 53.343C160.917 53.4277 160.76 53.4096 160.651 53.3189C159.012 51.8736 156.497 50.5371 154.392 51.6861C154.132 51.9582 153.703 51.6559 153.902 51.3293L153.908 51.3354Z" fill="#732A09"/>
<path d="M159.14 63.1819C159.14 63.1819 159.091 63.1819 159.067 63.1819C158.184 63.1577 157.211 62.6315 157.138 61.2346C157.108 60.648 157.289 60.1643 157.676 59.7954C158.402 59.106 159.678 59.0576 160.24 59.0818C160.355 58.3138 160.664 55.9735 160.591 53.1374C160.591 52.968 160.718 52.8289 160.887 52.8289H160.893C161.057 52.8289 161.19 52.9559 161.196 53.1253C161.292 56.6569 160.803 59.4326 160.797 59.4628C160.766 59.62 160.621 59.7289 160.47 59.7107C160.452 59.7107 158.831 59.5474 158.1 60.2429C157.846 60.4848 157.731 60.7992 157.755 61.2104C157.815 62.4199 158.716 62.5771 159.097 62.5832C159.115 62.5832 159.134 62.5832 159.152 62.5832C160.053 62.5832 161.063 61.9603 161.178 60.9262C161.196 60.7569 161.341 60.642 161.51 60.6601C161.673 60.6783 161.794 60.8295 161.776 60.9927C161.625 62.3655 160.307 63.1879 159.146 63.1879L159.14 63.1819Z" fill="#732A09"/>
<path d="M168.949 58.3138C168.822 59.3358 168.144 60.0856 167.443 59.9949C166.741 59.9042 166.27 59.0153 166.397 57.9933C166.433 57.6909 166.53 57.4006 166.657 57.1587L167.788 57.963L167.4 56.3968C167.564 56.3182 167.727 56.294 167.902 56.3121C168.604 56.4028 169.076 57.2918 168.949 58.3077V58.3138Z" fill="#732A09"/>
<path d="M157.688 55.6651C157.646 56.6932 157.029 57.4974 156.327 57.4672C155.626 57.437 155.076 56.5843 155.118 55.5563C155.13 55.2539 155.197 54.9576 155.305 54.7036L156.497 55.4111L155.983 53.8872C156.14 53.7965 156.303 53.7542 156.479 53.7602C157.186 53.7905 157.73 54.6431 157.688 55.6651Z" fill="#732A09"/>
<path d="M161.468 66.2539C164.231 69.9427 166.16 66.1571 166.16 66.1571L161.468 66.2539Z" fill="white"/>
<path d="M151.157 42.6816C149.089 42.482 150.262 37.6442 151.157 36.3622C152.052 35.0802 152.838 35.3765 152.838 35.3765C152.838 35.3765 156.086 29.7465 159.448 27.2792C162.81 24.812 165.284 22.3386 166.765 20.857C168.247 19.3755 172.002 16.6119 175.455 17.5008C178.914 18.3898 183.552 24.4128 184.248 31.3249C184.937 38.2369 186.122 42.8812 185.929 44.8526C185.929 44.8526 187.211 45.3484 186.721 47.2231C186.225 49.0977 186.522 50.797 185.336 50.791C184.151 50.7849 174.276 45.4452 165.828 43.6734C157.386 41.8955 151.157 42.6876 151.157 42.6876V42.6816Z" fill="white"/>
<path d="M185.348 51.0934H185.336C184.889 51.0934 183.746 50.5915 181.4 49.5634C177.384 47.7976 171.319 45.1308 165.773 43.9637C157.483 42.216 151.266 42.9719 151.2 42.978C151.175 42.978 151.157 42.978 151.133 42.978C150.607 42.9296 150.208 42.6272 149.972 42.1193C149.252 40.5591 150.178 37.2512 150.915 36.1869C151.629 35.1649 152.336 35.0198 152.687 35.044C153.28 34.0462 156.195 29.287 159.279 27.0314C162.635 24.5701 165.09 22.1089 166.56 20.6394C168.259 18.9401 172.057 16.3035 175.54 17.2046C179.223 18.154 183.861 24.3766 184.556 31.2947C184.883 34.536 185.312 37.2754 185.663 39.4766C186.038 41.835 186.31 43.5827 186.249 44.6833C186.649 44.9373 187.447 45.6751 187.017 47.3018C186.872 47.8642 186.794 48.4205 186.727 48.9043C186.57 50.0291 186.425 51.0873 185.354 51.0873L185.348 51.0934ZM154.864 42.21C157.525 42.21 161.413 42.4337 165.894 43.3771C171.5 44.5563 177.602 47.2352 181.641 49.0131C183.444 49.8053 185.004 50.4887 185.342 50.4947H185.348C185.85 50.4947 185.959 50.0351 186.122 48.8317C186.195 48.3237 186.274 47.7493 186.425 47.1566C186.848 45.5601 185.826 45.1489 185.82 45.1429C185.693 45.0945 185.614 44.9675 185.627 44.8284C185.729 43.8185 185.445 42.0406 185.058 39.5734C184.707 37.3661 184.272 34.6146 183.951 31.3551C183.413 25.961 179.555 18.8615 175.389 17.7911C172.171 16.9627 168.591 19.4602 166.989 21.0688C165.507 22.5503 163.028 25.0297 159.635 27.5212C156.364 29.9219 153.141 35.4733 153.11 35.5278C153.038 35.6547 152.881 35.7092 152.742 35.6608C152.723 35.6608 152.143 35.4915 151.411 36.5376C150.746 37.4931 149.911 40.5651 150.516 41.8713C150.661 42.1797 150.867 42.343 151.157 42.3793C151.393 42.3551 152.736 42.21 154.864 42.21Z" fill="#CD88DA"/>
<path d="M185.929 45.1609C185.875 45.1609 185.826 45.1489 185.778 45.1186C185.669 45.0521 174.451 38.6057 165.133 36.7553C155.886 34.9229 152.953 35.6547 152.923 35.6667C152.76 35.7151 152.597 35.6123 152.554 35.4551C152.512 35.2979 152.603 35.1285 152.766 35.0862C152.887 35.056 155.808 34.3001 165.247 36.1687C174.669 38.0312 185.965 44.532 186.08 44.5985C186.225 44.6832 186.274 44.8646 186.189 45.0098C186.135 45.1065 186.032 45.1609 185.929 45.1609Z" fill="#CD88DA"/>
<path d="M157.229 35.3464C158.299 34.022 159.448 32.7521 160.7 31.5971C161.952 30.442 163.403 29.6317 164.637 28.4827C165.87 27.3337 167.055 26.1485 168.198 24.9209C169.251 23.7961 170.2 22.5866 171.21 21.4195C172.292 20.1677 173.472 18.9825 174.935 18.1721C175.274 17.9847 174.971 17.4586 174.633 17.6521C172.002 19.1095 170.315 21.6735 168.356 23.8626C167.201 25.1507 165.955 26.3662 164.715 27.5756C164.098 28.1743 163.469 28.7548 162.768 29.2507C162.066 29.7466 161.413 30.182 160.791 30.7142C159.327 31.9659 158.021 33.4233 156.811 34.917C156.57 35.2194 156.993 35.6487 157.241 35.3464H157.229Z" fill="#CD88DA"/>
<path d="M174.935 17.7428C173.139 19.7807 171.742 22.121 170.405 24.4734C169.722 25.6768 169.014 26.8742 168.567 28.1864C168.337 28.8577 168.083 29.4563 167.678 30.0429C167.297 30.5932 166.892 31.1133 166.553 31.6878C165.785 32.9819 165.253 34.3969 164.721 35.7999C164.582 36.1627 165.168 36.32 165.301 35.9632C165.767 34.7356 166.239 33.4959 166.874 32.3469C167.509 31.1979 168.428 30.2727 168.9 29.0633C169.154 28.4162 169.347 27.7571 169.649 27.1281C169.952 26.4992 170.284 25.9187 170.623 25.3261C171.282 24.1529 171.947 22.9858 172.661 21.8489C173.471 20.5608 174.348 19.3211 175.358 18.1842C175.612 17.894 175.189 17.4646 174.929 17.7549L174.935 17.7428Z" fill="#CD88DA"/>
<path d="M175.969 18.5349C178.128 20.7905 178.424 24.05 178.811 26.9889C179.029 28.5975 179.355 30.1577 179.809 31.7179C180.263 33.2781 180.728 34.796 180.964 36.3924C181.242 38.2852 181.254 40.2083 181.26 42.1131C181.26 42.5002 181.865 42.5002 181.865 42.1131C181.859 40.3957 181.841 38.6722 181.641 36.9669C181.442 35.2616 181.024 33.7074 180.553 32.1049C180.081 30.5024 179.67 28.8696 179.44 27.1946C179.21 25.5195 179.065 23.9351 178.636 22.3567C178.206 20.7784 177.523 19.2847 176.392 18.1055C176.12 17.8213 175.697 18.2507 175.963 18.5349H175.969Z" fill="#CD88DA"/>
<path d="M175.316 18.2507C175.455 20.9417 175.237 23.6146 174.723 26.2633C174.481 27.5332 174.245 28.7971 174.318 30.0972C174.39 31.3974 174.56 32.6915 174.415 34.0159C174.251 35.5277 173.834 36.9972 173.435 38.4606C173.332 38.8355 173.913 38.9988 174.016 38.6239C174.372 37.3419 174.723 36.0598 174.923 34.7415C175.122 33.4232 175.092 32.1049 174.971 30.7564C174.85 29.4078 174.977 28.1137 175.237 26.7773C175.497 25.4408 175.703 24.1951 175.83 22.8829C175.975 21.3469 175.999 19.7988 175.92 18.2567C175.902 17.8697 175.298 17.8697 175.316 18.2567V18.2507Z" fill="#CD88DA"/>
<path d="M138.24 60.0069H5.49665C2.6311 60.0069 0.308105 62.3299 0.308105 65.1954V140.103C0.308105 142.968 2.6311 145.291 5.49665 145.291H138.24C141.106 145.291 143.429 142.968 143.429 140.103V65.1954C143.429 62.3299 141.106 60.0069 138.24 60.0069Z" fill="white"/>
<path d="M138.234 145.594H5.49701C2.46734 145.594 0.00610352 143.133 0.00610352 140.103V65.1894C0.00610352 62.1598 2.46734 59.6985 5.49701 59.6985H138.24C141.27 59.6985 143.731 62.1598 143.731 65.1894V140.103C143.731 143.133 141.27 145.594 138.24 145.594H138.234ZM5.49701 60.3093C2.79994 60.3093 0.610829 62.4984 0.610829 65.1955V140.109C0.610829 142.806 2.79994 144.995 5.49701 144.995H138.24C140.937 144.995 143.127 142.806 143.127 140.109V65.1955C143.127 62.4984 140.937 60.3093 138.24 60.3093H5.49701Z" fill="black"/>
<path d="M74.6408 167.63C71.5386 167.63 69.6821 167.007 70.0933 162.574C70.3473 159.877 74.6408 147.892 77.9789 138.911C79.8415 133.892 76.1284 128.565 70.7766 128.565H55.0417C51.7882 128.565 48.8916 130.615 47.8031 133.681C44.9186 141.838 39.5184 157.398 38.4661 162.574C37.0208 169.716 42.8081 171.766 42.8081 171.766H87.1042C88.2472 171.766 89.1724 170.841 89.1724 169.698C89.1724 168.555 88.2472 167.63 87.1042 167.63H74.6408ZM63.8041 150.401C62.1593 155.505 58.1016 158.765 54.7332 157.682C51.371 156.6 49.9741 151.58 51.6189 146.477C53.2638 141.373 57.3215 138.113 60.6898 139.196C64.0521 140.278 65.449 145.297 63.8041 150.401Z" fill="black"/>
<path d="M87.1042 172.069H42.808C42.7717 172.069 42.7415 172.069 42.7052 172.05C42.6447 172.026 36.6882 169.825 38.1698 162.514C39.2099 157.374 44.471 142.177 47.5188 133.578C48.6436 130.397 51.6673 128.262 55.0416 128.262H70.7766C73.4253 128.262 75.814 129.508 77.3318 131.685C78.8436 133.862 79.1823 136.535 78.2631 139.014C74.8101 148.321 70.6436 159.968 70.3956 162.605C70.2263 164.449 70.45 165.683 71.091 166.384C71.847 167.219 73.2439 167.334 74.6408 167.334H87.1042C88.4104 167.334 89.4747 168.398 89.4747 169.704C89.4747 171.01 88.4104 172.075 87.1042 172.075V172.069ZM42.8624 171.464H87.1042C88.0778 171.464 88.87 170.672 88.87 169.698C88.87 168.724 88.0778 167.932 87.1042 167.932H74.6408C73.1048 167.932 71.5567 167.793 70.6435 166.789C69.8755 165.943 69.6034 164.594 69.7909 162.544C70.0449 159.847 74.2235 148.146 77.6947 138.803C78.5473 136.505 78.2329 134.037 76.8359 132.024C75.439 130.016 73.2318 128.861 70.7826 128.861H55.0477C51.9273 128.861 49.1335 130.838 48.0933 133.777C45.0576 142.364 39.8025 157.525 38.7685 162.635C37.4562 169.105 42.3424 171.252 42.8685 171.464H42.8624ZM56.0576 158.19C55.5798 158.19 55.1021 158.118 54.6425 157.972C51.123 156.842 49.6414 151.641 51.3347 146.386C53.0279 141.131 57.261 137.775 60.7805 138.911C64.3 140.042 65.7816 145.243 64.0883 150.498C62.6188 155.064 59.2263 158.19 56.0515 158.19H56.0576ZM59.3473 139.292C56.4385 139.292 53.294 142.262 51.9091 146.567C50.3187 151.502 51.631 156.358 54.83 157.392C58.035 158.426 61.9295 155.245 63.5199 150.311C65.1103 145.376 63.7981 140.52 60.5991 139.486C60.1939 139.353 59.7706 139.292 59.3533 139.292H59.3473Z" fill="#CD88DA"/>
<path d="M71.0497 100.28C70.0697 101.23 68.9997 101.08 67.9697 100.63C66.8797 100.17 65.8797 100.15 64.7297 100.63C63.2897 101.25 62.5297 101.07 61.6697 100.28C56.7897 95.2501 57.5097 87.5901 63.0497 87.3101C64.3997 87.3801 65.3397 88.0501 66.1297 88.1101C67.3097 87.8701 68.4397 87.1801 69.6997 87.2701C71.2097 87.3901 72.3497 87.9901 73.0997 89.0701C69.9797 90.9401 70.7197 95.0501 73.5797 96.2001C73.0097 97.7001 72.2697 99.1901 71.0397 100.29L71.0497 100.28ZM66.0297 87.2501C65.8797 85.0201 67.6897 83.1801 69.7697 83.0001C70.0597 85.5801 67.4297 87.5001 66.0297 87.2501Z" fill="black"/>
<path d="M75.9168 41.3815C75.7535 41.3815 75.6144 41.2485 75.6144 41.0852C75.6144 40.807 75.0097 13.2134 54.2918 13.2134C33.5739 13.2134 32.9692 40.807 32.9631 41.0852C32.9631 41.2485 32.824 41.3815 32.6608 41.3815C32.4914 41.3815 32.3584 41.2424 32.3645 41.0731C32.3645 40.7889 32.9813 12.6026 54.2979 12.6026C75.6144 12.6026 76.2252 40.7889 76.2252 41.0731C76.2252 41.2424 76.0922 41.3754 75.9289 41.3815H75.9168Z" fill="#732A09"/>
<path d="M57.0314 15.9528H51.5465C51.3772 15.9528 51.2441 15.8197 51.2441 15.6504V10.1655C51.2441 9.99621 51.3772 9.86317 51.5465 9.86317H57.0314C57.2007 9.86317 57.3337 9.99621 57.3337 10.1655V15.6504C57.3337 15.8197 57.2007 15.9528 57.0314 15.9528ZM51.8489 15.348H56.729V10.4679H51.8489V15.348Z" fill="#732A09"/>
<path d="M75.917 13.2134H33.2294C33.06 13.2134 32.927 13.0803 32.927 12.911C32.927 12.7417 33.06 12.6086 33.2294 12.6086H75.917C76.0863 12.6086 76.2193 12.7417 76.2193 12.911C76.2193 13.0803 76.0863 13.2134 75.917 13.2134Z" fill="#732A09"/>
<path d="M78.6562 10.1656H73.1714V15.6504H78.6562V10.1656Z" fill="black"/>
<path d="M78.6564 15.9528H73.1715C73.0022 15.9528 72.8691 15.8197 72.8691 15.6504V10.1655C72.8691 9.99621 73.0022 9.86317 73.1715 9.86317H78.6564C78.8257 9.86317 78.9587 9.99621 78.9587 10.1655V15.6504C78.9587 15.8197 78.8257 15.9528 78.6564 15.9528ZM73.4739 15.348H78.354V10.4679H73.4739V15.348Z" fill="black"/>
<path d="M78.6562 38.3397H73.1714V43.8246H78.6562V38.3397Z" fill="black"/>
<path d="M78.6564 44.127H73.1715C73.0022 44.127 72.8691 43.994 72.8691 43.8247V38.3398C72.8691 38.1705 73.0022 38.0374 73.1715 38.0374H78.6564C78.8257 38.0374 78.9587 38.1705 78.9587 38.3398V43.8247C78.9587 43.994 78.8257 44.127 78.6564 44.127ZM73.4739 43.5223H78.354V38.6422H73.4739V43.5223Z" fill="black"/>
<path d="M35.9688 38.3397H30.4839V43.8246H35.9688V38.3397Z" fill="black"/>
<path d="M35.9689 44.127H30.484C30.3147 44.127 30.1816 43.994 30.1816 43.8247V38.3398C30.1816 38.1705 30.3147 38.0374 30.484 38.0374H35.9689C36.1382 38.0374 36.2712 38.1705 36.2712 38.3398V43.8247C36.2712 43.994 36.1382 44.127 35.9689 44.127ZM30.7864 43.5223H35.6665V38.6422H30.7864V43.5223Z" fill="black"/>
<path d="M35.9688 10.1656H30.4839V15.6504H35.9688V10.1656Z" fill="black"/>
<path d="M35.9689 15.9527H30.484C30.3147 15.9527 30.1816 15.8196 30.1816 15.6503V10.1655C30.1816 9.99614 30.3147 9.8631 30.484 9.8631H35.9689C36.1382 9.8631 36.2712 9.99614 36.2712 10.1655V15.6503C36.2712 15.8196 36.1382 15.9527 35.9689 15.9527ZM30.7864 15.348H35.6665V10.4678H30.7864V15.348Z" fill="black"/>
<path d="M148.109 0.302246H115.145C113.462 0.302246 112.098 1.6668 112.098 3.35006V36.3137C112.098 37.9969 113.462 39.3615 115.145 39.3615H148.109C149.792 39.3615 151.157 37.9969 151.157 36.3137V3.35006C151.157 1.6668 149.792 0.302246 148.109 0.302246Z" fill="white"/>
<path d="M148.109 39.664H115.146C113.301 39.664 111.795 38.1582 111.795 36.3138V3.35018C111.795 1.50577 113.295 0 115.146 0H148.109C149.954 0 151.459 1.49972 151.459 3.35018V36.3138C151.459 38.1582 149.96 39.664 148.109 39.664ZM115.146 0.604726C113.634 0.604726 112.4 1.83837 112.4 3.35018V36.3138C112.4 37.8256 113.634 39.0592 115.146 39.0592H148.109C149.621 39.0592 150.855 37.8256 150.855 36.3138V3.35018C150.855 1.83837 149.621 0.604726 148.109 0.604726H115.146Z" fill="#CD88DA"/>
<path d="M144.36 10.4436V17.1077H142.141C142.141 17.1077 141.56 13.0742 139.667 13.0742H134.479V27.4062L136.952 32.2017H126.315L128.788 27.4062V13.0742H123.6C121.707 13.0742 121.127 17.1077 121.127 17.1077H118.901V10.5222C118.901 10.5222 118.901 10.4738 118.901 10.4436C118.919 8.78666 120.31 7.47441 121.967 7.47441H141.294C142.951 7.47441 144.336 8.78666 144.36 10.4436Z" fill="white"/>
<path d="M136.952 32.4979H126.315C126.212 32.4979 126.11 32.4435 126.055 32.3528C126.001 32.2621 125.995 32.1532 126.043 32.0565L128.48 27.3275V13.3705H123.594C122.257 13.3705 121.574 16.0978 121.423 17.15C121.399 17.3012 121.272 17.41 121.121 17.41H118.895C118.726 17.41 118.593 17.277 118.593 17.1077V10.5222C118.593 10.4859 118.593 10.4375 118.605 10.3831C118.623 8.63547 120.129 7.17203 121.967 7.17203H141.294C143.127 7.17203 144.638 8.63547 144.662 10.4436V17.1137C144.662 17.283 144.529 17.4161 144.36 17.4161H142.141C141.99 17.4161 141.863 17.3072 141.838 17.1561C141.687 16.1038 141.004 13.3765 139.661 13.3765H134.775V27.3336L137.212 32.0625C137.261 32.1593 137.255 32.2681 137.2 32.3589C137.146 32.4496 137.049 32.504 136.94 32.504L136.952 32.4979ZM126.811 31.8932H136.456L134.213 27.5392C134.189 27.4969 134.177 27.4485 134.177 27.4001V13.0681C134.177 12.8988 134.31 12.7657 134.479 12.7657H139.667C141.518 12.7657 142.225 15.8619 142.401 16.7993H144.064V10.4375C144.04 8.96202 142.8 7.76466 141.3 7.76466H121.973C120.467 7.76466 119.228 8.96202 119.21 10.4375L118.901 10.5101H119.204V16.7932H120.873C121.042 15.8559 121.749 12.7597 123.6 12.7597H128.788C128.958 12.7597 129.091 12.8927 129.091 13.0621V27.3941C129.091 27.4424 129.079 27.4908 129.055 27.5331L126.811 31.8872V31.8932Z" fill="#CD88DA"/>
<path d="M230.703 155.336C236.326 151.218 238.776 151.968 240.729 155.336C243.293 159.775 236.574 175.298 228.38 167.352L229.971 164.54C229.971 164.54 233.273 167.352 236.085 164.298C238.897 161.244 238.776 156.473 236.816 155.983C234.857 155.493 231.616 158.112 231.616 158.112L230.703 155.336Z" fill="white"/>
<path d="M233.031 169.874C231.404 169.874 229.753 169.099 228.169 167.57C228.072 167.473 228.048 167.322 228.114 167.207L229.705 164.395C229.747 164.316 229.826 164.262 229.916 164.244C230.007 164.225 230.098 164.25 230.164 164.31C230.291 164.419 233.279 166.892 235.855 164.092C237.754 162.03 238.255 159.158 237.76 157.507C237.554 156.83 237.191 156.394 236.738 156.279C234.954 155.832 231.833 158.323 231.803 158.354C231.724 158.414 231.622 158.438 231.525 158.408C231.428 158.378 231.356 158.305 231.325 158.214L230.412 155.439C230.37 155.312 230.412 155.179 230.521 155.1C233.629 152.826 235.897 151.931 237.675 152.312C238.951 152.578 240.003 153.498 240.989 155.197C242.628 158.033 240.674 165.405 236.671 168.525C235.504 169.432 234.276 169.886 233.031 169.886V169.874ZM228.761 167.297C231.948 170.273 234.615 169.353 236.296 168.041C240.021 165.132 241.962 158.081 240.463 155.493C239.574 153.951 238.649 153.129 237.548 152.899C235.988 152.572 233.92 153.383 231.053 155.457L231.767 157.622C232.674 156.951 235.171 155.269 236.883 155.699C237.554 155.868 238.068 156.449 238.334 157.338C238.878 159.152 238.352 162.278 236.296 164.51C233.823 167.201 230.962 165.616 230.055 164.993L228.749 167.303L228.761 167.297Z" fill="#CD88DA"/>
<path d="M208.654 149.24H231.525C232.849 149.24 233.92 150.323 233.895 151.647C233.793 157.628 232.317 172.698 220.089 172.698C207.862 172.698 206.386 157.628 206.284 151.647C206.259 150.323 207.33 149.24 208.654 149.24Z" fill="white"/>
<path d="M220.09 173C214.683 173 210.741 170.152 208.364 164.534C206.405 159.908 206.03 154.477 205.981 151.653C205.969 150.934 206.241 150.25 206.743 149.736C207.251 149.222 207.929 148.938 208.654 148.938H231.525C232.251 148.938 232.928 149.222 233.436 149.736C233.944 150.25 234.21 150.927 234.198 151.653C234.149 154.477 233.775 159.908 231.815 164.534C229.439 170.152 225.49 173 220.09 173ZM208.654 149.543C208.092 149.543 207.566 149.76 207.173 150.159C206.78 150.559 206.574 151.085 206.58 151.641C206.689 157.882 208.225 172.395 220.084 172.395C231.942 172.395 233.478 157.882 233.587 151.641C233.599 151.085 233.388 150.559 232.994 150.159C232.601 149.76 232.075 149.543 231.513 149.543H208.642H208.654Z" fill="#CD88DA"/>
</svg>
