<svg width="260" height="259" viewBox="0 0 260 259" fill="none" xmlns="http://www.w3.org/2000/svg">
<path d="M154.756 182.998C152.668 183.028 150.587 182.752 148.579 182.18C143.291 180.588 138.56 176.162 135.605 170.03C132.96 164.544 131.901 158.495 130.881 152.641C130.862 152.536 130.886 152.427 130.948 152.339C131.01 152.251 131.104 152.191 131.21 152.172C131.262 152.163 131.316 152.164 131.367 152.176C131.419 152.188 131.468 152.21 131.511 152.24C131.554 152.271 131.59 152.31 131.618 152.355C131.646 152.4 131.665 152.45 131.673 152.502C132.688 158.298 133.734 164.291 136.334 169.681C139.188 175.604 143.741 179.884 148.814 181.412C152.498 182.516 156.525 182.256 160.324 181.799C168.453 180.829 173.419 178.311 175.499 174.101C175.575 173.936 175.645 173.784 175.702 173.638C174.395 174.012 173.108 174.481 171.846 174.944C170.806 175.325 169.728 175.718 168.644 176.054C163.394 177.679 157.832 178.025 152.422 177.062C149.816 176.593 148.224 175.337 148.161 173.695C148.097 172.053 149.524 170.746 152.048 170.011C158.977 167.993 166.319 167.859 173.317 169.624C175.308 170.125 176.405 170.949 176.665 172.16C176.692 172.29 176.709 172.421 176.716 172.553C177.033 172.484 177.35 172.414 177.674 172.357C181.035 171.761 184.554 172.097 187.953 172.427C192.779 172.89 197.338 173.327 201.454 171.311C201.502 171.279 201.556 171.258 201.613 171.249C201.67 171.24 201.728 171.243 201.784 171.258C201.839 171.273 201.891 171.3 201.935 171.337C201.98 171.374 202.016 171.419 202.041 171.471C202.066 171.523 202.081 171.579 202.082 171.637C202.084 171.694 202.074 171.751 202.052 171.804C202.03 171.858 201.997 171.906 201.955 171.945C201.913 171.985 201.864 172.015 201.809 172.033C197.491 174.145 192.601 173.682 187.858 173.226C184.51 172.902 181.047 172.592 177.794 173.15C177.395 173.219 177.002 173.308 176.602 173.403C176.508 173.77 176.374 174.125 176.203 174.462C173.996 178.939 168.828 181.603 160.4 182.605C158.528 182.847 156.643 182.978 154.756 182.998ZM163.399 169.199C159.635 169.197 155.89 169.731 152.276 170.784C151.262 171.076 148.909 171.951 148.966 173.663C149.036 175.496 151.737 176.117 152.562 176.27C157.849 177.213 163.285 176.876 168.415 175.287C169.474 174.957 170.546 174.564 171.586 174.19C172.994 173.67 174.44 173.143 175.924 172.744C175.929 172.603 175.919 172.463 175.892 172.325C175.702 171.45 174.801 170.822 173.133 170.423C169.952 169.614 166.682 169.203 163.399 169.199Z" fill="#D1D3D4"/>
<path d="M252.401 56.0999H198.429C196.251 56.0999 194.485 57.8658 194.485 60.0442V175.471C194.485 177.649 196.251 179.415 198.429 179.415H252.401C254.579 179.415 256.345 177.649 256.345 175.471V60.0442C256.345 57.8658 254.579 56.0999 252.401 56.0999Z" fill="white"/>
<path d="M252.407 179.814H198.429C197.859 179.814 197.294 179.702 196.767 179.484C196.24 179.265 195.761 178.945 195.358 178.542C194.954 178.139 194.634 177.66 194.416 177.133C194.198 176.606 194.085 176.041 194.085 175.471V60.0569C194.085 58.9042 194.543 57.7987 195.357 56.9831C196.172 56.1674 197.277 55.7083 198.429 55.7067H252.407C253.555 55.7133 254.653 56.1729 255.463 56.9852C256.273 57.7976 256.729 58.897 256.732 60.0442V175.458C256.736 176.609 256.282 177.714 255.471 178.531C254.66 179.348 253.558 179.809 252.407 179.814ZM198.429 56.4993C197.49 56.501 196.59 56.8752 195.927 57.5398C195.263 58.2045 194.891 59.1051 194.891 60.0442V175.458C194.891 176.396 195.264 177.296 195.927 177.96C196.591 178.624 197.491 178.996 198.429 178.996H252.407C253.346 178.996 254.246 178.624 254.909 177.96C255.573 177.296 255.946 176.396 255.946 175.458V60.0442C255.946 59.1051 255.573 58.2045 254.91 57.5398C254.246 56.8752 253.346 56.501 252.407 56.4993H198.429Z" fill="#231F20"/>
<path d="M253.105 67.2543H197.738V162.16H253.105V67.2543Z" fill="#CD88DA"/>
<path d="M230.688 166.77H220.155C218.817 166.77 217.732 167.855 217.732 169.193V173.226C217.732 174.564 218.817 175.648 220.155 175.648H230.688C232.026 175.648 233.11 174.564 233.11 173.226V169.193C233.11 167.855 232.026 166.77 230.688 166.77Z" fill="white"/>
<path d="M230.682 176.054H220.155C219.405 176.052 218.687 175.754 218.157 175.224C217.627 174.694 217.328 173.975 217.327 173.226V169.199C217.327 168.449 217.625 167.729 218.155 167.199C218.685 166.669 219.405 166.371 220.155 166.371H230.682C231.432 166.371 232.151 166.669 232.682 167.199C233.212 167.729 233.51 168.449 233.51 169.199V173.226C233.508 173.975 233.21 174.694 232.68 175.224C232.15 175.754 231.431 176.052 230.682 176.054ZM220.155 167.176C219.618 167.176 219.104 167.389 218.725 167.768C218.345 168.148 218.132 168.662 218.132 169.199V173.226C218.134 173.761 218.348 174.274 218.727 174.652C219.106 175.03 219.62 175.242 220.155 175.242H230.682C231.217 175.242 231.731 175.03 232.11 174.652C232.489 174.274 232.703 173.761 232.705 173.226V169.199C232.705 168.662 232.491 168.148 232.112 167.768C231.733 167.389 231.218 167.176 230.682 167.176H220.155Z" fill="#D1D3D4"/>
<path d="M231.011 61.8387H215.247C215.14 61.8388 215.038 61.7969 214.962 61.7221C214.886 61.6474 214.842 61.5458 214.841 61.4392C214.841 61.3316 214.884 61.2284 214.96 61.1522C215.036 61.0761 215.139 61.0334 215.247 61.0334H231.011C231.118 61.0351 231.22 61.0785 231.294 61.1545C231.369 61.2304 231.411 61.3327 231.411 61.4392C231.411 61.5452 231.369 61.6468 231.294 61.7217C231.219 61.7966 231.117 61.8387 231.011 61.8387Z" fill="#D1D3D4"/>
<path d="M235.336 61.8387H233.225C233.172 61.8396 233.119 61.8299 233.07 61.8102C233.021 61.7905 232.976 61.7612 232.938 61.724C232.9 61.6868 232.87 61.6425 232.85 61.5936C232.829 61.5447 232.819 61.4922 232.819 61.4392C232.819 61.3316 232.862 61.2284 232.938 61.1522C233.014 61.0761 233.117 61.0334 233.225 61.0334H235.336C235.443 61.0351 235.545 61.0785 235.619 61.1545C235.694 61.2304 235.736 61.3327 235.736 61.4392C235.736 61.5452 235.694 61.6468 235.619 61.7217C235.544 61.7966 235.442 61.8387 235.336 61.8387Z" fill="#D1D3D4"/>
<path d="M246.072 126.883H204.764C203.941 126.881 203.152 126.553 202.571 125.97C201.99 125.388 201.663 124.598 201.663 123.775V103.362C201.663 102.539 201.99 101.75 202.571 101.167C203.152 100.585 203.941 100.257 204.764 100.255H246.072C246.895 100.257 247.684 100.585 248.265 101.167C248.846 101.75 249.173 102.539 249.173 103.362V123.775C249.173 124.598 248.846 125.388 248.265 125.97C247.684 126.553 246.895 126.881 246.072 126.883ZM204.764 101.06C204.155 101.062 203.571 101.305 203.14 101.737C202.71 102.168 202.468 102.753 202.468 103.362V123.775C202.468 124.385 202.71 124.969 203.14 125.401C203.571 125.832 204.155 126.076 204.764 126.077H246.072C246.681 126.076 247.265 125.832 247.696 125.401C248.126 124.969 248.368 124.385 248.368 123.775V103.362C248.368 102.753 248.126 102.168 247.696 101.737C247.265 101.305 246.681 101.062 246.072 101.06H204.764Z" fill="white"/>
<path d="M202.069 124.536C201.985 124.536 201.903 124.51 201.834 124.462C201.766 124.413 201.714 124.344 201.686 124.265C201.658 124.185 201.656 124.099 201.679 124.018C201.702 123.938 201.75 123.866 201.816 123.813L222.279 107.617C222.36 107.557 222.459 107.528 222.559 107.535C222.659 107.542 222.753 107.585 222.825 107.656L235.032 120.338C235.107 120.414 235.149 120.517 235.149 120.624C235.149 120.731 235.107 120.833 235.032 120.909C234.995 120.947 234.95 120.977 234.901 120.998C234.852 121.018 234.8 121.029 234.747 121.029C234.693 121.029 234.641 121.018 234.592 120.998C234.543 120.977 234.498 120.947 234.461 120.909L222.489 108.48L202.317 124.473C202.243 124.519 202.156 124.541 202.069 124.536Z" fill="white"/>
<path d="M248.774 120.465C248.716 120.466 248.66 120.454 248.607 120.431C248.555 120.408 248.508 120.374 248.469 120.332L241.69 112.646L233.941 119.121C233.857 119.19 233.749 119.222 233.641 119.212C233.532 119.201 233.433 119.148 233.364 119.064C233.295 118.98 233.262 118.872 233.273 118.763C233.284 118.655 233.337 118.556 233.421 118.487L241.475 111.79C241.555 111.723 241.658 111.69 241.763 111.698C241.867 111.707 241.964 111.755 242.033 111.834L249.078 119.812C249.148 119.893 249.184 119.998 249.177 120.105C249.169 120.212 249.12 120.312 249.04 120.383C248.964 120.442 248.87 120.472 248.774 120.465Z" fill="white"/>
<path d="M234.74 111.08C234.112 111.086 233.495 110.906 232.97 110.561C232.444 110.216 232.033 109.723 231.788 109.145C231.543 108.566 231.476 107.927 231.595 107.31C231.713 106.693 232.013 106.125 232.455 105.679C232.897 105.232 233.462 104.927 234.078 104.802C234.694 104.677 235.333 104.738 235.914 104.977C236.495 105.216 236.993 105.622 237.342 106.144C237.692 106.666 237.879 107.281 237.879 107.909C237.879 108.745 237.549 109.546 236.962 110.14C236.374 110.734 235.575 111.071 234.74 111.08ZM234.74 105.601C234.277 105.6 233.823 105.736 233.438 105.993C233.052 106.249 232.751 106.615 232.573 107.042C232.395 107.47 232.348 107.941 232.438 108.396C232.528 108.85 232.751 109.268 233.079 109.595C233.407 109.923 233.824 110.146 234.279 110.236C234.733 110.326 235.204 110.279 235.632 110.101C236.06 109.924 236.425 109.623 236.682 109.237C236.939 108.851 237.075 108.398 237.074 107.935C237.074 107.316 236.828 106.722 236.39 106.284C235.953 105.847 235.359 105.601 234.74 105.601Z" fill="white"/>
<path d="M207.954 146.7H205.722C204.156 146.7 202.887 147.969 202.887 149.534V153.022C202.887 154.587 204.156 155.857 205.722 155.857H207.954C209.519 155.857 210.789 154.587 210.789 153.022V149.534C210.789 147.969 209.519 146.7 207.954 146.7Z" fill="white"/>
<path d="M220.345 146.7H218.113C216.547 146.7 215.278 147.969 215.278 149.534V153.022C215.278 154.587 216.547 155.857 218.113 155.857H220.345C221.911 155.857 223.18 154.587 223.18 153.022V149.534C223.18 147.969 221.911 146.7 220.345 146.7Z" fill="white"/>
<path d="M232.729 146.7H230.497C228.932 146.7 227.663 147.969 227.663 149.534V153.022C227.663 154.587 228.932 155.857 230.497 155.857H232.729C234.295 155.857 235.564 154.587 235.564 153.022V149.534C235.564 147.969 234.295 146.7 232.729 146.7Z" fill="white"/>
<path d="M245.115 146.7H242.883C241.317 146.7 240.048 147.969 240.048 149.534V153.022C240.048 154.587 241.317 155.857 242.883 155.857H245.115C246.681 155.857 247.95 154.587 247.95 153.022V149.534C247.95 147.969 246.681 146.7 245.115 146.7Z" fill="white"/>
<path d="M248.184 75.1684H202.652C202.546 75.1667 202.444 75.1232 202.37 75.0473C202.295 74.9714 202.253 74.8691 202.253 74.7625C202.253 74.6566 202.295 74.555 202.37 74.4801C202.445 74.4051 202.546 74.363 202.652 74.363H248.184C248.29 74.363 248.393 74.4049 248.469 74.4797C248.544 74.5544 248.588 74.656 248.59 74.7625C248.59 74.8702 248.547 74.9734 248.471 75.0495C248.395 75.1256 248.291 75.1684 248.184 75.1684Z" fill="white"/>
<path d="M248.184 81.5796H202.652C202.546 81.5796 202.445 81.5375 202.37 81.4626C202.295 81.3877 202.253 81.286 202.253 81.1801C202.253 81.0735 202.295 80.9713 202.37 80.8953C202.444 80.8194 202.546 80.7759 202.652 80.7742H248.184C248.291 80.7742 248.395 80.817 248.471 80.8931C248.547 80.9692 248.59 81.0724 248.59 81.1801C248.588 81.2866 248.544 81.3882 248.469 81.463C248.393 81.5377 248.29 81.5796 248.184 81.5796Z" fill="white"/>
<path d="M248.184 87.9971H202.653C202.554 87.9848 202.464 87.9371 202.399 87.8629C202.333 87.7888 202.297 87.6933 202.297 87.5944C202.297 87.4956 202.333 87.4001 202.399 87.326C202.464 87.2518 202.554 87.2041 202.653 87.1918H248.184C248.241 87.1846 248.299 87.1896 248.354 87.2066C248.409 87.2235 248.46 87.252 248.503 87.2901C248.546 87.3282 248.581 87.375 248.604 87.4275C248.628 87.48 248.64 87.5369 248.64 87.5944C248.64 87.652 248.628 87.7089 248.604 87.7614C248.581 87.8139 248.546 87.8607 248.503 87.8988C248.46 87.9369 248.409 87.9653 248.354 87.9823C248.299 87.9993 248.241 88.0043 248.184 87.9971Z" fill="white"/>
<path d="M248.184 94.4146H202.652C202.546 94.4129 202.444 94.3694 202.37 94.2935C202.295 94.2176 202.253 94.1153 202.253 94.0088C202.253 93.9028 202.295 93.8012 202.37 93.7263C202.445 93.6513 202.546 93.6093 202.652 93.6093H248.184C248.29 93.6092 248.393 93.6511 248.469 93.7259C248.544 93.8006 248.588 93.9022 248.59 94.0088C248.59 94.1164 248.547 94.2196 248.471 94.2957C248.395 94.3719 248.291 94.4146 248.184 94.4146Z" fill="white"/>
<path d="M248.184 134.163H202.653C202.554 134.15 202.464 134.103 202.399 134.028C202.333 133.954 202.297 133.859 202.297 133.76C202.297 133.661 202.333 133.566 202.399 133.491C202.464 133.417 202.554 133.37 202.653 133.357H248.184C248.241 133.35 248.299 133.355 248.354 133.372C248.409 133.389 248.46 133.417 248.503 133.456C248.546 133.494 248.581 133.54 248.604 133.593C248.628 133.645 248.64 133.702 248.64 133.76C248.64 133.817 248.628 133.874 248.604 133.927C248.581 133.979 248.546 134.026 248.503 134.064C248.46 134.102 248.409 134.131 248.354 134.148C248.299 134.165 248.241 134.17 248.184 134.163Z" fill="white"/>
<path d="M248.184 140.58H202.652C202.546 140.578 202.444 140.535 202.37 140.459C202.295 140.383 202.253 140.281 202.253 140.174C202.253 140.068 202.295 139.967 202.37 139.892C202.445 139.817 202.546 139.775 202.652 139.775H248.184C248.29 139.775 248.393 139.817 248.469 139.891C248.544 139.966 248.588 140.068 248.59 140.174C248.59 140.282 248.547 140.385 248.471 140.461C248.395 140.537 248.291 140.58 248.184 140.58Z" fill="white"/>
<path d="M239.705 12.7753C239.705 12.7753 240.72 8.43143 239.775 5.95827C239.496 5.25794 239.002 4.66435 238.363 4.26316C237.725 3.86196 236.976 3.67389 236.224 3.7261C236.224 3.7261 229.35 2.19782 227.346 0.403198L228.246 3.5739C227.05 3.49026 225.882 3.17133 224.809 2.63538C224.673 3.17733 224.684 3.74597 224.841 4.28231C224.998 4.81865 225.296 5.30316 225.703 5.68559C225.206 5.91748 224.663 6.03447 224.114 6.02788C223.565 6.02129 223.025 5.89131 222.533 5.64755C222.533 5.64755 224.435 10.2704 228.792 9.75678C231.69 9.41434 236.744 13.7646 239.705 12.7753Z" fill="white"/>
<path d="M238.735 13.327C237.169 13.327 235.33 12.4646 233.542 11.6339C231.753 10.8031 230.067 10.0041 228.862 10.15C224.226 10.689 222.203 5.84414 222.184 5.79341C222.154 5.71537 222.148 5.62987 222.167 5.54829C222.186 5.46671 222.23 5.39295 222.292 5.33683C222.357 5.28393 222.436 5.25149 222.52 5.24359C222.603 5.2357 222.687 5.25269 222.761 5.29244C223.45 5.65452 224.254 5.73193 225 5.50805C224.699 5.08019 224.493 4.59267 224.397 4.07846C224.301 3.56425 224.316 3.03537 224.442 2.52759C224.458 2.47165 224.485 2.41964 224.522 2.37487C224.559 2.3301 224.605 2.29357 224.657 2.26759C224.711 2.24264 224.769 2.2297 224.829 2.2297C224.888 2.2297 224.946 2.24264 225 2.26759C225.863 2.67445 226.778 2.95835 227.72 3.111L226.978 0.511017C226.957 0.426833 226.962 0.337957 226.994 0.257093C227.026 0.176229 227.083 0.107516 227.156 0.060777C227.23 0.0144253 227.317 -0.00633392 227.404 0.00168429C227.491 0.00970249 227.573 0.0460553 227.638 0.105167C229.426 1.72857 235.59 3.16807 236.249 3.32026C237.081 3.26629 237.908 3.47966 238.61 3.92917C239.311 4.37869 239.851 5.0408 240.149 5.81878C241.132 8.35534 240.149 12.6865 240.092 12.8641C240.078 12.9312 240.047 12.9934 240.001 13.0445C239.956 13.0957 239.897 13.1341 239.832 13.1558C239.478 13.2707 239.108 13.3285 238.735 13.327ZM229.147 9.33192C230.504 9.33192 232.153 10.0929 233.884 10.9046C235.863 11.8304 237.911 12.807 239.357 12.4519C239.547 11.5387 240.168 8.11437 239.401 6.11048C239.15 5.48737 238.708 4.95999 238.138 4.6044C237.568 4.24881 236.9 4.08339 236.23 4.13197C236.19 4.13826 236.15 4.13826 236.11 4.13197C235.863 4.07489 230.694 2.92076 228.037 1.39248L228.633 3.47246C228.649 3.5331 228.651 3.59649 228.639 3.65795C228.627 3.71941 228.601 3.77738 228.564 3.82758C228.526 3.87748 228.477 3.91782 228.421 3.94536C228.365 3.9729 228.303 3.98685 228.24 3.98611C227.165 3.91908 226.111 3.66141 225.127 3.22514C225.08 3.62591 225.131 4.03208 225.275 4.40874C225.42 4.7854 225.654 5.1213 225.957 5.38756C226.008 5.43109 226.048 5.4866 226.072 5.54912C226.097 5.61164 226.105 5.67923 226.097 5.74582C226.089 5.81242 226.064 5.87596 226.025 5.93074C225.987 5.98553 225.935 6.02985 225.875 6.05975C225.089 6.40997 224.219 6.52453 223.37 6.38951C224.125 7.65779 225.837 9.70607 228.741 9.36363C228.885 9.34249 229.02 9.33192 229.147 9.33192Z" fill="#231F20"/>
<path d="M245.495 49.1369C245.495 49.1369 251.481 36.0419 250.752 27.4556C250.023 18.8694 244.411 18.3494 242.451 18.2289C240.492 18.1084 230.174 16.726 226.401 21.3489C222.628 25.9717 223.604 48.2174 223.604 48.2174L245.495 49.1369Z" fill="#CD88DA"/>
<path d="M223.18 43.8101C223.18 43.8101 218.221 45.8521 210.611 51.0203C207.117 53.392 205.132 78.4216 205.132 78.4216C205.132 78.4216 205.855 82.442 210.51 81.8142L222.755 53.912C222.755 53.912 227.118 43.7087 223.18 43.8101Z" fill="#231F20"/>
<path d="M209.552 82.2836C208.43 82.3123 207.334 81.9475 206.454 81.2525C205.574 80.5575 204.965 79.5761 204.732 78.4787C204.729 78.4429 204.729 78.4068 204.732 78.3709C204.942 75.79 206.838 53.0877 210.389 50.678C217.948 45.5478 222.983 43.4424 223.034 43.4234C223.079 43.4068 223.125 43.3962 223.173 43.3917C223.484 43.3686 223.796 43.4272 224.077 43.5618C224.359 43.6964 224.6 43.9023 224.777 44.159C226.293 46.4736 223.458 53.316 223.122 54.0833L210.871 81.9855C210.844 82.0499 210.8 82.1061 210.744 82.1484C210.689 82.1906 210.623 82.2176 210.554 82.2265C210.221 82.266 209.887 82.2851 209.552 82.2836ZM205.538 78.3963C205.633 78.8339 206.432 81.8333 210.23 81.4402L222.387 53.7663C223.237 51.7751 225.202 46.2454 224.105 44.622C224.012 44.4862 223.886 44.3768 223.738 44.3046C223.59 44.2323 223.426 44.1996 223.262 44.2098C218.917 46.2184 214.76 48.6101 210.839 51.3565C208.112 53.2019 206.089 71.4461 205.538 78.3963Z" fill="#231F20"/>
<path d="M245.99 46.3784C245.99 46.3784 228.399 46.8858 224.264 46.277C224.264 46.277 224.029 46.3277 220.992 51.9208C217.954 57.514 222.317 83.0572 222.317 83.0572C222.317 83.0572 226.293 87.2869 229.464 86.6781L233.205 57.552C233.205 57.552 239.578 57.7422 243.117 55.2057C245.622 53.4491 245.514 49.6443 245.99 46.3784Z" fill="#231F20"/>
<path d="M228.83 87.1411C225.659 87.1411 222.178 83.5011 222.019 83.3362C221.966 83.2778 221.931 83.2051 221.918 83.1269C221.734 82.0743 217.561 57.3808 220.65 51.7306C223.776 45.979 223.998 45.9282 224.188 45.8838C224.237 45.8777 224.286 45.8777 224.334 45.8838C228.386 46.4863 245.812 45.9916 245.99 45.9853C246.048 45.983 246.107 45.9937 246.16 46.0168C246.214 46.0398 246.262 46.0746 246.301 46.1185C246.34 46.1619 246.369 46.2132 246.387 46.2691C246.404 46.3249 246.409 46.3838 246.402 46.4419C246.313 47.0443 246.244 47.6658 246.174 48.2872C245.869 51.0901 245.54 53.9945 243.377 55.5418C240.207 57.7993 235.019 57.9642 233.586 57.9642L229.889 86.7352C229.88 86.8203 229.843 86.9002 229.785 86.963C229.727 87.0258 229.65 87.0682 229.566 87.084C229.323 87.1264 229.077 87.1455 228.83 87.1411ZM222.692 82.8669C223.25 83.4313 226.496 86.564 229.109 86.323L232.812 57.5013C232.825 57.4021 232.874 57.3113 232.951 57.2467C233.027 57.1822 233.125 57.1485 233.225 57.1525C233.288 57.1525 239.509 57.3047 242.889 54.876C244.791 53.5316 245.07 50.8175 245.356 48.1921C245.406 47.7228 245.457 47.2536 245.521 46.797C242.68 46.8731 228.545 47.2219 224.429 46.7082C224.194 47.0506 223.453 48.2238 221.341 52.1174C218.513 57.3237 222.374 80.9392 222.698 82.8669H222.692Z" fill="#231F20"/>
<path d="M226.401 21.3489C226.401 21.3489 223.617 26.7074 221.962 29.4659C220.407 31.8298 218.675 34.0726 216.781 36.1751C216.781 36.1751 204.143 40.6712 204.06 40.9122C203.978 41.1532 205.259 45.4082 205.259 45.4082C205.259 45.4082 218.525 44.4507 220.713 43.417C222.901 42.3834 227.359 37.2722 227.359 37.2722L226.401 21.3489Z" fill="#CD88DA"/>
<path d="M231.55 18.47L232.305 23.0485C232.776 23.7284 233.479 24.2134 234.282 24.413C235.085 24.6125 235.933 24.513 236.668 24.1329C239.534 22.8646 239.547 20.6578 239.547 20.6578L238.006 12.2301C238.006 12.2301 235.33 11.1901 233.941 5.98376C233.941 5.98376 227.333 6.49108 227.764 8.97057C227.764 8.97057 227.688 13.6315 228.399 15.9461C229.109 18.2607 231.499 18.4446 231.55 18.47Z" fill="white"/>
<path d="M235.038 24.9128C234.439 24.8918 233.853 24.7319 233.326 24.4458C232.798 24.1597 232.345 23.7552 232.001 23.264C231.969 23.2191 231.949 23.1666 231.944 23.1118L231.227 18.7996C230.502 18.6502 229.828 18.3143 229.272 17.825C228.716 17.3357 228.297 16.7099 228.056 16.0094C227.334 13.6948 227.422 9.129 227.422 8.93241C227.388 8.70745 227.402 8.47764 227.464 8.25873C227.527 8.03982 227.636 7.83699 227.784 7.66413C229.09 5.99 233.491 5.60951 233.973 5.57147C234.066 5.56642 234.158 5.59315 234.234 5.6473C234.31 5.70144 234.366 5.77978 234.391 5.86951C235.698 10.7778 238.196 11.8304 238.196 11.8431C238.261 11.8678 238.317 11.9089 238.361 11.9623C238.404 12.0157 238.433 12.0796 238.444 12.1475L239.991 20.6006C239.991 20.7718 239.947 23.1372 236.877 24.5133C236.3 24.7763 235.673 24.9126 235.038 24.9128ZM232.692 22.8962C233.117 23.4733 233.734 23.8785 234.433 24.038C235.131 24.1974 235.864 24.1006 236.497 23.765C239.071 22.6362 239.135 20.7401 239.135 20.6577L237.638 12.4836C236.966 12.1221 234.867 10.6953 233.637 6.40219C232.197 6.54804 229.198 7.03633 228.354 8.15876C228.27 8.2572 228.209 8.3731 228.175 8.49812C228.141 8.62314 228.135 8.75414 228.158 8.88168C228.158 9.00217 228.094 13.587 228.792 15.7748C229.012 16.3715 229.387 16.8988 229.879 17.3023C230.37 17.7058 230.96 17.9709 231.589 18.0704C231.645 18.0805 231.701 18.0976 231.753 18.1211C231.806 18.1505 231.852 18.1914 231.887 18.2408C231.922 18.2902 231.946 18.3468 231.956 18.4065L232.692 22.8962Z" fill="#231F20"/>
<path d="M236.224 12.3695C236.252 11.9394 236.419 11.5299 236.7 11.2027C236.977 10.9137 237.3 10.6736 237.657 10.4925C237.848 10.3679 238.065 10.2897 238.291 10.2642C238.447 10.2574 238.603 10.2833 238.748 10.3403C239.1 10.4421 239.404 10.6672 239.604 10.9744C239.738 11.2373 239.803 11.5295 239.794 11.8242C239.815 12.1427 239.793 12.4624 239.731 12.7754C239.658 13.0858 239.524 13.3787 239.338 13.6372C239.151 13.8957 238.915 14.1147 238.643 14.2815C238.371 14.4484 238.069 14.5597 237.754 14.6093C237.439 14.6588 237.117 14.6454 236.808 14.57" fill="white"/>
<path d="M237.353 15.0455C237.126 15.0466 236.9 15.0189 236.681 14.9631C236.63 14.9502 236.581 14.9273 236.539 14.8958C236.497 14.8642 236.461 14.8247 236.434 14.7793C236.379 14.6878 236.363 14.5782 236.389 14.4748C236.415 14.3713 236.481 14.2825 236.573 14.2278C236.664 14.1731 236.774 14.157 236.877 14.1831C237.136 14.2453 237.404 14.2559 237.666 14.2144C237.928 14.1728 238.18 14.0798 238.406 13.9407C238.632 13.8017 238.829 13.6193 238.984 13.404C239.14 13.1888 239.251 12.945 239.312 12.6865C239.367 12.4068 239.386 12.1213 239.37 11.8368C239.371 11.6176 239.323 11.4009 239.23 11.2026C239.077 10.9821 238.853 10.8208 238.596 10.746C238.5 10.7137 238.399 10.6945 238.298 10.689C238.141 10.7174 237.992 10.7778 237.86 10.8665C237.543 11.0272 237.255 11.2418 237.011 11.5007C236.789 11.7615 236.656 12.0855 236.63 12.4265C236.624 12.5331 236.575 12.6327 236.496 12.704C236.416 12.7752 236.312 12.8122 236.205 12.807C236.098 12.7989 235.998 12.7492 235.927 12.6687C235.856 12.5882 235.819 12.4831 235.825 12.3758C235.86 11.8583 236.062 11.3663 236.402 10.9743C236.708 10.6472 237.069 10.3748 237.467 10.169C237.703 10.0146 237.973 9.91893 238.253 9.88994C238.469 9.88187 238.685 9.91635 238.888 9.99141C239.332 10.1225 239.713 10.4111 239.959 10.8031C240.126 11.1218 240.211 11.477 240.207 11.8368C240.23 12.1916 240.204 12.5479 240.131 12.8958C239.986 13.5158 239.636 14.0688 239.138 14.4648C238.639 14.8608 238.021 15.0767 237.385 15.0772L237.353 15.0455Z" fill="#231F20"/>
<path d="M232.051 11.1456C232.051 11.1456 230.783 13.7265 231.24 14.0816C231.696 14.4368 232.686 14.0182 232.686 14.0182" fill="white"/>
<path d="M231.747 14.627C231.472 14.6403 231.2 14.5573 230.98 14.3923C230.815 14.2528 230.307 13.8343 231.69 10.968C231.736 10.8716 231.819 10.7975 231.92 10.7618C232.021 10.7262 232.132 10.7319 232.229 10.7777C232.323 10.8266 232.395 10.91 232.429 11.0104C232.463 11.1108 232.457 11.2205 232.413 11.3167C231.998 12.0955 231.707 12.9342 231.55 13.8026C231.886 13.8379 232.226 13.7832 232.533 13.644C232.583 13.6177 232.639 13.6021 232.695 13.5983C232.752 13.5945 232.808 13.6026 232.861 13.622C232.915 13.6415 232.963 13.6718 233.004 13.7111C233.045 13.7505 233.077 13.7979 233.098 13.8503C233.119 13.9028 233.13 13.9591 233.128 14.0158C233.126 14.0724 233.113 14.128 233.088 14.179C233.063 14.2301 233.029 14.2754 232.985 14.3122C232.942 14.3489 232.892 14.3762 232.838 14.3923C232.49 14.5331 232.121 14.6125 231.747 14.627Z" fill="#231F20"/>
<path d="M234.103 11.0364C234.319 11.0145 234.468 10.7481 234.437 10.4415C234.406 10.1349 234.206 9.90408 233.99 9.92603C233.774 9.94797 233.624 10.2143 233.655 10.5209C233.686 10.8276 233.887 11.0583 234.103 11.0364Z" fill="#231F20"/>
<path d="M230.741 11.6322C230.957 11.6118 231.109 11.3465 231.079 11.0397C231.05 10.7328 230.852 10.5007 230.636 10.5211C230.419 10.5415 230.268 10.8068 230.297 11.1137C230.326 11.4205 230.524 11.6527 230.741 11.6322Z" fill="#231F20"/>
<path d="M232.413 16.6689C231.653 16.6575 230.902 16.5026 230.2 16.2123C230.151 16.1916 230.108 16.1615 230.071 16.1238C230.034 16.0861 230.005 16.0415 229.986 15.9926C229.966 15.9437 229.957 15.8915 229.958 15.8388C229.958 15.7862 229.97 15.7343 229.991 15.686C230.034 15.5878 230.114 15.5107 230.214 15.4715C230.314 15.4323 230.425 15.4341 230.523 15.4767C230.523 15.4767 232.426 16.2757 233.694 15.5782C234.028 15.3653 234.307 15.0772 234.51 14.7369C234.713 14.3967 234.833 14.0137 234.861 13.6187C234.869 13.5665 234.886 13.5165 234.914 13.4713C234.941 13.4262 234.977 13.3868 235.019 13.3556C235.062 13.3244 235.11 13.3018 235.161 13.2893C235.212 13.2768 235.265 13.2745 235.317 13.2826C235.423 13.2997 235.518 13.358 235.581 13.4448C235.644 13.5315 235.67 13.6396 235.653 13.7455C235.611 14.2626 235.446 14.7621 235.172 15.2031C234.899 15.6441 234.525 16.0139 234.081 16.2821C233.567 16.5515 232.993 16.6846 232.413 16.6689Z" fill="#231F20"/>
<path d="M231.551 18.47C231.551 18.47 234.506 18.6539 236.028 17.4173C236.028 17.4173 234.804 21.5646 232.071 21.609L231.551 18.47Z" fill="#231F20"/>
<path d="M232.07 22.0083C231.975 22.0096 231.882 21.9763 231.808 21.9146C231.735 21.8529 231.686 21.7669 231.671 21.6723L231.151 18.5333C231.142 18.4732 231.147 18.412 231.164 18.3539C231.182 18.2958 231.212 18.2423 231.252 18.1972C231.293 18.1523 231.343 18.117 231.399 18.0939C231.455 18.0709 231.515 18.0607 231.576 18.064C231.576 18.064 234.391 18.2289 235.774 17.1064C235.843 17.0555 235.926 17.028 236.012 17.028C236.097 17.028 236.181 17.0555 236.249 17.1064C236.32 17.1556 236.373 17.2251 236.403 17.3056C236.432 17.3861 236.436 17.4738 236.414 17.5567C236.357 17.7406 235.07 21.9957 232.077 22.0337L232.07 22.0083ZM232.026 18.882L232.407 21.1713C233.814 20.9303 234.746 19.3957 235.235 18.3303C234.2 18.7136 233.104 18.9007 232.001 18.882H232.026Z" fill="#231F20"/>
<path d="M247.956 20.328C250.308 20.7465 259.871 42.8526 256.599 45.3765C251.488 49.3145 233.719 45.3258 233.719 45.3258L235.165 38.4771C235.165 38.4771 246.58 38.7941 246.757 36.4478C246.935 34.1015 240.111 23.2387 241.006 21.6153C241.9 19.9919 247.956 20.328 247.956 20.328Z" fill="#CD88DA"/>
<path d="M236.396 40.7663C234.489 40.885 232.575 40.7914 230.688 40.4873C229.297 40.1556 227.87 39.9917 226.44 39.999C224.555 40.0952 222.702 40.5246 220.967 41.2673C220.895 41.2874 220.83 41.3295 220.783 41.3878C220.618 41.6224 221.011 41.8507 221.303 41.8571C222.057 41.8758 222.809 41.7818 223.535 41.578C221.732 42.2411 220.026 43.1433 218.462 44.2604C218.285 44.3873 218.088 44.5902 218.177 44.7931C218.266 44.9961 218.627 44.958 218.855 44.8502L222.946 42.9478C221.886 43.3695 220.904 43.9653 220.041 44.7107C219.921 44.8185 219.788 44.9643 219.819 45.1229C219.883 45.3956 220.288 45.3448 220.542 45.218C221.785 44.5993 222.973 43.8758 224.093 43.0556L221.557 44.958C221.557 45.1673 221.747 45.3385 221.956 45.3448C222.165 45.3362 222.366 45.2655 222.533 45.1419L225.349 43.5185L223.592 44.7487C223.32 44.939 223.003 45.2497 223.142 45.5604C223.282 45.8712 223.84 45.8141 224.201 45.6492C225.65 45.0199 227.164 44.5541 228.716 44.2604C229.259 44.0836 229.821 43.9708 230.39 43.9243C231.25 44.0347 232.099 44.2193 232.927 44.4761L236.732 45.3575" fill="white"/>
<path d="M223.63 46.2199C223.509 46.221 223.388 46.1995 223.275 46.1565C223.18 46.1234 223.093 46.0707 223.02 46.0019C222.947 45.9331 222.889 45.8496 222.85 45.757C222.816 45.6744 222.796 45.5863 222.793 45.497C222.562 45.6531 222.291 45.739 222.013 45.7443C221.9 45.7396 221.79 45.7118 221.688 45.6627C221.587 45.6136 221.497 45.5443 221.423 45.4589C221.379 45.4051 221.343 45.3453 221.315 45.2814L220.776 45.554C220.637 45.6313 220.483 45.6775 220.324 45.6896C220.165 45.7016 220.006 45.6792 219.857 45.6238C219.738 45.5613 219.641 45.4624 219.582 45.3416C219.523 45.2207 219.503 45.0842 219.527 44.9516L219.077 45.1609C218.822 45.2894 218.528 45.3188 218.252 45.2433C218.1 45.182 217.977 45.0637 217.91 44.9136C217.84 44.755 217.745 44.3492 218.316 43.937C219.234 43.2814 220.201 42.6963 221.207 42.1868C221.059 42.1702 220.917 42.1199 220.792 42.0396C220.667 41.9593 220.561 41.8513 220.484 41.7238C220.438 41.6326 220.418 41.5301 220.427 41.428C220.436 41.3259 220.473 41.2285 220.535 41.1468C220.621 41.0336 220.738 40.9477 220.871 40.8995C222.65 40.1482 224.548 39.7188 226.477 39.6312C227.757 39.6038 229.036 39.738 230.282 40.0307L230.802 40.1258C232.655 40.4183 234.535 40.5097 236.408 40.3985C236.505 40.3985 236.599 40.4372 236.668 40.5062C236.737 40.5752 236.776 40.6687 236.776 40.7663C236.776 40.8638 236.737 40.9574 236.668 41.0264C236.599 41.0953 236.505 41.1341 236.408 41.1341C234.482 41.2466 232.549 41.1509 230.643 40.8487L230.098 40.7663C228.908 40.4855 227.687 40.3556 226.464 40.3795C224.724 40.4666 223.009 40.8416 221.391 41.4892C222.086 41.5015 222.778 41.4118 223.446 41.2229C223.536 41.1998 223.632 41.212 223.714 41.257C223.796 41.3019 223.857 41.3762 223.886 41.4649C223.915 41.5535 223.91 41.6499 223.87 41.7345C223.831 41.8191 223.761 41.8855 223.674 41.9204C221.959 42.5505 220.335 43.4033 218.842 44.457L221.892 43.0555C222.199 42.8952 222.515 42.7512 222.837 42.6243C222.927 42.5865 223.028 42.5859 223.119 42.6228C223.209 42.6597 223.281 42.7309 223.319 42.8209C223.357 42.9109 223.358 43.0122 223.321 43.1026C223.284 43.193 223.213 43.265 223.123 43.3028L222.209 43.7214C221.589 44.0442 221.005 44.431 220.465 44.8755C221.667 44.2755 222.815 43.5732 223.896 42.7765C223.974 42.7186 224.072 42.6942 224.169 42.7084C224.265 42.7227 224.352 42.7745 224.41 42.8526C224.467 42.9307 224.491 43.0277 224.478 43.1235C224.465 43.2192 224.416 43.3062 224.34 43.3663L222.343 44.8945H222.381L225.196 43.2711C225.278 43.2219 225.376 43.207 225.468 43.2295C225.561 43.2521 225.641 43.3104 225.691 43.3916C225.742 43.471 225.76 43.5672 225.741 43.6596C225.722 43.752 225.667 43.8334 225.589 43.8863L223.839 45.1165C223.554 45.3194 223.497 45.4589 223.509 45.4843C223.706 45.5213 223.909 45.4852 224.08 45.3828C225.552 44.7399 227.092 44.2655 228.671 43.9687C228.855 43.9306 229.026 43.8799 229.204 43.8292C229.601 43.6965 230.016 43.6259 230.434 43.6199C231.067 43.6719 231.693 43.7953 232.299 43.9877C232.559 44.0638 232.819 44.1336 233.066 44.1906C234.334 44.4739 235.602 44.7656 236.871 45.0658C236.918 45.0762 236.963 45.0961 237.003 45.1241C237.043 45.1522 237.077 45.188 237.103 45.2293C237.129 45.2706 237.147 45.3166 237.155 45.3648C237.163 45.4129 237.161 45.4622 237.15 45.5097C237.126 45.6039 237.066 45.685 236.983 45.7359C236.9 45.7869 236.801 45.8035 236.706 45.7823C235.438 45.4864 234.169 45.1947 232.901 44.9072C232.641 44.8501 232.375 44.774 232.102 44.698C231.552 44.5209 230.984 44.4081 230.409 44.3619C230.065 44.3669 229.725 44.4269 229.401 44.5394C229.21 44.5965 229.02 44.6472 228.823 44.6916C227.297 44.9756 225.807 45.4331 224.384 46.055C224.146 46.157 223.89 46.213 223.63 46.2199Z" fill="#231F20"/>
<path d="M227.632 23.2894C226.997 23.9235 225.412 33.9746 224.829 38.7244L227.632 23.2894Z" fill="white"/>
<path d="M224.835 39.0922H224.784C224.737 39.0867 224.691 39.0718 224.649 39.0484C224.607 39.0249 224.57 38.9934 224.541 38.9557C224.511 38.9179 224.49 38.8746 224.477 38.8284C224.465 38.7822 224.461 38.7339 224.467 38.6864C224.829 35.7313 226.535 23.8855 227.372 23.0358C227.441 22.978 227.53 22.948 227.62 22.9514C227.711 22.9548 227.797 22.9913 227.862 23.0541C227.927 23.1169 227.967 23.2014 227.973 23.2916C227.98 23.3818 227.953 23.4714 227.898 23.5431C227.359 24.2787 225.837 33.5435 225.197 38.7625C225.186 38.8517 225.144 38.9341 225.077 38.9946C225.011 39.0552 224.925 39.0898 224.835 39.0922Z" fill="#231F20"/>
<path d="M203.782 48.1794L204.061 50.0628L230.086 53.8677L229.642 51.9209L203.782 48.1794Z" fill="white"/>
<path d="M230.098 54.2672H230.041L204.041 50.4623C203.955 50.4496 203.875 50.4095 203.813 50.3478C203.752 50.2861 203.711 50.2062 203.699 50.1199L203.42 48.2175C203.41 48.156 203.414 48.0929 203.433 48.0335C203.452 47.974 203.484 47.9198 203.528 47.8751C203.573 47.8308 203.628 47.7975 203.689 47.7777C203.749 47.7579 203.813 47.7522 203.876 47.7609L229.737 51.5023C229.817 51.5151 229.892 51.5515 229.952 51.6068C230.012 51.6621 230.054 51.7339 230.073 51.8131L230.517 53.7599C230.53 53.8239 230.528 53.8901 230.51 53.9531C230.492 54.016 230.46 54.0737 230.415 54.1213C230.377 54.1681 230.328 54.2055 230.273 54.2307C230.218 54.256 230.158 54.2685 230.098 54.2672ZM204.415 49.7077L229.559 53.3794L229.312 52.2823L204.257 48.6551L204.415 49.7077Z" fill="#231F20"/>
<path d="M203.782 48.1794C203.782 48.1794 209.705 43.1063 209.901 43.1443C210.098 43.1824 236.713 46.3784 236.713 46.3784L229.642 51.9208L203.782 48.1794Z" fill="white"/>
<path d="M229.642 52.3267H229.585L203.718 48.5853C203.641 48.5737 203.569 48.5402 203.511 48.4888C203.452 48.4374 203.41 48.3703 203.388 48.2954C203.367 48.2206 203.367 48.1411 203.39 48.0666C203.412 47.992 203.456 47.9256 203.515 47.875C209.603 42.6624 209.736 42.6941 209.996 42.7575C210.389 42.8209 227.676 44.9009 236.763 45.9853C236.841 45.9968 236.914 46.0307 236.973 46.083C237.032 46.1352 237.074 46.2035 237.095 46.2794C237.116 46.3554 237.114 46.4358 237.09 46.5108C237.066 46.5858 237.021 46.6522 236.96 46.7019L229.895 52.2443C229.822 52.2983 229.733 52.3272 229.642 52.3267ZM204.714 47.8877L229.528 51.4833L235.698 46.6448C227.689 45.6873 211.765 43.7785 209.971 43.5439C209.406 43.937 206.718 46.1946 204.733 47.9067L204.714 47.8877Z" fill="#231F20"/>
<path d="M230.086 53.8676L236.877 48.1794L236.712 46.3784L229.642 51.9208L230.086 53.8676Z" fill="white"/>
<path d="M230.099 54.2671C230.054 54.2733 230.01 54.2733 229.966 54.2671C229.901 54.2443 229.844 54.2056 229.798 54.1546C229.753 54.1036 229.721 54.042 229.706 53.9754L229.262 52.0286C229.246 51.9541 229.251 51.8767 229.277 51.8051C229.303 51.7334 229.348 51.6703 229.407 51.6227L236.44 46.0613C236.497 46.0177 236.565 45.99 236.636 45.9811C236.707 45.9722 236.78 45.9824 236.846 46.0106C236.912 46.0388 236.969 46.0843 237.012 46.1424C237.054 46.2004 237.08 46.2688 237.087 46.3403L237.252 48.1413C237.258 48.206 237.247 48.2711 237.222 48.3309C237.196 48.3906 237.157 48.4432 237.106 48.4837L230.321 54.191C230.256 54.2373 230.178 54.2638 230.099 54.2671ZM230.099 52.0857L230.34 53.132L236.459 48.0018L236.383 47.1521L230.099 52.0857Z" fill="#231F20"/>
<path d="M203.781 48.1794L198.778 31.419L226.211 36.099L229.641 51.9208L203.781 48.1794Z" fill="white"/>
<path d="M229.642 52.3267H229.585L203.718 48.5853C203.643 48.5729 203.572 48.5396 203.515 48.4891C203.458 48.4386 203.416 48.3731 203.395 48.2999L198.391 31.5396C198.372 31.4728 198.37 31.4024 198.386 31.3348C198.401 31.2671 198.434 31.2045 198.48 31.1527C198.525 31.1015 198.583 31.0629 198.647 31.0406C198.712 31.0184 198.781 31.0133 198.848 31.0259L226.293 35.6932C226.373 35.7063 226.447 35.7429 226.506 35.7983C226.564 35.8536 226.605 35.9252 226.623 36.0039L230.054 51.8574C230.067 51.9163 230.067 51.9773 230.054 52.0361C230.04 52.0949 230.013 52.1498 229.975 52.1968C229.938 52.2438 229.89 52.2816 229.835 52.3074C229.781 52.3332 229.721 52.3463 229.661 52.3457L229.642 52.3267ZM204.098 47.818L229.134 51.4389L225.881 36.4478L199.355 31.9264L204.098 47.818Z" fill="#231F20"/>
<path d="M242.369 47.7863H242.299L236.75 46.835C236.667 46.8144 236.593 46.7685 236.537 46.7038C236.482 46.639 236.448 46.5586 236.44 46.4736L236.262 39.8278C236.258 39.7259 236.294 39.6265 236.361 39.5499C236.428 39.4733 236.522 39.4252 236.623 39.4156L246.434 38.401L242.09 23.4289C242.065 23.3271 242.081 23.2199 242.134 23.1296C242.187 23.0393 242.273 22.9729 242.373 22.9443C242.474 22.9156 242.582 22.927 242.674 22.9759C242.767 23.0249 242.837 23.1076 242.87 23.2069L247.309 38.6419C247.324 38.6984 247.328 38.7575 247.319 38.8154C247.31 38.8733 247.289 38.9287 247.258 38.978C247.225 39.0267 247.182 39.0678 247.131 39.0984C247.081 39.1291 247.025 39.1486 246.966 39.1556L237.074 40.1322L237.232 46.0741L242.458 46.9745C242.563 46.983 242.662 47.0331 242.731 47.114C242.8 47.1948 242.834 47.2998 242.825 47.4058C242.817 47.5117 242.767 47.61 242.686 47.679C242.605 47.7479 242.5 47.782 242.394 47.7736L242.369 47.7863Z" fill="#231F20"/>
<path d="M206.001 73.9763C205.544 73.5577 205.069 73.1582 204.574 72.7841C203.49 71.9724 201.175 70.7865 200.515 72.689C200.103 73.8685 200.731 75.4348 201.15 76.4938C202.02 78.5698 203.344 80.4246 205.024 81.9221C206.489 83.2474 211.169 85.1625 210.839 81.4655C210.745 80.7981 210.53 80.1535 210.205 79.5631C209.154 77.4614 207.729 75.5684 206.001 73.9763Z" fill="white"/>
<path d="M209.096 84.0211C207.501 83.8923 205.988 83.2643 204.771 82.2264C203.05 80.6887 201.694 78.7866 200.801 76.6587C200.351 75.5553 199.679 73.8811 200.135 72.5685C200.214 72.2914 200.36 72.0381 200.56 71.8312C200.76 71.6243 201.009 71.4702 201.283 71.3826C202.64 70.9704 204.416 72.2324 204.758 72.4924C205.266 72.8699 205.752 73.2742 206.217 73.7036C207.993 75.3249 209.454 77.2597 210.529 79.4109C210.876 80.042 211.101 80.7324 211.195 81.4464C211.328 82.8986 210.725 83.5138 210.205 83.7738C209.86 83.9419 209.48 84.0266 209.096 84.0211ZM201.867 72.0358C201.742 72.0326 201.618 72.0498 201.499 72.0865C201.335 72.143 201.188 72.2392 201.071 72.3665C200.953 72.4937 200.87 72.6481 200.827 72.8158C200.465 73.8621 201.08 75.3841 201.461 76.386C202.316 78.4137 203.617 80.2233 205.266 81.6811C206.312 82.6323 208.76 83.685 209.876 83.1269C210.345 82.8923 210.542 82.3723 210.465 81.5289C210.375 80.9061 210.173 80.3046 209.869 79.7533C208.836 77.6799 207.43 75.8141 205.722 74.249C205.272 73.8368 204.803 73.4436 204.321 73.0821C203.62 72.5058 202.768 72.1426 201.867 72.0358Z" fill="#231F20"/>
<path d="M221.766 76.0436C221.446 75.8186 221.059 75.711 220.669 75.7392C220.428 75.7952 220.208 75.9184 220.035 76.0943C219.699 76.4368 219.445 76.8509 219.292 77.3057C219.14 77.7604 219.092 78.2439 219.153 78.7197C219.279 79.6707 219.578 80.5906 220.035 81.4338C221.303 84.0655 223.022 86.6211 225.565 88.0479C226.02 88.3201 226.517 88.5151 227.036 88.625C231.564 89.424 229.693 84.9533 228.577 82.9177C226.997 80.0322 224.637 77.6499 221.766 76.0436Z" fill="white"/>
<path d="M227.993 89.0815C227.646 89.0785 227.3 89.0467 226.959 88.9864C226.399 88.8661 225.863 88.6517 225.374 88.3523C223.135 87.084 221.277 84.8772 219.666 81.5733C219.191 80.6896 218.879 79.7271 218.747 78.7323C218.683 78.2001 218.74 77.6604 218.914 77.1532C219.087 76.646 219.373 76.1844 219.749 75.8026C219.976 75.5761 220.265 75.4217 220.58 75.3587C221.052 75.314 221.525 75.435 221.918 75.7011C224.842 77.3497 227.248 79.7835 228.861 82.7274C229.673 84.1986 230.878 86.8811 229.882 88.2698C229.658 88.5492 229.368 88.7693 229.039 88.9108C228.709 89.0523 228.35 89.1109 227.993 89.0815ZM220.833 76.0943H220.732C220.557 76.1375 220.399 76.23 220.275 76.3607C219.98 76.6642 219.757 77.0308 219.625 77.4329C219.492 77.8349 219.452 78.2619 219.508 78.6816C219.632 79.5875 219.918 80.4638 220.351 81.2689C221.873 84.4396 223.636 86.545 225.729 87.7245C226.151 87.975 226.611 88.1529 227.092 88.2508C228.227 88.4537 228.995 88.3206 229.305 87.8513C229.94 86.9508 229.179 84.8011 228.246 83.0889C226.694 80.2715 224.389 77.9418 221.588 76.3607C221.361 76.2142 221.102 76.1229 220.833 76.0943Z" fill="#231F20"/>
<path d="M219.952 61.8388C219.853 61.8379 219.757 61.8006 219.684 61.7339C219.61 61.6673 219.563 61.5761 219.553 61.4774C219.553 61.2871 219.109 56.8355 219.87 54.2989C219.9 54.1971 219.969 54.1116 220.063 54.061C220.156 54.0105 220.266 53.9991 220.367 54.0294C220.469 54.0596 220.555 54.1291 220.605 54.2225C220.656 54.3158 220.667 54.4254 220.637 54.5272C219.92 56.9115 220.352 61.3505 220.352 61.4013C220.362 61.5063 220.331 61.6113 220.264 61.6933C220.198 61.7753 220.101 61.8276 219.996 61.8388H219.952Z" fill="white"/>
<path d="M171.383 30.5692H6.65839C3.20165 30.5692 0.399414 33.3714 0.399414 36.8282V149.857C0.399414 153.314 3.20165 156.116 6.65839 156.116H171.383C174.84 156.116 177.642 153.314 177.642 149.857V36.8282C177.642 33.3714 174.84 30.5692 171.383 30.5692Z" fill="white"/>
<path d="M171.383 156.522H6.65849C5.78242 156.521 4.91526 156.347 4.10651 156.01C3.29777 155.673 2.56328 155.18 1.94498 154.56C1.32668 153.939 0.836683 153.202 0.502965 152.392C0.169247 151.582 -0.00165504 150.715 1.208e-05 149.839V36.8283C0.00169104 35.0629 0.703745 33.3702 1.95209 32.1219C3.20043 30.8735 4.89307 30.1715 6.65849 30.1698H171.383C173.148 30.1715 174.841 30.8735 176.089 32.1219C177.338 33.3702 178.04 35.0629 178.041 36.8283V149.839C178.043 150.715 177.872 151.582 177.538 152.392C177.205 153.202 176.715 153.939 176.096 154.56C175.478 155.18 174.744 155.673 173.935 156.01C173.126 156.347 172.259 156.521 171.383 156.522ZM6.65849 30.9625C5.10666 30.9642 3.61887 31.5814 2.52156 32.6787C1.42425 33.776 0.807048 35.2638 0.805369 36.8156V149.839C0.807044 151.391 1.42405 152.879 2.52118 153.978C3.61831 155.076 5.10608 155.695 6.65849 155.698H171.383C172.935 155.695 174.423 155.076 175.52 153.978C176.617 152.879 177.234 151.391 177.236 149.839V36.8283C177.234 35.2765 176.617 33.7887 175.52 32.6914C174.423 31.594 172.935 30.9768 171.383 30.9752L6.65849 30.9625Z" fill="#231F20"/>
<path d="M171.091 46.8033H6.94995V149.515H171.091V46.8033Z" fill="#231F20"/>
<path d="M171.123 149.934H6.95028C6.84038 149.932 6.73555 149.887 6.65842 149.809C6.5813 149.731 6.53807 149.625 6.53809 149.515V46.7843C6.53809 46.6749 6.58151 46.5701 6.65881 46.4928C6.73611 46.4155 6.84096 46.3721 6.95028 46.3721H171.123C171.232 46.3721 171.337 46.4155 171.415 46.4928C171.492 46.5701 171.535 46.6749 171.535 46.7843V149.515C171.535 149.625 171.492 149.731 171.415 149.809C171.338 149.887 171.233 149.932 171.123 149.934ZM7.36881 149.103H170.673V47.2218H7.36881V149.103Z" fill="#231F20"/>
<path d="M171.091 37.1707H6.94995V46.8033H171.091V37.1707Z" fill="#CD88DA"/>
<path d="M171.123 47.2217H6.95033C6.89566 47.2218 6.84154 47.2109 6.79111 47.1898C6.74068 47.1687 6.69496 47.1377 6.6566 47.0988C6.61824 47.0598 6.58801 47.0137 6.56767 46.9629C6.54733 46.9122 6.53729 46.8579 6.53813 46.8032V37.1706C6.53813 37.0613 6.58156 36.9565 6.65886 36.8792C6.73616 36.8019 6.84101 36.7584 6.95033 36.7584H171.123C171.232 36.7584 171.337 36.8019 171.415 36.8792C171.492 36.9565 171.535 37.0613 171.535 37.1706V46.8032C171.536 46.8579 171.526 46.9122 171.506 46.9629C171.485 47.0137 171.455 47.0598 171.417 47.0988C171.378 47.1377 171.333 47.1687 171.282 47.1898C171.232 47.2109 171.178 47.2218 171.123 47.2217ZM7.36886 46.391H170.673V37.5955H7.36886V46.391Z" fill="#CD88DA"/>
<path d="M39.8558 57.0319H25.7462C25.6402 57.0319 25.5386 56.9898 25.4637 56.9149C25.3888 56.84 25.3467 56.7384 25.3467 56.6324C25.3467 56.5259 25.3886 56.4236 25.4633 56.3477C25.538 56.2717 25.6397 56.2282 25.7462 56.2266H39.8558C39.9624 56.2282 40.064 56.2717 40.1387 56.3477C40.2135 56.4236 40.2553 56.5259 40.2553 56.6324C40.2553 56.7384 40.2132 56.84 40.1383 56.9149C40.0634 56.9898 39.9618 57.0319 39.8558 57.0319Z" fill="white"/>
<path d="M71.6643 57.0319H43.502C43.3961 57.0319 43.2945 56.9898 43.2195 56.9149C43.1446 56.84 43.1025 56.7384 43.1025 56.6324C43.1025 56.5259 43.1444 56.4236 43.2192 56.3477C43.2939 56.2717 43.3955 56.2282 43.502 56.2266H71.6643C71.7708 56.2282 71.8724 56.2717 71.9471 56.3477C72.0219 56.4236 72.0638 56.5259 72.0638 56.6324C72.0638 56.7384 72.0217 56.84 71.9467 56.9149C71.8718 56.9898 71.7702 57.0319 71.6643 57.0319Z" fill="#CD88DA"/>
<path d="M81.3985 62.9612H53.2427C53.1446 62.9488 53.0544 62.9011 52.9889 62.827C52.9235 62.7528 52.8875 62.6574 52.8875 62.5585C52.8875 62.4596 52.9235 62.3642 52.9889 62.29C53.0544 62.2159 53.1446 62.1682 53.2427 62.1558H81.3985C81.4556 62.1486 81.5136 62.1537 81.5687 62.1706C81.6237 62.1876 81.6745 62.2161 81.7176 62.2541C81.7608 62.2922 81.7954 62.3391 81.8191 62.3915C81.8428 62.444 81.855 62.5009 81.855 62.5585C81.855 62.6161 81.8428 62.673 81.8191 62.7255C81.7954 62.7779 81.7608 62.8248 81.7176 62.8629C81.6745 62.9009 81.6237 62.9294 81.5687 62.9464C81.5136 62.9633 81.4556 62.9684 81.3985 62.9612Z" fill="#CD88DA"/>
<path d="M43.1721 62.9612H29.0751C29.018 62.9684 28.96 62.9633 28.905 62.9464C28.85 62.9294 28.7992 62.9009 28.756 62.8629C28.7128 62.8248 28.6783 62.7779 28.6546 62.7255C28.6309 62.673 28.6187 62.6161 28.6187 62.5585C28.6187 62.5009 28.6309 62.444 28.6546 62.3915C28.6783 62.3391 28.7128 62.2922 28.756 62.2541C28.7992 62.2161 28.85 62.1876 28.905 62.1706C28.96 62.1537 29.018 62.1486 29.0751 62.1558H43.1848C43.2419 62.1486 43.2999 62.1537 43.3549 62.1706C43.4099 62.1876 43.4607 62.2161 43.5039 62.2541C43.5471 62.2922 43.5816 62.3391 43.6053 62.3915C43.629 62.444 43.6413 62.5009 43.6413 62.5585C43.6413 62.6161 43.629 62.673 43.6053 62.7255C43.5816 62.7779 43.5471 62.8248 43.5039 62.8629C43.4607 62.9009 43.4099 62.9294 43.3549 62.9464C43.2999 62.9633 43.2419 62.9684 43.1848 62.9612H43.1721Z" fill="white"/>
<path d="M46.4824 68.827H32.3727C32.3156 68.8342 32.2576 68.8292 32.2026 68.8122C32.1476 68.7952 32.0968 68.7668 32.0536 68.7287C32.0105 68.6906 31.9759 68.6438 31.9522 68.5913C31.9285 68.5388 31.9163 68.4819 31.9163 68.4243C31.9163 68.3668 31.9285 68.3099 31.9522 68.2574C31.9759 68.2049 32.0105 68.1581 32.0536 68.12C32.0968 68.0819 32.1476 68.0534 32.2026 68.0365C32.2576 68.0195 32.3156 68.0145 32.3727 68.0217H46.4824C46.5395 68.0145 46.5975 68.0195 46.6525 68.0365C46.7075 68.0534 46.7583 68.0819 46.8015 68.12C46.8447 68.1581 46.8792 68.2049 46.9029 68.2574C46.9266 68.3099 46.9389 68.3668 46.9389 68.4243C46.9389 68.4819 46.9266 68.5388 46.9029 68.5913C46.8792 68.6438 46.8447 68.6906 46.8015 68.7287C46.7583 68.7668 46.7075 68.7952 46.6525 68.8122C46.5975 68.8292 46.5395 68.8342 46.4824 68.827Z" fill="white"/>
<path d="M86.4335 68.827H51.188C51.0899 68.8147 50.9997 68.767 50.9343 68.6928C50.8689 68.6187 50.8328 68.5232 50.8328 68.4243C50.8328 68.3255 50.8689 68.23 50.9343 68.1559C50.9997 68.0817 51.0899 68.034 51.188 68.0217H86.4335C86.4907 68.0145 86.5487 68.0195 86.6037 68.0365C86.6587 68.0534 86.7095 68.0819 86.7527 68.12C86.7958 68.1581 86.8304 68.2049 86.8541 68.2574C86.8778 68.3099 86.89 68.3668 86.89 68.4243C86.89 68.4819 86.8778 68.5388 86.8541 68.5913C86.8304 68.6438 86.7958 68.6906 86.7527 68.7287C86.7095 68.7668 86.6587 68.7952 86.6037 68.8122C86.5487 68.8292 86.4907 68.8342 86.4335 68.827Z" fill="#CD88DA"/>
<path d="M49.7994 74.7246H35.6834C35.5769 74.7229 35.4753 74.6794 35.4006 74.6035C35.3258 74.5275 35.2839 74.4252 35.2839 74.3187C35.2839 74.2127 35.326 74.1111 35.401 74.0362C35.4759 73.9613 35.5775 73.9192 35.6834 73.9192H49.7994C49.9054 73.9192 50.007 73.9613 50.0819 74.0362C50.1568 74.1111 50.1989 74.2127 50.1989 74.3187C50.1989 74.4252 50.1571 74.5275 50.0823 74.6035C50.0076 74.6794 49.906 74.7229 49.7994 74.7246Z" fill="white"/>
<path d="M93.7579 74.7246H51.8158C51.7092 74.7229 51.6076 74.6794 51.5329 74.6035C51.4581 74.5275 51.4162 74.4252 51.4163 74.3187C51.4163 74.2127 51.4584 74.1111 51.5333 74.0362C51.6082 73.9613 51.7098 73.9192 51.8158 73.9192H93.7579C93.8638 73.9192 93.9654 73.9613 94.0404 74.0362C94.1153 74.1111 94.1574 74.2127 94.1574 74.3187C94.1574 74.4252 94.1155 74.5275 94.0407 74.6035C93.966 74.6794 93.8644 74.7229 93.7579 74.7246Z" fill="#CD88DA"/>
<path d="M46.0514 80.6221H31.9417C31.8352 80.6204 31.7336 80.5769 31.6589 80.501C31.5841 80.425 31.5422 80.3228 31.5422 80.2162C31.5422 80.1103 31.5843 80.0086 31.6593 79.9337C31.7342 79.8588 31.8358 79.8167 31.9417 79.8167H46.0514C46.1044 79.8159 46.157 79.8256 46.2062 79.8453C46.2554 79.865 46.3002 79.8943 46.338 79.9315C46.3758 79.9686 46.4058 80.013 46.4262 80.0618C46.4467 80.1107 46.4572 80.1632 46.4572 80.2162C46.4572 80.3239 46.4145 80.4271 46.3384 80.5032C46.2623 80.5793 46.159 80.6221 46.0514 80.6221Z" fill="white"/>
<path d="M71.664 80.622H48.9364C48.8287 80.622 48.7255 80.5793 48.6494 80.5031C48.5733 80.427 48.5305 80.3238 48.5305 80.2162C48.5322 80.1096 48.5757 80.008 48.6516 79.9333C48.7275 79.8585 48.8298 79.8166 48.9364 79.8167H71.664C71.7699 79.8167 71.8716 79.8587 71.9465 79.9337C72.0214 80.0086 72.0635 80.1102 72.0635 80.2162C72.0635 80.3227 72.0216 80.425 71.9469 80.5009C71.8721 80.5768 71.7705 80.6203 71.664 80.622Z" fill="#CD88DA"/>
<path d="M103.067 80.622H80.3392C80.2327 80.6203 80.1311 80.5768 80.0563 80.5009C79.9816 80.425 79.9397 80.3227 79.9397 80.2162C79.9397 80.1102 79.9818 80.0086 80.0567 79.9337C80.1316 79.8587 80.2332 79.8167 80.3392 79.8167H103.067C103.173 79.8167 103.274 79.8587 103.349 79.9337C103.424 80.0086 103.466 80.1102 103.466 80.2162C103.466 80.3227 103.424 80.425 103.35 80.5009C103.275 80.5768 103.173 80.6203 103.067 80.622Z" fill="#CD88DA"/>
<path d="M46.0514 86.5132H31.9417C31.8358 86.5132 31.7342 86.4711 31.6593 86.3962C31.5843 86.3212 31.5422 86.2196 31.5422 86.1137C31.5422 86.0071 31.5841 85.9048 31.6589 85.8289C31.7336 85.753 31.8352 85.7095 31.9417 85.7078H46.0514C46.159 85.7078 46.2623 85.7506 46.3384 85.8267C46.4145 85.9028 46.4572 86.006 46.4572 86.1137C46.4572 86.1667 46.4467 86.2192 46.4262 86.268C46.4058 86.3169 46.3758 86.3613 46.338 86.3984C46.3002 86.4356 46.2554 86.4649 46.2062 86.4846C46.157 86.5043 46.1044 86.514 46.0514 86.5132Z" fill="white"/>
<path d="M71.6644 86.5132H51.8158C51.7098 86.5132 51.6082 86.4711 51.5333 86.3962C51.4584 86.3212 51.4163 86.2196 51.4163 86.1137C51.4162 86.0071 51.4581 85.9048 51.5329 85.8289C51.6076 85.753 51.7092 85.7095 51.8158 85.7078H71.6644C71.7709 85.7095 71.8725 85.753 71.9473 85.8289C72.022 85.9048 72.0639 86.0071 72.0639 86.1137C72.0639 86.2196 72.0218 86.3212 71.9469 86.3962C71.872 86.4711 71.7703 86.5132 71.6644 86.5132Z" fill="#CD88DA"/>
<path d="M83.1234 86.5132H75.0064C74.9005 86.5132 74.7989 86.4711 74.7239 86.3962C74.649 86.3212 74.6069 86.2196 74.6069 86.1137C74.6069 86.0071 74.6488 85.9048 74.7236 85.8289C74.7983 85.753 74.8999 85.7095 75.0064 85.7078H83.1234C83.2311 85.7078 83.3343 85.7506 83.4104 85.8267C83.4865 85.9028 83.5293 86.006 83.5293 86.1137C83.5276 86.2202 83.4841 86.3218 83.4082 86.3966C83.3323 86.4713 83.23 86.5132 83.1234 86.5132Z" fill="#CD88DA"/>
<path d="M46.0514 92.4107H31.9417C31.8358 92.4107 31.7342 92.3686 31.6593 92.2937C31.5843 92.2188 31.5422 92.1172 31.5422 92.0112C31.5422 91.9046 31.5841 91.8024 31.6589 91.7264C31.7336 91.6505 31.8352 91.607 31.9417 91.6053H46.0514C46.159 91.6053 46.2623 91.6481 46.3384 91.7242C46.4145 91.8003 46.4572 91.9036 46.4572 92.0112C46.4572 92.0642 46.4467 92.1167 46.4262 92.1656C46.4058 92.2144 46.3758 92.2588 46.338 92.296C46.3002 92.3331 46.2554 92.3624 46.2062 92.3821C46.157 92.4018 46.1044 92.4115 46.0514 92.4107Z" fill="white"/>
<path d="M78.786 92.4107H49.7994C49.6929 92.4107 49.5906 92.3688 49.5146 92.2941C49.4387 92.2193 49.3952 92.1177 49.3936 92.0112C49.3936 91.9036 49.4363 91.8003 49.5124 91.7242C49.5885 91.6481 49.6918 91.6053 49.7994 91.6053H78.786C78.8925 91.607 78.9941 91.6505 79.0689 91.7264C79.1436 91.8024 79.1855 91.9046 79.1855 92.0112C79.1855 92.1172 79.1434 92.2188 79.0685 92.2937C78.9936 92.3686 78.8919 92.4107 78.786 92.4107Z" fill="#CD88DA"/>
<path d="M96.2945 92.4107H82.1976C82.091 92.4107 81.9888 92.3688 81.9128 92.2941C81.8369 92.2193 81.7934 92.1177 81.7917 92.0112C81.7917 91.9036 81.8345 91.8003 81.9106 91.7242C81.9867 91.6481 82.09 91.6053 82.1976 91.6053H96.2945C96.4022 91.6053 96.5054 91.6481 96.5815 91.7242C96.6576 91.8003 96.7004 91.9036 96.7004 92.0112C96.6987 92.1177 96.6552 92.2193 96.5793 92.2941C96.5034 92.3688 96.4011 92.4107 96.2945 92.4107Z" fill="#CD88DA"/>
<path d="M36.1145 98.3082H28.6317C28.5251 98.3082 28.4229 98.2663 28.3469 98.1916C28.271 98.1169 28.2275 98.0152 28.2258 97.9087C28.2258 97.8011 28.2686 97.6978 28.3447 97.6217C28.4208 97.5456 28.524 97.5029 28.6317 97.5029H36.1145C36.2222 97.5029 36.3254 97.5456 36.4015 97.6217C36.4776 97.6978 36.5204 97.8011 36.5204 97.9087C36.5187 98.0152 36.4752 98.1169 36.3993 98.1916C36.3234 98.2663 36.2211 98.3082 36.1145 98.3082Z" fill="white"/>
<path d="M75.0065 98.3082H42.3102C42.2042 98.3082 42.1026 98.2661 42.0277 98.1912C41.9527 98.1163 41.9106 98.0147 41.9106 97.9087C41.9106 97.8022 41.9525 97.6999 42.0273 97.624C42.102 97.548 42.2036 97.5045 42.3102 97.5029H75.0065C75.1141 97.5029 75.2173 97.5456 75.2934 97.6217C75.3696 97.6978 75.4123 97.8011 75.4123 97.9087C75.4107 98.0152 75.3672 98.1169 75.2912 98.1916C75.2153 98.2663 75.113 98.3082 75.0065 98.3082Z" fill="#CD88DA"/>
<path d="M42.7412 104.18H28.6315C28.5744 104.188 28.5164 104.183 28.4614 104.166C28.4064 104.149 28.3556 104.12 28.3124 104.082C28.2692 104.044 28.2347 103.997 28.211 103.945C28.1873 103.892 28.175 103.835 28.175 103.778C28.175 103.72 28.1873 103.663 28.211 103.611C28.2347 103.558 28.2692 103.511 28.3124 103.473C28.3556 103.435 28.4064 103.407 28.4614 103.39C28.5164 103.373 28.5744 103.368 28.6315 103.375H42.7412C42.7983 103.368 42.8563 103.373 42.9113 103.39C42.9663 103.407 43.0171 103.435 43.0603 103.473C43.1035 103.511 43.138 103.558 43.1617 103.611C43.1854 103.663 43.1977 103.72 43.1977 103.778C43.1977 103.835 43.1854 103.892 43.1617 103.945C43.138 103.997 43.1035 104.044 43.0603 104.082C43.0171 104.12 42.9663 104.149 42.9113 104.166C42.8563 104.183 42.7983 104.188 42.7412 104.18Z" fill="white"/>
<path d="M58.8806 110.103H30.7183C30.6107 110.103 30.5075 110.061 30.4314 109.984C30.3553 109.908 30.3125 109.805 30.3125 109.697C30.3142 109.591 30.3577 109.489 30.4336 109.415C30.5095 109.34 30.6118 109.298 30.7183 109.298H58.8806C58.9871 109.298 59.0894 109.34 59.1653 109.415C59.2412 109.489 59.2847 109.591 59.2864 109.697C59.2864 109.805 59.2436 109.908 59.1675 109.984C59.0914 110.061 58.9882 110.103 58.8806 110.103Z" fill="white"/>
<path d="M83.1236 110.103H63.5477C63.4401 110.103 63.3368 110.061 63.2607 109.984C63.1846 109.908 63.1418 109.805 63.1418 109.697C63.1435 109.591 63.187 109.489 63.2629 109.415C63.3389 109.34 63.4411 109.298 63.5477 109.298H83.1236C83.2302 109.298 83.3325 109.34 83.4084 109.415C83.4843 109.489 83.5278 109.591 83.5295 109.697C83.5295 109.805 83.4867 109.908 83.4106 109.984C83.3345 110.061 83.2313 110.103 83.1236 110.103Z" fill="#CD88DA"/>
<path d="M110.157 110.103H85.9264C85.8187 110.103 85.7155 110.061 85.6394 109.984C85.5633 109.908 85.5205 109.805 85.5205 109.697C85.5205 109.644 85.531 109.592 85.5515 109.543C85.572 109.494 85.602 109.45 85.6398 109.413C85.6775 109.375 85.7223 109.346 85.7715 109.326C85.8207 109.307 85.8734 109.297 85.9264 109.298H110.157C110.263 109.298 110.364 109.34 110.439 109.415C110.514 109.49 110.556 109.591 110.556 109.697C110.556 109.804 110.515 109.906 110.44 109.982C110.365 110.058 110.263 110.102 110.157 110.103Z" fill="#CD88DA"/>
<path d="M72.9897 116.001H31.9417C31.8352 115.999 31.7336 115.956 31.6589 115.88C31.5841 115.804 31.5422 115.701 31.5422 115.595C31.5422 115.489 31.5843 115.387 31.6593 115.312C31.7342 115.238 31.8358 115.195 31.9417 115.195H72.9897C73.0956 115.195 73.1973 115.238 73.2722 115.312C73.3471 115.387 73.3892 115.489 73.3892 115.595C73.3892 115.701 73.3473 115.804 73.2726 115.88C73.1978 115.956 73.0962 115.999 72.9897 116.001Z" fill="white"/>
<path d="M94.2524 116.001H75.7862C75.7319 116.003 75.6777 115.993 75.627 115.974C75.5763 115.954 75.53 115.924 75.491 115.887C75.452 115.849 75.4209 115.803 75.3997 115.753C75.3785 115.703 75.3676 115.649 75.3677 115.595C75.3693 115.488 75.4128 115.387 75.4888 115.312C75.5647 115.237 75.667 115.195 75.7735 115.195H94.2397C94.3463 115.195 94.4485 115.237 94.5245 115.312C94.6004 115.387 94.6439 115.488 94.6456 115.595C94.6456 115.7 94.6046 115.802 94.5312 115.878C94.4578 115.953 94.3578 115.998 94.2524 116.001Z" fill="#CD88DA"/>
<path d="M152.296 116.001H97.3853C97.2777 116.001 97.1745 115.958 97.0984 115.882C97.0223 115.806 96.9795 115.703 96.9795 115.595C96.9812 115.488 97.0246 115.387 97.1006 115.312C97.1765 115.237 97.2788 115.195 97.3853 115.195H152.296C152.402 115.195 152.503 115.238 152.578 115.312C152.653 115.387 152.695 115.489 152.695 115.595C152.695 115.701 152.653 115.804 152.579 115.88C152.504 115.956 152.402 115.999 152.296 116.001Z" fill="#CD88DA"/>
<path d="M51.188 121.898H31.7769C31.6693 121.898 31.5661 121.855 31.49 121.779C31.4138 121.703 31.3711 121.6 31.3711 121.492C31.3728 121.386 31.4163 121.284 31.4922 121.21C31.5681 121.135 31.6704 121.093 31.7769 121.093H51.188C51.2946 121.093 51.3968 121.135 51.4728 121.21C51.5487 121.284 51.5922 121.386 51.5938 121.492C51.5938 121.6 51.5511 121.703 51.475 121.779C51.3989 121.855 51.2956 121.898 51.188 121.898Z" fill="white"/>
<path d="M69.3437 121.898H55.0755C54.9679 121.898 54.8647 121.855 54.7886 121.779C54.7124 121.703 54.6697 121.6 54.6697 121.492C54.6713 121.386 54.7148 121.284 54.7908 121.21C54.8667 121.135 54.969 121.093 55.0755 121.093H69.3437C69.4497 121.093 69.5513 121.135 69.6262 121.21C69.7011 121.285 69.7432 121.386 69.7432 121.492C69.7432 121.599 69.7013 121.701 69.6266 121.777C69.5518 121.853 69.4502 121.897 69.3437 121.898Z" fill="#CD88DA"/>
<path d="M87.4863 121.898H73.1927C73.0862 121.897 72.9846 121.853 72.9098 121.777C72.8351 121.701 72.7932 121.599 72.7932 121.492C72.7932 121.386 72.8353 121.285 72.9102 121.21C72.9851 121.135 73.0868 121.093 73.1927 121.093H87.4863C87.5928 121.093 87.6951 121.135 87.771 121.21C87.847 121.284 87.8904 121.386 87.8921 121.492C87.8921 121.6 87.8493 121.703 87.7732 121.779C87.6971 121.855 87.5939 121.898 87.4863 121.898Z" fill="#CD88DA"/>
<path d="M66.0967 127.796H31.7769C31.6693 127.796 31.5661 127.753 31.49 127.677C31.4138 127.601 31.3711 127.498 31.3711 127.39C31.3711 127.282 31.4138 127.179 31.49 127.103C31.5661 127.027 31.6693 126.984 31.7769 126.984H66.0967C66.2043 126.984 66.3075 127.027 66.3836 127.103C66.4597 127.179 66.5025 127.282 66.5025 127.39C66.5025 127.498 66.4597 127.601 66.3836 127.677C66.3075 127.753 66.2043 127.796 66.0967 127.796Z" fill="white"/>
<path d="M87.4861 127.796H70.3263C70.2186 127.796 70.1154 127.753 70.0393 127.677C69.9632 127.601 69.9204 127.498 69.9204 127.39C69.9204 127.282 69.9632 127.179 70.0393 127.103C70.1154 127.027 70.2186 126.984 70.3263 126.984H87.4861C87.5394 126.984 87.5922 126.995 87.6414 127.015C87.6907 127.035 87.7354 127.065 87.7731 127.103C87.8108 127.141 87.8407 127.185 87.8611 127.235C87.8815 127.284 87.892 127.337 87.892 127.39C87.892 127.443 87.8815 127.496 87.8611 127.545C87.8407 127.595 87.8108 127.639 87.7731 127.677C87.7354 127.715 87.6907 127.745 87.6414 127.765C87.5922 127.785 87.5394 127.796 87.4861 127.796Z" fill="#CD88DA"/>
<path d="M117.855 127.796H91.7032C91.5956 127.796 91.4923 127.753 91.4162 127.677C91.3401 127.601 91.2974 127.498 91.2974 127.39C91.2974 127.282 91.3401 127.179 91.4162 127.103C91.4923 127.027 91.5956 126.984 91.7032 126.984H117.855C117.963 126.984 118.066 127.027 118.142 127.103C118.218 127.179 118.261 127.282 118.261 127.39C118.261 127.498 118.218 127.601 118.142 127.677C118.066 127.753 117.963 127.796 117.855 127.796Z" fill="#CD88DA"/>
<path d="M146.728 127.796H120.588C120.481 127.796 120.378 127.753 120.301 127.677C120.225 127.601 120.183 127.498 120.183 127.39C120.183 127.282 120.225 127.179 120.301 127.103C120.378 127.027 120.481 126.984 120.588 126.984H146.728C146.835 126.984 146.939 127.027 147.015 127.103C147.091 127.179 147.134 127.282 147.134 127.39C147.134 127.498 147.091 127.601 147.015 127.677C146.939 127.753 146.835 127.796 146.728 127.796Z" fill="#CD88DA"/>
<path d="M60.9284 133.687H40.4901C40.4371 133.688 40.3844 133.678 40.3352 133.658C40.286 133.639 40.2412 133.609 40.2035 133.572C40.1657 133.535 40.1357 133.491 40.1152 133.442C40.0948 133.393 40.0842 133.34 40.0842 133.287C40.0842 133.18 40.127 133.077 40.2031 133C40.2792 132.924 40.3824 132.882 40.4901 132.882H60.9601C61.0678 132.882 61.171 132.924 61.2471 133C61.3232 133.077 61.366 133.18 61.366 133.287C61.3653 133.343 61.3532 133.398 61.3305 133.448C61.3077 133.499 61.2748 133.545 61.2338 133.582C61.1928 133.62 61.1445 133.648 61.092 133.666C61.0395 133.684 60.9838 133.691 60.9284 133.687Z" fill="white"/>
<path d="M85.2414 133.687H64.7713C64.6648 133.687 64.5625 133.645 64.4866 133.57C64.4106 133.496 64.3671 133.394 64.3655 133.287C64.3655 133.18 64.4082 133.077 64.4844 133C64.5605 132.924 64.6637 132.882 64.7713 132.882H85.2414C85.349 132.882 85.4523 132.924 85.5284 133C85.6045 133.077 85.6473 133.18 85.6473 133.287C85.6473 133.34 85.6367 133.393 85.6162 133.442C85.5958 133.491 85.5658 133.535 85.528 133.572C85.4902 133.609 85.4454 133.639 85.3962 133.658C85.347 133.678 85.2944 133.688 85.2414 133.687Z" fill="#CD88DA"/>
<path d="M109.726 133.687H89.2557C89.2027 133.688 89.1501 133.678 89.1009 133.658C89.0517 133.639 89.0069 133.609 88.9691 133.572C88.9313 133.535 88.9013 133.491 88.8809 133.442C88.8604 133.393 88.8498 133.34 88.8499 133.287C88.8499 133.18 88.8926 133.077 88.9687 133C89.0448 132.924 89.1481 132.882 89.2557 132.882H109.726C109.832 132.883 109.934 132.927 110.009 133.003C110.083 133.079 110.125 133.181 110.125 133.287C110.125 133.393 110.083 133.495 110.008 133.57C109.933 133.645 109.832 133.687 109.726 133.687Z" fill="#CD88DA"/>
<path d="M135.079 134.353H114.602C114.496 134.351 114.394 134.308 114.319 134.232C114.245 134.156 114.203 134.053 114.203 133.947C114.203 133.841 114.245 133.739 114.32 133.664C114.395 133.59 114.496 133.547 114.602 133.547H135.079C135.185 133.547 135.286 133.59 135.361 133.664C135.436 133.739 135.478 133.841 135.478 133.947C135.478 134.053 135.436 134.156 135.361 134.232C135.287 134.308 135.185 134.351 135.079 134.353Z" fill="#CD88DA"/>
<path d="M57.6117 139.584H43.502C43.3961 139.584 43.2945 139.542 43.2195 139.467C43.1446 139.392 43.1025 139.291 43.1025 139.185C43.1025 139.078 43.1444 138.976 43.2192 138.9C43.2939 138.824 43.3955 138.781 43.502 138.779H57.6117C57.7182 138.781 57.8198 138.824 57.8946 138.9C57.9693 138.976 58.0112 139.078 58.0112 139.185C58.0112 139.291 57.9691 139.392 57.8942 139.467C57.8193 139.542 57.7176 139.584 57.6117 139.584Z" fill="white"/>
<path d="M75.0382 139.584H60.9286C60.822 139.584 60.7197 139.543 60.6438 139.468C60.5679 139.393 60.5244 139.291 60.5227 139.185C60.5227 139.077 60.5655 138.974 60.6416 138.898C60.7177 138.822 60.8209 138.779 60.9286 138.779H75.0382C75.1458 138.779 75.2491 138.822 75.3252 138.898C75.4013 138.974 75.444 139.077 75.444 139.185C75.444 139.238 75.4335 139.29 75.413 139.339C75.3926 139.388 75.3626 139.432 75.3248 139.47C75.287 139.507 75.2422 139.536 75.193 139.556C75.1438 139.576 75.0912 139.585 75.0382 139.584Z" fill="#CD88DA"/>
<path d="M107.633 140.181L78.4626 139.585C78.356 139.581 78.2551 139.536 78.1815 139.459C78.108 139.382 78.0677 139.279 78.0694 139.172C78.0684 139.119 78.0785 139.066 78.0992 139.016C78.1198 138.967 78.1504 138.922 78.1892 138.885C78.2279 138.848 78.2739 138.82 78.3243 138.802C78.3746 138.783 78.4282 138.776 78.4816 138.779L107.62 139.375C107.674 139.376 107.726 139.387 107.775 139.409C107.824 139.43 107.868 139.46 107.906 139.499C107.943 139.537 107.972 139.582 107.991 139.632C108.011 139.681 108.021 139.734 108.02 139.787C108.018 139.89 107.977 139.988 107.905 140.061C107.833 140.135 107.736 140.177 107.633 140.181Z" fill="#CD88DA"/>
<path d="M118.489 74.7246H99.4207C99.3142 74.7229 99.2126 74.6794 99.1379 74.6035C99.0631 74.5275 99.0212 74.4252 99.0212 74.3187C99.0212 74.2127 99.0633 74.1111 99.1383 74.0362C99.2132 73.9613 99.3148 73.9192 99.4207 73.9192H118.489C118.596 73.9192 118.698 73.9611 118.774 74.0358C118.85 74.1106 118.894 74.2122 118.895 74.3187C118.895 74.4263 118.852 74.5296 118.776 74.6057C118.7 74.6818 118.597 74.7246 118.489 74.7246Z" fill="#CD88DA"/>
<path d="M132.605 74.7816C128.876 74.7816 126.105 74.7816 125.928 74.6992C125.825 74.6706 125.738 74.6024 125.686 74.5096C125.633 74.4169 125.62 74.3071 125.649 74.2045C125.677 74.1019 125.745 74.0149 125.838 73.9626C125.931 73.9103 126.041 73.8969 126.143 73.9255C126.872 74.0143 139.46 73.9699 147.786 73.9255C147.893 73.9255 147.995 73.9674 148.071 74.0421C148.147 74.1169 148.191 74.2185 148.192 74.325C148.192 74.4316 148.15 74.5339 148.076 74.6098C148.001 74.6857 147.899 74.7292 147.793 74.7309C143.36 74.7499 137.241 74.7816 132.605 74.7816Z" fill="#CD88DA"/>
<path d="M115.458 62.9612H87.759C87.6609 62.9489 87.5707 62.9012 87.5053 62.827C87.4399 62.7529 87.4038 62.6574 87.4038 62.5586C87.4038 62.4597 87.4399 62.3642 87.5053 62.2901C87.5707 62.2159 87.6609 62.1682 87.759 62.1559H115.458C115.556 62.1682 115.647 62.2159 115.712 62.2901C115.777 62.3642 115.814 62.4597 115.814 62.5586C115.814 62.6574 115.777 62.7529 115.712 62.827C115.647 62.9012 115.556 62.9489 115.458 62.9612Z" fill="#CD88DA"/>
<path d="M148.586 62.9612H121.026C120.928 62.9489 120.838 62.9012 120.772 62.827C120.707 62.7529 120.671 62.6574 120.671 62.5586C120.671 62.4597 120.707 62.3642 120.772 62.2901C120.838 62.2159 120.928 62.1682 121.026 62.1559H148.592C148.69 62.1682 148.781 62.2159 148.846 62.2901C148.911 62.3642 148.947 62.4597 148.947 62.5586C148.947 62.6574 148.911 62.7529 148.846 62.827C148.781 62.9012 148.69 62.9489 148.592 62.9612H148.586Z" fill="#CD88DA"/>
<path d="M89.4459 57.0637C84.3347 57.0637 80.4348 57.0637 80.2762 57.0256C80.1711 57.0105 80.0763 56.9542 80.0127 56.8692C79.9491 56.7842 79.9218 56.6774 79.937 56.5722C79.9521 56.4671 80.0084 56.3723 80.0934 56.3087C80.1784 56.2451 80.2852 56.2178 80.3904 56.233C81.1006 56.2774 101.545 56.233 112.275 56.233C112.332 56.2258 112.39 56.2308 112.445 56.2478C112.5 56.2647 112.551 56.2932 112.594 56.3313C112.637 56.3694 112.672 56.4162 112.696 56.4687C112.719 56.5212 112.731 56.5781 112.731 56.6356C112.731 56.6932 112.719 56.7501 112.696 56.8026C112.672 56.8551 112.637 56.9019 112.594 56.94C112.551 56.9781 112.5 57.0066 112.445 57.0235C112.39 57.0405 112.332 57.0455 112.275 57.0383C107.804 57.0447 97.2205 57.0637 89.4459 57.0637Z" fill="#CD88DA"/>
<path d="M119.758 57.0573C119.684 57.0556 119.612 57.0325 119.552 56.9908C119.491 56.9492 119.443 56.8907 119.415 56.8227C119.372 56.7207 119.371 56.6061 119.411 56.5031C119.451 56.4 119.53 56.3168 119.631 56.271C119.948 56.1061 126.391 56.0934 138.763 56.2266C138.869 56.2283 138.971 56.2717 139.046 56.3477C139.12 56.4236 139.162 56.5259 139.162 56.6324C139.161 56.739 139.117 56.8406 139.041 56.9153C138.965 56.9901 138.863 57.032 138.756 57.0319C131.553 56.9558 120.595 56.8861 119.916 57.0319C119.866 57.0522 119.812 57.0608 119.758 57.0573Z" fill="white"/>
<path d="M93.0607 98.3082H78.7862C78.6797 98.3082 78.5774 98.2663 78.5015 98.1916C78.4255 98.1169 78.382 98.0152 78.3804 97.9087C78.3804 97.8011 78.4231 97.6978 78.4992 97.6217C78.5754 97.5456 78.6786 97.5029 78.7862 97.5029H93.0607C93.1684 97.5029 93.2716 97.5456 93.3477 97.6217C93.4238 97.6978 93.4666 97.8011 93.4666 97.9087C93.4649 98.0152 93.4214 98.1169 93.3455 98.1916C93.2696 98.2663 93.1673 98.3082 93.0607 98.3082Z" fill="#CD88DA"/>
<path d="M60.3006 104.18H49.7993C49.7421 104.188 49.6841 104.183 49.6291 104.166C49.5741 104.149 49.5233 104.12 49.4801 104.082C49.437 104.044 49.4024 103.997 49.3787 103.945C49.355 103.892 49.3428 103.835 49.3428 103.778C49.3428 103.72 49.355 103.663 49.3787 103.611C49.4024 103.558 49.437 103.511 49.4801 103.473C49.5233 103.435 49.5741 103.407 49.6291 103.39C49.6841 103.373 49.7421 103.368 49.7993 103.375H60.3006C60.3987 103.387 60.4889 103.435 60.5544 103.509C60.6198 103.583 60.6558 103.679 60.6558 103.778C60.6558 103.877 60.6198 103.972 60.5544 104.046C60.4889 104.12 60.3987 104.168 60.3006 104.18Z" fill="#CD88DA"/>
<path d="M89.2557 104.18H64.2895C64.1914 104.168 64.1012 104.12 64.0358 104.046C63.9704 103.972 63.9343 103.877 63.9343 103.778C63.9343 103.679 63.9704 103.583 64.0358 103.509C64.1012 103.435 64.1914 103.387 64.2895 103.375H89.2557C89.3538 103.387 89.444 103.435 89.5094 103.509C89.5748 103.583 89.6109 103.679 89.6109 103.778C89.6109 103.877 89.5748 103.972 89.5094 104.046C89.444 104.12 89.3538 104.168 89.2557 104.18Z" fill="white"/>
<path d="M142.619 104.18H94.2527C94.1546 104.168 94.0644 104.12 93.999 104.046C93.9335 103.972 93.8975 103.877 93.8975 103.778C93.8975 103.679 93.9335 103.583 93.999 103.509C94.0644 103.435 94.1546 103.387 94.2527 103.375H142.619C142.676 103.368 142.734 103.373 142.789 103.39C142.844 103.407 142.895 103.435 142.938 103.473C142.981 103.511 143.015 103.558 143.039 103.611C143.063 103.663 143.075 103.72 143.075 103.778C143.075 103.835 143.063 103.892 143.039 103.945C143.015 103.997 142.981 104.044 142.938 104.082C142.895 104.12 142.844 104.149 142.789 104.166C142.734 104.183 142.676 104.188 142.619 104.18Z" fill="#CD88DA"/>
<path d="M13.1968 43.4043C13.9779 43.4043 14.611 42.7712 14.611 41.9902C14.611 41.2092 13.9779 40.576 13.1968 40.576C12.4158 40.576 11.7827 41.2092 11.7827 41.9902C11.7827 42.7712 12.4158 43.4043 13.1968 43.4043Z" fill="#231F20"/>
<path d="M18.1368 43.4043C18.9178 43.4043 19.5509 42.7712 19.5509 41.9902C19.5509 41.2092 18.9178 40.576 18.1368 40.576C17.3558 40.576 16.7227 41.2092 16.7227 41.9902C16.7227 42.7712 17.3558 43.4043 18.1368 43.4043Z" fill="white"/>
<path d="M23.0765 43.4043C23.8575 43.4043 24.4906 42.7712 24.4906 41.9902C24.4906 41.2092 23.8575 40.576 23.0765 40.576C22.2955 40.576 21.6624 41.2092 21.6624 41.9902C21.6624 42.7712 22.2955 43.4043 23.0765 43.4043Z" fill="white"/>
<path d="M115.395 174.291H62.647L68.6079 156.117H109.434L115.395 174.291Z" fill="white"/>
<path d="M115.395 174.709H62.6472C62.5814 174.71 62.5164 174.695 62.4577 174.665C62.399 174.635 62.3483 174.592 62.3098 174.538C62.2713 174.485 62.2461 174.423 62.2364 174.358C62.2267 174.293 62.2328 174.226 62.254 174.164L68.215 155.99C68.2418 155.907 68.2944 155.834 68.365 155.783C68.4357 155.732 68.5208 155.704 68.6081 155.704H109.434C109.521 155.704 109.607 155.732 109.677 155.783C109.748 155.834 109.8 155.907 109.827 155.99L115.788 174.164C115.809 174.227 115.815 174.293 115.805 174.358C115.795 174.423 115.77 174.485 115.731 174.538C115.692 174.591 115.642 174.634 115.583 174.664C115.525 174.694 115.461 174.709 115.395 174.709ZM63.2243 173.879H114.818L109.111 156.535H68.9125L63.2243 173.879Z" fill="#231F20"/>
<path d="M119.751 174.291H58.2966C56.8816 174.291 55.7346 175.437 55.7346 176.85C55.7346 178.263 56.8816 179.408 58.2966 179.408H119.751C121.166 179.408 122.313 178.263 122.313 176.85C122.313 175.437 121.166 174.291 119.751 174.291Z" fill="white"/>
<path d="M119.758 179.827H58.2905C57.5017 179.827 56.7453 179.514 56.1875 178.956C55.6297 178.398 55.3164 177.642 55.3164 176.853C55.3164 176.064 55.6297 175.308 56.1875 174.75C56.7453 174.192 57.5017 173.879 58.2905 173.879H119.758C120.547 173.879 121.303 174.192 121.861 174.75C122.419 175.308 122.732 176.064 122.732 176.853C122.732 177.642 122.419 178.398 121.861 178.956C121.303 179.514 120.547 179.827 119.758 179.827ZM58.2969 174.71C57.7284 174.71 57.1832 174.935 56.7813 175.337C56.3793 175.739 56.1535 176.285 56.1535 176.853C56.1535 177.421 56.3793 177.967 56.7813 178.369C57.1832 178.771 57.7284 178.996 58.2969 178.996H119.758C120.326 178.996 120.871 178.771 121.273 178.369C121.675 177.967 121.901 177.421 121.901 176.853C121.901 176.285 121.675 175.739 121.273 175.337C120.871 174.935 120.326 174.71 119.758 174.71H58.2969Z" fill="#231F20"/>
<path d="M64.2324 169.497C65.0822 169.047 110.747 160.701 110.747 160.701L109.25 156.136H68.4304L64.2324 169.497Z" fill="#231F20"/>
<path d="M64.2193 169.89C64.1267 169.886 64.0378 169.853 63.9657 169.795C63.9056 169.741 63.8623 169.671 63.8409 169.594C63.8196 169.516 63.821 169.434 63.8452 169.357L68.0432 155.996C68.0699 155.915 68.1218 155.844 68.1913 155.794C68.2608 155.744 68.3443 155.717 68.43 155.717H109.25C109.334 155.716 109.416 155.741 109.485 155.791C109.553 155.84 109.604 155.909 109.63 155.99L111.127 160.555C111.146 160.61 111.152 160.668 111.146 160.725C111.139 160.782 111.12 160.837 111.089 160.885C111.06 160.935 111.021 160.978 110.974 161.011C110.927 161.044 110.873 161.066 110.816 161.075C98.2917 163.365 65.532 169.402 64.3969 169.846C64.3415 169.873 64.281 169.888 64.2193 169.89ZM68.7217 156.522L64.8281 168.913C70.3134 167.677 102.293 161.817 110.22 160.365L108.952 156.522H68.7217Z" fill="#231F20"/>
<path d="M172.609 222.779V219.619L198.049 206.662V211.719L178.535 221.12L178.693 220.804V221.594L178.535 221.278L198.049 230.68V235.736L172.609 222.779ZM221.881 194.654L208.846 243.083H204.579L217.615 194.654H221.881ZM253.842 222.779L228.402 235.736V230.68L247.916 221.278L247.758 221.594V220.804L247.916 221.12L228.402 211.719V206.662L253.842 219.619V222.779Z" fill="#231F20" fill-opacity="0.85"/>
</svg>
