<svg width="259" height="191" viewBox="0 0 259 191" fill="none" xmlns="http://www.w3.org/2000/svg">
<path d="M126.788 176.72C65.5974 176.72 15.8013 142.222 15.8013 99.7915C15.8013 57.3609 65.5974 22.8625 126.788 22.8625C187.979 22.8625 237.775 57.3609 237.775 99.7915C237.775 112.886 232.927 125.854 223.799 137.249C224.995 153.868 226.38 173.762 226.38 174.013C226.38 174.265 226.191 174.454 225.94 174.454C225.751 174.454 225.625 174.391 225.499 174.202L212.153 148.958C190.937 166.585 159.901 176.72 126.788 176.72ZM126.788 23.7439C66.101 23.7439 16.6826 57.8646 16.6826 99.7915C16.6826 141.718 66.038 175.839 126.788 175.839C159.901 175.839 191 165.641 212.027 147.951C212.216 147.825 212.468 147.825 212.656 148.014L212.719 148.077L225.373 171.936C224.995 166.396 223.925 150.658 222.918 137.123C222.918 136.997 222.918 136.871 223.044 136.808C232.172 125.539 236.956 112.76 236.956 99.7915C236.83 57.8646 187.475 23.7439 126.788 23.7439Z" fill="#CD88DA"/>
<path d="M213.727 94.5034C213.664 94.5034 213.601 94.5034 213.475 94.4405C213.286 94.3146 213.223 94.1257 213.286 93.8739L217.126 83.6125C212.09 79.8982 209.257 74.6102 209.257 69.0703C209.257 58.1793 220.274 49.3029 233.746 49.3029C247.218 49.3029 258.235 58.1793 258.235 69.0703C258.235 79.9612 247.218 88.8376 233.746 88.8376C229.402 88.8376 225.121 87.8933 221.218 86.0677L214.041 94.3146C213.915 94.4405 213.852 94.5034 213.727 94.5034ZM233.746 50.1843C220.714 50.1843 210.138 58.683 210.138 69.0703C210.138 74.4213 212.971 79.5205 217.944 83.1089C218.133 83.2348 218.196 83.4236 218.07 83.6125L214.986 91.9223L220.777 85.2493C220.903 85.1234 221.155 85.0604 221.281 85.1234C225.184 87.012 229.402 88.0192 233.746 87.9563C246.777 87.9563 257.353 79.4576 257.353 69.0703C257.353 58.683 246.777 50.1843 233.746 50.1843Z" fill="#CD88DA"/>
<path d="M33.4912 117.355C33.3653 117.355 33.3023 117.355 33.2394 117.293C30.3435 115.026 27.5736 112.571 24.9925 109.927H23.9223C10.7021 109.927 0 102.813 0 94.0628C0 85.3122 10.7021 78.1985 23.9223 78.1985C37.1425 78.1985 47.8445 85.3122 47.8445 94.0628C47.8445 100.547 41.801 106.402 32.7357 108.794L33.9319 116.852C33.9319 117.041 33.8689 117.23 33.743 117.293C33.6171 117.355 33.5541 117.355 33.4912 117.355ZM25.1813 108.983C25.3072 108.983 25.4331 109.046 25.4961 109.109C27.8254 111.501 30.2806 113.767 32.9246 115.845L31.7914 108.542C31.7285 108.29 31.9173 108.101 32.1062 108.038C40.9826 105.835 46.9632 100.232 46.9632 94.0628C46.9632 85.8159 36.6388 79.0799 23.9223 79.0799C11.2057 79.0799 0.881345 85.8159 0.881345 94.0628C0.881345 102.31 11.2057 109.046 23.9223 109.046C24.3 109.046 24.7407 109.046 25.1813 108.983Z" fill="#CD88DA"/>
<path d="M52.8806 19.2113C52.8806 19.2113 54.8951 15.4341 58.1687 10.2089C58.1687 10.2089 68.619 18.0152 68.493 17.5745C68.3671 17.1338 52.8806 19.2113 52.8806 19.2113Z" fill="#231F20"/>
<path d="M52.8804 19.652C52.6286 19.652 52.4397 19.4631 52.4397 19.2113C52.4397 19.1484 52.4397 19.0854 52.5027 19.0225C52.5027 18.9595 54.5801 15.1823 57.8537 10.0201C57.9166 9.89422 58.0425 9.83127 58.1685 9.83127C58.2944 9.83127 58.4203 9.83127 58.4832 9.89423C62.0716 12.6012 68.0521 16.945 68.6187 17.1968C68.9335 17.2598 68.9335 17.3857 68.9335 17.5116C68.9335 17.7004 68.8705 17.8893 68.7446 18.0152C68.6817 18.0782 68.5557 18.1411 68.3039 18.0152C67.3596 17.8263 58.4203 18.8966 52.8804 19.652ZM58.3573 10.8385C56.091 14.4269 54.4542 17.3227 53.6988 18.6447C61.2532 17.6375 65.0304 17.2598 66.9819 17.1339C65.5969 16.1896 63.0788 14.3639 58.3573 10.8385Z" fill="#231F20"/>
<path d="M190.937 176.343L196.099 167.718L188.922 161.171L190.937 176.343Z" fill="#231F20"/>
<path d="M190.937 176.783H190.811C190.622 176.721 190.496 176.595 190.496 176.406L188.482 161.234C188.482 161.045 188.545 160.856 188.734 160.793C188.923 160.73 189.111 160.73 189.237 160.856L196.414 167.34C196.54 167.466 196.603 167.718 196.477 167.907L191.252 176.595C191.189 176.721 191.063 176.783 190.937 176.783ZM189.489 162.304L191.189 175.021L195.533 167.781L189.489 162.304Z" fill="#231F20"/>
<path d="M187.538 178.168L103.81 190.13C100.284 190.57 96.8848 188.43 95.8775 184.967L52.5656 22.9254C51.6843 19.5889 53.8247 16.6301 57.3501 16.3153L142.715 9.45342C146.177 9.26456 149.325 11.5309 150.332 14.8674L191.881 171.558C192.7 174.328 191.126 177.224 188.356 178.042C188.104 178.105 187.852 178.168 187.538 178.168Z" fill="#231F20"/>
<path d="M102.865 190.633C99.4659 190.633 96.4441 188.367 95.4369 185.093L52.125 22.9884C51.6214 21.3516 51.9361 19.5889 52.8804 18.204C53.9506 16.756 55.5874 15.8747 57.3501 15.8117L142.715 8.94983C146.429 8.76097 149.766 11.1532 150.773 14.6786L192.322 171.369C192.763 173.006 192.511 174.706 191.63 176.154C190.685 177.539 189.237 178.42 187.601 178.609L103.936 190.57C103.621 190.633 103.243 190.633 102.865 190.633ZM143.281 9.83117C143.093 9.83117 142.967 9.83117 142.778 9.83117L57.4131 16.756C55.9022 16.819 54.5172 17.5744 53.6359 18.7705C52.8175 19.9667 52.6286 21.4146 53.0063 22.7996L96.3812 184.841C97.3255 188.052 100.473 190.067 103.81 189.689L187.538 177.728C188.923 177.539 190.182 176.783 190.937 175.65C191.693 174.454 191.944 172.943 191.567 171.621L150.017 14.9304C149.073 11.9086 146.366 9.89412 143.281 9.83117Z" fill="#231F20"/>
<path d="M193.014 169.229L109.286 181.19C105.761 181.631 102.362 179.49 101.354 176.028L58.0424 13.9232C57.1611 10.5867 59.3015 7.62787 62.8269 7.3131L148.192 0.451192C151.654 0.262332 154.802 2.52865 155.809 5.86518L197.358 162.556C198.177 165.326 196.603 168.222 193.896 169.04C193.581 169.166 193.266 169.229 193.014 169.229Z" fill="white"/>
<path d="M108.342 181.694C104.943 181.694 101.921 179.428 100.914 176.154L57.6018 14.0491C57.0982 12.4123 57.4129 10.6496 58.3572 9.26466C59.4274 7.81673 61.0642 6.93538 62.8269 6.87243L148.192 0.0105126C151.906 -0.178347 155.242 2.21388 156.25 5.73926L197.799 162.43C198.24 164.067 197.988 165.767 197.106 167.152C196.162 168.537 194.714 169.418 193.077 169.607L109.349 181.568C109.035 181.631 108.657 181.694 108.342 181.694ZM148.758 0.89186H148.255L62.8899 7.81673C61.379 7.87968 59.994 8.63512 59.1127 9.83123C58.2943 11.0273 58.0425 12.4753 58.4831 13.8602L101.795 175.902C102.739 179.113 105.887 181.127 109.224 180.75L192.951 168.788C194.336 168.6 195.595 167.844 196.351 166.711C197.106 165.515 197.358 164.067 196.918 162.682L155.368 5.99108C154.487 2.96932 151.843 0.954814 148.758 0.89186Z" fill="#231F20"/>
<path d="M66.2896 24.6253L153.732 17.0709L187.223 143.481L101.103 154.939L66.2896 24.6253Z" fill="black"/>
<path d="M158.39 168.285L142.022 170.551C139.882 170.803 137.867 169.481 137.238 167.403L135.601 161.297C135.098 159.534 136.105 157.709 137.805 157.205C137.993 157.142 138.182 157.079 138.371 157.079L154.739 154.876C156.879 154.624 158.831 155.946 159.46 158.023L161.034 164.067C161.538 165.767 160.531 167.592 158.831 168.096C158.768 168.222 158.579 168.285 158.39 168.285Z" fill="white"/>
<path d="M141.519 171.118C139.378 171.118 137.49 169.67 136.86 167.592L135.223 161.486C134.909 160.416 135.097 159.282 135.664 158.401C136.294 157.457 137.301 156.89 138.371 156.764L154.739 154.561C157.068 154.309 159.272 155.757 159.901 158.023L161.538 164.067C162.104 166.018 160.971 168.096 159.02 168.662C158.831 168.725 158.579 168.788 158.39 168.788L142.022 171.055C141.896 171.055 141.708 171.055 141.519 171.118ZM155.368 155.379C155.18 155.379 155.054 155.379 154.865 155.379L138.56 157.646C137.742 157.772 136.923 158.212 136.482 158.905C136.042 159.597 135.916 160.479 136.105 161.297L137.742 167.403C138.308 169.292 140.071 170.425 142.022 170.236L158.39 167.97C159.964 167.781 161.034 166.459 160.908 164.885C160.908 164.696 160.845 164.508 160.782 164.382L159.209 158.338C158.705 156.575 157.131 155.379 155.368 155.379Z" fill="#CD88DA"/>
<path d="M92.1636 13.7344C91.9118 13.7344 91.7229 13.5456 91.7229 13.2937C91.7229 13.0419 91.9118 12.8531 92.1636 12.8531L117.156 10.7756C117.408 10.7756 117.597 10.9015 117.66 11.1533C117.66 11.4051 117.471 11.594 117.282 11.657L92.1636 13.7344Z" fill="#CD88DA"/>
<path d="M120.618 11.4051C120.367 11.4051 120.178 11.2162 120.178 10.9644C120.178 10.7126 120.367 10.5238 120.618 10.5238L123.955 10.2719C124.207 10.2719 124.396 10.4608 124.459 10.6497C124.459 10.9015 124.27 11.0903 124.081 11.1533L120.618 11.4051Z" fill="#CD88DA"/>
<path d="M97.5773 85.5641C97.5143 85.5641 97.3884 85.5641 97.3254 85.5011C97.1366 85.3752 97.0736 85.0605 97.1995 84.8716L136.734 27.1434C136.86 26.9545 137.175 26.9545 137.364 27.0804C137.553 27.2063 137.553 27.4582 137.49 27.647L97.955 85.3752C97.8291 85.5011 97.7032 85.5641 97.5773 85.5641Z" fill="white"/>
<path d="M129.683 134.416C129.62 134.416 129.495 134.416 129.432 134.353C129.243 134.227 129.18 133.975 129.306 133.723L153.165 99.5397C153.291 99.3508 153.606 99.2879 153.795 99.4138C153.983 99.5397 154.046 99.8544 153.92 100.043L130.061 134.227C129.998 134.353 129.809 134.416 129.683 134.416Z" fill="white"/>
<path d="M123.2 102.058C123.137 102.058 123.011 102.058 122.948 101.995C122.759 101.869 122.696 101.554 122.822 101.365L132.139 87.5156C132.265 87.3268 132.58 87.2638 132.768 87.4527C132.957 87.5786 133.02 87.8304 132.894 88.0193L123.577 101.869C123.451 101.932 123.325 102.058 123.2 102.058Z" fill="white"/>
<path d="M93.2339 63.2787L49.3554 66.867C47.7186 66.867 46.3336 65.7339 46.0189 64.16L39.5347 34.6979C39.157 33.124 40.1013 31.7391 41.5492 31.6132L85.3017 28.9691C86.8126 29.0321 88.1346 30.1023 88.4494 31.6132L95.0595 60.131C95.5002 61.8308 94.6188 63.1528 93.2339 63.2787Z" fill="white"/>
<path d="M85.4907 29.0321C87.0016 29.158 88.1977 30.2282 88.5124 31.6761L95.0596 60.194C95.4373 61.7678 94.556 63.1528 93.171 63.2158L49.2925 66.8041H49.1666C47.5928 66.7411 46.3337 65.608 46.0189 64.0971L39.5347 34.635C39.157 33.0611 40.1013 31.6761 41.5493 31.5502L85.3018 28.9062L85.4907 29.0321ZM85.4907 28.1508H85.3018L41.6122 30.7948C40.7309 30.8577 39.8495 31.2984 39.3459 31.9909C38.7164 32.8093 38.5275 33.8795 38.7793 34.8868L45.2635 64.3489C45.6412 66.2375 47.278 67.6854 49.2296 67.7484C49.2925 67.7484 49.4184 67.7484 49.4814 67.7484L93.2969 64.1601C94.1782 64.0971 94.9337 63.6564 95.4373 62.964C96.0039 62.0826 96.1927 61.0124 95.9409 60.0681L89.4567 31.4873C89.079 29.5987 87.4422 28.2767 85.5536 28.1508H85.4907Z" fill="#231F20"/>
<path d="M69.0599 54.2134C68.9969 54.2134 68.871 54.1505 68.8081 54.1505L39.7236 32.9352C39.5348 32.8093 39.4718 32.4945 39.5977 32.3057C39.7236 32.1168 40.0384 32.0538 40.2273 32.2427L68.9969 53.1432L86.9386 29.4098C87.0645 29.2209 87.3793 29.158 87.5682 29.2839C87.757 29.4098 87.82 29.7246 87.6941 29.9134L69.4376 53.9616C69.3117 54.1505 69.1858 54.2134 69.0599 54.2134Z" fill="#CD88DA"/>
<path d="M94.8076 62.838C94.7447 62.838 94.6188 62.838 94.5558 62.775L73.2776 48.2958C73.0887 48.1699 73.0258 47.918 73.1517 47.6662C73.2776 47.4774 73.5294 47.4144 73.7812 47.5403L95.0594 62.0196C95.2483 62.1455 95.3113 62.4603 95.1854 62.6491C95.0594 62.775 94.9335 62.838 94.8076 62.838Z" fill="#CD88DA"/>
<path d="M47.404 66.6781C47.2781 66.6781 47.2151 66.6151 47.1522 66.5522C46.9633 66.4263 46.9633 66.1115 47.0892 65.9227L61.7573 48.4216C61.8832 48.2328 62.198 48.2328 62.3869 48.3587C62.5757 48.5475 62.5757 48.7993 62.4498 48.9882L47.7187 66.4892C47.6558 66.6151 47.5299 66.6781 47.404 66.6781Z" fill="#CD88DA"/>
<path d="M184.139 23.4291L138.309 26.4508C135.916 26.5767 134.091 28.6542 134.217 31.0464C134.217 31.2982 134.28 31.55 134.342 31.7389L141.708 59.4384C142.338 62.2083 144.856 64.1599 147.752 63.971L149.955 63.7822L150.899 74.5472L157.132 63.1526L193.141 61.0122C195.47 60.8233 197.233 58.7459 197.044 56.4166C197.044 56.1648 196.981 55.913 196.918 55.6612L190.119 27.9617C189.427 25.1288 186.909 23.2402 184.139 23.4291Z" fill="white"/>
<path d="M150.836 74.925H150.773C150.584 74.862 150.458 74.7361 150.458 74.5472L149.577 64.2858L147.814 64.4747C144.729 64.6636 141.959 62.6491 141.33 59.6273L134.027 31.9278C133.461 29.3467 135.035 26.8286 137.616 26.1991C137.868 26.1361 138.119 26.0732 138.371 26.0732L184.201 23.0514C187.16 22.8625 189.867 24.877 190.559 27.7729L197.358 55.4724C197.736 56.8573 197.421 58.3053 196.603 59.5014C195.785 60.5716 194.526 61.2641 193.141 61.39L157.383 63.5304L151.214 74.7361C151.151 74.799 150.962 74.925 150.836 74.925ZM149.892 63.2786C150.143 63.2786 150.332 63.4674 150.332 63.6563L151.151 72.9104L156.691 62.775C156.754 62.6491 156.879 62.5861 157.068 62.5231L193.078 60.3827C194.211 60.3198 195.218 59.7532 195.848 58.8089C196.54 57.8646 196.729 56.6685 196.477 55.5353L189.678 27.8359C189.049 25.3807 186.782 23.6809 184.201 23.8068L138.371 26.8286C136.231 26.9545 134.594 28.7802 134.72 30.9206C134.72 31.1094 134.783 31.3612 134.783 31.5501L142.085 59.2496C142.652 61.8307 144.981 63.5934 147.625 63.4045L149.892 63.2786Z" fill="#231F20"/>
<path d="M169.47 56.7313C168.778 56.1648 168.085 55.6611 167.393 55.0946L161.538 50.8137C160.279 49.8694 158.957 48.9251 157.761 47.8549C156.691 46.9106 155.746 45.8404 154.991 44.6443C154.55 43.8259 154.172 42.9446 153.921 42.0632C153.669 41.3078 153.543 40.4894 153.417 39.671C153.039 37.027 154.55 34.5088 157.005 33.5645C159.712 32.5573 162.293 33.1239 164.686 35.0754C165.252 35.5161 165.756 36.0197 166.197 36.5863L166.259 36.7122C166.259 36.6492 166.322 36.5863 166.322 36.5863C166.889 35.3272 167.833 34.257 169.029 33.5645C170.1 32.935 171.359 32.6832 172.618 32.7461C175.828 32.872 178.598 35.0125 179.606 38.0342C179.857 38.7897 179.983 39.608 180.046 40.4264C180.109 41.3078 180.109 42.1262 180.046 43.0075C179.857 44.2666 179.417 45.4627 178.724 46.5329C178.032 47.6031 177.15 48.6104 176.269 49.5547C174.947 50.9396 173.562 52.3876 172.177 53.7725C171.233 54.7798 170.351 55.7241 169.47 56.7313Z" fill="#CD88DA"/>
<path d="M100.347 104.135L98.9623 104.261L98.7104 94.5665C98.7104 94.5665 95.3739 100.988 93.2965 104.702L50.9918 107.85C48.7255 108.038 47.0887 109.738 47.4664 111.753L52.9434 142.978C53.3211 145.118 55.5244 146.629 57.9167 146.377L109.035 141.341C111.238 141.089 112.686 139.263 112.182 137.249L105.069 107.283C104.565 105.331 102.488 103.947 100.347 104.135Z" fill="white"/>
<path d="M57.4132 146.818C55.021 146.818 52.8806 145.181 52.4399 142.978L46.963 111.753C46.7741 110.745 47.0259 109.738 47.6554 108.983C48.4738 108.038 49.607 107.409 50.8661 107.346L92.9189 104.198C94.9963 100.484 98.207 94.3775 98.207 94.3146C98.2699 94.1257 98.5217 94.0628 98.7106 94.0628C98.8994 94.1257 99.0254 94.2516 99.0883 94.5034L99.3401 103.695L100.221 103.632C102.551 103.443 104.88 105.017 105.384 107.094L112.497 137.06C112.749 138.067 112.56 139.2 111.931 140.082C111.238 141.026 110.168 141.656 108.972 141.718L57.8539 146.755C57.7909 146.755 57.6021 146.755 57.4132 146.818ZM98.3329 96.2032C97.1997 98.3436 95.1222 102.247 93.6743 104.828C93.6114 104.954 93.4855 105.017 93.2966 105.08L50.992 108.227C49.9847 108.29 49.0404 108.731 48.4109 109.486C47.9702 110.053 47.7813 110.808 47.9073 111.564L53.3842 142.789C53.699 144.677 55.7135 146.062 57.9168 145.873L109.035 140.837C109.979 140.774 110.798 140.333 111.364 139.578C111.805 138.948 111.994 138.067 111.805 137.312L104.691 107.346C104.313 105.646 102.362 104.387 100.41 104.513L99.0254 104.639C98.8994 104.639 98.7735 104.639 98.7106 104.513C98.6476 104.45 98.5847 104.324 98.5847 104.198L98.3329 96.2032Z" fill="#231F20"/>
<path d="M72.6478 137.375L66.6673 137.941L63.6455 122.14L69.5631 121.699L72.6478 137.375Z" fill="#CD88DA"/>
<path d="M66.6672 138.13C66.6042 138.13 66.5413 138.067 66.5413 138.004L63.5195 122.203C63.5195 122.14 63.5195 122.14 63.5195 122.077C63.5195 122.014 63.5825 122.014 63.6454 122.014L69.563 121.51C69.626 121.51 69.689 121.573 69.689 121.636L72.7737 137.375C72.7737 137.438 72.7737 137.438 72.7737 137.501C72.7737 137.564 72.7107 137.564 72.6478 137.564L66.6672 138.13ZM63.7713 122.329L66.7301 137.815L72.4589 137.249L69.4371 121.825L63.7713 122.329Z" fill="#CD88DA"/>
<path d="M72.0811 122.769C72.0811 122.769 76.9285 121.133 78.4393 118.174C79.9502 115.215 79.3836 110.368 80.0761 110.053C81.3982 109.675 82.8461 110.242 83.6645 111.375C84.7347 112.886 85.1124 117.355 83.9792 120.44C83.9792 120.44 90.4005 119.811 93.2963 119.559C96.1922 119.307 97.3253 121.762 95.8145 122.958C95.8145 122.958 98.1437 123.021 97.766 125.162C97.3883 127.302 96.5699 127.428 95.2479 127.554C95.2479 127.554 96.8847 127.806 96.7588 129.38C96.6329 130.953 94.6813 131.52 94.6813 131.52C94.6813 131.52 96.6958 132.212 95.7515 134.101C94.8072 135.99 91.6595 136.053 84.2311 136.304C76.8026 136.556 74.4103 135.108 74.4103 135.108L72.0811 122.769Z" fill="#CD88DA"/>
<path d="M82.6574 136.493C76.5509 136.493 74.5364 135.297 74.4735 135.234C74.4105 135.234 74.4105 135.171 74.4105 135.171L71.9553 122.832C71.9553 122.769 71.9553 122.707 72.0183 122.707C72.0812 122.707 76.8027 121.07 78.3136 118.237C79.195 116.6 79.3209 114.271 79.4468 112.571C79.5727 110.997 79.6356 110.242 80.0134 110.053C80.8947 109.675 82.7203 109.927 83.7276 111.438C84.7348 112.949 85.1755 117.355 84.1683 120.377C85.3014 120.251 90.7154 119.748 93.2965 119.559C95.1222 119.433 96.1924 120.314 96.5071 121.133C96.7589 121.762 96.633 122.518 96.1924 123.021C96.7589 123.084 97.2626 123.399 97.6403 123.777C97.9551 124.217 98.081 124.784 97.9551 125.351C97.6403 127.176 96.9478 127.617 95.9405 127.806C96.633 128.121 97.0737 128.813 96.9478 129.568C96.8219 130.828 95.6887 131.457 95.1222 131.709C95.5628 131.898 95.9405 132.275 96.1294 132.716C96.3183 133.22 96.2553 133.786 95.9405 134.29C94.9333 136.241 91.5968 136.304 84.2942 136.556C83.7276 136.43 83.161 136.493 82.6574 136.493ZM74.6623 134.982C75.04 135.171 77.5582 136.367 84.3571 136.116C91.5338 135.864 94.8074 135.801 95.7517 133.975C96.0035 133.597 96.0665 133.094 95.8776 132.653C95.6258 132.212 95.2481 131.835 94.7444 131.646C94.6815 131.646 94.6815 131.583 94.6815 131.52C94.6815 131.457 94.7444 131.394 94.8074 131.394C94.8074 131.394 96.633 130.828 96.7589 129.38C96.8219 128.561 96.1924 127.806 95.374 127.743C95.311 127.743 95.2481 127.68 95.2481 127.617C95.2481 127.554 95.311 127.491 95.374 127.491C96.5701 127.365 97.3885 127.302 97.7662 125.225C97.8921 124.784 97.7662 124.28 97.5144 123.903C97.0737 123.462 96.5071 123.21 95.9405 123.21C95.8776 123.21 95.8146 123.147 95.8146 123.147C95.8146 123.084 95.8146 123.021 95.8776 123.021C96.4442 122.581 96.633 121.888 96.3812 121.259C96.0665 120.566 95.1851 119.748 93.4854 119.874C90.5895 120.125 84.2312 120.692 84.1683 120.755C84.1053 120.755 84.1053 120.755 84.0424 120.692C84.0424 120.629 84.0424 120.629 84.0424 120.566C85.1126 117.607 84.7978 113.138 83.7276 111.627C82.9722 110.557 81.5872 110.053 80.3281 110.368C80.0763 110.494 80.0133 111.564 79.9504 112.634C79.8245 114.334 79.6356 116.726 78.7543 118.426C77.3693 121.133 73.1514 122.769 72.396 123.021L74.6623 134.982Z" fill="#CD88DA"/>
<path d="M198.366 132.087L155.117 136.241C152.032 136.556 148.884 134.227 148.066 131.016L141.77 105.205C140.952 101.995 142.841 99.0361 145.988 98.7213L189.426 93.9998C192.637 93.6221 195.847 96.0143 196.666 99.2879L202.835 125.539C203.528 128.939 201.576 131.772 198.366 132.087Z" fill="white"/>
<path d="M154.614 136.745C151.34 136.619 148.507 134.353 147.689 131.142L141.393 105.331C140.953 103.695 141.267 101.932 142.212 100.484C143.093 99.2249 144.478 98.4065 145.989 98.2806L189.427 93.5591C192.826 93.1814 196.289 95.6995 197.107 99.2249L203.276 125.476C203.717 127.113 203.402 128.876 202.395 130.261C201.451 131.52 200.003 132.338 198.429 132.464L155.18 136.619C154.991 136.745 154.802 136.745 154.614 136.745ZM190.056 94.4405C189.867 94.4405 189.616 94.4404 189.427 94.5034L145.989 99.2249C144.73 99.3508 143.597 100.043 142.841 101.051C142.023 102.247 141.771 103.758 142.212 105.143L148.507 130.953C149.262 133.912 152.158 136.116 155.054 135.864L198.366 131.646C199.688 131.52 200.884 130.89 201.64 129.757C202.458 128.561 202.71 127.113 202.332 125.665L196.163 99.4138C195.533 96.6438 193.015 94.5664 190.056 94.4405Z" fill="#231F20"/>
<path d="M184.705 114.963L169.156 127.113C168.022 127.995 166.26 127.176 165.882 125.665L160.909 105.205C160.657 104.261 161.161 103.317 162.105 103.002C162.546 102.876 162.986 102.939 163.364 103.128L183.887 111.501C185.398 112.067 185.838 114.019 184.705 114.963Z" fill="#CD88DA"/>
</svg>
