<svg width="228" height="236" viewBox="0 0 228 236" fill="none" xmlns="http://www.w3.org/2000/svg">
<path d="M56.0321 0.177979H6.05424C2.80887 0.177979 0.177979 2.80887 0.177979 6.05424V50.6901C0.177979 53.9354 2.80887 56.5663 6.05424 56.5663H56.0321C59.2775 56.5663 61.9084 53.9354 61.9084 50.6901V6.05424C61.9084 2.80887 59.2775 0.177979 56.0321 0.177979Z" fill="#FFFFFE"/>
<path d="M55.9728 56.6851H6.05433C2.73039 56.6851 0 53.9547 0 50.6308V6.05433C0 2.73038 2.73039 0 6.05433 0H55.9728C59.2968 0 62.0272 2.73038 62.0272 6.05433V50.6308C62.0272 53.9547 59.2968 56.6851 55.9728 56.6851ZM6.05433 0.356138C2.90845 0.356138 0.356138 2.90845 0.356138 6.05433V50.6308C0.356138 53.7767 2.90845 56.329 6.05433 56.329H55.9728C59.1187 56.329 61.671 53.7767 61.671 50.6308V6.05433C61.671 2.90845 59.1187 0.356138 55.9728 0.356138H6.05433Z" fill="#101720"/>
<path d="M6.82593 45.6449L24.2173 15.4919L41.6086 45.6449H6.82593Z" fill="#CD88DA"/>
<path d="M41.6082 45.823H6.82554C6.76618 45.823 6.70683 45.823 6.64747 45.7636C6.58812 45.7043 6.64747 45.6449 6.64747 45.5856L24.0388 15.4327C24.0982 15.3139 24.2762 15.3139 24.3356 15.4327L41.7269 45.5856C41.7269 45.5856 41.7269 45.7043 41.7269 45.7636C41.7269 45.823 41.6082 45.823 41.5489 45.823H41.6082ZM7.12232 45.4669H41.3115L24.2169 15.8482L7.12232 45.4669Z" fill="#101720"/>
<path d="M27.8972 45.6449L41.4304 22.1992L54.9636 45.6449H27.8972Z" fill="#CD88DA"/>
<path d="M54.9637 45.823H27.8973C27.838 45.823 27.7786 45.823 27.7193 45.7637C27.6599 45.7043 27.7193 45.645 27.7193 45.5856L41.2525 22.1399C41.3118 22.0212 41.4899 22.0212 41.5492 22.1399L55.0824 45.5856C55.0824 45.5856 55.0824 45.7043 55.0824 45.7637C55.0824 45.823 54.9637 45.823 54.9044 45.823H54.9637ZM28.1941 45.4669H54.6669L41.4305 22.5554L28.1941 45.4669Z" fill="#101720"/>
<path d="M133.432 0.177979H83.5137C80.2683 0.177979 77.6375 2.80887 77.6375 6.05424V50.6901C77.6375 53.9354 80.2683 56.5663 83.5137 56.5663H133.432C136.678 56.5663 139.308 53.9354 139.308 50.6901V6.05424C139.308 2.80887 136.678 0.177979 133.432 0.177979Z" fill="#FFFFFE"/>
<path d="M133.432 56.6851C133.314 56.6851 133.254 56.6258 133.254 56.507C133.254 56.3883 133.314 56.329 133.432 56.329C135.213 56.329 136.875 55.5573 137.943 54.1328C138.003 54.0734 138.121 54.0141 138.181 54.1328C138.24 54.1922 138.3 54.3109 138.181 54.3702C136.994 55.8541 135.272 56.6851 133.373 56.6851H133.432ZM128.031 56.6851H122.63C122.511 56.6851 122.451 56.6258 122.451 56.507C122.451 56.3883 122.511 56.329 122.63 56.329H128.031C128.15 56.329 128.209 56.3883 128.209 56.507C128.209 56.6258 128.15 56.6851 128.031 56.6851ZM117.287 56.6851H111.886C111.767 56.6851 111.708 56.6258 111.708 56.507C111.708 56.3883 111.767 56.329 111.886 56.329H117.287C117.406 56.329 117.466 56.3883 117.466 56.507C117.466 56.6258 117.406 56.6851 117.287 56.6851ZM106.485 56.6851H101.083C100.964 56.6851 100.905 56.6258 100.905 56.507C100.905 56.3883 100.964 56.329 101.083 56.329H106.485C106.603 56.329 106.663 56.3883 106.663 56.507C106.663 56.6258 106.603 56.6851 106.485 56.6851ZM95.7412 56.6851H90.3398C90.221 56.6851 90.1617 56.6258 90.1617 56.507C90.1617 56.3883 90.221 56.329 90.3398 56.329H95.7412C95.8599 56.329 95.9192 56.3883 95.9192 56.507C95.9192 56.6258 95.8599 56.6851 95.7412 56.6851ZM84.9383 56.6851H83.5138C82.1486 56.6851 80.7834 56.2103 79.715 55.3793C79.6556 55.3199 79.5963 55.2012 79.715 55.1418C79.7744 55.0825 79.8931 55.0231 79.9524 55.1418C80.9615 55.9728 82.208 56.3883 83.5138 56.3883H84.9383C85.0571 56.3883 85.1164 56.4477 85.1164 56.5664C85.1164 56.6851 85.0571 56.7445 84.9383 56.7445V56.6851ZM77.6375 50.7495C77.5188 50.7495 77.4595 50.6901 77.4595 50.5714V45.17C77.4595 45.0513 77.5188 44.992 77.6375 44.992C77.7562 44.992 77.8156 45.0513 77.8156 45.17V50.5714C77.8156 50.6901 77.7562 50.7495 77.6375 50.7495ZM139.368 49.3249C139.249 49.3249 139.19 49.2656 139.19 49.1469V43.7455C139.19 43.6268 139.249 43.5674 139.368 43.5674C139.487 43.5674 139.546 43.6268 139.546 43.7455V49.1469C139.546 49.2656 139.487 49.3249 139.368 49.3249ZM77.6375 39.9467C77.5188 39.9467 77.4595 39.8873 77.4595 39.7686V34.3672C77.4595 34.2485 77.5188 34.1891 77.6375 34.1891C77.7562 34.1891 77.8156 34.2485 77.8156 34.3672V39.7686C77.8156 39.8873 77.7562 39.9467 77.6375 39.9467ZM139.368 38.5815C139.249 38.5815 139.19 38.5221 139.19 38.4034V33.002C139.19 32.8833 139.249 32.8239 139.368 32.8239C139.487 32.8239 139.546 32.8833 139.546 33.002V38.4034C139.546 38.5221 139.487 38.5815 139.368 38.5815ZM77.6375 29.2032C77.5188 29.2032 77.4595 29.1439 77.4595 29.0251V23.6237C77.4595 23.505 77.5188 23.4457 77.6375 23.4457C77.7562 23.4457 77.8156 23.505 77.8156 23.6237V29.0251C77.8156 29.1439 77.7562 29.2032 77.6375 29.2032ZM139.368 27.838C139.249 27.838 139.19 27.7787 139.19 27.66V22.2586C139.19 22.1398 139.249 22.0805 139.368 22.0805C139.487 22.0805 139.546 22.1398 139.546 22.2586V27.66C139.546 27.7787 139.487 27.838 139.368 27.838ZM77.6375 18.4004C77.5188 18.4004 77.4595 18.341 77.4595 18.2223V12.8209C77.4595 12.7022 77.5188 12.6429 77.6375 12.6429C77.7562 12.6429 77.8156 12.7022 77.8156 12.8209V18.2223C77.8156 18.341 77.7562 18.4004 77.6375 18.4004ZM139.368 17.0352C139.249 17.0352 139.19 16.9759 139.19 16.8571V11.4557C139.19 11.337 139.249 11.2777 139.368 11.2777C139.487 11.2777 139.546 11.337 139.546 11.4557V16.8571C139.546 16.9759 139.487 17.0352 139.368 17.0352ZM77.6375 7.65694C77.5188 7.65694 77.4595 7.59759 77.4595 7.47887V6.05433C77.4595 4.68914 77.9343 3.3833 78.7653 2.25553C78.8247 2.19618 78.9434 2.13682 79.0027 2.25553C79.0621 2.31489 79.1214 2.4336 79.0027 2.49296C78.1717 3.50201 77.7563 4.74849 77.7563 6.05433V7.47887C77.7563 7.59759 77.6969 7.65694 77.5782 7.65694H77.6375ZM139.368 6.29175C139.249 6.29175 139.19 6.23239 139.19 6.11368C139.19 4.27364 138.418 2.67103 136.994 1.54326C136.934 1.4839 136.875 1.36519 136.994 1.30584C137.053 1.24648 137.172 1.18712 137.231 1.30584C138.715 2.49296 139.546 4.21429 139.546 6.05433C139.546 6.17304 139.487 6.29175 139.368 6.29175ZM132.008 0.356138H126.606C126.488 0.356138 126.428 0.29678 126.428 0.178068C126.428 0.0593557 126.488 0 126.606 0H132.008C132.126 0 132.186 0.0593557 132.186 0.178068C132.186 0.29678 132.126 0.356138 132.008 0.356138ZM121.205 0.356138H115.804C115.685 0.356138 115.625 0.29678 115.625 0.178068C115.625 0.0593557 115.685 0 115.804 0H121.205C121.324 0 121.383 0.0593557 121.383 0.178068C121.383 0.29678 121.324 0.356138 121.205 0.356138ZM110.461 0.356138H105.06C104.941 0.356138 104.882 0.29678 104.882 0.178068C104.882 0.0593557 104.941 0 105.06 0H110.461C110.58 0 110.64 0.0593557 110.64 0.178068C110.64 0.29678 110.58 0.356138 110.461 0.356138ZM99.718 0.356138H94.3166C94.1979 0.356138 94.1385 0.29678 94.1385 0.178068C94.1385 0.0593557 94.1979 0 94.3166 0H99.718C99.8367 0 99.8961 0.0593557 99.8961 0.178068C99.8961 0.29678 99.8367 0.356138 99.718 0.356138ZM88.9152 0.356138H83.5138C83.3951 0.356138 83.3357 0.29678 83.3357 0.178068C83.3357 0.0593557 83.3951 0 83.5138 0H88.9152C89.0339 0 89.0933 0.0593557 89.0933 0.178068C89.0933 0.29678 89.0339 0.356138 88.9152 0.356138Z" fill="#101720"/>
<path d="M100.668 214.216L100.252 209.112C100.252 209.112 95.2068 210.833 88.8557 210.774L89.3899 218.787L95.741 218.431L100.668 214.276V214.216Z" fill="#FF7E6E"/>
<path d="M89.3905 218.905C89.2718 218.905 89.2124 218.846 89.2124 218.727L88.6782 210.714V210.596C88.6782 210.596 88.7376 210.596 88.7969 210.596C88.9156 210.596 88.975 210.596 89.0937 210.596C95.2074 210.596 100.134 208.934 100.134 208.934C100.134 208.934 100.253 208.934 100.312 208.934C100.312 208.934 100.371 208.993 100.371 209.052L100.787 214.157C100.787 214.157 100.787 214.276 100.728 214.276L95.801 218.431C95.801 218.431 95.7416 218.431 95.6822 218.431L89.3311 218.787L89.3905 218.905ZM89.0344 210.952L89.5686 218.609L95.6822 218.253L100.49 214.157L100.134 209.349C99.1249 209.646 94.6138 210.952 89.1531 210.952H89.0344Z" fill="#101720"/>
<path d="M71.2271 228.759C72.058 230.895 73.3639 232.32 85.5319 230.064C97.7592 227.75 102.508 227.156 103.398 225.138C103.636 224.544 103.636 223.12 103.576 221.458C103.457 219.202 103.101 216.531 102.805 214.691C102.626 213.385 102.448 212.495 102.448 212.495C99.718 209.527 97.9373 215.403 95.8598 215.997C94.7321 216.294 93.1295 215.225 91.6456 214.216C90.3397 213.326 89.1526 212.554 88.4403 212.732C87.2532 213.029 81.6144 216.828 77.4594 219.677C77.1627 219.855 76.8659 220.093 76.6285 220.271C75.8568 220.805 75.1446 221.28 74.551 221.695C70.8116 224.307 70.3961 226.622 71.2271 228.759Z" fill="#FFFFFE"/>
<path d="M71.2273 228.759C72.0583 230.895 73.3641 232.32 85.5321 230.064C97.7595 227.75 102.508 227.156 103.398 225.138C103.636 224.544 103.636 223.12 103.576 221.458C96.5724 224.604 74.7887 229.174 71.2273 228.759Z" fill="black"/>
<path d="M77.4595 219.677C77.4595 219.677 79.2995 221.398 84.1667 218.846C89.0339 216.294 91.6456 214.216 91.6456 214.216C90.3398 213.326 89.1526 212.554 88.4404 212.732C87.2532 213.029 81.6144 216.828 77.4595 219.677Z" fill="black"/>
<path d="M89.7463 222.882C87.7876 222.882 85.8882 221.576 83.9888 218.965C83.9888 218.905 83.9888 218.787 83.9888 218.727C84.0481 218.727 84.1668 218.727 84.2262 218.727C86.2443 221.517 88.2624 222.764 90.2805 222.467C92.8328 222.111 102.983 218.668 103.042 218.609C103.161 218.609 103.22 218.609 103.28 218.727C103.28 218.846 103.28 218.905 103.161 218.965C102.745 219.083 92.8922 222.467 90.2805 222.823C90.0431 222.823 89.865 222.823 89.6276 222.823L89.7463 222.882Z" fill="#101720"/>
<path d="M76.0945 231.37C72.4144 231.37 71.6428 230.302 71.0492 228.818C71.0492 228.818 71.0492 228.818 71.0492 228.759C70.0995 226.147 71.1679 223.832 74.4325 221.576C75.0261 221.161 75.7383 220.686 76.51 220.152C76.6287 220.033 76.8068 219.974 76.9848 219.855L77.4003 219.558C80.9617 217.125 87.1347 212.97 88.4406 212.614C89.2122 212.376 90.4587 213.207 91.7645 214.098C93.1891 215.047 94.7917 216.175 95.8601 215.878C96.5724 215.7 97.2253 214.81 97.9375 213.92C98.8279 212.792 99.7776 211.605 100.905 211.545C101.499 211.545 102.033 211.783 102.627 212.436C102.627 212.436 102.627 212.436 102.627 212.554C102.627 212.554 102.805 213.445 102.983 214.751C103.22 216.234 103.576 219.143 103.754 221.517C103.873 223.476 103.814 224.722 103.576 225.316C102.805 227.156 99.1247 227.809 90.1619 229.471C88.7967 229.708 87.2534 230.005 85.5915 230.302C81.1991 231.133 78.1719 231.489 76.0945 231.489V231.37ZM71.4053 228.759C72.2363 230.895 73.7796 232.083 85.5321 229.827C87.1941 229.53 88.678 229.233 90.1025 228.996C98.8872 227.393 102.567 226.681 103.22 225.019C103.458 224.485 103.517 223.298 103.339 221.398C103.161 219.024 102.805 216.116 102.567 214.632C102.389 213.504 102.271 212.732 102.211 212.495C101.736 211.961 101.261 211.783 100.787 211.783C99.8369 211.783 98.9466 212.91 98.1156 214.038C97.344 214.988 96.6317 215.878 95.8601 216.116C94.673 216.472 93.011 215.344 91.5271 214.335C90.34 213.504 89.0935 212.673 88.4999 212.851C87.5502 213.089 83.5734 215.641 77.5784 219.736L77.1629 220.033C76.9848 220.152 76.8661 220.211 76.7474 220.33C75.9758 220.864 75.2635 221.339 74.6699 221.755C70.515 224.663 70.8118 227.037 71.4053 228.64C71.4053 228.64 71.4053 228.64 71.4053 228.699V228.759Z" fill="#101720" fill-opacity="0.35"/>
<path d="M164.713 203.888L162.339 198.843C162.339 198.843 158.125 198.428 156.819 204.66L161.627 218.193L167.859 209.587L164.713 203.948V203.888Z" fill="#FF7E6E"/>
<path d="M161.567 218.252C161.508 218.252 161.448 218.252 161.448 218.134L156.641 204.601C156.641 204.601 156.641 204.541 156.641 204.482C158.006 198.19 162.279 198.546 162.339 198.546C162.398 198.546 162.458 198.546 162.458 198.665L164.832 203.71L167.978 209.349C167.978 209.408 167.978 209.468 167.978 209.527L161.745 218.134C161.745 218.134 161.686 218.193 161.627 218.193L161.567 218.252ZM156.997 204.601L161.627 217.718L167.622 209.527L164.594 204.007L162.22 199.021C161.567 199.021 158.184 199.14 156.997 204.66V204.601Z" fill="#101720"/>
<path d="M173.142 235.644C175.397 235.288 177.059 234.279 177.237 221.873C177.415 209.468 177.772 204.66 175.991 203.413C175.457 203.057 174.091 202.761 172.429 202.523C170.233 202.226 167.503 202.048 165.604 201.93C164.298 201.87 163.407 201.811 163.407 201.811C159.965 203.888 165.366 206.797 165.544 208.934C165.663 210.121 164.238 211.486 162.932 212.732C161.805 213.801 160.796 214.81 160.855 215.581C160.914 216.828 163.526 223.12 165.485 227.749C165.604 228.046 165.782 228.402 165.9 228.699C166.256 229.59 166.613 230.361 166.909 231.014C168.69 235.228 170.886 236.059 173.201 235.644H173.142Z" fill="#FFFFFE"/>
<path d="M173.141 235.644C175.397 235.288 177.059 234.279 177.237 221.873C177.415 209.468 177.771 204.66 175.991 203.413C175.456 203.057 174.091 202.761 172.429 202.523C174.151 210.002 174.269 232.261 173.201 235.644H173.141Z" fill="black"/>
<path d="M165.425 227.69C165.425 227.69 167.503 226.266 165.96 220.924C164.416 215.641 162.932 212.673 162.932 212.673C161.805 213.741 160.796 214.75 160.855 215.522C160.914 216.769 163.526 223.06 165.485 227.69H165.425Z" fill="black"/>
<path d="M165.96 221.161C165.9 221.161 165.841 221.161 165.782 221.042C165.782 220.924 165.782 220.864 165.841 220.805C168.987 219.38 170.59 217.659 170.708 215.582C170.827 213.029 169.462 202.404 169.462 202.286C169.462 202.167 169.462 202.108 169.64 202.108C169.759 202.108 169.818 202.108 169.818 202.286C169.818 202.701 171.183 213.089 171.064 215.641C170.946 217.837 169.284 219.618 166.019 221.161C166.019 221.161 166.019 221.161 165.96 221.161Z" fill="#101720"/>
<path d="M172.192 235.881C169.877 235.881 168.097 234.338 166.672 231.073C166.375 230.421 166.078 229.649 165.663 228.759C165.544 228.462 165.366 228.106 165.247 227.809C163.17 222.942 160.736 216.828 160.618 215.581C160.618 214.81 161.567 213.801 162.695 212.673C162.695 212.614 162.695 212.614 162.695 212.614C163.942 211.427 165.307 210.061 165.188 208.993C165.188 208.281 164.416 207.45 163.645 206.559C162.695 205.432 161.745 204.304 161.924 203.235C162.042 202.642 162.398 202.167 163.111 201.752C163.111 201.752 163.17 201.752 163.229 201.752C163.229 201.752 164.12 201.752 165.426 201.87C166.969 201.93 169.818 202.167 172.251 202.464C174.151 202.701 175.397 203.057 175.932 203.354C177.594 204.482 177.534 208.221 177.356 217.362C177.356 218.787 177.356 220.33 177.297 221.992C177.119 234.338 175.516 235.525 173.023 235.941C172.726 235.941 172.37 236 172.073 236L172.192 235.881ZM163.051 212.851C162.042 213.92 161.033 214.869 161.093 215.522C161.152 216.472 162.814 220.805 165.663 227.631C165.782 227.928 165.9 228.284 166.078 228.58C166.435 229.471 166.791 230.242 167.087 230.895C169.106 235.525 171.539 235.703 173.142 235.466C175.397 235.05 176.881 233.863 177.059 221.873C177.059 220.211 177.059 218.668 177.119 217.243C177.297 208.281 177.356 204.541 175.872 203.532C175.516 203.295 174.685 202.998 172.37 202.642C169.996 202.345 167.087 202.108 165.604 202.048C164.476 201.989 163.645 201.93 163.467 201.93C162.873 202.286 162.576 202.701 162.458 203.176C162.28 204.126 163.229 205.194 164.12 206.263C164.891 207.212 165.663 208.043 165.722 208.874C165.841 210.121 164.416 211.486 163.111 212.792L163.051 212.851Z" fill="black"/>
<path d="M75.9753 120.374V212.732H109.69L108.621 141.624L150.23 209.883L183.647 203.829L134.56 120.374H75.9753Z" fill="black" fill-opacity="0.85"/>
<mask id="mask0_97_2" style="mask-type:luminance" maskUnits="userSpaceOnUse" x="75" y="120" width="109" height="93">
<path d="M75.9753 120.374V212.732H109.69L108.621 141.624L150.23 209.883L183.647 203.829L134.56 120.374H75.9753Z" fill="white"/>
</mask>
<g mask="url(#mask0_97_2)">
<path d="M107.137 139.309C101.973 132.245 100.727 130.287 98.8868 129.337C97.0467 128.387 98.1745 131.83 101.439 140.971C104.704 150.052 108.502 164.654 109.749 173.735C110.995 182.817 112.539 167.028 112.539 167.028L111.352 155.454L107.197 139.368" fill="#CD88DA"/>
<path d="M123.401 119.425C129.04 121.68 134.204 129.931 145.185 145.66C156.165 161.389 168.749 178.424 168.749 178.424L139.546 113.489L123.401 119.425Z" fill="#CD88DA"/>
<path d="M105.001 149.459C104.941 149.162 104.467 149.281 104.526 149.577C105.298 153.792 105.95 158.006 106.485 162.22C106.485 162.517 107.019 162.517 106.959 162.22C106.425 157.947 105.772 153.673 104.941 149.459H105.001Z" fill="#CD88DA"/>
<path d="M106.781 163.586C106.484 163.586 106.484 164.06 106.781 164.06C107.078 164.06 107.078 163.586 106.781 163.586Z" fill="#CD88DA"/>
</g>
<path d="M109.69 212.91H75.9759C75.8572 212.91 75.7979 212.851 75.7979 212.732V120.374C75.7979 120.256 75.8572 120.196 75.9759 120.196H134.56C134.62 120.196 134.679 120.196 134.738 120.256L183.826 203.71C183.826 203.71 183.826 203.829 183.826 203.888C183.826 203.948 183.767 204.007 183.707 204.007L150.29 210.061C150.23 210.061 150.171 210.061 150.112 210.002L108.859 142.336L109.928 212.792V212.91C109.928 212.91 109.868 212.91 109.809 212.91H109.69ZM76.154 212.554H109.512L108.444 141.624C108.444 141.564 108.444 141.446 108.562 141.446C108.622 141.446 108.741 141.446 108.741 141.505L150.29 209.646L183.351 203.651L134.501 120.493H76.154V212.495V212.554Z" fill="#101720"/>
<path d="M108.621 141.624C104.823 136.104 101.558 130.584 98.887 129.278C96.2159 127.972 103.873 136.875 105.832 140.199C107.79 143.523 108.74 145.838 108.74 145.838V141.624H108.681H108.621Z" fill="#101720"/>
<path d="M108.681 146.016C108.621 146.016 108.562 146.016 108.503 145.897C108.503 145.897 107.553 143.523 105.654 140.259C104.941 139.071 103.457 137.113 102.033 135.213C99.0057 131.236 97.8186 129.515 98.1747 129.1C98.3528 128.862 98.7683 129.1 98.9463 129.1C101.143 130.168 103.635 133.848 106.485 138.181C107.197 139.25 107.968 140.377 108.74 141.505C108.74 141.505 108.74 141.564 108.74 141.624V145.838C108.799 145.897 108.74 146.016 108.681 146.016ZM98.4715 129.337C98.4715 129.871 100.668 132.839 102.33 135.035C103.754 136.935 105.238 138.893 105.95 140.08C107.197 142.217 108.028 143.998 108.503 144.948V141.683C107.672 140.555 106.959 139.487 106.247 138.419C103.398 134.145 100.905 130.465 98.8276 129.456C98.6496 129.396 98.5309 129.337 98.5309 129.337H98.4715Z" fill="#CD88DA"/>
<path d="M154.623 118.772C154.504 118.772 154.385 118.772 154.267 118.772C145.244 119.187 134.798 113.133 134.798 113.133L135.332 120.671H76.0352L75.7384 117.347C75.7384 117.347 69.6841 127.497 55.9728 126.251C42.2615 125.063 30.9839 83.158 30.9839 83.158L47.3662 76.7475L50.1559 75.6791L61.9084 100.371C61.9084 100.371 72.0583 85.6509 79.2404 77.4598C86.4225 69.2093 97.997 64.3421 107.85 66.8944C117.703 69.506 129.752 78.825 135.332 83.2767C140.971 87.7284 154.504 98.5312 159.015 103.992C163.526 109.453 163.645 118.059 154.504 118.712L154.623 118.772Z" fill="#FFFFFE"/>
<path d="M58.2875 126.547C57.5753 126.547 56.8036 126.547 56.032 126.428C50.2744 125.894 44.2795 118.475 38.2252 104.289C33.7141 93.7826 30.865 83.2766 30.865 83.1578C30.865 83.0985 30.865 82.9798 30.9837 82.9204L50.1557 75.4415C50.2151 75.4415 50.3338 75.4415 50.3932 75.5603L62.027 100.015C63.3922 98.0562 72.5924 84.8792 79.2402 77.2816C86.9565 68.4375 98.531 64.1639 108.028 66.6568C118.178 69.3279 130.405 78.9436 135.629 83.0985C140.377 86.8379 154.741 98.2343 159.312 103.873C162.101 107.256 163.051 111.649 161.745 114.676C160.974 116.397 159.134 118.534 154.682 118.89H154.326C146.194 119.306 136.816 114.379 135.094 113.429L135.629 120.671V120.79C135.629 120.79 135.569 120.79 135.51 120.79H76.2131C76.0944 120.79 76.035 120.73 76.035 120.612L75.7976 117.762C75.204 118.593 73.7201 120.493 71.2865 122.333C68.6155 124.292 64.3419 126.488 58.4062 126.488L58.2875 126.547ZM31.2211 83.2766C31.9928 86.0663 43.033 124.945 56.032 126.132C63.036 126.785 67.9626 124.351 70.9304 122.155C74.0763 119.84 75.6195 117.288 75.6195 117.288C75.6195 117.228 75.7382 117.169 75.7976 117.228C75.8569 117.228 75.9163 117.288 75.9163 117.406L76.2131 120.552H135.154L134.62 113.192C134.62 113.133 134.62 113.073 134.679 113.014C134.679 113.014 134.798 113.014 134.857 113.014C134.976 113.073 145.363 119.068 154.207 118.593H154.563C157.946 118.356 160.261 116.991 161.27 114.617C162.517 111.649 161.567 107.494 158.896 104.17C154.326 98.5311 139.962 87.1941 135.272 83.4546C130.524 79.7152 117.94 69.7434 107.85 67.0723C98.4716 64.6387 87.0159 68.853 79.4183 77.5784C72.2956 85.7102 62.205 100.371 62.0863 100.49C62.0863 100.49 61.9676 100.549 61.9082 100.549C61.8489 100.549 61.7895 100.549 61.7895 100.43L50.0964 75.857L31.2211 83.2172V83.2766Z" fill="#101720"/>
<path d="M154.919 118.653C157.056 117.703 158.54 116.101 159.193 113.964C160.083 110.877 159.193 106.96 156.938 103.933C152.901 98.6498 122.57 75.5009 110.758 70.1589C108.206 68.9717 105.476 68.4375 102.627 68.4375C93.3671 68.4375 84.7011 74.5512 79.7152 80.3088C74.9073 85.7695 67.7846 97.0472 63.9858 103.28C63.511 104.051 62.68 104.526 61.7303 104.526C60.7806 104.526 59.7715 103.933 59.356 102.983L47.6035 76.8661L50.1558 75.8571L61.9677 100.668L62.0864 100.549C62.2051 100.431 72.2957 85.7695 79.4184 77.6378C85.4727 70.6931 94.2574 66.4194 102.449 66.4194C110.64 66.4194 106.188 66.6569 107.909 67.1317C118 69.7434 130.168 79.4184 135.391 83.514C140.08 87.2534 154.445 98.5905 159.074 104.229C161.805 107.553 162.754 111.768 161.449 114.735C160.44 117.05 158.184 118.415 154.919 118.712V118.653Z" fill="#303030" fill-opacity="0.9"/>
<path d="M93.4856 102.093L95.4444 102.33L113.429 97.5815L113.785 99.0654L95.8005 103.814L94.2572 105.001L91.052 104.289L93.4856 102.093Z" fill="#FFFFFE"/>
<path d="M94.2576 105.179L90.993 104.467C90.9336 104.467 90.8743 104.407 90.8743 104.348C90.8743 104.289 90.8743 104.229 90.8743 104.17L93.3672 101.974H93.4859L95.3853 102.211L113.311 97.4628H113.43C113.43 97.4628 113.489 97.5221 113.489 97.5815L113.904 99.0654C113.904 99.1841 113.904 99.2435 113.786 99.3028L95.8602 104.051L94.3169 105.179C94.3169 105.179 94.2576 105.179 94.1982 105.179H94.2576ZM91.4085 104.229L94.1982 104.823L95.6821 103.695C95.6821 103.695 95.6821 103.695 95.7415 103.695L113.548 98.9467L113.252 97.8189L95.4447 102.567C95.4447 102.567 95.4447 102.567 95.3853 102.567L93.5453 102.33L91.4085 104.229Z" fill="#101720"/>
<path d="M112.539 101.499L111.115 96.0382L123.461 92.7736C124.232 92.5955 125.004 93.011 125.241 93.7826L125.954 96.4536C126.132 97.2253 125.716 97.9969 124.944 98.2343L112.598 101.499H112.539Z" fill="black" fill-opacity="0.85"/>
<path d="M112.539 101.677C112.48 101.677 112.361 101.677 112.361 101.558L110.937 96.0976V95.9789C110.937 95.9789 110.996 95.9195 111.055 95.9195L123.402 92.6549C124.292 92.4175 125.123 92.9517 125.36 93.7827L126.073 96.4537C126.191 96.8692 126.073 97.2847 125.895 97.7002C125.657 98.0563 125.301 98.3531 124.885 98.4718L112.539 101.736V101.677ZM111.293 96.2163L112.658 101.321L124.826 98.0563C125.123 97.997 125.42 97.7596 125.598 97.4628C125.776 97.166 125.835 96.8099 125.716 96.5131L125.004 93.842C124.826 93.1891 124.114 92.7736 123.461 92.9517L111.293 96.2163Z" fill="#101720"/>
<path d="M110.393 95.2319L109.648 95.4303C109.394 95.4977 109.243 95.7578 109.311 96.0113L111.02 102.436C111.088 102.689 111.348 102.84 111.601 102.772L112.347 102.574C112.6 102.507 112.751 102.246 112.684 101.993L110.974 95.5686C110.907 95.3152 110.647 95.1644 110.393 95.2319Z" fill="#303030"/>
<path d="M111.411 102.983C111.292 102.983 111.174 102.983 111.114 102.924C110.995 102.864 110.877 102.686 110.817 102.567L109.096 96.0976C109.037 95.7415 109.215 95.4447 109.512 95.326L110.343 95.0886C110.699 94.9699 110.995 95.2073 111.114 95.5041L112.836 101.974C112.836 102.152 112.836 102.33 112.776 102.449C112.717 102.567 112.539 102.686 112.42 102.746L111.589 102.983C111.589 102.983 111.47 102.983 111.411 102.983ZM110.521 95.3854C110.521 95.3854 110.521 95.3854 110.461 95.3854L109.63 95.6228C109.571 95.6228 109.512 95.6822 109.452 95.7415C109.452 95.8009 109.452 95.8602 109.452 95.9196L111.174 102.389C111.174 102.449 111.233 102.508 111.292 102.567C111.352 102.567 111.411 102.567 111.47 102.567L112.301 102.33C112.361 102.33 112.42 102.271 112.479 102.211C112.479 102.152 112.479 102.093 112.479 102.033L110.758 95.5634C110.758 95.4447 110.639 95.3854 110.521 95.3854Z" fill="#101720"/>
<path d="M135.925 94.3169L129.574 110.462C129.574 110.462 115.388 103.695 113.429 102.567C111.47 101.44 112.479 99.2435 114.498 99.3029C116.516 99.3029 120.492 99.8371 120.492 99.8371C120.492 99.8371 119.721 95.5041 121.027 93.4266C121.027 93.4266 116.397 95.2073 112.42 95.6821C108.443 96.157 109.393 93.3079 111.945 92.655C114.498 92.002 118.771 90.2807 120.492 89.331C122.214 88.3813 124.588 88.9749 126.428 90.2807C126.428 90.2807 128.209 90.5181 129.752 91.3491C131.295 92.1801 135.984 94.3169 135.984 94.3169H135.925Z" fill="#FF7E6D"/>
<mask id="mask1_97_2" style="mask-type:luminance" maskUnits="userSpaceOnUse" x="109" y="88" width="27" height="23">
<path d="M135.925 94.3169L129.574 110.462C129.574 110.462 115.388 103.695 113.429 102.567C111.47 101.44 112.479 99.2435 114.498 99.3028C116.516 99.3028 120.492 99.837 120.492 99.837C120.492 99.837 119.721 95.504 121.027 93.4266C121.027 93.4266 116.397 95.2073 112.42 95.6821C108.443 96.157 109.393 93.3079 111.945 92.7143C114.498 92.1207 118.771 90.3401 120.492 89.3904C122.214 88.4407 124.588 89.0342 126.428 90.3401C126.428 90.3401 128.209 90.5775 129.752 91.4085C131.295 92.2395 135.984 94.3763 135.984 94.3763L135.925 94.3169Z" fill="white"/>
</mask>
<g mask="url(#mask1_97_2)">
<path d="M109.037 93.842C109.096 95.0885 111.53 94.7324 115.447 93.6046C119.365 92.4769 122.748 91.4084 122.748 91.4084C122.748 91.4084 120.493 93.4859 120.077 94.5543C119.662 95.6227 113.37 96.9286 113.37 96.9286H109.512L108.265 95.2666L109.096 93.842H109.037Z" fill="#CD88DA"/>
<path d="M121.205 101.083C122.036 101.024 122.392 99.9556 122.452 98.353C122.452 96.7504 123.105 95.2072 124.292 94.1981C125.479 93.189 126.072 93.3671 126.31 93.6045C126.547 93.842 125.894 94.6136 125.894 94.6136C125.894 94.6136 124.707 95.6226 124.173 97.344C123.639 99.0653 123.461 100.312 123.639 101.44C123.817 102.567 125.241 103.042 125.716 102.211C126.191 101.38 126.072 99.9556 126.903 98.4124C127.734 96.8691 128.447 96.513 128.921 96.6317C129.396 96.7504 129.337 96.9285 128.862 97.4033C128.387 97.8782 127.438 98.8872 127.081 100.49C126.725 102.092 126.428 103.458 126.785 104.289C127.141 105.12 128.625 105.535 128.921 104.585C129.218 103.636 128.921 102.567 129.634 102.033C130.346 101.499 131.652 102.033 131.177 103.873C130.702 105.713 129.396 106.722 126.607 106.01C123.757 105.357 120.968 101.974 119.781 101.024C118.593 100.074 115.27 99.006 115.27 99.006L120.255 99.3621C120.255 99.3621 120.671 100.787 121.264 101.083" fill="#CD88DA"/>
</g>
<path d="M129.574 110.699C129.574 110.699 129.574 110.699 129.515 110.699C129.396 110.64 115.27 103.933 113.311 102.805C112.242 102.211 112.005 101.321 112.183 100.668C112.421 99.7776 113.37 99.184 114.439 99.184C116.16 99.184 119.306 99.5995 120.196 99.7183C120.077 98.8279 119.721 95.7414 120.552 93.842C119.306 94.3168 115.566 95.5633 112.302 95.9195C109.928 96.2162 109.512 95.3259 109.453 94.9104C109.275 94.0201 110.343 92.8923 111.827 92.5362C114.32 91.9426 118.594 90.2213 120.374 89.2122C121.977 88.3219 124.351 88.678 126.429 90.1026C126.725 90.1026 128.328 90.3993 129.812 91.171C131.355 92.0019 135.985 94.1388 136.044 94.1388C136.104 94.1388 136.163 94.2575 136.163 94.3168C136.163 94.3762 136.163 94.3168 136.163 94.3762L129.812 110.521C129.812 110.521 129.812 110.58 129.693 110.64C129.693 110.64 129.693 110.64 129.634 110.64L129.574 110.699ZM114.379 99.4808C113.37 99.4808 112.717 100.134 112.539 100.727C112.361 101.38 112.717 102.033 113.489 102.449C115.329 103.458 127.853 109.453 129.456 110.224L135.688 94.3762C134.857 94.0201 130.999 92.2394 129.574 91.4677C128.091 90.6368 126.31 90.4587 126.31 90.4587C126.31 90.4587 126.31 90.4587 126.251 90.4587C124.767 89.3903 122.333 88.5593 120.552 89.5683C118.831 90.5774 114.498 92.2987 111.946 92.8923C110.581 93.2484 109.75 94.1981 109.868 94.851C109.987 95.4446 110.877 95.7414 112.361 95.5633C116.279 95.0885 120.908 93.3671 120.968 93.3078C121.027 93.3078 121.146 93.3078 121.146 93.3078C121.146 93.3078 121.146 93.4265 121.146 93.4859C119.959 95.504 120.671 99.7182 120.671 99.7776C120.671 99.7776 120.671 99.8963 120.671 99.9557C120.671 99.9557 120.552 100.015 120.493 99.9557C120.493 99.9557 116.516 99.4808 114.498 99.4215C114.498 99.4215 114.498 99.4215 114.439 99.4215L114.379 99.4808Z" fill="#101720"/>
<path d="M120.968 93.664C120.968 93.664 120.909 93.664 120.849 93.664C120.79 93.664 120.731 93.4859 120.849 93.4266C122.689 90.4588 125.123 90.1026 126.429 90.162C126.547 90.162 126.607 90.2213 126.607 90.34C126.607 90.4588 126.547 90.5181 126.429 90.5181C125.182 90.4588 122.927 90.8149 121.205 93.6046C121.205 93.6046 121.087 93.664 121.027 93.664H120.968Z" fill="#101720"/>
<path d="M128.565 105.773C128.209 105.773 127.794 105.654 127.437 105.476C126.785 105.12 126.428 104.408 126.428 103.339C126.31 101.084 127.616 97.9971 129.099 97.0474C129.159 97.0474 129.278 97.0474 129.337 97.0474C129.337 97.1067 129.337 97.2254 129.337 97.2848C127.972 98.1751 126.725 101.143 126.844 103.28C126.844 103.933 127.022 104.764 127.675 105.12C128.387 105.476 129.04 105.476 129.515 105.12C130.168 104.645 130.465 103.636 130.287 102.746C130.287 102.627 130.287 102.567 130.405 102.508C130.524 102.508 130.583 102.508 130.643 102.627C130.88 103.577 130.524 104.764 129.752 105.357C129.396 105.595 129.04 105.713 128.625 105.713L128.565 105.773Z" fill="#101720"/>
<path d="M125.301 103.695C125.063 103.695 124.826 103.695 124.648 103.517C123.817 103.102 123.283 101.915 123.283 100.193C123.283 96.8693 125.954 94.1983 126.072 94.0796C126.132 94.0202 126.251 94.0202 126.31 94.0796C126.369 94.1389 126.369 94.2576 126.31 94.317C126.251 94.3763 123.639 97.0474 123.639 100.193C123.639 103.339 124.054 102.805 124.767 103.161C125.241 103.398 125.835 103.28 126.429 102.805C126.488 102.746 126.607 102.805 126.666 102.805C126.725 102.864 126.666 102.983 126.666 103.042C126.191 103.398 125.716 103.577 125.301 103.577V103.695Z" fill="#101720"/>
<path d="M122.273 101.618C122.214 101.618 122.095 101.618 121.977 101.618C121.264 101.499 120.433 100.965 120.255 99.9558C120.255 99.8371 120.255 99.7777 120.374 99.7777C120.493 99.7777 120.552 99.7777 120.552 99.8964C120.671 100.727 121.383 101.202 121.977 101.262C122.57 101.321 123.045 101.143 123.223 100.668C123.223 100.609 123.401 100.549 123.461 100.609C123.52 100.609 123.579 100.787 123.52 100.846C123.283 101.38 122.748 101.677 122.155 101.677L122.273 101.618Z" fill="#101720"/>
<path d="M52.8271 37.5131L51.6993 47.1288L33.0615 46.0604L33.7144 35.9698L52.8271 37.5131Z" fill="#303030"/>
<mask id="mask2_97_2" style="mask-type:luminance" maskUnits="userSpaceOnUse" x="33" y="36" width="20" height="12">
<path d="M52.8271 37.5131L51.6993 47.1288L33.0615 46.0604L33.7144 36.0292L52.8271 37.5131Z" fill="white"/>
</mask>
<g mask="url(#mask2_97_2)">
<path d="M50.8085 36.9789C51.8176 37.7505 51.3427 42.2022 50.8085 44.339C50.3337 46.4759 48.6123 43.0926 48.6123 43.0926C48.6123 43.0926 47.6626 44.7545 46.2974 44.6358C44.9323 44.5171 44.6948 41.5493 44.6948 41.5493C44.6948 41.5493 44.2793 44.1016 42.9141 44.4577C41.5489 44.8139 41.0147 42.3803 41.0147 42.3803C41.0147 42.3803 40.5993 44.5171 39.1153 44.6952C37.6314 44.8732 37.1566 41.9648 37.1566 41.9648C37.1566 41.9648 36.8598 43.5674 35.3759 44.1016C33.892 44.6358 32.8236 43.0926 32.8236 43.0926L31.6365 48.0191L57.7532 49.7998L54.5479 36.0292L50.8085 37.0382V36.9789Z" fill="#CD88DA"/>
</g>
<path d="M51.6989 47.3068L33.1204 46.2384C33.1204 46.2384 33.0017 46.2384 33.0017 46.179C33.0017 46.179 33.0017 46.1196 33.0017 46.0603L33.6546 36.0291C33.6546 36.0291 33.6546 35.9104 33.714 35.9104C33.714 35.9104 33.7733 35.9104 33.8327 35.9104L52.9454 37.4537C52.9454 37.4537 53.0641 37.4537 53.0641 37.513C53.0641 37.513 53.0641 37.5724 53.0641 37.6317L51.877 47.2474C51.877 47.3661 51.8176 47.4255 51.6989 47.4255V47.3068ZM33.2391 45.8822L51.5208 46.9506L52.6486 37.6911L33.8921 36.2072L33.2391 45.8822Z" fill="#101720"/>
<path d="M51.6994 47.1288L51.5213 48.494L50.809 54.5484C50.6903 55.3793 50.1561 56.151 49.3845 56.5665L46.476 58.0504C45.5857 58.4659 45.0515 59.3562 44.9921 60.3653L44.636 66.9538L36.801 67.3693L37.3352 60.3653C37.3352 59.5343 37.0384 58.7033 36.3855 58.1097L33.5957 55.6761C32.9428 55.1419 32.5867 54.3109 32.6461 53.4206L32.8835 49.7999L33.1209 46.0604L51.6994 47.1288Z" fill="black" fill-opacity="0.85"/>
<mask id="mask3_97_2" style="mask-type:luminance" maskUnits="userSpaceOnUse" x="32" y="46" width="20" height="22">
<path d="M51.6994 47.1288L51.5213 48.494L50.809 54.5484C50.6903 55.4387 50.1561 56.151 49.3845 56.5665L46.476 58.0504C45.5857 58.4659 45.0515 59.3562 44.9921 60.3653L44.636 66.9538L36.801 67.3693L37.3352 60.3653C37.3352 59.5343 37.0384 58.7033 36.3855 58.1097L33.5957 55.6761C32.9428 55.1419 32.5867 54.3109 32.6461 53.4206L32.8835 49.7999L33.1209 46.0604L51.6994 47.1288Z" fill="white"/>
</mask>
<g mask="url(#mask3_97_2)">
<path d="M42.9741 49.7405C47.1883 51.8773 46.8322 53.7767 45.3483 55.6168C43.8644 57.4568 42.6773 56.9226 42.2618 59.2375C41.8463 61.5524 40.1843 63.8079 40.1843 63.8079L44.0425 67.3099L47.4258 65.2918L53.3614 54.6077L53.9549 48.0192L43.0334 49.7405H42.9741Z" fill="#CD88DA"/>
</g>
<path d="M36.7412 67.4879H36.6225C36.6225 67.4879 36.6225 67.4286 36.6225 67.3692L37.1567 60.3652C37.1567 59.5342 36.9193 58.7626 36.2664 58.2877L33.4766 55.8541C32.7643 55.2606 32.4082 54.3702 32.4676 53.4799L32.9424 46.1197C32.9424 46.001 33.0611 45.9417 33.1205 45.9417L51.6989 47.0101C51.6989 47.0101 51.8177 47.0101 51.8177 47.0694C51.8177 47.0694 51.8177 47.1288 51.8177 47.1881L50.9273 54.667C50.8086 55.6167 50.215 56.3883 49.3841 56.8038L46.4756 58.2877C45.6446 58.7032 45.1104 59.5342 45.1104 60.4246L44.8136 67.0131C44.8136 67.1318 44.7543 67.1911 44.6356 67.1911L36.8006 67.6066L36.7412 67.4879ZM33.2392 46.2384L32.7643 53.4205C32.7643 54.1922 33.0611 54.9638 33.6547 55.498L36.4444 57.9316C37.1567 58.5251 37.5128 59.4155 37.4535 60.3058L36.9786 67.1318L44.3981 66.7757L44.6949 60.3652C44.6949 59.3561 45.3478 58.4064 46.2975 57.9316L49.206 56.4477C49.9183 56.0915 50.4525 55.3793 50.5712 54.6076L51.4615 47.3662L33.2392 46.2978V46.2384Z" fill="#101720"/>
<path d="M51.699 47.1287L51.5209 48.4939L51.2241 50.8088L32.8237 49.7997L33.0612 46.0603L51.699 47.1287Z" fill="#FFFFFE"/>
<path d="M51.2242 50.9869L32.8238 49.9184C32.8238 49.9184 32.7051 49.9185 32.7051 49.8591C32.7051 49.8591 32.7051 49.7997 32.7051 49.7404L32.9425 46.0009C32.9425 45.8822 33.0019 45.8229 33.1206 45.8229L51.699 46.8913C51.699 46.8913 51.8178 46.8913 51.8178 46.9506C51.8178 46.9506 51.8178 47.01 51.8178 47.0694L51.3429 50.7494C51.3429 50.8681 51.2836 50.9275 51.1648 50.9275L51.2242 50.9869ZM33.0019 49.6217L51.0461 50.6307L51.4616 47.2474L33.2393 46.179L33.0019 49.5623V49.6217Z" fill="#101720"/>
<path d="M50.2151 75.6791C50.2151 75.6791 48.197 69.4467 47.366 67.5473C46.535 65.6479 43.8046 65.826 43.8046 65.826C43.8046 65.826 44.7543 62.9769 40.7181 62.5614C36.6819 62.1459 30.5682 63.5111 32.5269 65.7666C32.5269 65.7666 27.0068 67.9034 29.3811 70.4557C29.3811 70.4557 25.0481 72.7706 28.1346 75.2636C28.1346 75.2636 25.9978 76.6288 27.4817 78.5875C28.9656 80.6056 31.043 83.0986 31.043 83.0986L50.2151 75.6197V75.6791Z" fill="#FF7E6D"/>
<mask id="mask4_97_2" style="mask-type:luminance" maskUnits="userSpaceOnUse" x="26" y="62" width="25" height="22">
<path d="M50.2151 75.6791C50.2151 75.6791 48.197 69.4467 47.366 67.5473C46.535 65.6479 43.8046 65.826 43.8046 65.826C43.8046 65.826 44.7543 62.9769 40.7181 62.5614C36.6819 62.1459 30.5682 63.5111 32.5269 65.7666C32.5269 65.7666 27.0068 67.9034 29.3811 70.4557C29.3811 70.4557 25.0481 72.7113 28.1346 75.2636C28.1346 75.2636 25.9978 76.6288 27.4817 78.5875C28.9656 80.6056 31.043 83.0986 31.043 83.0986L50.2151 75.6197V75.6791Z" fill="white"/>
</mask>
<g mask="url(#mask4_97_2)">
<path d="M43.8045 63.6892C43.8045 64.5796 41.4896 64.817 38.9967 64.817C36.5037 64.817 31.8146 64.1047 31.8146 64.1047L31.6958 65.9447C31.6958 65.9447 32.7049 65.4699 34.6637 65.7073C36.6224 65.9447 37.9282 66.7757 37.9282 66.7757C37.9282 66.7757 38.2844 66.8944 38.1657 67.1319C38.047 67.3693 37.4534 67.9628 37.6315 68.9125C37.8095 69.8622 35.7321 68.8532 33.3578 68.319C30.9836 67.8441 28.55 68.9125 28.55 68.9125L28.9655 70.6339L30.9836 70.0403C30.9836 70.0403 33.892 69.5061 35.4353 70.2184C36.9785 70.9307 37.394 71.4055 37.394 72.1178C37.394 72.8301 36.1476 72.9488 34.4856 72.8894C32.8236 72.8301 31.3991 72.5926 29.381 73.483C27.3628 74.3733 26.7693 73.8391 26.7693 73.8391L27.4222 75.6791L30.0932 74.492C30.0932 74.492 32.2301 73.6017 33.5952 73.8391C34.9604 74.0765 35.2572 74.2546 35.2572 74.2546C35.2572 74.2546 35.6134 74.3733 35.7914 74.7888C35.7914 74.7888 37.5721 74.7888 38.5218 74.0765C39.4715 73.3643 44.8136 71.9991 46.0007 71.6429C47.1284 71.2868 46.9504 69.8622 43.8045 69.8622C40.6586 69.8622 37.9282 69.6842 37.8095 68.319C37.8095 68.319 37.8095 67.3099 38.5218 66.8944C39.2341 66.4789 40.2431 66.1822 41.4896 66.0635C42.7361 65.9447 44.6355 65.9447 44.6355 65.9447L43.8639 63.8079L43.8045 63.6892Z" fill="#CD88DA"/>
<path d="M35.8506 75.2637C35.3164 76.0947 32.408 76.6289 30.8647 77.4598C29.3808 78.2908 31.9331 79.3592 34.1293 78.5876C36.3255 77.816 35.8506 75.2637 35.8506 75.2637Z" fill="#CD88DA"/>
</g>
<path d="M31.0434 83.3361C31.0434 83.3361 30.9246 83.3361 30.9246 83.2768C30.9246 83.2768 28.8472 80.7245 27.3633 78.7657C26.8884 78.1128 26.7104 77.5192 26.8291 76.8663C26.9478 76.0947 27.5413 75.5011 27.8381 75.2637C27.1258 74.6108 26.7697 73.8985 26.8884 73.1862C27.0071 71.821 28.6098 70.7526 29.144 70.3965C28.7285 69.8623 28.5504 69.2687 28.6691 68.7345C29.0252 67.1319 31.4588 66.0041 32.2305 65.7074C31.8743 65.1732 31.9337 64.7577 32.0524 64.4609C32.824 62.9176 37.3945 62.0866 40.7184 62.4428C42.2023 62.6208 43.2114 63.0957 43.6862 63.8673C44.1611 64.5796 44.1017 65.3512 43.983 65.7074C44.6953 65.7074 46.7727 65.8261 47.485 67.5474C48.316 69.4468 50.2747 75.6198 50.3341 75.6792C50.3341 75.7385 50.3341 75.8573 50.2747 75.8573C50.2747 75.8573 50.2747 75.8573 50.2154 75.8573L31.1027 83.3361C31.1027 83.3361 31.1027 83.3361 31.0434 83.3361ZM39.1158 62.6802C36.2073 62.6802 32.9428 63.3925 32.3492 64.5796C32.1711 64.9357 32.2898 65.2325 32.5866 65.648C32.5866 65.648 32.5866 65.7667 32.5866 65.8261C32.5866 65.8261 32.5866 65.9448 32.4679 65.9448C32.4679 65.9448 29.2627 67.1913 28.8472 68.8532C28.7285 69.3874 28.8472 69.8623 29.3814 70.3965C29.3814 70.3965 29.3814 70.5152 29.3814 70.5746C29.3814 70.5746 29.3814 70.6933 29.2627 70.6933C29.2627 70.6933 27.1852 71.821 27.0071 73.3049C26.9478 73.9579 27.3039 74.6108 28.0162 75.2637L28.0755 75.3824C28.0755 75.3824 28.0756 75.5011 28.0162 75.5011C28.0162 75.5011 27.1258 76.0947 26.9478 76.985C26.8291 77.5192 27.0071 78.0534 27.4226 78.5876C28.7285 80.309 30.5091 82.5051 30.8653 83.0393L49.7405 75.6792C49.4438 74.6701 47.7224 69.4468 46.9508 67.7255C46.1792 66.0041 43.5675 66.1229 43.5675 66.1229C43.5081 66.1229 43.4488 66.1229 43.3894 66.0635C43.3301 66.0041 43.3894 65.9448 43.3894 65.8854C43.3894 65.8854 43.6862 64.9357 43.152 64.1047C42.6772 63.3925 41.7868 62.977 40.4216 62.8583C39.9468 62.8583 39.4126 62.7989 38.8784 62.7989L39.1158 62.6802Z" fill="#101720"/>
<path d="M39.2938 70.5745C41.6681 70.8119 44.0423 70.9306 44.0423 70.9306C44.0423 70.9306 43.8049 74.2545 41.1932 74.7294C38.5815 75.2042 37.157 73.4829 37.157 73.4829C37.157 73.4829 37.6912 72.6519 37.157 71.3461C37.157 71.3461 38.5815 71.9397 39.2938 70.5745Z" fill="black" fill-opacity="0.85"/>
<mask id="mask5_97_2" style="mask-type:luminance" maskUnits="userSpaceOnUse" x="37" y="70" width="8" height="5">
<path d="M39.2938 70.5745C41.6681 70.8119 44.0423 70.9306 44.0423 70.9306C44.0423 70.9306 43.8049 74.2546 41.1932 74.6701C38.5815 75.1449 37.157 73.4236 37.157 73.4236C37.157 73.4236 37.6912 72.5926 37.157 71.2868C37.157 71.2868 38.5815 71.8803 39.2938 70.5151V70.5745Z" fill="white"/>
</mask>
<g mask="url(#mask5_97_2)">
<path d="M37.9881 70.9307C41.7868 71.8804 40.5404 75.3824 40.5404 75.3824L45.8824 74.7295L44.6953 69.2094L36.979 69.6842L38.0474 70.8713L37.9881 70.9307Z" fill="#CD88DA"/>
</g>
<path d="M40.2431 74.9668C38.1656 74.9668 37.0379 73.6016 36.9785 73.5422C36.9785 73.4828 36.9785 73.4235 36.9785 73.3641C36.9785 73.3641 37.4534 72.5925 36.9785 71.4054C36.9785 71.346 36.9785 71.2867 36.9785 71.2273C36.9785 71.2273 37.0972 71.168 37.1566 71.2273C37.1566 71.2273 38.4624 71.7615 39.1153 70.5744C39.1153 70.515 39.234 70.4557 39.2934 70.4557C41.6677 70.6931 43.9825 70.8118 44.0419 70.8118C44.0419 70.8118 44.1606 70.8118 44.1606 70.8712C44.1606 70.9305 44.1606 70.9305 44.1606 70.9899C44.1606 70.9899 43.8638 74.4325 41.1334 74.9074C40.8367 74.9074 40.4805 74.9668 40.2431 74.9668ZM37.3347 73.4235C37.6314 73.7796 38.9373 74.9074 41.1334 74.5513C43.2703 74.1951 43.7451 71.8209 43.8638 71.1086C43.2703 71.1086 41.3709 70.9305 39.4121 70.7525C38.8186 71.7022 37.9282 71.7022 37.4534 71.5835C37.7501 72.5331 37.4534 73.1861 37.394 73.4235H37.3347Z" fill="#101720"/>
<path d="M45.1105 71.1679C44.8137 71.1679 44.4576 71.1679 44.0421 71.1679C43.9234 71.1679 43.864 71.1085 43.864 70.9898C43.864 70.8711 43.9234 70.8118 44.0421 70.8118C45.3479 70.8118 45.8821 70.8118 45.8821 70.8118C46.0008 70.8118 46.0602 70.8711 46.0602 70.9898C46.0602 71.1085 46.0008 71.1679 45.8821 71.1679C45.8821 71.1679 45.6447 71.1679 45.1105 71.1679Z" fill="#101720"/>
<path d="M39.2939 70.7525C38.3442 70.6337 37.632 69.8028 37.4539 68.7344C37.3352 67.9034 37.632 66.835 38.8191 66.3601C40.8965 65.5291 43.6863 65.7072 43.805 65.7072C43.9237 65.7072 43.9831 65.8259 43.9831 65.8853C43.9831 66.004 43.8643 66.0633 43.805 66.0633C43.805 66.0633 40.8965 65.8853 38.9378 66.7162C37.9881 67.1317 37.6913 68.0221 37.81 68.7344C37.9287 69.4466 38.4036 70.2776 39.2939 70.3963C39.4126 70.3963 39.472 70.515 39.472 70.5744C39.472 70.6337 39.4126 70.7525 39.2939 70.7525Z" fill="#101720"/>
<path d="M38.2254 67.1318H38.1067C37.335 66.3008 34.4266 65.4698 32.5865 66.004C32.4678 66.004 32.4085 66.004 32.3491 65.8853C32.3491 65.7666 32.3491 65.7072 32.4678 65.6479C34.4859 65.0543 37.5131 65.9447 38.4034 66.835C38.4628 66.8944 38.4628 67.0131 38.4034 67.0724C38.4034 67.0724 38.3441 67.0724 38.2847 67.0724L38.2254 67.1318Z" fill="#101720"/>
<path d="M37.0975 71.5241C37.0975 71.5241 36.9788 71.5241 36.9788 71.4648C35.6729 69.8621 32.2303 69.506 29.4405 70.6931C29.3218 70.6931 29.2625 70.6931 29.2031 70.5744C29.2031 70.4557 29.2031 70.3964 29.3218 70.337C32.2896 69.0905 35.851 69.506 37.2756 71.2273C37.3349 71.2867 37.2756 71.4054 37.2756 71.4648C37.2756 71.4648 37.2162 71.4648 37.1568 71.4648L37.0975 71.5241Z" fill="#101720"/>
<path d="M33.5953 77.6378C33.536 77.6378 33.4766 77.6378 33.4173 77.5191C33.4173 77.4003 33.4173 77.341 33.536 77.2816C34.6638 76.9255 35.4947 76.2132 35.6728 75.5009C35.7322 75.0855 35.6728 74.7293 35.3167 74.4325C34.2483 73.4828 30.9243 73.9577 28.2533 75.4416C28.1939 75.4416 28.0752 75.4416 28.0159 75.3822C28.0159 75.3229 28.0159 75.2042 28.0752 75.1448C30.9837 73.5422 34.367 73.1267 35.5541 74.1951C35.9696 74.6106 36.1477 75.0855 36.0289 75.5603C35.8509 76.3913 34.9012 77.2223 33.6547 77.6378H33.5953Z" fill="#101720"/>
<path d="M35.3766 74.492C35.2578 74.492 35.1985 74.4326 35.1985 74.3139C35.1985 74.1952 35.1985 74.1358 35.3766 74.1358C35.3766 74.1358 36.6824 73.9578 36.9792 73.3642C36.9792 73.3049 37.1572 73.2455 37.2166 73.3049C37.276 73.3049 37.3353 73.4829 37.276 73.5423C36.8605 74.3733 35.4359 74.492 35.3766 74.5513V74.492Z" fill="#101720"/>
<path d="M51.5209 48.3752L33.0018 47.3068C32.8831 47.3068 32.8237 47.1881 32.8237 47.1288C32.8237 47.01 32.9424 46.9507 33.0018 46.9507L51.5209 48.0191C51.6396 48.0191 51.699 48.1378 51.699 48.1972C51.699 48.3159 51.6396 48.3752 51.5209 48.3752Z" fill="#101720"/>
<path d="M51.4025 49.6811L32.9427 48.6127C32.824 48.6127 32.7646 48.494 32.7646 48.4347C32.7646 48.3159 32.8834 48.2566 32.9427 48.2566L51.4025 49.325C51.5212 49.325 51.5805 49.4437 51.5805 49.5031C51.5805 49.6218 51.5212 49.6811 51.4025 49.6811Z" fill="#101720"/>
<path d="M48.316 47.1288C48.1973 47.1288 48.1379 47.0101 48.1379 46.9507L48.7909 39.2938C48.7909 39.1751 48.9096 39.1157 48.9689 39.1157C49.0876 39.1157 49.147 39.2344 49.147 39.2938L48.4941 46.9507C48.4941 47.0694 48.4347 47.1288 48.316 47.1288Z" fill="#101720"/>
<path d="M44.398 46.8913C44.2793 46.8913 44.22 46.7725 44.22 46.7132L44.8135 39.0562C44.8135 38.9375 44.9322 38.8782 44.9916 38.8782C45.1103 38.8782 45.1697 38.9969 45.1697 39.0562L44.5761 46.7132C44.5761 46.8319 44.5167 46.8913 44.398 46.8913Z" fill="#101720"/>
<path d="M40.8372 46.6538C40.7185 46.6538 40.6592 46.5945 40.6592 46.4758L40.8966 41.1931C40.8966 41.0744 41.0153 41.015 41.0747 41.015C41.1934 41.015 41.2527 41.0744 41.2527 41.1931L41.0153 46.4758C41.0153 46.5945 40.956 46.6538 40.8372 46.6538Z" fill="#101720"/>
<path d="M36.9198 46.4759C36.8011 46.4759 36.7417 46.4165 36.7417 46.2978L37.0978 39.2938C37.0978 39.1751 37.2165 39.1157 37.2759 39.1157C37.3946 39.1157 37.454 39.1751 37.454 39.2938L37.0978 46.2978C37.0978 46.4165 37.0385 46.4759 36.9198 46.4759Z" fill="#101720"/>
<path d="M134.798 113.311C134.798 113.311 134.738 113.311 134.679 113.311C134.679 113.311 132.542 112.064 129.456 110.64C129.337 110.64 129.337 110.521 129.337 110.402C129.337 110.284 129.456 110.284 129.574 110.284C132.661 111.708 134.798 112.955 134.857 112.955C134.916 112.955 134.976 113.133 134.916 113.192C134.916 113.192 134.798 113.251 134.738 113.251L134.798 113.311Z" fill="#101720"/>
<path d="M153.732 102.33C153.732 102.33 153.732 102.33 153.673 102.33L135.866 94.4949C135.747 94.4949 135.747 94.3762 135.747 94.2575C135.747 94.1388 135.866 94.1388 135.985 94.1388L153.791 101.974C153.91 101.974 153.91 102.093 153.91 102.211C153.91 102.271 153.791 102.33 153.732 102.33Z" fill="#101720"/>
<path d="M119.662 89.9839C119.662 89.9839 119.602 89.9839 119.543 89.9839C117.466 88.6187 116.931 85.1761 118.237 81.7928C118.237 81.6741 118.356 81.6741 118.475 81.6741C118.593 81.6741 118.593 81.7928 118.593 81.9115C117.347 85.1167 117.822 88.3813 119.78 89.6278C119.84 89.6278 119.899 89.8059 119.78 89.8652L119.662 89.9246V89.9839Z" fill="#101720"/>
<path d="M75.7975 117.347L74.4917 119.128L74.6698 101.499C75.0259 106.485 75.382 112.361 75.7975 117.347Z" fill="#101720"/>
<path d="M74.4918 119.306C74.4324 119.306 74.373 119.187 74.373 119.128L74.5511 101.499C74.5511 101.38 74.6105 101.321 74.7292 101.321C74.8479 101.321 74.9073 101.38 74.9073 101.499C75.204 105.713 75.6195 111.946 76.035 117.347V117.466L74.7292 119.246C74.7292 119.246 74.6698 119.306 74.6105 119.306H74.4918ZM74.7885 106.069L74.6698 118.594L75.6195 117.288C75.3227 113.608 75.026 109.571 74.7885 106.069Z" fill="#101720"/>
<path d="M74.6696 101.677C74.5509 101.677 74.4916 101.677 74.4916 101.499C74.0761 95.2666 73.7793 90.2806 73.7793 90.2213C73.7793 90.1026 73.8387 90.0432 73.9574 90.0432C74.0761 90.0432 74.1354 90.1026 74.1354 90.2213C74.1354 90.2213 74.4322 95.2072 74.8477 101.44C74.8477 101.558 74.7884 101.618 74.6696 101.618V101.677Z" fill="#101720"/>
<path d="M98.9464 56.0322C105.594 59.1781 111.471 60.7214 112.064 59.5343C112.064 59.5343 112.064 59.4749 112.064 59.4155C112.361 58.1097 107.494 54.6671 101.024 51.5805C95.1476 48.7908 89.8649 47.2475 88.3216 47.7817C88.0842 47.8411 87.9655 47.9598 87.9061 48.0785C87.3126 49.325 92.2985 52.827 98.9464 56.0322Z" fill="#101720"/>
<path d="M110.877 60.1277C108.681 60.1277 103.933 58.5845 98.8874 56.2102C92.9518 53.4205 87.0756 49.6217 87.7878 48.0784C87.9065 47.9004 88.0253 47.7817 88.2627 47.7223C89.9247 47.1881 95.2073 48.7314 101.084 51.5211C106.722 54.1921 112.599 57.9316 112.243 59.5342C112.243 59.5342 112.243 59.5935 112.243 59.6529C112.124 59.831 112.005 60.009 111.768 60.0684C111.53 60.1277 111.293 60.1871 110.937 60.1871L110.877 60.1277ZM88.0846 48.1971C87.7285 49.2062 92.1208 52.5895 99.0655 55.8541C104.764 58.5251 110.165 60.1871 111.649 59.6529C111.768 59.6529 111.886 59.5342 111.946 59.4155C111.946 59.4155 111.946 59.4155 111.946 59.2967C112.183 58.2283 107.791 54.9044 100.965 51.6992C95.2073 48.9688 89.9247 47.3662 88.3814 47.9004C88.2627 47.9004 88.144 48.0191 88.0846 48.1378V48.1971Z" fill="#101720"/>
<path d="M90.8145 53.7174L96.0972 63.5705L98.234 67.5473C98.6495 69.2687 99.896 70.7526 101.439 71.7616C102.983 72.7707 104.763 73.2455 106.544 73.483C107.968 73.661 109.512 73.7204 110.936 73.3642C112.361 73.0081 113.726 72.2365 114.557 71.0494C115.269 70.0403 115.685 68.7938 115.744 67.6067C115.803 66.7164 115.744 65.7667 115.447 64.9357C114.854 62.9176 113.489 61.0775 111.649 60.0685C111.47 58.1691 110.936 56.2697 109.808 54.7264C108.799 53.3019 107.256 52.2335 105.594 51.9367C105.594 50.3934 104.763 48.9095 103.754 47.7224C102.626 46.5353 101.202 45.6449 99.7773 44.8733C99.3024 44.6359 98.8276 44.3984 98.3528 44.3391C97.7592 44.2204 97.225 44.3391 96.6314 44.4578C95.9191 44.5765 95.2069 44.7546 94.4946 45.0514C92.9513 45.7636 91.7642 47.1288 91.1707 48.7314C90.5771 50.3341 90.5771 52.0554 90.9332 53.7174H90.8145Z" fill="#FF9C10"/>
<path d="M90.6959 53.8361C91.6456 55.5574 92.5359 57.2787 93.4263 59C94.2573 60.6027 95.1476 62.2053 95.9786 63.7485C96.5128 64.7576 97.1064 65.826 97.6406 66.8351C97.8186 67.1912 98.0561 67.5473 98.1748 67.9628C98.4716 68.9719 99.0651 69.9216 99.7774 70.6932C101.439 72.4145 103.814 73.3049 106.128 73.6017C108.443 73.8984 111.114 73.8984 113.192 72.5333C117.228 69.8622 116.397 63.6298 113.014 60.7807C112.598 60.4246 112.183 60.1278 111.708 59.8904V60.0091C111.589 58.0503 111.055 56.151 109.868 54.5483C108.8 53.1238 107.316 52.0554 105.594 51.6992L105.713 51.8773C105.535 48.3159 102.448 46.0011 99.54 44.5765C98.7683 44.2204 97.9967 44.0423 97.1657 44.161C96.3347 44.2797 95.3257 44.4578 94.4947 44.8139C93.0702 45.4075 91.9424 46.5946 91.2895 47.9598C90.4585 49.7405 90.3398 51.818 90.7553 53.7174C90.7553 53.9548 91.1114 53.8361 91.1114 53.658C90.4585 50.6308 91.2301 47.0101 94.1979 45.3481C94.9102 44.9326 95.7412 44.7546 96.5128 44.5765C97.4031 44.3984 98.2341 44.3391 99.1245 44.6952C100.549 45.2888 101.974 46.1791 103.101 47.2475C104.407 48.4347 105.357 50.0373 105.476 51.8773C105.476 51.9367 105.476 51.996 105.594 52.0554C108.325 52.5896 110.224 54.8451 111.055 57.3974C111.292 58.0504 111.411 58.7033 111.53 59.4155C111.53 59.5936 111.53 60.0091 111.649 60.1278C111.708 60.1872 111.886 60.2465 112.005 60.3059C112.123 60.3652 112.302 60.4839 112.42 60.6027C113.489 61.3149 114.26 62.324 114.854 63.4518C116.1 65.8854 116.16 69.2093 114.201 71.3461C112.242 73.4829 109.037 73.661 106.307 73.2455C103.576 72.83 100.905 71.7616 99.3619 69.3874C99.0058 68.8532 98.7683 68.2596 98.5309 67.6067C98.5309 67.488 98.4122 67.3693 98.3529 67.1912L97.4031 65.4699C96.5128 63.8079 95.6225 62.1459 94.7915 60.484C93.6044 58.2284 92.3579 55.9729 91.1708 53.7174V53.5986C90.9927 53.4206 90.6959 53.5986 90.8146 53.7767L90.6959 53.8361Z" fill="#101720"/>
<path d="M96.0972 63.6298L98.234 67.6066C98.6495 69.3279 99.896 70.8119 101.439 71.8209C102.982 72.83 104.763 73.3048 106.544 73.5422C107.968 73.7203 109.512 73.7797 110.936 73.4235C112.361 73.0674 113.726 72.2958 114.557 71.1086C115.269 70.0996 115.685 68.8531 115.744 67.666C115.803 66.7756 115.744 65.8259 115.447 64.9949C115.447 64.9949 112.539 68.7344 109.571 68.7344C106.544 68.7344 103.457 64.4607 102.745 60.7807L102.27 59.7716L98.1746 60.5432L96.2159 63.7485L96.0972 63.6298Z" fill="#101720"/>
<path d="M108.443 73.7797C107.85 73.7797 107.138 73.7797 106.425 73.661C104.348 73.3642 102.686 72.83 101.261 71.9396C99.5993 70.8712 98.4122 69.328 97.9967 67.666L95.8005 63.5704L95.9192 63.4517L97.9374 60.2465L102.27 59.4749L102.864 60.662C103.576 64.2827 106.603 68.497 109.452 68.497C112.361 68.497 115.21 64.8763 115.21 64.8169L115.388 64.5795L115.507 64.8763C115.744 65.7666 115.863 66.7163 115.804 67.6066C115.744 68.9718 115.269 70.2183 114.557 71.168C113.726 72.2958 112.361 73.1268 110.818 73.5423C110.046 73.7203 109.274 73.839 108.384 73.839L108.443 73.7797ZM96.3347 63.6298L98.4122 67.5473C98.7683 69.1499 99.9555 70.6338 101.499 71.6429C102.864 72.4738 104.467 73.0674 106.544 73.3048C108.206 73.5423 109.631 73.4829 110.877 73.1861C112.361 72.83 113.667 71.999 114.438 70.9306C115.091 70.0402 115.507 68.8531 115.566 67.5473C115.566 66.7757 115.566 66.004 115.388 65.2324C114.676 66.1227 112.183 68.7344 109.571 68.7938C106.485 68.7938 103.339 64.5795 102.626 60.7213L102.211 59.831L98.2935 60.5433L96.3941 63.5704L96.3347 63.6298Z" fill="#101720"/>
<path d="M103.577 61.671C103.398 61.4929 103.28 61.3149 103.28 61.3149L103.398 61.1962C103.398 61.1962 103.517 61.3149 103.695 61.5523L103.577 61.671Z" fill="#5C2F00"/>
<path d="M98.5906 75.501C97.5222 75.7385 96.5132 75.6198 95.8602 75.0855C94.0202 73.3642 95.148 70.99 95.148 70.99L96.3351 65.7666L101.855 62.9769L102.686 62.5614L103.458 70.5151C103.339 73.0674 100.787 75.0262 98.5906 75.5604V75.501Z" fill="#FF7E6D"/>
<path d="M98.5906 75.5011C97.5222 75.7385 96.5132 75.6198 95.8602 75.0856C94.0202 73.3643 95.148 70.99 95.148 70.99L96.3351 65.7667L101.855 62.9769L102.389 63.5111C102.389 63.5111 100.49 66.657 98.4719 68.5564C96.9286 70.0403 97.7596 73.5423 98.5313 75.5011H98.5906Z" fill="#CD88DA"/>
<path d="M102.983 64.995C102.983 64.995 99.4807 67.8441 96.0381 67.4286L96.3942 65.7666L102.745 63.0363L102.923 64.995H102.983Z" fill="#101720"/>
<path d="M96.6909 67.666C96.4535 67.666 96.216 67.666 95.9786 67.666H95.8005L96.2754 65.7073L102.923 62.8582L103.161 65.1137H103.101C102.983 65.2918 99.9555 67.666 96.7502 67.666H96.6909ZM96.216 67.3099C99.2432 67.5473 102.27 65.3511 102.805 64.9356L102.626 63.2736L96.5722 65.8853L96.2754 67.3099H96.216Z" fill="#101720"/>
<path d="M97.5816 75.7978C96.8693 75.7978 96.2164 75.6197 95.8009 75.2042C93.8421 73.4235 95.0293 70.9306 95.0886 70.8712L96.2757 65.7072C96.2757 65.7072 96.2757 65.5885 96.3944 65.5885L102.746 62.3833C102.746 62.3833 102.864 62.3833 102.924 62.3833C102.924 62.3833 102.983 62.4427 103.042 62.502L103.814 70.4557C103.695 73.0674 101.202 75.1449 98.8281 75.6791C98.4719 75.7384 98.0564 75.7978 97.7596 75.7978H97.5816ZM96.5725 65.8853L95.3854 71.0493C95.3854 71.168 94.2576 73.3642 96.0383 74.9668C96.5725 75.4417 97.4629 75.6197 98.5313 75.3823C100.787 74.8481 103.161 72.8893 103.28 70.5151L102.567 62.8582L96.5725 65.9447V65.8853Z" fill="#101720"/>
<path d="M89.8652 62.324C89.9246 62.9769 90.1027 63.5111 90.2214 63.9859C91.4679 67.5473 95.0292 67.9034 98.8874 66.2415C101.024 65.2918 102.627 63.6298 103.636 61.6117C104.229 62.2646 105.654 63.4517 106.663 61.2555C107.731 58.8219 106.426 56.4477 104.823 57.5755C104.823 57.5755 104.704 57.6348 104.645 57.6942C104.289 58.169 103.933 58.7032 103.636 59.2374C103.577 59.4155 103.517 59.5342 103.398 59.6529C103.161 59.8904 102.864 59.9497 102.567 59.831C102.686 59.4155 102.805 59 102.864 58.6439C102.983 58.1097 103.161 57.5161 103.22 56.9819C102.211 56.6851 101.321 56.1509 100.49 55.4386C99.4809 54.5483 98.65 53.4205 97.9377 52.2334H97.819C94.4357 52.3521 94.0202 50.2747 94.0202 50.2747L93.3079 51.2244C91.9427 53.005 90.9336 55.0232 90.3401 57.16C89.9246 58.7032 89.6872 60.4839 89.8652 62.324Z" fill="#FF7E6D"/>
<path d="M90.2808 63.9859C91.5272 67.5473 95.0886 67.9034 98.9468 66.2414C101.084 65.2917 102.686 63.6298 103.695 61.6117C104.289 62.2646 105.713 63.4517 106.722 61.2555C107.791 58.8219 106.485 56.4477 104.882 57.5755C104.882 57.5755 104.764 57.6348 104.704 57.6942C104.348 58.169 103.992 58.7032 103.695 59.2374C103.636 59.4155 103.577 59.5342 103.458 59.6529C103.22 59.8903 102.924 59.9497 102.627 59.831C102.746 59.4155 102.864 59 102.924 58.6439C103.042 58.1097 103.22 57.5161 103.28 56.9819C102.271 56.6851 101.38 56.1509 100.549 55.4386C99.5403 54.5483 98.7093 53.4205 97.9971 52.2334H97.8783C98.7687 55.1418 102.686 57.4567 100.193 61.671C96.7506 67.4286 92.5363 64.8763 90.3401 63.9859H90.2808Z" fill="#CD88DA"/>
<path d="M99.0061 70.515C99.2435 69.6841 99.659 68.9718 100.253 68.3782C100.371 68.2595 100.549 68.2595 100.609 68.3782C100.846 68.3782 101.024 68.6156 100.905 68.8531C100.668 69.3279 100.371 69.8028 100.134 70.2776C99.9558 70.5744 99.7777 70.8712 99.3622 70.9305C99.1248 70.9305 98.8874 70.8118 98.9467 70.515H99.0061Z" fill="black"/>
<path d="M96.6313 58.169C96.6313 58.169 97.5217 57.1599 99.0056 57.6941C100.489 58.2283 100.43 59.2374 100.43 59.2374C100.43 59.2374 99.4804 60.3058 98.1746 59.7716C96.8688 59.2967 96.6313 58.1096 96.6313 58.1096V58.169Z" fill="#FFFFFE"/>
<mask id="mask6_97_2" style="mask-type:luminance" maskUnits="userSpaceOnUse" x="96" y="57" width="5" height="3">
<path d="M96.6313 58.169C96.6313 58.169 97.5217 57.1599 99.0056 57.6941C100.489 58.2283 100.43 59.2374 100.43 59.2374C100.43 59.2374 99.4804 60.3058 98.1746 59.7716C96.8688 59.2967 96.6313 58.1096 96.6313 58.1096V58.169Z" fill="white"/>
</mask>
<g mask="url(#mask6_97_2)">
<path d="M97.8782 59.831C98.4355 59.831 98.8872 59.3792 98.8872 58.8219C98.8872 58.2646 98.4355 57.8129 97.8782 57.8129C97.3209 57.8129 96.8691 58.2646 96.8691 58.8219C96.8691 59.3792 97.3209 59.831 97.8782 59.831Z" fill="#101720"/>
</g>
<path d="M93.545 61.1368C93.545 61.1368 93.545 61.1368 93.4857 61.1368C93.1295 60.9587 92.8328 60.662 92.8328 60.2465C92.8328 59.831 92.9515 59.4155 93.2483 59.2374C93.6637 58.9406 94.4947 58.1096 94.7915 56.9225C94.7915 56.8038 94.9102 56.7444 95.0289 56.8038C95.1477 56.8038 95.207 56.9225 95.1476 57.0412C94.7915 58.3471 93.9605 59.2374 93.4857 59.5342C93.3076 59.6529 93.1889 59.9497 93.1889 60.2465C93.1889 60.4245 93.3076 60.7213 93.6637 60.84C93.7825 60.84 93.7825 60.9587 93.7825 61.0774C93.7825 61.1368 93.6638 61.1962 93.6044 61.1962L93.545 61.1368Z" fill="#101720"/>
<path d="M96.2754 62.9176C95.9786 62.9176 95.6818 62.7989 95.4444 62.5615C95.3851 62.5021 95.3851 62.3834 95.4444 62.3241C95.5038 62.2647 95.6225 62.2647 95.6818 62.3241C95.9193 62.5615 96.2161 62.6208 96.4535 62.5021C96.7503 62.3834 96.9283 62.0866 97.047 61.7305C97.047 61.6118 97.1657 61.5524 97.2251 61.6118C97.3438 61.6118 97.4032 61.7305 97.3438 61.7898C97.2845 62.3241 96.9283 62.7395 96.5128 62.8583C96.3941 62.8583 96.2754 62.8583 96.1567 62.8583L96.2754 62.9176Z" fill="#101720"/>
<path d="M100.668 57.8723C100.609 57.8723 100.549 57.8723 100.49 57.7536C100.312 57.3381 99.837 56.9226 99.1841 56.6852C98.4718 56.4477 97.8189 56.5071 97.2847 56.8039C97.2254 56.8039 97.1066 56.8039 97.0473 56.7445C96.9879 56.6852 97.0473 56.5665 97.1066 56.5071C97.7002 56.151 98.4718 56.0916 99.3028 56.3884C100.015 56.6258 100.609 57.1007 100.787 57.6349C100.787 57.7536 100.787 57.8129 100.668 57.8723C100.668 57.8723 100.668 57.8723 100.609 57.8723H100.668Z" fill="#101720"/>
<path d="M95.029 55.9135C94.9697 55.9135 94.9103 55.9135 94.851 55.8542C94.851 55.8542 94.0793 54.6077 92.8922 55.0232C92.7735 55.0232 92.7141 55.0232 92.6548 54.9045C92.6548 54.7858 92.6548 54.7264 92.7735 54.667C94.198 54.1328 95.1477 55.6167 95.1477 55.6167C95.1477 55.6761 95.1477 55.7948 95.1477 55.8542C95.1477 55.8542 95.0884 55.8542 95.029 55.8542V55.9135Z" fill="#101720"/>
<path d="M98.9463 57.6942C98.9463 57.6942 99.6586 57.9316 100.074 58.4658C100.49 59.0001 100.549 59.4155 100.727 59.5343L100.43 59.7123C100.43 59.7123 99.896 58.1691 98.9463 57.6942Z" fill="#101720"/>
<path d="M94.6134 57.3973C94.6134 57.3973 94.4947 56.2696 93.2482 55.9134C92.0017 55.5573 91.4675 56.2696 91.4675 56.2696C91.4675 56.2696 91.5862 57.4567 92.714 57.8128C93.8418 58.169 94.6134 57.4567 94.6134 57.4567V57.3973Z" fill="#FFFFFE"/>
<mask id="mask7_97_2" style="mask-type:luminance" maskUnits="userSpaceOnUse" x="91" y="55" width="4" height="3">
<path d="M94.6134 57.3973C94.6134 57.3973 94.4947 56.2696 93.2482 55.9134C92.0017 55.5573 91.4675 56.2696 91.4675 56.2696C91.4675 56.2696 91.5862 57.4567 92.714 57.8128C93.8418 58.169 94.6134 57.4567 94.6134 57.4567V57.3973Z" fill="white"/>
</mask>
<g mask="url(#mask7_97_2)">
<path d="M93.0112 57.813C93.4701 57.813 93.8421 57.4409 93.8421 56.982C93.8421 56.5231 93.4701 56.151 93.0112 56.151C92.5522 56.151 92.1802 56.5231 92.1802 56.982C92.1802 57.4409 92.5522 57.813 93.0112 57.813Z" fill="#101720"/>
</g>
<path d="M93.1891 55.9135C93.1891 55.9135 92.5955 55.7354 92.0613 55.9135C91.5271 56.0916 91.2303 56.329 91.0522 56.329L91.171 56.5664C91.171 56.5664 92.2987 55.7948 93.1891 55.9135Z" fill="#101720"/>
<path d="M94.8511 67.3693C94.0201 67.3693 93.3078 67.2506 92.6549 66.9538C91.4678 66.4196 90.5774 65.4699 90.1026 64.0453C89.9245 63.5111 89.8058 62.9769 89.7464 62.3834C89.5684 60.7807 89.7464 59.0001 90.2213 57.16C90.8149 55.0232 91.8239 53.0051 93.2485 51.1651L93.9607 50.2154C93.9607 50.2154 94.0794 50.156 94.1388 50.156C94.1982 50.156 94.2575 50.2154 94.2575 50.2747C94.2575 50.3341 94.7324 52.2335 97.8782 52.1148H97.9969C98.0563 52.1148 98.1157 52.1148 98.175 52.1741C98.9466 53.4799 99.7776 54.5484 100.668 55.32C101.499 56.0323 102.389 56.5665 103.339 56.8039C103.398 56.8039 103.458 56.9226 103.458 56.982C103.458 57.5755 103.22 58.1691 103.102 58.7033C103.042 58.9407 102.983 59.1781 102.924 59.3562L102.805 59.7123C102.983 59.7123 103.161 59.7123 103.28 59.5343C103.398 59.4156 103.458 59.2968 103.517 59.1188C103.814 58.5252 104.111 57.991 104.526 57.5162C104.645 57.4568 104.645 57.3974 104.704 57.3381C105.298 56.9226 105.951 56.9226 106.426 57.3381C107.197 57.991 107.553 59.5343 106.782 61.2556C106.426 62.0866 105.951 62.5614 105.357 62.6208C104.704 62.7395 104.051 62.324 103.636 61.8492C102.567 63.9266 100.905 65.4699 98.9466 66.3602C97.4627 67.0131 96.0382 67.3099 94.8511 67.3099V67.3693ZM90.0432 62.2647C90.1026 62.8582 90.2213 63.3924 90.3994 63.9266C90.8742 65.2325 91.6458 66.1228 92.7736 66.657C94.3169 67.3099 96.4537 67.1319 98.8279 66.1228C100.787 65.2325 102.389 63.6892 103.458 61.5524C103.458 61.5524 103.517 61.493 103.576 61.4337C103.576 61.4337 103.695 61.4337 103.754 61.4337C104.051 61.7898 104.704 62.3834 105.357 62.2647C105.773 62.2053 106.188 61.7898 106.485 61.0775C107.138 59.5936 106.9 58.1691 106.247 57.5755C105.891 57.2787 105.416 57.2787 104.942 57.5755C104.942 57.5755 104.823 57.6349 104.764 57.6942C104.407 58.1097 104.111 58.6439 103.814 59.1781C103.754 59.3562 103.636 59.5343 103.517 59.653C103.28 59.9498 102.805 60.0091 102.449 59.8904C102.389 59.8904 102.33 59.7717 102.33 59.653L102.449 59.1188C102.449 58.8814 102.567 58.6439 102.627 58.4659C102.745 57.9317 102.864 57.4568 102.924 56.982C102.033 56.6852 101.083 56.151 100.312 55.4387C99.4215 54.6671 98.5905 53.5987 97.7595 52.2928C95.0885 52.4115 94.1982 51.1057 93.9014 50.5121L93.3672 51.2244C92.002 53.0051 90.9929 55.0232 90.3994 57.1007C89.9245 58.8814 89.7464 60.6027 89.9839 62.1459L90.0432 62.2647Z" fill="#101720"/>
<path d="M104.467 59.5341H104.407C104.348 59.5341 104.289 59.356 104.348 59.2967C104.348 59.2967 104.942 58.347 105.595 58.2283C105.891 58.2283 106.129 58.2283 106.366 58.4657C106.426 58.5251 106.426 58.6438 106.366 58.7031C106.307 58.7625 106.188 58.7625 106.129 58.7031C106.01 58.5844 105.832 58.5251 105.654 58.5251C105.238 58.5844 104.764 59.178 104.645 59.4154C104.645 59.4154 104.526 59.4748 104.467 59.4748V59.5341Z" fill="#101720"/>
<path d="M106.01 59.6528C105.891 59.6528 105.832 59.5934 105.832 59.4747C105.832 58.9999 105.417 58.525 105.417 58.525C105.357 58.4657 105.417 58.347 105.417 58.2876C105.476 58.2283 105.595 58.2876 105.654 58.2876C105.654 58.2876 106.129 58.8218 106.188 59.4747C106.188 59.5934 106.129 59.6528 106.01 59.6528Z" fill="#101720"/>
<path d="M94.0202 50.4528C93.9608 50.4528 93.9015 50.4528 93.8421 50.3341C93.0705 48.8502 93.486 47.7224 93.486 47.663C93.486 47.5443 93.6047 47.5443 93.7234 47.5443C93.8421 47.5443 93.8421 47.663 93.8421 47.7817C93.8421 47.7817 93.486 48.8502 94.1389 50.156C94.1389 50.2153 94.1389 50.3341 94.0795 50.3934C94.0795 50.3934 94.0795 50.3934 94.0202 50.3934V50.4528Z" fill="#101720"/>
<path d="M88.3215 47.7817C89.8648 47.2475 95.1475 48.8501 101.024 51.5805C104.526 53.2425 107.553 55.0231 109.571 56.507C111.233 57.7535 112.183 58.8219 112.064 59.4155C112.836 57.0413 110.639 53.7173 110.639 53.7173C110.639 53.7173 110.996 51.6992 110.996 48.2566C110.996 47.3069 110.165 46.1791 108.977 45.17C108.74 44.992 108.503 44.7545 108.206 44.5765C105.119 42.2616 100.43 40.3622 99.1244 40.3622C97.1062 40.4215 93.2481 45.4075 93.2481 45.4075C90.8738 46.0604 89.0932 47.1881 88.3215 47.7223V47.7817Z" fill="#CD88DA"/>
<path d="M112.064 59.5935C111.945 59.5935 111.945 59.4748 111.945 59.3561C111.945 59.1187 111.827 58.4064 109.512 56.6257C107.434 55.0825 104.348 53.3018 100.964 51.6992C95.2069 48.9688 89.9242 47.3662 88.381 47.9004C88.3216 47.9004 88.2622 47.9004 88.2029 47.7817C88.2029 47.7223 88.2029 47.6036 88.2622 47.6036C89.0932 47.01 90.8739 45.9416 93.1888 45.2887C93.6043 44.7545 97.1657 40.3028 99.1838 40.1841C100.49 40.1841 105.238 42.0835 108.384 44.3984C108.681 44.5764 108.918 44.8139 109.156 44.9919C110.521 46.1791 111.233 47.2475 111.233 48.1972C111.233 51.2243 110.996 53.2424 110.877 53.5986C111.174 54.0734 113.014 57.1006 112.301 59.4155C112.301 59.4748 112.183 59.5342 112.123 59.5342L112.064 59.5935ZM89.0932 47.4849C91.2894 47.4849 95.9785 48.9688 101.083 51.4024C104.466 53.005 107.612 54.7857 109.69 56.3289C110.877 57.2193 111.708 57.9909 112.064 58.5845C112.242 56.3883 110.521 53.7766 110.521 53.7766C110.521 53.7766 110.521 53.7173 110.521 53.6579C110.521 53.6579 110.877 51.6398 110.877 48.2565C110.877 47.4255 110.165 46.4165 108.918 45.2887C108.681 45.1106 108.443 44.8732 108.206 44.6952C105.179 42.3803 100.608 40.5402 99.3025 40.5402C97.4031 40.5996 93.6043 45.4668 93.5449 45.5261C93.5449 45.5261 93.5449 45.5261 93.4262 45.5855C91.5862 46.0603 90.1616 46.832 89.2119 47.4255L89.0932 47.4849Z" fill="#101720"/>
<path d="M112.065 58.8219C112.362 56.5663 110.521 53.8359 110.521 53.8359V53.7172C110.521 53.7172 110.878 51.6991 110.878 48.3158C110.878 47.4848 110.284 46.5945 109.156 45.5854C109.394 47.7223 108.622 51.343 108.563 51.8178C108.741 52.174 110.047 54.6076 109.809 56.507C111.056 57.4567 111.887 58.2283 112.183 58.8219H112.065Z" fill="#101720"/>
<path d="M112.064 58.9999C112.005 58.9999 111.946 58.9999 111.886 58.8812C111.59 58.2876 110.818 57.516 109.571 56.6257C109.571 56.6257 109.512 56.5069 109.512 56.4476C109.749 54.6075 108.444 52.1146 108.325 51.8772C108.325 51.8772 108.325 51.8178 108.325 51.7585C108.444 51.1055 109.215 47.6629 108.919 45.5854C108.919 45.5261 108.919 45.4667 109.037 45.4073C109.097 45.4073 109.156 45.4073 109.215 45.4073C110.402 46.4758 110.996 47.4255 110.996 48.3158C110.996 51.521 110.699 53.5391 110.64 53.7172C110.818 54.014 112.48 56.6257 112.183 58.8218C112.183 58.8812 112.124 58.9405 112.064 58.9999ZM109.928 56.3882C110.877 57.1005 111.53 57.6941 111.946 58.2283C111.946 56.2102 110.402 53.8953 110.402 53.8953C110.402 53.8359 110.402 53.7766 110.402 53.7172C110.402 53.6579 110.759 51.5804 110.759 48.3158C110.759 47.6629 110.284 46.8913 109.393 46.0009C109.512 48.0784 108.919 50.9868 108.74 51.7585C109.037 52.352 110.165 54.5482 109.987 56.3882H109.928Z" fill="#101720"/>
<path d="M110.64 53.8953H110.521C110.462 53.836 103.458 46.8319 93.2486 45.7042C93.1299 45.7042 93.0706 45.5854 93.0706 45.5261C93.0706 45.4074 93.1893 45.348 93.2486 45.348C103.636 46.5351 110.699 53.5985 110.759 53.6579C110.818 53.7172 110.818 53.836 110.759 53.8953C110.759 53.8953 110.699 53.8953 110.64 53.8953Z" fill="#101720"/>
<path d="M87.3129 119.781L81.3773 115.27C81.1398 115.091 81.0211 114.795 81.0211 114.439C81.0211 114.32 81.0211 114.142 81.0211 114.023V112.183C81.0211 112.064 81.0211 111.886 81.0211 111.708C81.0211 111.411 81.1398 111.115 81.3773 110.937L87.3722 106.426C87.7284 106.129 87.8471 105.654 87.6097 105.298L80.9024 93.7233C80.665 93.3671 80.1901 93.1891 79.834 93.3671L72.9487 96.2756C72.6519 96.3943 72.3551 96.3349 72.1177 96.2162C71.7616 95.9788 71.3461 95.682 70.9899 95.4446C70.6338 95.2072 70.2183 95.0291 69.7435 94.7917C69.4467 94.673 69.2686 94.4356 69.2093 94.1388L68.2596 86.7193C68.2596 86.3038 67.8441 85.9476 67.4286 85.9476H54.0734C53.5986 85.9476 53.2425 86.3038 53.1831 86.7193L52.2334 94.1388C52.2334 94.4356 51.996 94.673 51.7586 94.7917C51.3431 94.9698 50.9276 95.2072 50.5714 95.4446C50.1559 95.682 49.7998 95.9195 49.3843 96.2162C49.1469 96.3943 48.8501 96.3943 48.5533 96.2756L41.6086 93.3671C41.1932 93.1891 40.7183 93.3671 40.5402 93.7233L33.833 105.298C33.5956 105.654 33.7143 106.188 34.0704 106.426L40.0654 110.937C40.3028 111.115 40.4215 111.411 40.4215 111.708C40.4215 111.886 40.4215 112.005 40.4215 112.183V114.023C40.4215 114.142 40.4215 114.32 40.4215 114.498C40.4215 114.795 40.3028 115.091 40.0654 115.27L34.0704 119.781C33.7143 120.077 33.5956 120.552 33.833 120.908L40.5402 132.483C40.7777 132.839 41.2525 133.017 41.6086 132.839L48.5533 129.931C48.8501 129.812 49.1469 129.812 49.3843 129.99C49.7404 130.227 50.1559 130.524 50.5121 130.762C50.8682 130.999 51.2837 131.236 51.6992 131.414C51.996 131.533 52.174 131.771 52.2334 132.067L53.1831 139.487C53.1831 139.902 53.5986 140.258 54.0734 140.258H67.4286C67.9034 140.258 68.2596 139.962 68.2596 139.487L69.2093 132.067C69.2093 131.771 69.4467 131.533 69.6841 131.414C70.0996 131.236 70.4557 130.999 70.8712 130.821C71.2867 130.583 71.7022 130.346 72.0584 130.049C72.2958 129.871 72.5926 129.871 72.8893 129.99L79.7153 132.898C80.1308 133.076 80.6056 132.898 80.7837 132.542L87.4909 120.968C87.7284 120.612 87.6097 120.077 87.2535 119.84L87.3129 119.781ZM60.7213 124.945C54.1921 124.945 48.9688 119.662 48.9688 113.192C48.9688 106.722 54.2515 101.44 60.7213 101.44C67.1911 101.44 72.4738 106.722 72.4738 113.192C72.4738 119.662 67.1911 124.945 60.7213 124.945Z" fill="#CD88DA"/>
<path d="M67.4286 140.496H54.0735C53.5393 140.496 53.1238 140.08 53.0051 139.606L52.0554 132.186C52.0554 131.949 51.8773 131.711 51.6399 131.652C51.2244 131.474 50.8683 131.296 50.3934 130.999C49.9779 130.761 49.5624 130.465 49.2063 130.227C49.0282 130.109 48.7908 130.049 48.5534 130.168L41.6087 133.076C41.1338 133.254 40.5403 133.076 40.3029 132.661L33.5956 121.086C33.3582 120.612 33.4769 120.077 33.8924 119.721L39.8874 115.21C40.0654 115.091 40.1842 114.854 40.1842 114.617C40.1842 114.439 40.1842 114.32 40.1842 114.142V112.302C40.1842 112.124 40.1842 112.005 40.1842 111.827C40.1842 111.589 40.1248 111.352 39.9467 111.233L33.9518 106.722C33.5363 106.425 33.4176 105.832 33.655 105.357L40.3622 93.7826C40.5996 93.3078 41.1932 93.1297 41.6681 93.3671L48.6127 96.2756C48.8501 96.3349 49.0876 96.3349 49.2656 96.2756C49.6811 95.9788 50.0966 95.7414 50.4528 95.5039C50.8683 95.2665 51.2837 95.0291 51.6992 94.851C51.9367 94.7323 52.0554 94.5542 52.0554 94.3168L53.0051 86.8973C53.0644 86.3631 53.5393 86.007 54.0735 86.007H67.4286C67.9628 86.007 68.4377 86.4225 68.4377 86.8973L69.3874 94.3168C69.3874 94.5542 69.5654 94.7323 69.8029 94.851C70.2777 95.0885 70.6932 95.2665 71.0493 95.5039C71.4648 95.7414 71.821 95.9788 72.2365 96.2756C72.4145 96.3943 72.652 96.4536 72.8894 96.3349L79.7747 93.4265C80.2495 93.1891 80.8431 93.4265 81.0805 93.842L87.7878 105.416C88.0252 105.891 87.9065 106.425 87.491 106.782L81.496 111.293C81.318 111.411 81.1992 111.649 81.1992 111.886C81.1992 112.064 81.1992 112.183 81.1992 112.361V114.201C81.1992 114.32 81.1992 114.498 81.1992 114.617C81.1992 114.854 81.1992 115.151 81.4367 115.27L87.3723 119.721C87.7878 120.018 87.9065 120.612 87.6691 121.086L80.9618 132.661C80.665 133.136 80.1308 133.314 79.656 133.076L72.83 130.168C72.5926 130.049 72.3552 130.109 72.1771 130.168C71.821 130.405 71.4055 130.702 70.99 130.94C70.5151 131.177 70.159 131.414 69.8029 131.592C69.5654 131.711 69.4467 131.889 69.3874 132.127L68.4377 139.546C68.4377 140.08 67.9628 140.437 67.4286 140.437V140.496ZM48.9095 129.693C49.0876 129.693 49.325 129.752 49.5031 129.871C49.8592 130.109 50.2153 130.346 50.6308 130.583C51.0463 130.821 51.4618 131.058 51.818 131.177C52.1741 131.296 52.4115 131.652 52.4115 132.008L53.3612 139.427C53.3612 139.784 53.7174 140.021 54.0735 140.021H67.4286C67.7848 140.021 68.0815 139.784 68.1409 139.427L69.0906 132.008C69.0906 131.652 69.328 131.355 69.6842 131.177C70.0403 130.999 70.4558 130.821 70.8713 130.583C71.2868 130.346 71.6429 130.109 72.0584 129.812C72.3552 129.634 72.7113 129.574 73.0675 129.693L79.8934 132.602C80.1902 132.72 80.6057 132.602 80.7837 132.305L87.491 120.73C87.6691 120.434 87.6097 120.077 87.3129 119.84L81.3773 115.329C81.0805 115.091 80.9025 114.735 80.9618 114.32C80.9618 114.201 80.9618 114.082 80.9618 113.904V112.064C80.9618 111.946 80.9618 111.768 80.9618 111.649C80.9618 111.293 81.0805 110.937 81.3773 110.758L87.3723 106.247C87.6691 106.01 87.7284 105.654 87.5504 105.357L80.8431 93.7826C80.665 93.4858 80.3089 93.3671 79.9528 93.4858L73.0675 96.3943C72.7113 96.513 72.3552 96.513 72.0584 96.2756C71.7023 96.0381 71.3461 95.8007 70.9306 95.5633C70.5745 95.3259 70.159 95.1478 69.7435 94.9697C69.3874 94.851 69.15 94.4949 69.15 94.1387L68.2002 86.7192C68.2002 86.3631 67.8441 86.1257 67.488 86.1257H54.1328C53.7767 86.1257 53.4799 86.3631 53.4206 86.7192L52.4709 94.1387C52.4709 94.4949 52.2334 94.7917 51.8773 94.9697C51.5212 95.1478 51.1057 95.3259 50.6902 95.5633C50.3341 95.8007 49.9186 96.0382 49.5031 96.3349C49.2063 96.513 48.8501 96.5724 48.494 96.4536L41.5493 93.5452C41.2526 93.4265 40.8371 93.5452 40.659 93.842L33.9518 105.416C33.7737 105.713 33.833 106.129 34.1298 106.307L40.1248 110.818C40.4216 110.996 40.5403 111.352 40.5403 111.708C40.5403 111.886 40.5403 112.005 40.5403 112.124V113.964C40.5403 114.082 40.5403 114.26 40.5403 114.379C40.5403 114.735 40.4216 115.091 40.1248 115.27L34.1298 119.781C33.833 120.018 33.7737 120.374 33.9518 120.671L40.659 132.245C40.8371 132.542 41.1932 132.661 41.5493 132.542L48.494 129.634C48.6127 129.634 48.7908 129.574 48.9095 129.574V129.693ZM60.7214 125.123C54.1328 125.123 48.7908 119.781 48.7908 113.192C48.7908 106.604 54.1328 101.261 60.7214 101.261C67.3099 101.261 72.652 106.604 72.652 113.192C72.652 119.781 67.3099 125.123 60.7214 125.123ZM60.7214 101.558C54.3109 101.558 49.1469 106.782 49.1469 113.133C49.1469 119.484 54.3703 124.707 60.7214 124.707C67.0725 124.707 72.2958 119.484 72.2958 113.133C72.2958 106.782 67.0725 101.558 60.7214 101.558Z" fill="#101720"/>
<path d="M164.298 92.4769H225.731C226.503 92.4769 227.156 93.1298 227.156 93.9015C227.156 94.6731 226.503 95.326 225.731 95.326H164.298C163.526 95.326 162.873 94.6731 162.873 93.9015C162.873 93.1298 163.526 92.4769 164.298 92.4769Z" fill="#FFFFFE"/>
<path d="M225.672 95.5041H164.238C163.348 95.5041 162.636 94.7918 162.636 93.9014C162.636 93.0111 163.348 92.2988 164.238 92.2988H225.672C226.562 92.2988 227.275 93.0111 227.275 93.9014C227.275 94.7918 226.562 95.5041 225.672 95.5041ZM164.298 92.655C163.645 92.655 163.051 93.1892 163.051 93.9014C163.051 94.6137 163.585 95.1479 164.298 95.1479H225.731C226.384 95.1479 226.978 94.6137 226.978 93.9014C226.978 93.1892 226.444 92.655 225.731 92.655H164.298Z" fill="black"/>
<path d="M204.126 97.5814C206.388 97.5814 208.221 95.7478 208.221 93.4858C208.221 91.2239 206.388 89.3903 204.126 89.3903C201.864 89.3903 200.03 91.2239 200.03 93.4858C200.03 95.7478 201.864 97.5814 204.126 97.5814Z" fill="black"/>
<path d="M204.126 97.7596C201.751 97.7596 199.852 95.8602 199.852 93.4859C199.852 91.1117 201.751 89.2123 204.126 89.2123C206.5 89.2123 208.399 91.1117 208.399 93.4859C208.399 95.8602 206.5 97.7596 204.126 97.7596ZM204.126 89.5684C201.989 89.5684 200.208 91.3491 200.208 93.4859C200.208 95.6227 201.989 97.4034 204.126 97.4034C206.263 97.4034 208.043 95.6227 208.043 93.4859C208.043 91.3491 206.263 89.5684 204.126 89.5684Z" fill="black"/>
<path d="M164.298 103.992H225.731C226.503 103.992 227.156 104.645 227.156 105.416C227.156 106.188 226.503 106.841 225.731 106.841H164.298C163.526 106.841 162.873 106.188 162.873 105.416C162.873 104.645 163.526 103.992 164.298 103.992Z" fill="#FFFFFE"/>
<path d="M225.672 107.019H164.238C163.348 107.019 162.636 106.307 162.636 105.416C162.636 104.526 163.348 103.814 164.238 103.814H225.672C226.562 103.814 227.275 104.526 227.275 105.416C227.275 106.307 226.562 107.019 225.672 107.019ZM164.298 104.17C163.645 104.17 163.051 104.704 163.051 105.416C163.051 106.129 163.585 106.663 164.298 106.663H225.731C226.384 106.663 226.978 106.129 226.978 105.416C226.978 104.704 226.444 104.17 225.731 104.17H164.298Z" fill="black"/>
<path d="M187.743 109.097C190.005 109.097 191.839 107.263 191.839 105.001C191.839 102.739 190.005 100.905 187.743 100.905C185.481 100.905 183.647 102.739 183.647 105.001C183.647 107.263 185.481 109.097 187.743 109.097Z" fill="black"/>
<path d="M187.744 109.275C185.37 109.275 183.47 107.375 183.47 105.001C183.47 102.627 185.37 100.727 187.744 100.727C190.118 100.727 192.017 102.627 192.017 105.001C192.017 107.375 190.118 109.275 187.744 109.275ZM187.744 101.083C185.607 101.083 183.826 102.864 183.826 105.001C183.826 107.138 185.607 108.918 187.744 108.918C189.881 108.918 191.661 107.138 191.661 105.001C191.661 102.864 189.881 101.083 187.744 101.083Z" fill="black"/>
<path d="M164.298 115.566H225.731C226.503 115.566 227.156 116.219 227.156 116.991C227.156 117.763 226.503 118.416 225.731 118.416H164.298C163.526 118.416 162.873 117.763 162.873 116.991C162.873 116.219 163.526 115.566 164.298 115.566Z" fill="#FFFFFE"/>
<path d="M225.672 118.534H164.238C163.348 118.534 162.636 117.822 162.636 116.932C162.636 116.041 163.348 115.329 164.238 115.329H225.672C226.562 115.329 227.275 116.041 227.275 116.932C227.275 117.822 226.562 118.534 225.672 118.534ZM164.298 115.744C163.645 115.744 163.051 116.279 163.051 116.991C163.051 117.703 163.585 118.237 164.298 118.237H225.731C226.384 118.237 226.978 117.703 226.978 116.991C226.978 116.279 226.444 115.744 225.731 115.744H164.298Z" fill="black"/>
<path d="M211.367 120.612C213.629 120.612 215.463 118.778 215.463 116.516C215.463 114.254 213.629 112.421 211.367 112.421C209.105 112.421 207.271 114.254 207.271 116.516C207.271 118.778 209.105 120.612 211.367 120.612Z" fill="black"/>
<path d="M211.367 120.79C208.993 120.79 207.094 118.89 207.094 116.516C207.094 114.142 208.993 112.242 211.367 112.242C213.742 112.242 215.641 114.142 215.641 116.516C215.641 118.89 213.742 120.79 211.367 120.79ZM211.367 112.599C209.231 112.599 207.45 114.379 207.45 116.516C207.45 118.653 209.231 120.434 211.367 120.434C213.504 120.434 215.285 118.653 215.285 116.516C215.285 114.379 213.504 112.599 211.367 112.599Z" fill="#101720"/>
<path d="M164.298 127.081H225.731C226.503 127.081 227.156 127.734 227.156 128.506C227.156 129.278 226.503 129.931 225.731 129.931H164.298C163.526 129.931 162.873 129.278 162.873 128.506C162.873 127.734 163.526 127.081 164.298 127.081Z" fill="#FFFFFE"/>
<path d="M225.672 130.049H164.238C163.348 130.049 162.636 129.337 162.636 128.447C162.636 127.556 163.348 126.844 164.238 126.844H225.672C226.562 126.844 227.275 127.556 227.275 128.447C227.275 129.337 226.562 130.049 225.672 130.049ZM164.298 127.26C163.645 127.26 163.051 127.794 163.051 128.506C163.051 129.218 163.585 129.753 164.298 129.753H225.731C226.384 129.753 226.978 129.218 226.978 128.506C226.978 127.794 226.444 127.26 225.731 127.26H164.298Z" fill="black"/>
<path d="M180.502 132.186C182.764 132.186 184.597 130.352 184.597 128.091C184.597 125.829 182.764 123.995 180.502 123.995C178.24 123.995 176.406 125.829 176.406 128.091C176.406 130.352 178.24 132.186 180.502 132.186Z" fill="black"/>
<path d="M180.502 132.305C178.128 132.305 176.229 130.405 176.229 128.031C176.229 125.657 178.128 123.758 180.502 123.758C182.876 123.758 184.776 125.657 184.776 128.031C184.776 130.405 182.876 132.305 180.502 132.305ZM180.502 124.173C178.365 124.173 176.585 125.954 176.585 128.091C176.585 130.227 178.365 132.008 180.502 132.008C182.639 132.008 184.42 130.227 184.42 128.091C184.42 125.954 182.639 124.173 180.502 124.173Z" fill="black"/>
<path d="M211.664 0.177979H161.745C158.5 0.177979 155.869 2.80887 155.869 6.05424V50.6901C155.869 53.9354 158.5 56.5663 161.745 56.5663H211.664C214.909 56.5663 217.54 53.9354 217.54 50.6901V6.05424C217.54 2.80887 214.909 0.177979 211.664 0.177979Z" fill="#FFFFFE"/>
<path d="M211.664 56.6851V56.507V56.329C213.445 56.329 215.107 55.5573 216.175 54.1328C216.235 54.0734 216.353 54.0141 216.413 54.1328C216.472 54.1922 216.531 54.3109 216.413 54.3702C215.226 55.8541 213.504 56.6851 211.605 56.6851H211.664ZM206.263 56.6851H200.861C200.743 56.6851 200.683 56.6258 200.683 56.507C200.683 56.3883 200.743 56.329 200.861 56.329H206.263C206.382 56.329 206.441 56.3883 206.441 56.507C206.441 56.6258 206.382 56.6851 206.263 56.6851ZM195.46 56.6851H190.059C189.94 56.6851 189.881 56.6258 189.881 56.507C189.881 56.3883 189.94 56.329 190.059 56.329H195.46C195.579 56.329 195.638 56.3883 195.638 56.507C195.638 56.6258 195.579 56.6851 195.46 56.6851ZM184.717 56.6851H179.315C179.196 56.6851 179.137 56.6258 179.137 56.507C179.137 56.3883 179.196 56.329 179.315 56.329H184.717C184.835 56.329 184.895 56.3883 184.895 56.507C184.895 56.6258 184.835 56.6851 184.717 56.6851ZM173.914 56.6851H168.512C168.394 56.6851 168.334 56.6258 168.334 56.507C168.334 56.3883 168.394 56.329 168.512 56.329H173.914C174.032 56.329 174.092 56.3883 174.092 56.507C174.092 56.6258 174.032 56.6851 173.914 56.6851ZM163.17 56.6851H161.746C160.381 56.6851 159.015 56.2103 157.947 55.3793C157.888 55.3199 157.828 55.2012 157.947 55.1418C158.006 55.0825 158.125 55.0231 158.184 55.1418C159.193 55.9728 160.44 56.3883 161.746 56.3883H163.17C163.289 56.3883 163.348 56.4477 163.348 56.5664C163.348 56.6851 163.289 56.7445 163.17 56.7445V56.6851ZM155.869 50.7495C155.751 50.7495 155.691 50.6901 155.691 50.5714V45.17C155.691 45.0513 155.751 44.992 155.869 44.992C155.988 44.992 156.048 45.0513 156.048 45.17V50.5714C156.048 50.6901 155.988 50.7495 155.869 50.7495ZM217.541 49.3249C217.422 49.3249 217.362 49.2656 217.362 49.1469V43.7455C217.362 43.6268 217.422 43.5674 217.541 43.5674C217.659 43.5674 217.719 43.6268 217.719 43.7455V49.1469C217.719 49.2656 217.659 49.3249 217.541 49.3249ZM155.869 39.9467C155.751 39.9467 155.691 39.8873 155.691 39.7686V34.3672C155.691 34.2485 155.751 34.1891 155.869 34.1891C155.988 34.1891 156.048 34.2485 156.048 34.3672V39.7686C156.048 39.8873 155.988 39.9467 155.869 39.9467ZM217.541 38.5815C217.422 38.5815 217.362 38.5221 217.362 38.4034V33.002C217.362 32.8833 217.422 32.8239 217.541 32.8239C217.659 32.8239 217.719 32.8833 217.719 33.002V38.4034C217.719 38.5221 217.659 38.5815 217.541 38.5815ZM155.869 29.2032C155.751 29.2032 155.691 29.1439 155.691 29.0251V23.6237C155.691 23.505 155.751 23.4457 155.869 23.4457C155.988 23.4457 156.048 23.505 156.048 23.6237V29.0251C156.048 29.1439 155.988 29.2032 155.869 29.2032ZM217.541 27.838C217.422 27.838 217.362 27.7787 217.362 27.66V22.2586C217.362 22.1398 217.422 22.0805 217.541 22.0805C217.659 22.0805 217.719 22.1398 217.719 22.2586V27.66C217.719 27.7787 217.659 27.838 217.541 27.838ZM155.869 18.4004C155.751 18.4004 155.691 18.341 155.691 18.2223V12.8209C155.691 12.7022 155.751 12.6429 155.869 12.6429C155.988 12.6429 156.048 12.7022 156.048 12.8209V18.2223C156.048 18.341 155.988 18.4004 155.869 18.4004ZM217.541 17.0352C217.422 17.0352 217.362 16.9759 217.362 16.8571V11.4557C217.362 11.337 217.422 11.2777 217.541 11.2777C217.659 11.2777 217.719 11.337 217.719 11.4557V16.8571C217.719 16.9759 217.659 17.0352 217.541 17.0352ZM155.869 7.65694C155.751 7.65694 155.691 7.59759 155.691 7.47887V6.05433C155.691 4.68914 156.166 3.3833 156.997 2.25553C157.057 2.19618 157.175 2.13682 157.235 2.25553C157.294 2.31489 157.353 2.4336 157.235 2.49296C156.404 3.50201 155.988 4.74849 155.988 6.05433V7.47887C155.988 7.59759 155.929 7.65694 155.81 7.65694H155.869ZM217.541 6.29175C217.422 6.29175 217.362 6.23239 217.362 6.11368C217.362 4.27364 216.591 2.67103 215.166 1.54326C215.107 1.4839 215.048 1.36519 215.166 1.30584C215.226 1.24648 215.344 1.18712 215.404 1.30584C216.888 2.49296 217.719 4.21429 217.719 6.05433C217.719 6.17304 217.659 6.29175 217.541 6.29175ZM210.24 0.356138H204.838C204.72 0.356138 204.66 0.29678 204.66 0.178068C204.66 0.0593557 204.72 0 204.838 0H210.24C210.358 0 210.418 0.0593557 210.418 0.178068C210.418 0.29678 210.358 0.356138 210.24 0.356138ZM199.437 0.356138H194.035C193.917 0.356138 193.857 0.29678 193.857 0.178068C193.857 0.0593557 193.917 0 194.035 0H199.437C199.556 0 199.615 0.0593557 199.615 0.178068C199.615 0.29678 199.556 0.356138 199.437 0.356138ZM188.693 0.356138H183.292C183.173 0.356138 183.114 0.29678 183.114 0.178068C183.114 0.0593557 183.173 0 183.292 0H188.693C188.812 0 188.871 0.0593557 188.871 0.178068C188.871 0.29678 188.812 0.356138 188.693 0.356138ZM177.891 0.356138H172.489C172.37 0.356138 172.311 0.29678 172.311 0.178068C172.311 0.0593557 172.37 0 172.489 0H177.891C178.009 0 178.069 0.0593557 178.069 0.178068C178.069 0.29678 178.009 0.356138 177.891 0.356138ZM167.147 0.356138H161.746C161.627 0.356138 161.568 0.29678 161.568 0.178068C161.568 0.0593557 161.627 0 161.746 0H167.147C167.266 0 167.325 0.0593557 167.325 0.178068C167.325 0.29678 167.266 0.356138 167.147 0.356138Z" fill="#101720"/>
<path d="M183.424 29.57L169.91 43.0847L172.764 45.9388L186.278 32.424L183.424 29.57Z" fill="black"/>
<path d="M172.726 46.0604H172.607L169.758 43.2113C169.699 43.1519 169.699 43.0332 169.758 42.9738L183.292 29.4406C183.351 29.3813 183.47 29.3813 183.529 29.4406L186.378 32.2897C186.378 32.2897 186.378 32.3491 186.378 32.4084C186.378 32.4678 186.378 32.5272 186.378 32.5272L172.845 46.0604C172.845 46.0604 172.786 46.0604 172.726 46.0604ZM170.115 43.0332L172.726 45.6449L186.022 32.3491L183.41 29.7374L170.115 43.0332Z" fill="black"/>
<path d="M180.858 32.1117L184.419 34.2485L185.31 33.3581L182.401 30.509L180.858 32.1117Z" fill="#101720"/>
<path d="M184.419 34.4267C184.419 34.4267 184.36 34.4267 184.3 34.4267L180.739 32.2898C180.739 32.2898 180.68 32.2305 180.68 32.1711V32.0524L182.282 30.4498C182.342 30.3904 182.46 30.3904 182.52 30.4498L185.369 33.2989C185.369 33.2989 185.369 33.3582 185.369 33.4176C185.369 33.477 185.369 33.5363 185.369 33.5363L184.478 34.4267C184.478 34.4267 184.419 34.4267 184.36 34.4267H184.419ZM181.155 32.0524L184.419 34.0112L185.072 33.3582L182.46 30.7466L181.155 32.0524Z" fill="#101720"/>
<path d="M200.03 15.7294C195.4 11.0996 187.803 11.0996 183.173 15.7294C178.543 20.3592 178.543 27.9568 183.173 32.5866C187.862 37.2757 195.4 37.2757 200.03 32.5866C204.719 27.9568 204.719 20.3592 200.03 15.7294ZM186.022 29.7375C182.936 26.6509 182.936 21.665 186.022 18.5785C189.109 15.492 194.095 15.492 197.181 18.5785C200.268 21.665 200.268 26.6509 197.181 29.7375C194.095 32.824 189.109 32.824 186.022 29.7375Z" fill="black" fill-opacity="0.85"/>
<path d="M191.602 36.2667C188.396 36.2667 185.31 35.0202 183.054 32.7053C178.365 27.9568 178.365 20.2999 183.054 15.6107C187.744 10.9216 195.401 10.9216 200.149 15.6107C204.897 20.3592 204.897 28.0162 200.149 32.7053C195.401 37.3944 194.807 36.2667 191.602 36.2667ZM191.602 12.4649C188.575 12.4649 185.607 13.5926 183.292 15.9075C178.721 20.4779 178.721 27.9568 183.292 32.5272C185.488 34.7234 188.456 35.9699 191.602 35.9699C194.748 35.9699 197.715 34.7234 199.912 32.5272C204.482 27.9568 204.482 20.5373 199.912 15.9669C197.597 13.652 194.629 12.5242 191.602 12.5242V12.4649ZM191.602 32.2304C189.524 32.2304 187.447 31.4588 185.904 29.8562C184.42 28.3129 183.589 26.2948 183.589 24.158C183.589 22.0212 184.42 19.9437 185.963 18.4598C187.506 16.9166 189.524 16.0856 191.661 16.0856C193.798 16.0856 195.875 16.9166 197.359 18.4598C200.505 21.6057 200.505 26.7103 197.359 29.9156C195.757 31.5182 193.739 32.2898 191.661 32.2898L191.602 32.2304ZM186.2 29.6781C189.227 32.6459 194.095 32.6459 197.122 29.6781C200.149 26.651 200.149 21.7838 197.122 18.7566C195.638 17.2727 193.739 16.5011 191.661 16.5011C189.584 16.5011 187.684 17.3321 186.2 18.7566C184.716 20.2405 183.945 22.1399 183.945 24.2174C183.945 26.2948 184.776 28.1942 186.2 29.6781Z" fill="black"/>
<path d="M195.638 28.3722H195.519C195.46 28.3128 195.46 28.1941 195.519 28.1348C196.588 27.0664 197.122 25.7012 197.122 24.2173C197.122 22.7334 196.528 21.3682 195.519 20.2998C195.46 20.2404 195.46 20.1217 195.519 20.0623C195.578 20.003 195.697 20.003 195.757 20.0623C196.884 21.1901 197.478 22.674 197.478 24.2173C197.478 25.7605 196.884 27.2444 195.757 28.3722C195.757 28.3722 195.697 28.3722 195.638 28.3722Z" fill="#101720"/>
</svg>
