<svg width="252" height="191" viewBox="0 0 252 191" fill="none" xmlns="http://www.w3.org/2000/svg">
<path d="M68.3457 51.3184C68.3457 51.3184 71.6098 59.4181 81.2811 67.5783C90.9524 75.7384 106.608 64.7978 106.608 64.7978C106.608 64.7978 105.641 75.7989 104.674 84.9866C104.613 85.4097 104.613 85.8329 104.553 86.256H153.332C153.211 84.5635 152.728 82.871 151.761 81.4203C162.278 81.2994 162.278 63.8911 149.706 49.7468C139.853 38.6852 120.269 39.8337 120.269 39.8337C108.965 40.1359 102.195 52.0437 92.8867 53.1317C83.578 54.2198 80.1326 44.6693 79.5282 43.8835C78.9237 43.0977 76.5059 43.2791 72.6978 45.9387C68.8897 48.5983 68.3457 51.3184 68.3457 51.3184Z" fill="black" fill-opacity="0.941176"/>
<path d="M106.789 63.1052C106.608 63.1052 106.487 62.9239 106.487 62.7425L108.24 48.3564C108.24 48.1751 108.421 48.0542 108.603 48.1147C108.784 48.1751 108.905 48.296 108.844 48.4773L107.092 62.8634C107.092 62.9843 106.971 63.1052 106.789 63.1052Z" fill="#CD88DA"/>
<path d="M120.994 37.5971V42.191C120.994 42.191 123.896 45.2133 128.55 41.7074V33.8495L120.994 37.5971Z" fill="white"/>
<path d="M124.198 43.7626C122.928 43.7626 121.719 43.2791 120.752 42.4328C120.692 42.3724 120.692 42.3119 120.692 42.2515V37.6576C120.692 37.5367 120.752 37.4158 120.873 37.4158L128.429 33.6682C128.55 33.6077 128.731 33.6682 128.852 33.7891C128.852 33.8495 128.913 33.91 128.913 33.91V41.7679C128.913 41.8888 128.852 41.9492 128.792 42.0097C127.462 43.0373 125.89 43.6417 124.198 43.7626ZM121.296 42.0701C121.78 42.4933 124.319 44.488 128.248 41.5866V34.3331L121.296 37.7785V42.0701Z" fill="#CD88DA"/>
<path d="M135.622 17.0457C135.562 18.1941 135.441 19.3426 135.139 20.4911L114.224 13.1167C115.071 11.9078 115.917 10.6989 116.884 9.61085C119.12 7.19303 122.022 5.50055 127.099 6.8908C133.144 8.58328 135.743 11.9682 135.622 17.0457Z" fill="white"/>
<path d="M135.138 20.7933C135.078 20.7933 135.078 20.7933 135.017 20.7933L114.103 13.4189C114.043 13.3585 113.922 13.2981 113.922 13.2376C113.922 13.1167 113.922 13.0563 113.982 12.9958L114.224 12.6332C114.949 11.4847 115.796 10.4571 116.702 9.42953C118.637 7.31393 121.598 5.07744 127.22 6.64903C133.265 8.28106 136.105 11.7265 135.924 17.0457C135.864 18.2546 135.743 19.4031 135.441 20.5515C135.441 20.612 135.38 20.7329 135.32 20.7329C135.259 20.7329 135.199 20.7933 135.138 20.7933ZM114.708 12.9958L134.957 20.1284C135.199 19.1008 135.32 18.0733 135.32 17.0457C135.441 12.0287 132.781 8.76463 127.039 7.25349C121.719 5.80279 118.939 7.85794 117.125 9.85265C116.219 10.8198 115.433 11.8474 114.708 12.9958Z" fill="#CD88DA"/>
<path d="M135.622 17.0456C135.562 18.1941 135.441 19.3425 135.139 20.491L114.224 13.1166C115.071 11.9077 115.917 10.6988 116.884 9.61078C122.143 9.91301 130.786 12.9957 135.622 17.0456Z" fill="black" fill-opacity="0.941176"/>
<path d="M135.138 20.7932C135.078 20.7932 135.078 20.7932 135.017 20.7932L114.103 13.4188C114.043 13.3584 113.922 13.298 113.922 13.2375C113.922 13.1166 113.922 13.0562 113.982 12.9957L114.224 12.633C114.949 11.4846 115.796 10.457 116.702 9.42942C116.763 9.36898 116.823 9.30853 116.944 9.30853C122.082 9.61076 130.847 12.6935 135.803 16.8038C135.864 16.8642 135.924 16.9247 135.924 17.0456C135.864 18.2545 135.743 19.403 135.441 20.5514C135.441 20.6119 135.38 20.7328 135.32 20.7328C135.259 20.7328 135.199 20.7932 135.138 20.7932ZM114.708 12.9957L134.957 20.1283C135.138 19.1612 135.259 18.194 135.32 17.2269C130.484 13.2979 122.022 10.3361 117.065 9.97343C116.158 10.8801 115.433 11.9077 114.708 12.9957Z" fill="#CD88DA"/>
<path d="M110.778 28.0468C106.487 24.5409 100.14 18.4359 108.3 13.1167C116.46 7.79744 135.742 18.6172 138.704 22.1231C143.782 28.1072 138.523 34.3936 131.39 31.4922C124.258 28.5908 110.778 28.0468 110.778 28.0468Z" fill="white"/>
<path d="M134.897 32.5197C133.688 32.5197 132.479 32.2779 131.33 31.7943C124.319 28.9534 110.96 28.4094 110.779 28.4094C110.718 28.4094 110.658 28.4094 110.597 28.3489C107.696 25.9915 103.888 22.4857 104.069 18.6776C104.19 16.562 105.58 14.6277 108.18 12.9353C116.521 7.49515 135.743 18.194 139.007 21.9417C141.787 25.2057 141.425 28.2885 140.095 30.1018C138.826 31.6734 136.891 32.5801 134.897 32.5197ZM110.9 27.7445C112.169 27.8049 124.742 28.4698 131.512 31.1899C135.259 32.701 138.221 31.5525 139.551 29.6787C141.062 27.6236 140.639 24.7826 138.463 22.2439C135.38 18.6776 116.34 8.16005 108.482 13.2979C106.064 14.8695 104.734 16.6829 104.613 18.6172C104.492 22.1835 108.119 25.508 110.9 27.7445Z" fill="#CD88DA"/>
<path d="M131.451 28.0468L129.154 32.278L127.703 31.9757C127.703 31.9757 128.791 30.1624 128.731 29.437C128.671 28.7117 127.28 28.4094 123.895 26.9587C120.51 25.508 117.972 19.3426 117.972 19.3426C117.972 19.3426 113.499 21.7 110.839 23.4529C111.202 22.3649 111.685 21.2164 112.169 20.1284C114.224 17.4688 119.483 16.7434 126.132 20.6119C132.781 24.4805 131.451 28.0468 131.451 28.0468Z" fill="black" fill-opacity="0.941176"/>
<path d="M129.154 32.5197H129.094L127.643 32.2174C127.522 32.2174 127.462 32.157 127.401 32.0361C127.341 31.9757 127.341 31.8548 127.401 31.7339C127.824 31.069 128.429 29.7996 128.368 29.3765C128.368 29.0138 127.522 28.7116 126.071 28.1071C125.407 27.8653 124.621 27.5027 123.654 27.14C120.571 25.8102 118.274 20.9141 117.67 19.6447C116.642 20.1887 113.076 22.123 110.9 23.5737C110.779 23.6341 110.658 23.6341 110.537 23.5737C110.416 23.5133 110.416 23.3319 110.416 23.211C110.779 22.0626 111.262 20.9745 111.746 19.8261L111.806 19.7656C113.922 17.0456 119.181 16.1389 126.192 20.1887C133.023 24.1177 131.693 27.9258 131.632 28.0467V28.1071L129.336 32.3383C129.336 32.4592 129.275 32.5197 129.154 32.5197ZM128.127 31.7339L128.973 31.9152L131.149 27.9258C131.209 27.684 132.056 24.3595 125.951 20.7932C119.362 16.9247 114.285 17.7709 112.411 20.1887C112.048 20.9745 111.746 21.8208 111.444 22.6066C114.103 20.9141 117.79 18.9798 117.851 18.9798C117.911 18.9194 118.032 18.9194 118.093 18.9798C118.153 18.9798 118.214 19.1007 118.274 19.1612C118.274 19.2216 120.813 25.2662 124.077 26.6564C125.044 27.0796 125.83 27.3818 126.495 27.6236C128.308 28.3489 129.094 28.6511 129.154 29.3765C129.033 29.9809 128.489 31.1294 128.127 31.7339Z" fill="#CD88DA"/>
<path d="M133.325 30.7062C132.962 34.2121 129.335 33.4263 129.335 33.4263C129.335 33.4263 122.989 41.8887 115.191 39.5313C108.421 37.5366 108.24 30.7062 110.779 23.3319C113.438 21.5185 117.911 19.2216 117.911 19.2216C117.911 19.2216 120.45 25.387 123.835 26.8377C127.22 28.2884 128.671 28.5906 128.671 29.316C128.671 30.0413 127.643 31.8547 127.643 31.8547L129.094 32.1569L131.391 27.9257C132.66 28.1071 133.506 29.2555 133.325 30.5249C133.325 30.6458 133.325 30.7062 133.325 30.7062Z" fill="white"/>
<path d="M117.911 40.2567C116.944 40.2567 116.038 40.1358 115.131 39.8336C112.955 39.2896 111.081 37.8389 109.993 35.8442C108.482 32.8824 108.663 28.5303 110.477 23.2715C110.477 23.211 110.537 23.1506 110.597 23.1506C113.197 21.3977 117.73 19.0403 117.73 18.9798C117.79 18.9194 117.911 18.9194 117.972 18.9798C118.032 18.9798 118.093 19.1007 118.153 19.1612C118.153 19.2216 120.692 25.2662 123.956 26.6564C124.923 27.0796 125.709 27.3818 126.374 27.6236C128.187 28.3489 128.973 28.6512 129.033 29.3765C129.094 29.981 128.489 31.1294 128.187 31.7339L129.033 31.9152L131.209 27.8654C131.27 27.7445 131.391 27.684 131.512 27.684C132.962 27.9258 133.869 29.2556 133.688 30.7063C133.688 31.6734 133.204 32.5197 132.479 33.1241C131.633 33.6681 130.605 33.9099 129.577 33.7286C128.671 34.7562 123.956 40.2567 117.911 40.2567ZM111.021 23.5737C109.268 28.6512 109.086 32.8219 110.537 35.6024C111.504 37.4762 113.257 38.806 115.312 39.2896C122.807 41.5261 129.033 33.3659 129.094 33.245C129.154 33.1241 129.275 33.1241 129.396 33.1241C130.303 33.3055 131.209 33.1241 131.995 32.6406C132.6 32.157 132.962 31.4317 132.962 30.6459C133.204 29.6183 132.539 28.5907 131.512 28.3489L129.336 32.3988C129.275 32.5197 129.154 32.5801 129.033 32.5197L127.583 32.2175C127.462 32.2175 127.401 32.157 127.341 32.0361C127.28 31.9757 127.28 31.8548 127.341 31.7339C127.764 31.069 128.368 29.7996 128.308 29.3765C128.308 29.0138 127.462 28.7116 126.011 28.1071C125.346 27.8654 124.56 27.5027 123.593 27.14C120.511 25.8102 118.214 20.9141 117.609 19.6447C116.763 20.1888 113.257 22.0626 111.021 23.5737Z" fill="#CD88DA"/>
<path d="M119.241 27.3819C119.966 26.8983 120.873 26.7774 121.659 27.0797C122.082 27.261 122.445 27.5028 122.686 27.8655C122.807 28.0468 122.928 28.2281 122.989 28.4095C123.049 28.5908 123.11 28.7721 123.17 28.9535C123.23 29.1348 123.11 29.2557 122.928 29.3161C122.807 29.3161 122.686 29.3162 122.626 29.2557C122.384 29.0139 122.203 28.7721 121.961 28.5908C121.78 28.4095 121.538 28.2281 121.236 28.1677C120.994 28.0468 120.692 27.9863 120.39 27.9863C120.087 27.9863 119.785 27.9863 119.422 28.0468H119.362C119.181 28.0468 119.06 27.9259 118.999 27.805C119.12 27.5632 119.181 27.4423 119.241 27.3819Z" fill="#CD88DA"/>
<path d="M112.471 23.755C112.652 23.5737 112.955 23.4528 113.196 23.3924C113.438 23.3319 113.68 23.3319 113.922 23.3924C114.405 23.4528 114.829 23.5737 115.252 23.8759C115.675 24.1177 115.977 24.42 116.279 24.8431C116.521 25.2057 116.763 25.6289 116.823 26.052C116.884 26.2333 116.763 26.3542 116.642 26.4147C116.521 26.4751 116.4 26.4147 116.34 26.2938C115.917 25.6893 115.373 25.2057 114.768 24.7826C114.466 24.6013 114.164 24.4804 113.861 24.3595C113.68 24.2991 113.559 24.2991 113.378 24.2991C113.257 24.2991 113.076 24.2991 112.955 24.2991H112.773C112.592 24.2991 112.471 24.1782 112.471 24.0573C112.411 23.9364 112.411 23.8759 112.471 23.755Z" fill="#CD88DA"/>
<path d="M114.224 32.2175C114.043 32.2175 113.861 32.2175 113.68 32.157C112.955 31.9757 112.531 31.2503 112.713 30.525C112.773 30.1623 113.015 29.8601 113.317 29.6787C113.861 29.437 114.466 29.437 115.01 29.6183C115.493 28.4698 115.856 27.3214 116.158 26.1125C116.219 25.9311 116.34 25.8707 116.521 25.8707C116.702 25.9311 116.763 26.052 116.763 26.2333C116.46 27.5632 115.977 28.8325 115.433 30.1019C115.372 30.2228 115.191 30.2832 115.07 30.2228C114.587 30.0414 114.103 29.981 113.619 30.1623C113.438 30.2832 113.317 30.4041 113.317 30.6459C113.196 31.0086 113.378 31.4317 113.74 31.5526H113.801C114.345 31.7339 114.949 31.4921 115.252 30.9481C115.312 30.7668 115.493 30.7063 115.614 30.7668C115.796 30.8272 115.856 31.0086 115.796 31.1294C115.554 31.7943 114.889 32.2175 114.224 32.2175Z" fill="#CD88DA"/>
<path d="M120.631 30.7063C120.39 31.3108 119.846 31.6735 119.423 31.4921C118.999 31.3108 118.879 30.7063 119.12 30.1019C119.181 29.9205 119.302 29.7392 119.423 29.6183L119.967 30.2832V29.2556C120.087 29.2556 120.208 29.2556 120.269 29.3161C120.752 29.437 120.873 30.1019 120.631 30.7063Z" fill="#CD88DA"/>
<path d="M114.103 27.14C113.921 27.7445 113.377 28.1676 112.954 28.0467C112.531 27.9258 112.35 27.3214 112.531 26.6565C112.592 26.4751 112.652 26.2938 112.773 26.1729L113.377 26.8378L113.317 25.8102C113.438 25.7498 113.559 25.7498 113.619 25.8102C114.163 25.9311 114.345 26.5356 114.103 27.14Z" fill="#CD88DA"/>
<path d="M118.395 36.3278C117.246 36.2674 116.158 35.6629 115.554 34.6353C115.493 34.5144 115.493 34.3935 115.554 34.3331C115.614 34.2122 115.735 34.1518 115.796 34.1518L120.148 34.2122C120.208 34.2122 120.329 34.2727 120.39 34.3331C120.45 34.3935 120.45 34.454 120.45 34.5749C120.39 35.4211 119.785 36.1465 118.939 36.3278C118.818 36.3278 118.576 36.3278 118.395 36.3278ZM116.4 34.7562C117.005 35.4816 117.911 35.7838 118.818 35.6629C119.302 35.542 119.664 35.2398 119.785 34.7562H116.4Z" fill="#CD88DA"/>
<path d="M76.5664 45.8782C77.4731 43.5208 76.8082 42.9768 77.5335 40.3172C77.7753 39.1687 78.4402 38.1412 79.2865 37.3554C79.5887 37.1136 79.6491 36.63 79.4074 36.3278C79.3469 36.2673 79.3469 36.2673 79.2865 36.2069C78.5007 35.542 77.3522 35.6629 76.6873 36.4487L76.6268 36.5091C75.5993 37.5367 74.8135 38.7456 74.2695 40.1359C74.2695 40.1359 71.8516 34.454 70.4009 32.2175C68.9502 29.981 67.4995 30.3437 68.2249 32.8824C68.8898 34.998 69.736 37.0531 70.6427 38.9874C70.6427 38.9874 67.0764 35.2398 65.4444 33.91C63.8124 32.5801 62.1803 33.1846 63.9332 35.1189C65.6862 37.0531 68.1644 40.4381 68.1644 40.4381L67.3787 40.8612C65.6862 39.5314 63.8728 38.4434 61.999 37.4762C59.7625 36.5091 59.7625 38.6852 62.1199 40.3172C63.5101 41.2239 64.8399 42.2515 66.1093 43.3395C64.4773 43.279 62.9057 43.4604 61.3341 43.8835C59.4603 44.5484 61.455 45.9991 63.2683 45.8178C64.2959 45.6969 65.3839 45.8178 66.3511 46.1804C66.3511 46.1804 67.7413 50.1094 71.4285 49.8072C71.3076 49.6863 75.4179 48.6587 76.5664 45.8782Z" fill="white"/>
<path d="M70.9449 50.049C67.7412 50.049 66.2905 47.0267 66.0487 46.3618C65.1421 46.0596 64.1749 45.9387 63.2078 46.0596C61.878 46.1804 60.3669 45.5155 60.1855 44.7297C60.1251 44.488 60.1251 43.944 61.1526 43.5813C62.4825 43.2186 63.8123 42.9768 65.2025 43.0373C64.5376 42.4933 63.3287 41.5866 61.878 40.559C60.4273 39.5314 59.6415 38.2016 60.1251 37.4158C60.246 37.174 60.7295 36.63 62.1198 37.2345C63.9936 38.2016 65.7465 39.2896 67.439 40.559L67.7412 40.3777C67.1368 39.5314 65.1421 36.9322 63.7518 35.3607C62.5429 34.0309 62.9056 33.4264 63.1474 33.1846C63.6309 32.7011 64.7189 32.8824 65.6861 33.7286C66.6532 34.5749 68.5875 36.3882 69.7359 37.5972C69.071 36.086 68.4666 34.5749 67.983 33.0033C67.6203 31.7339 67.7412 30.8272 68.3457 30.5854C68.9501 30.3437 69.9173 30.8877 70.7031 32.0966C71.912 33.8495 73.6649 37.7785 74.3298 39.3501C74.8738 38.2621 75.5992 37.2345 76.4454 36.3278C77.1708 35.4211 78.561 35.3002 79.4677 36.0256C79.7095 36.2069 79.8908 36.5091 79.8908 36.8114C79.8908 37.1136 79.7699 37.4763 79.5281 37.6576C78.6819 38.3829 78.1379 39.3501 77.8357 40.4381C77.5939 41.2843 77.473 42.191 77.4125 43.0977C77.4125 44.1253 77.1708 45.0924 76.8081 45.9991C75.5992 48.9005 71.4889 49.9885 71.368 50.049C71.2471 50.1094 71.0657 50.049 70.9449 50.049ZM63.8727 45.3947C64.7189 45.3947 65.5652 45.5155 66.351 45.8178C66.4114 45.8782 66.4719 45.9387 66.5323 45.9991C66.5928 46.12 67.8621 49.6863 71.3075 49.3841C71.3075 49.3841 75.2365 48.3565 76.3245 45.7573C76.6872 44.9111 76.8685 43.944 76.8685 43.0373C76.8685 42.0701 77.0499 41.1635 77.2917 40.2568C77.5939 39.0479 78.1983 37.9598 79.1655 37.174C79.2864 37.1136 79.3468 36.9323 79.3468 36.8114C79.3468 36.6905 79.2864 36.5696 79.1655 36.4487C78.5006 35.9047 77.5334 35.9651 76.929 36.63L76.8685 36.6905C75.9014 37.6576 75.1156 38.8665 74.632 40.1963C74.5716 40.3172 74.5111 40.3777 74.3903 40.4381C74.2694 40.4381 74.1485 40.3777 74.088 40.2568C74.088 40.1963 71.6702 34.5749 70.2195 32.3988C69.4337 31.2504 68.8293 31.0086 68.5875 31.069C68.3457 31.1295 68.2248 31.7339 68.527 32.7615C69.1919 34.8167 70.0382 36.8718 70.9449 38.8665C71.0053 38.9874 70.9449 39.1687 70.824 39.2292C70.7031 39.2896 70.5217 39.2896 70.4613 39.1687C70.4008 39.1083 66.895 35.4211 65.263 34.0913C64.4167 33.366 63.6914 33.366 63.51 33.4868C63.3287 33.6077 63.4496 34.0913 64.1749 34.8166C65.9279 36.7509 68.4061 40.1359 68.4666 40.1359C68.527 40.1963 68.527 40.3172 68.527 40.3777C68.527 40.4381 68.4666 40.559 68.4061 40.559L67.6203 40.9821C67.4994 41.0426 67.3786 41.0426 67.3181 40.9821C65.6256 39.7128 63.8727 38.5643 61.9989 37.5972C61.3944 37.3554 60.9109 37.2949 60.79 37.5367C60.6086 37.8389 60.9713 38.927 62.3616 39.8941C63.7518 40.8612 65.0816 41.8888 66.351 42.9768C66.4719 43.0373 66.4719 43.2186 66.4114 43.3395C66.351 43.4604 66.2301 43.5208 66.1092 43.5208C64.5376 43.4604 62.966 43.6417 61.3944 44.0648C61.2735 44.1253 60.79 44.3066 60.8504 44.5484C60.9109 44.9715 62.1198 45.576 63.2078 45.4551C63.3891 45.3947 63.6309 45.3947 63.8727 45.3947Z" fill="#CD88DA"/>
<path d="M65.928 44.2462C65.7466 44.2462 65.6257 44.1253 65.6257 43.944C65.6257 43.8835 65.6257 43.8835 65.6257 43.8231C66.8346 40.4986 69.1316 38.6852 72.3957 38.4434C72.577 38.4434 72.6979 38.5643 72.6979 38.7456C72.6979 38.927 72.577 39.0479 72.3957 39.0479C69.3129 39.2897 67.2578 40.9217 66.1093 44.0649C66.1697 44.1253 66.0489 44.2462 65.928 44.2462Z" fill="#CD88DA"/>
<path d="M71.2475 41.8888C71.187 41.8888 71.0662 41.8888 71.0057 41.8283C70.8848 41.7074 70.8848 41.5261 71.0057 41.4052C71.8519 40.4985 73.0004 39.9545 74.2698 39.7732C74.4511 39.7732 74.572 39.8941 74.572 40.015C74.572 40.1963 74.4511 40.3172 74.2698 40.3172C73.1818 40.4381 72.1542 40.9821 71.3684 41.7679C71.4288 41.8888 71.3079 41.8888 71.2475 41.8888Z" fill="#CD88DA"/>
<path d="M137.375 70.0565C134.655 68.8476 132.358 68.0013 130.666 68.1827C129.94 67.2155 129.275 66.1275 128.852 64.9791C128.248 63.2866 127.341 64.7373 128.429 67.7596C128.429 67.7596 127.099 64.1328 126.434 63.8306C125.77 63.5284 125.346 65.5835 126.797 68.0618C126.797 68.0618 124.863 64.6768 123.896 64.8582C122.929 65.0395 124.258 67.5178 125.105 68.4245C125.105 68.4245 122.324 65.8857 121.417 66.3089C120.511 66.732 124.984 71.0236 126.555 72.1721C128.127 73.3206 133.265 73.381 135.199 74.2877C135.26 74.2877 135.924 71.0841 137.375 70.0565Z" fill="white"/>
<path d="M135.259 74.59C135.199 74.59 135.199 74.59 135.138 74.5295C133.869 74.1064 132.599 73.8042 131.27 73.6833C129.335 73.381 127.341 73.0788 126.434 72.4139C125.286 71.5677 120.994 67.6387 121.054 66.4902C121.054 66.3089 121.175 66.1275 121.357 66.0671C121.901 65.7649 122.928 66.3089 123.774 66.9133C123.412 66.3693 123.291 65.7044 123.351 65.0395C123.412 64.7977 123.654 64.6164 123.895 64.556C124.379 64.4955 125.044 65.0395 125.588 65.7044C125.406 65.0395 125.467 64.3142 125.83 63.7097C126.011 63.5284 126.313 63.4679 126.555 63.5888C127.038 64.012 127.401 64.4955 127.643 65.1C127.643 64.4955 127.824 64.1328 128.187 64.012C128.429 63.9515 128.852 63.9515 129.154 64.9186C129.577 66.0067 130.121 66.9738 130.847 67.8805C132.66 67.7596 134.957 68.6663 137.556 69.8147C137.677 69.8752 137.737 69.9356 137.737 70.0565C137.737 70.1774 137.677 70.2983 137.616 70.3588C136.287 71.3259 135.622 74.3482 135.622 74.4086C135.622 74.5295 135.561 74.59 135.44 74.59C135.38 74.59 135.32 74.59 135.259 74.59ZM121.719 66.5507C121.78 67.3365 125.225 70.7214 126.857 71.9303C127.643 72.5348 129.577 72.7766 131.391 73.0788C132.66 73.2601 133.869 73.5019 135.078 73.8646C135.259 73.0788 135.864 71.205 136.831 70.1774C134.413 69.1498 132.297 68.364 130.726 68.4849C130.605 68.4849 130.544 68.4245 130.484 68.364C129.698 67.3969 129.094 66.2484 128.61 65.1C128.55 64.9186 128.489 64.7977 128.368 64.6164C128.247 64.8582 128.127 65.8858 128.731 67.6991C128.791 67.8805 128.731 68.0014 128.55 68.0618C128.368 68.1223 128.247 68.0618 128.187 67.8805C127.582 66.188 126.676 64.3142 126.313 64.1328C126.313 64.1328 126.253 64.1933 126.192 64.3746C126.011 65.0395 126.192 66.3693 127.038 67.82L127.099 67.9409C127.22 68.0618 127.159 68.2432 127.038 68.364C126.918 68.4849 126.736 68.4245 126.615 68.3036C126.615 68.3036 126.615 68.2432 126.555 68.2432L126.494 68.1223C125.527 66.4902 124.379 65.1 124.016 65.1604C123.956 65.1604 123.956 65.1604 123.956 65.2209C123.774 65.7044 124.621 67.3969 125.406 68.1827C125.527 68.3036 125.527 68.4849 125.406 68.6058C125.286 68.7267 125.104 68.7267 124.983 68.6058C123.774 67.5178 122.203 66.4902 121.719 66.5507Z" fill="#CD88DA"/>
<path d="M133.627 72.6556C133.567 72.6556 133.506 72.6556 133.446 72.5952C131.511 71.4467 130.182 69.8147 130.121 68.7267C130.061 68.4244 130.242 68.0617 130.484 67.8804C130.605 67.7595 130.786 67.82 130.907 67.9409C131.028 68.0617 130.967 68.2431 130.846 68.364C130.726 68.4244 130.726 68.5453 130.726 68.7267C130.786 69.452 131.814 70.9027 133.748 72.1116C133.869 72.1721 133.929 72.4138 133.808 72.5347C133.808 72.6556 133.687 72.6556 133.627 72.6556Z" fill="#CD88DA"/>
<path d="M127.825 70.8423C127.764 70.8423 127.704 70.8423 127.643 70.7819C126.676 70.1774 125.77 69.3916 124.984 68.6058C124.863 68.4849 124.863 68.3036 124.984 68.1827C125.105 68.0618 125.286 68.0618 125.407 68.1827C126.193 68.9685 127.039 69.6939 127.946 70.2983C128.066 70.3588 128.127 70.6005 128.006 70.7214C128.006 70.8423 127.885 70.8423 127.825 70.8423Z" fill="#CD88DA"/>
<path d="M128.549 69.996C128.489 69.996 128.428 69.9961 128.368 69.9356C127.764 69.452 127.159 68.8476 126.615 68.2431C126.494 68.1222 126.494 67.9409 126.615 67.82C126.736 67.6991 126.917 67.6991 127.038 67.82C127.522 68.4245 128.066 68.908 128.67 69.3916C128.791 69.5125 128.852 69.6938 128.731 69.8147C128.731 69.9356 128.61 69.996 128.549 69.996Z" fill="#CD88DA"/>
<path d="M129.637 69.3311C129.577 69.3311 129.517 69.3311 129.456 69.2707C128.912 68.908 128.489 68.4849 128.187 67.9409C128.126 67.82 128.187 67.6386 128.308 67.5177C128.429 67.4573 128.61 67.5177 128.731 67.6386C129.033 68.0617 129.396 68.4849 129.819 68.7266C129.94 68.8475 130 69.0289 129.879 69.1498C129.819 69.2707 129.758 69.3311 129.637 69.3311Z" fill="#CD88DA"/>
<path d="M128.49 71.3863C127.643 71.2654 127.522 70.9027 127.522 70.6005C127.522 69.6938 129.638 68.6058 130.363 68.4849C130.545 68.4245 130.666 68.5454 130.726 68.7267C130.726 68.908 130.666 69.0289 130.484 69.0894C129.578 69.3311 128.792 69.8147 128.187 70.4796C128.127 70.6005 128.127 70.6005 128.127 70.6005C128.127 70.6005 128.187 70.7214 128.55 70.7818C128.731 70.7818 128.852 70.9632 128.852 71.0841C128.792 71.2654 128.671 71.3863 128.49 71.3863Z" fill="#CD88DA"/>
<path d="M148.617 70.5401C148.557 70.5401 141.485 69.2707 139.49 69.1498C139.248 69.1498 139.067 69.2103 138.886 69.2707C138.402 69.5125 137.979 69.8752 137.616 70.2379C137.495 70.3587 137.314 70.3587 137.193 70.2379C137.072 70.117 137.072 69.9356 137.193 69.8147C137.616 69.3916 138.1 69.0289 138.583 68.7267C138.886 68.5454 139.188 68.4849 139.551 68.4849C141.243 68.6058 146.502 69.5125 148.194 69.8147C147.167 67.0342 142.331 54.0384 142.452 49.8072C142.452 49.6259 142.573 49.505 142.754 49.505C142.754 49.505 142.754 49.505 142.815 49.505C142.996 49.505 143.117 49.6259 143.117 49.8072C142.996 54.3406 148.92 69.8752 148.98 70.0565C149.041 70.1774 148.98 70.2983 148.92 70.3587C148.859 70.5401 148.738 70.6005 148.617 70.5401Z" fill="#CD88DA"/>
<path d="M150.31 81.4203C150.19 81.4203 145.777 80.5741 143.057 79.8487C140.639 79.1838 134.474 76.4637 135.018 74.2273C135.078 74.0459 135.199 73.9855 135.38 73.9855C135.562 74.0459 135.622 74.1668 135.622 74.3481C135.32 75.7988 140.095 78.3376 143.238 79.2442C145.958 79.9696 150.371 80.8158 150.431 80.8158C150.613 80.8763 150.673 80.9972 150.673 81.1785C150.613 81.2994 150.431 81.4203 150.31 81.4203Z" fill="#CD88DA"/>
<path d="M103.041 83.7172H90.2874V86.2559H103.041V83.7172Z" fill="white"/>
<path d="M103.041 86.5581H90.2873C90.106 86.5581 89.9851 86.4372 89.9851 86.2559V83.7172C89.9851 83.5358 90.106 83.4149 90.2873 83.4149H103.041C103.223 83.4149 103.344 83.5358 103.344 83.7172V86.2559C103.344 86.4372 103.223 86.5581 103.041 86.5581ZM90.5896 85.9537H102.739V84.0194H90.5896V85.9537Z" fill="#CD88DA"/>
<path d="M90.3476 83.7172H65.6858V86.2559H90.3476V83.7172Z" fill="black" fill-opacity="0.941176"/>
<path d="M90.2871 86.5581H65.6252C65.4439 86.5581 65.323 86.4372 65.323 86.2559V83.7172C65.323 83.5358 65.4439 83.4149 65.6252 83.4149H90.2871C90.4684 83.4149 90.5893 83.5358 90.5893 83.7172V86.2559C90.5893 86.4372 90.4684 86.5581 90.2871 86.5581ZM65.9275 85.9537H89.9849V84.0194H65.9275V85.9537Z" fill="#CD88DA"/>
<path d="M90.2871 83.7172H65.6857L57.1628 62.6821H81.7642L90.2871 83.7172Z" fill="white"/>
<path d="M90.2876 84.0194H65.6257C65.5049 84.0194 65.384 83.959 65.3235 83.8381L56.8007 62.803C56.7402 62.6821 56.8007 62.6216 56.8611 62.5007C56.9216 62.4403 56.982 62.3799 57.1029 62.3799H81.7647C81.8856 62.3799 82.0065 62.4403 82.067 62.5612L90.5898 83.5963C90.6503 83.7172 90.5898 83.7776 90.5294 83.8985C90.5294 84.0194 90.4085 84.0194 90.2876 84.0194ZM65.8675 83.415H89.8645L81.6439 62.9843H57.6469L65.8675 83.415Z" fill="#CD88DA"/>
<path d="M174.851 76.1012C175.274 64.4351 177.269 56.9399 180.412 57.1816C183.555 57.4234 178.357 71.3259 176.12 76.2825L174.851 76.1012Z" fill="black" fill-opacity="0.941176"/>
<path d="M176.12 76.5847L174.791 76.4034C174.609 76.4034 174.549 76.2221 174.549 76.1012C174.912 66.1881 176.362 59.5995 178.599 57.6048C179.082 57.1212 179.747 56.8794 180.412 56.9399C180.835 56.9399 181.198 57.1817 181.379 57.5443C183.072 60.3853 177.752 73.3811 176.362 76.4638C176.362 76.5243 176.241 76.5847 176.12 76.5847ZM175.153 75.8594L175.939 75.9803C178.417 70.4797 182.105 59.9017 180.896 57.8466C180.775 57.6652 180.593 57.5443 180.412 57.5443C179.868 57.5443 179.384 57.7257 179.022 58.0883C176.967 59.9017 175.516 66.3694 175.153 75.8594Z" fill="#CD88DA"/>
<path d="M174.065 76.0407C172.494 65.8254 170.559 57.0607 172.977 56.1541C175.395 55.2474 176.785 61.836 176.362 68.0619C175.939 74.2878 175.576 76.0407 175.576 76.0407H174.065Z" fill="white"/>
<path d="M174.065 76.3429C173.944 76.3429 173.763 76.222 173.763 76.1011C173.521 74.4691 173.219 72.8975 172.977 71.3864C171.587 62.924 170.56 56.7585 172.856 55.9123C173.34 55.7309 173.944 55.7914 174.368 56.154C176.302 57.6047 176.967 63.4075 176.665 68.1827C176.241 74.3482 175.879 76.1011 175.818 76.222C175.758 76.3429 175.637 76.4638 175.516 76.4638L174.065 76.3429ZM173.461 56.3958C173.34 56.3958 173.219 56.3958 173.098 56.4563C171.285 57.1212 172.373 63.7098 173.582 71.2655C173.824 72.7162 174.065 74.2273 174.307 75.7384H175.274C175.395 75.0735 175.697 72.9579 176.06 68.0618C176.423 62.8635 175.516 57.7256 174.005 56.5772C173.884 56.3958 173.703 56.3354 173.461 56.3958Z" fill="#CD88DA"/>
<path d="M172.856 76.0407C172.191 71.5677 170.559 65.8254 168.262 63.7702C165.965 61.715 165.482 67.0947 167.295 70.1775C168.504 72.2326 169.955 74.2273 171.466 76.0407H172.856Z" fill="black" fill-opacity="0.941176"/>
<path d="M171.466 76.3429C171.405 76.3429 171.285 76.2825 171.224 76.222C169.653 74.3482 168.262 72.4139 166.993 70.2983C165.663 67.941 165.482 64.1933 166.63 63.2262C166.933 62.9844 167.537 62.7426 168.444 63.5284C170.741 65.5836 172.433 71.2655 173.158 75.9803C173.158 76.0407 173.158 76.1616 173.098 76.222C173.038 76.2825 172.977 76.3429 172.856 76.3429H171.466ZM167.295 63.5889C167.174 63.5889 167.114 63.6493 166.993 63.7098C166.207 64.3747 166.147 67.6992 167.477 69.9961C168.685 71.9908 170.015 73.9251 171.526 75.7385H172.433C171.708 71.205 170.076 65.8858 167.96 64.012C167.839 63.7702 167.597 63.6493 167.295 63.5889Z" fill="#CD88DA"/>
<path d="M174.912 86.3165C165.542 86.3769 166.268 77.6123 166.872 76.2825C167.477 74.9527 170.922 75.134 170.922 75.134L178.72 75.0736C178.72 75.0736 182.225 74.8922 182.83 76.222C183.434 77.5518 184.22 86.256 174.912 86.3165Z" fill="white"/>
<path d="M174.851 86.6187C171.466 86.6187 169.048 85.5307 167.597 83.2942C165.845 80.6346 166.147 77.1287 166.63 76.1616C167.295 74.7109 170.62 74.8318 170.982 74.8318L178.78 74.7713C179.143 74.7713 182.467 74.59 183.132 76.0407C183.555 77.0078 183.918 80.5137 182.225 83.1733C180.775 85.4098 178.357 86.5582 174.972 86.5582L174.851 86.6187ZM170.499 75.4362C169.23 75.4362 167.416 75.678 167.114 76.4034C166.57 78.6398 166.872 80.9972 168.081 82.9315C169.411 84.9262 171.647 85.9538 174.791 85.9538H174.851C178.055 85.9538 180.291 84.8658 181.621 82.871C182.769 80.8763 183.072 78.519 182.528 76.2825C182.104 75.3758 179.566 75.3153 178.72 75.3153L170.862 75.3758L170.499 75.4362Z" fill="#CD88DA"/>
<path d="M168.021 78.3376C167.84 78.3376 167.719 78.2167 167.719 78.0354C167.719 77.854 167.84 77.7331 168.021 77.7331L183.132 77.6727C183.314 77.6727 183.435 77.7936 183.435 77.9749C183.435 78.1563 183.314 78.2772 183.132 78.2772L168.021 78.3376Z" fill="#CD88DA"/>
<path d="M192.138 86.256H48.0356V88.7947H192.138V86.256Z" fill="white"/>
<path d="M192.078 89.0969H48.0359C47.8545 89.0969 47.7336 88.976 47.7336 88.7947V86.256C47.7336 86.0746 47.8545 85.9537 48.0359 85.9537H192.138C192.32 85.9537 192.441 86.0746 192.441 86.256V88.7947C192.38 88.976 192.259 89.0969 192.078 89.0969ZM48.3381 88.4925H191.836V86.5582H48.3381V88.4925Z" fill="#CD88DA"/>
<path d="M188.633 88.7947H51.4209V93.2677H188.633V88.7947Z" fill="black" fill-opacity="0.941176"/>
<path d="M188.693 93.6303H51.4809C51.2996 93.6303 51.1787 93.5094 51.1787 93.3281V88.8551C51.1787 88.6737 51.2996 88.5529 51.4809 88.5529H188.693C188.874 88.5529 188.995 88.6737 188.995 88.8551V93.3281C188.995 93.449 188.814 93.6303 188.693 93.6303ZM51.7227 93.0258H188.33V89.1573H51.7227V93.0258Z" fill="#CD88DA"/>
<path d="M51.4209 164.956H188.633V161.813C188.633 159.154 186.457 156.977 183.797 156.977H56.2566C53.5969 156.977 51.4209 159.154 51.4209 161.813V164.956Z" fill="white"/>
<path d="M188.693 165.258H51.4809C51.2996 165.258 51.1787 165.138 51.1787 164.956V161.813C51.1787 158.972 53.4756 156.675 56.3166 156.675H183.857C186.698 156.675 188.995 158.972 188.995 161.813V164.956C188.995 165.138 188.874 165.258 188.693 165.258ZM51.7227 164.654H188.33V161.813C188.33 159.274 186.275 157.28 183.797 157.28H56.2561C53.7174 157.28 51.7227 159.335 51.7227 161.813V164.654Z" fill="#CD88DA"/>
<path d="M64.1309 156.477V93.828H175.923V156.477H64.1309Z" stroke="#D08FDC"/>
<path d="M176.422 157.28H63.6306C63.4493 157.28 63.3284 157.159 63.3284 156.977V93.3281C63.3284 93.1467 63.4493 93.0258 63.6306 93.0258H176.422C176.604 93.0258 176.725 93.1467 176.725 93.3281V156.977C176.725 157.098 176.604 157.28 176.422 157.28ZM63.9328 156.675H176.12V93.6303H63.9933L63.9328 156.675Z" fill="#CD88DA"/>
<path d="M129.637 122.523L113.075 112.973C111.624 112.127 109.751 112.671 108.965 114.121C108.723 114.545 108.542 115.089 108.542 115.633V134.794C108.542 136.486 109.932 137.816 111.564 137.816C112.108 137.816 112.592 137.695 113.075 137.393L129.637 127.843C131.088 126.996 131.572 125.123 130.725 123.732C130.484 123.188 130.121 122.765 129.637 122.523Z" fill="black"/>
<path d="M111.564 138.058C109.751 138.058 108.24 136.547 108.24 134.733V115.572C108.24 113.759 109.751 112.248 111.564 112.248C112.169 112.248 112.713 112.429 113.196 112.671L129.758 122.221C131.33 123.128 131.874 125.183 130.967 126.755C130.665 127.238 130.242 127.661 129.758 127.964L113.257 137.574C112.713 137.877 112.169 137.997 111.564 138.058ZM111.564 112.852C110.053 112.852 108.844 114.061 108.844 115.572V134.733C108.844 136.245 110.053 137.453 111.564 137.453C112.048 137.453 112.531 137.333 112.894 137.091L129.456 127.54C130.726 126.815 131.209 125.123 130.423 123.793C130.182 123.37 129.819 123.067 129.456 122.826L112.955 113.215C112.531 112.973 112.048 112.852 111.564 112.852Z" fill="black"/>
<path d="M52.5697 177.287C52.1465 177.529 51.6025 177.287 51.3607 176.864L23.4348 112.489L26.5175 111.16L53.1137 176.139C53.295 176.562 53.0532 177.106 52.5697 177.287Z" fill="white"/>
<path d="M52.2067 177.65C51.7231 177.65 51.3 177.408 51.1187 176.985L23.1323 112.61C23.1323 112.55 23.1323 112.429 23.1323 112.368C23.1928 112.308 23.1928 112.248 23.3137 112.187L26.3964 110.857C26.4568 110.797 26.5777 110.797 26.6382 110.857C26.6986 110.918 26.7591 110.978 26.8195 111.039L53.4156 176.018C53.6574 176.622 53.3552 177.348 52.7507 177.589C52.5694 177.65 52.3881 177.65 52.2067 177.65ZM23.7972 112.61L51.6627 176.683C51.7836 176.985 52.1463 177.106 52.4485 176.985C52.7507 176.864 52.9321 176.501 52.8112 176.199L26.3359 111.583L23.7972 112.61Z" fill="#CD88DA"/>
<path d="M9.47154 180.37C9.95511 180.491 10.4387 180.189 10.5596 179.705L25.127 111.764L21.8629 111.099L8.74619 179.342C8.68574 179.826 8.98798 180.309 9.47154 180.37Z" fill="white"/>
<path d="M9.71363 180.672C9.65318 180.672 9.5323 180.672 9.47185 180.672C8.80695 180.551 8.38382 179.947 8.50471 179.282L21.6214 111.039C21.6214 110.978 21.6819 110.918 21.7423 110.857C21.8028 110.797 21.8632 110.797 21.9841 110.797L25.2482 111.462C25.3086 111.462 25.3691 111.522 25.4295 111.583C25.49 111.643 25.49 111.704 25.49 111.824L10.8621 179.765C10.7412 180.309 10.2576 180.672 9.71363 180.672ZM9.53229 180.068C9.83452 180.128 10.1972 179.947 10.2576 179.645L24.7646 111.945L22.0446 111.401L9.04873 179.403C8.98828 179.705 9.23007 180.007 9.53229 180.068Z" fill="#CD88DA"/>
<path d="M36.7931 189.799C36.3095 189.86 35.8259 189.558 35.705 189.014L23.1323 114.907L26.4568 114.363L37.5789 188.772C37.6393 189.255 37.2766 189.739 36.7931 189.799Z" fill="white"/>
<path d="M36.6723 190.102C36.0678 190.102 35.5842 189.679 35.4633 189.074L22.8906 114.907C22.8906 114.726 22.9511 114.605 23.1324 114.544L26.4569 114C26.5174 114 26.6383 114 26.6987 114.061C26.7592 114.121 26.8196 114.182 26.8196 114.242L37.8812 188.651C38.0021 189.316 37.5789 189.92 36.914 190.041C36.914 190.041 36.914 190.041 36.8536 190.041L36.6723 190.102ZM23.4951 115.149L36.0073 189.014C36.0678 189.376 36.37 189.558 36.7327 189.558C37.0954 189.497 37.3372 189.195 37.2767 188.832L26.2151 114.726L23.4951 115.149Z" fill="#CD88DA"/>
<path d="M1.00967 188.047C1.49324 188.167 2.03725 187.865 2.15814 187.382L21.5008 114.726L18.2367 113.88L0.344773 186.898C0.223881 187.382 0.526109 187.926 1.00967 188.047Z" fill="white"/>
<path d="M1.25103 188.349C1.13014 188.349 1.06969 188.349 0.948802 188.288C0.283899 188.107 -0.139221 187.442 0.0421158 186.777L17.934 113.759C17.934 113.698 17.9945 113.638 18.0549 113.577C18.1154 113.517 18.2363 113.517 18.2967 113.577L21.5608 114.424C21.6212 114.424 21.6817 114.484 21.7421 114.544C21.7421 114.605 21.7421 114.726 21.7421 114.786L2.3995 187.442C2.21816 187.986 1.7346 188.349 1.25103 188.349ZM18.4176 114.242L0.586126 186.958C0.52568 187.321 0.707019 187.623 1.06969 187.744C1.37192 187.865 1.73459 187.684 1.79504 187.321V187.261L21.0772 114.907L18.4176 114.242Z" fill="#CD88DA"/>
<path d="M15.9998 111.643L22.8906 113.275L30.3858 111.522L23.3741 109.709L15.9998 111.643Z" fill="white"/>
<path d="M22.8906 113.577H22.8301L15.9393 112.006C15.8184 112.006 15.6975 111.885 15.6975 111.704C15.6975 111.583 15.758 111.462 15.9393 111.401L23.3137 109.467C23.3741 109.467 23.4346 109.467 23.4346 109.467L30.4463 111.28C30.6276 111.28 30.7485 111.401 30.7485 111.583C30.7485 111.764 30.6276 111.885 30.4463 111.885L22.951 113.638L22.8906 113.577ZM17.2691 111.643L22.8906 112.912L29.1165 111.462L23.3741 110.011L17.2691 111.643Z" fill="#CD88DA"/>
<path d="M21.4399 72.0512H24.3413V110.434C24.3413 111.22 23.6764 111.885 22.8906 111.885C22.1048 111.885 21.4399 111.22 21.4399 110.434V72.0512Z" fill="white"/>
<path d="M22.8909 112.187C21.9237 112.187 21.1379 111.401 21.1379 110.434V71.9907C21.1379 71.8094 21.2588 71.6885 21.4402 71.6885H24.3416C24.5229 71.6885 24.6438 71.8094 24.6438 71.9907V110.374C24.6438 111.401 23.858 112.187 22.8909 112.187ZM21.7424 72.3534V110.495C21.7424 111.099 22.226 111.643 22.8909 111.643C23.4953 111.643 24.0393 111.16 24.0393 110.495V72.3534H21.7424Z" fill="#CD88DA"/>
<path d="M26.6985 65.2812V70.4795C26.6985 72.5951 25.0665 74.2876 22.9509 74.3481H22.83C19.5659 74.3481 19.1428 71.628 19.1428 70.3587V63.1052L26.6985 65.2812Z" fill="black" fill-opacity="0.941176"/>
<path d="M22.7699 74.5899C19.0223 74.5899 18.7805 71.3258 18.7805 70.2982V63.0448C18.7805 62.9239 18.841 62.8634 18.9014 62.803C18.9619 62.7425 19.0827 62.7425 19.1432 62.7425L26.7594 64.979C26.8802 65.0395 27.0011 65.1604 27.0011 65.2812V70.4191C27.0011 72.6556 25.1878 74.5294 22.9513 74.5899H22.7699ZM19.385 63.5283V70.3587C19.385 71.4467 19.7477 74.0459 22.7699 74.0459H22.8908C24.8251 73.9854 26.3362 72.4138 26.3362 70.54V65.6439L19.385 63.5283Z" fill="#CD88DA"/>
<path d="M15.6975 60.9292V63.5888L26.6986 65.2813L31.7156 63.891V61.8359L15.6975 60.9292Z" fill="white"/>
<path d="M26.6989 65.5835L15.6373 63.8306C15.5164 63.8306 15.3955 63.7097 15.3955 63.5283V60.8687C15.3955 60.8083 15.456 60.6874 15.5164 60.6269C15.5768 60.5665 15.6373 60.5665 15.7582 60.5665L31.8367 61.4732C32.0181 61.4732 32.139 61.5941 32.139 61.7754V63.8306C32.139 63.9515 32.0785 64.0723 31.8972 64.1328L26.8802 65.5835H26.6989ZM16 63.2866L26.6989 64.979L31.4741 63.6492V62.0776L16 61.2314V63.2866Z" fill="#CD88DA"/>
<path d="M26.6985 65.2813V61.5337L31.7155 60.9292V63.891L26.6985 65.2813Z" fill="black" fill-opacity="0.941176"/>
<path d="M26.6987 65.5835C26.5174 65.5835 26.3965 65.4626 26.3965 65.2812V61.5336C26.3965 61.3523 26.5174 61.2314 26.6383 61.2314L31.6553 60.6269C31.7157 60.6269 31.8366 60.6269 31.897 60.6874C31.9575 60.7478 32.0179 60.8083 32.0179 60.9292V63.891C32.0179 64.0119 31.9575 64.1328 31.7762 64.1932L26.7592 65.6439L26.6987 65.5835ZM27.0009 61.7754V64.8581L31.4135 63.5888V61.2314L27.0009 61.7754Z" fill="#CD88DA"/>
<path d="M39.9968 41.8887L41.9311 39.5918C42.2938 39.1082 42.9587 38.9873 43.5027 39.1686C45.1952 39.7731 48.3988 41.4656 48.7615 45.6363C49.245 51.3182 47.4316 53.9174 47.069 54.4614C46.7063 55.0054 42.9587 54.401 42.9587 54.401L39.9968 41.8887Z" fill="white"/>
<path d="M45.8598 55.0055C44.8927 55.0055 43.9255 54.8846 42.9584 54.7637C42.8375 54.7637 42.7166 54.6428 42.7166 54.5219L39.6943 42.0096C39.6943 41.8887 39.6943 41.8283 39.7548 41.7679L41.689 39.4709C42.1726 38.9269 42.898 38.6851 43.6233 38.9269C45.1345 39.4709 48.7007 41.2238 49.0634 45.6364C49.3657 49.3236 48.7612 52.5272 47.3105 54.6428C47.1292 54.8846 46.5851 55.0055 45.8598 55.0055ZM43.2606 54.1592C44.8322 54.401 46.5851 54.4615 46.8874 54.2801C48.2776 52.3459 48.8216 49.2631 48.5194 45.6968C48.1567 41.7679 45.1949 40.1358 43.442 39.4709C43.0188 39.2896 42.4748 39.4105 42.1726 39.8336L40.3592 42.0096L43.2606 54.1592Z" fill="#CD88DA"/>
<path d="M28.3914 42.735L39.876 41.2843C40.1178 41.2239 40.4201 41.2843 40.6618 41.4052C42.6565 42.6141 44.1072 44.5484 44.5304 46.9058C44.893 49.2027 44.6513 51.5601 43.7446 53.6757C43.6237 54.0384 43.3215 54.2801 43.0192 54.401L36.7329 56.5771L28.3914 42.735Z" fill="white"/>
<path d="M36.7326 56.8189C36.6117 56.8189 36.5513 56.7584 36.4909 56.698L28.1493 42.9163C28.0889 42.8559 28.0889 42.735 28.1493 42.6141C28.2098 42.5537 28.2702 42.4932 28.3911 42.4328L39.8758 40.9821C40.178 40.9216 40.5407 40.9821 40.8429 41.1634C42.9585 42.3723 44.4092 44.4275 44.8928 46.8453C45.2555 49.2027 45.0137 51.6205 44.107 53.7966C43.9257 54.2197 43.6234 54.5219 43.2003 54.7033L36.8535 56.8189H36.7326ZM28.8747 42.9768L36.8535 56.154L42.8981 54.0988C43.1399 54.0384 43.3817 53.7966 43.4421 53.5548C44.2883 51.4392 44.5301 49.1423 44.1675 46.9058C43.7443 44.6693 42.3541 42.7955 40.4198 41.647C40.2385 41.5261 39.9967 41.5261 39.8154 41.5261L28.8747 42.9768Z" fill="#CD88DA"/>
<path d="M38.8484 61.2918L34.5568 63.1052C34.6172 59.5994 34.7986 47.6916 34.5568 47.5102C34.315 47.3289 25.3086 45.6364 25.3086 45.6364L29.7211 43.2186C29.7211 43.2186 38.4253 44.8506 39.0298 45.8782C39.6342 46.9058 38.8484 61.2918 38.8484 61.2918Z" fill="black" fill-opacity="0.941176"/>
<path d="M34.5564 63.4074C34.496 63.4074 34.4355 63.4074 34.3751 63.3469C34.3146 63.2865 34.2542 63.1656 34.2542 63.1051C34.3751 54.5823 34.4355 48.6586 34.3146 47.7519C33.5288 47.5101 28.391 46.543 25.1873 45.9385C25.0664 45.9385 24.9456 45.8177 24.9456 45.6968C24.9456 45.5759 25.006 45.455 25.0664 45.3945L29.479 42.9767C29.5394 42.9163 29.5999 42.9163 29.6603 42.9163C31.7155 43.2789 38.5458 44.6087 39.1503 45.6968C39.7548 46.7848 39.2107 58.8739 39.0899 61.2918C39.0899 61.4127 39.0294 61.5335 38.9085 61.5335L34.6169 63.3469C34.6773 63.4074 34.6169 63.4074 34.5564 63.4074ZM26.1545 45.5154C29.5394 46.1199 34.4355 47.087 34.7378 47.2684C34.9191 47.3893 35.1609 47.5101 34.9191 62.6216L38.6063 61.05C38.8481 55.5494 39.0899 46.7243 38.7272 45.999C38.4249 45.455 33.952 44.3065 29.7812 43.5207L26.1545 45.5154Z" fill="#CD88DA"/>
<path d="M27.4846 39.894L23.8579 41.4656L17.9946 40.8611L21.2587 39.2291L27.4846 39.894Z" fill="black" fill-opacity="0.941176"/>
<path d="M23.8581 41.7678L17.9344 41.1634C17.8135 41.1634 17.6926 41.0425 17.6926 40.9216C17.6926 40.8007 17.7531 40.6798 17.874 40.6194L21.0776 38.9873C21.138 38.9873 21.1985 38.9873 21.2589 38.9873L27.4848 39.5918C27.6057 39.5918 27.7266 39.7127 27.7266 39.8336C27.7266 39.9545 27.6662 40.1358 27.5453 40.1358L23.979 41.7074C23.9185 41.7678 23.9185 41.7678 23.8581 41.7678ZM19.0224 40.6798L23.7976 41.1634L26.2759 40.0754L21.2589 39.5918L19.0224 40.6798Z" fill="#CD88DA"/>
<path d="M34.5567 63.1052L34.3753 63.2261C34.1336 63.347 33.8313 63.4074 33.5291 63.347L8.14189 59.962C7.65833 59.9016 7.29565 59.4785 7.29565 58.9949V45.2737C7.29565 44.911 7.41655 44.6088 7.59788 44.3066L15.9394 44.911L16.967 42.6141L17.9341 40.9216L23.7973 41.5261L25.1876 45.6968C25.1876 45.6968 34.194 47.3289 34.4962 47.5707C34.7985 47.8124 34.6171 59.5994 34.5567 63.1052Z" fill="white"/>
<path d="M33.7102 63.6491C33.6497 63.6491 33.5288 63.6491 33.4684 63.6491L8.08119 60.2642C7.41628 60.2037 6.99316 59.6597 6.99316 58.9948V45.2736C6.99316 44.8505 7.11405 44.4878 7.35584 44.1251C7.41628 44.0647 7.53718 44.0042 7.59762 44.0042L15.6973 44.6087L16.6645 42.4931L17.6921 40.7402C17.7525 40.6193 17.8734 40.5588 17.9943 40.6193L23.8575 41.2238C23.9784 41.2238 24.0993 41.3446 24.0993 41.4051L25.4291 45.3945C28.8141 45.999 34.3751 47.087 34.6773 47.2683C34.8586 47.3892 35.1004 47.5705 34.7982 63.1051C34.7982 63.226 34.7377 63.3469 34.6169 63.3469L34.3751 63.4678C34.2542 63.5887 34.0124 63.6491 33.7102 63.6491ZM7.77896 44.6087C7.65807 44.79 7.59762 44.9714 7.59762 45.2132V58.9343C7.59762 59.297 7.8394 59.5992 8.20208 59.5992L33.5893 62.9842C33.8311 62.9842 34.0728 62.9842 34.2542 62.8633H34.3146C34.4355 54.4614 34.496 48.5981 34.3751 47.6914C33.5893 47.4497 28.4514 46.4825 25.2478 45.8781C25.1269 45.8781 25.0664 45.7572 25.006 45.6967L23.6762 41.7073L18.1756 41.1633L17.2689 42.6744L16.1809 44.9714C16.1205 45.0923 15.9996 45.1527 15.8787 45.1527L7.77896 44.6087Z" fill="#CD88DA"/>
<path d="M16.967 42.5537L15.9394 44.8506L7.5979 44.2461C7.77924 44.0044 8.02102 43.7626 8.32325 43.7021L12.4336 42.191L16.967 42.5537Z" fill="black" fill-opacity="0.941176"/>
<path d="M15.9393 45.1529L7.59775 44.5484C7.47686 44.5484 7.41641 44.488 7.35597 44.3671C7.29552 44.2462 7.35597 44.1253 7.35597 44.0648C7.59775 43.7626 7.89998 43.5208 8.26265 43.3999L12.373 41.8888C12.4334 41.8888 12.4334 41.8888 12.4939 41.8888L17.0273 42.2515C17.1482 42.2515 17.2086 42.3119 17.2691 42.3724C17.3295 42.4328 17.3295 42.5537 17.2691 42.6746L16.2415 44.9715C16.181 45.0924 16.0602 45.2133 15.9393 45.1529ZM8.38354 44.0044L15.7579 44.5484L16.5437 42.7955L12.4939 42.4933L8.44399 43.944L8.38354 44.0044Z" fill="#CD88DA"/>
<path d="M29.6605 43.2185L25.2479 45.6363L23.8577 41.4655L27.4844 39.894L29.6605 43.2185Z" fill="white"/>
<path d="M25.2479 45.9386C25.1874 45.9386 25.1874 45.9386 25.127 45.9386C25.0665 45.8782 25.0061 45.8177 24.9456 45.7573L23.5554 41.5865C23.4949 41.4656 23.5554 41.2843 23.7367 41.2238L27.303 39.6523C27.4239 39.5918 27.6052 39.6523 27.6657 39.7731L29.9022 43.1581C29.9626 43.279 29.9626 43.5208 29.7813 43.5812L25.3688 45.9991C25.3688 45.9386 25.3083 45.9386 25.2479 45.9386ZM24.2203 41.647L25.4292 45.2133L29.2373 43.0977L27.3635 40.2567L24.2203 41.647Z" fill="#CD88DA"/>
<path d="M20.5335 47.3893C21.5684 47.3893 22.4073 46.4963 22.4073 45.3946C22.4073 44.293 21.5684 43.3999 20.5335 43.3999C19.4986 43.3999 18.6597 44.293 18.6597 45.3946C18.6597 46.4963 19.4986 47.3893 20.5335 47.3893Z" fill="black" fill-opacity="0.941176"/>
<path d="M20.5332 47.6916C19.2638 47.752 18.1758 46.7849 18.0549 45.5155C17.9945 44.2461 18.9616 43.1581 20.231 43.0372C21.5003 42.9768 22.5884 43.9439 22.7093 45.2133C22.7093 45.2737 22.7093 45.3342 22.7093 45.3342C22.7093 46.6035 21.7421 47.6311 20.5332 47.6916ZM20.5332 43.7021C19.5661 43.6417 18.7803 44.3066 18.6594 45.2737C18.5989 46.2409 19.2638 47.0266 20.231 47.1475C21.1981 47.208 21.9839 46.5431 22.1048 45.5759C22.1048 45.5155 22.1048 45.4551 22.1048 45.4551C22.1048 44.4879 21.4399 43.7021 20.5332 43.7021Z" fill="#CD88DA"/>
<path d="M10.439 48.0543V57.5442L22.0445 59.1763V49.3841L10.439 48.0543Z" fill="white"/>
<path d="M22.0443 59.4785L10.3783 57.8464C10.2574 57.8464 10.1365 57.6651 10.1365 57.5442V47.9938C10.1365 47.8125 10.2574 47.6916 10.4387 47.6916L22.0443 49.0214C22.2256 49.0214 22.2861 49.1423 22.2861 49.3236V59.1158C22.2861 59.1762 22.2256 59.2971 22.1652 59.3576C22.1652 59.4785 22.1047 59.4785 22.0443 59.4785ZM10.7409 57.3024L21.7421 58.8136V49.6863L10.7409 48.4169V57.3024Z" fill="#CD88DA"/>
<path d="M28.391 59.2971C29.7263 59.2971 30.8088 58.0522 30.8088 56.5166C30.8088 54.9809 29.7263 53.7361 28.391 53.7361C27.0556 53.7361 25.9731 54.9809 25.9731 56.5166C25.9731 58.0522 27.0556 59.2971 28.391 59.2971Z" fill="white"/>
<path d="M28.3912 59.6598C26.8801 59.6598 25.6711 58.2695 25.6711 56.577C25.6711 54.8845 26.8801 53.4943 28.3912 53.4943C29.9023 53.4943 31.1113 54.8845 31.1113 56.577C31.1113 58.2695 29.9023 59.6598 28.3912 59.6598ZM28.3912 54.0383C27.2427 54.0383 26.2756 55.1868 26.2756 56.5166C26.2756 57.8464 27.2427 58.9949 28.3912 58.9949C29.5397 58.9949 30.5068 57.8464 30.5068 56.5166C30.5068 55.1868 29.5397 54.0383 28.3912 54.0383Z" fill="#CD88DA"/>
<path d="M28.391 57.786C28.9919 57.786 29.479 57.2177 29.479 56.5166C29.479 55.8156 28.9919 55.2473 28.391 55.2473C27.7901 55.2473 27.303 55.8156 27.303 56.5166C27.303 57.2177 27.7901 57.786 28.391 57.786Z" fill="black" fill-opacity="0.941176"/>
<path d="M28.3909 58.0882C27.5447 58.2091 26.7589 57.5442 26.638 56.6979C26.5171 55.8517 27.182 55.0659 28.0283 54.945C28.8745 54.8241 29.6603 55.489 29.7812 56.3353C29.7812 56.3957 29.7812 56.4562 29.7812 56.5166C29.7812 57.3628 29.1767 58.0278 28.3909 58.0882ZM28.3909 55.6099C27.8469 55.489 27.3634 55.8517 27.2425 56.3957C27.1216 56.9397 27.4843 57.4233 28.0283 57.5442C28.5723 57.6651 29.0558 57.3024 29.1767 56.7584C29.1767 56.6979 29.1767 56.6375 29.1767 56.5771C29.1767 56.0935 28.8141 55.6704 28.3909 55.6099Z" fill="#CD88DA"/>
<path d="M30.6278 52.5876C31.2287 52.5876 31.7158 52.0193 31.7158 51.3183C31.7158 50.6172 31.2287 50.0489 30.6278 50.0489C30.0269 50.0489 29.5398 50.6172 29.5398 51.3183C29.5398 52.0193 30.0269 52.5876 30.6278 52.5876Z" fill="white"/>
<path d="M30.6276 52.8295C29.7814 52.9503 28.9956 52.2854 28.9351 51.4392C28.8142 50.593 29.4791 49.8072 30.3254 49.7467C31.1716 49.6258 31.9574 50.2907 32.0179 51.137C32.0179 51.1974 32.0179 51.2579 32.0179 51.3183C32.0783 52.1041 31.4739 52.769 30.6276 52.8295ZM30.6276 50.3512C30.0836 50.2303 29.6 50.593 29.5396 51.137C29.4187 51.681 29.7814 52.1646 30.3254 52.225C30.8694 52.3459 31.353 51.9832 31.4134 51.4392C31.4134 51.3788 31.4134 51.3183 31.4134 51.2579C31.4739 50.8347 31.1112 50.4116 30.6276 50.3512Z" fill="#CD88DA"/>
<path d="M27.0612 52.4064C27.6621 52.4064 28.1492 51.8381 28.1492 51.137C28.1492 50.436 27.6621 49.8676 27.0612 49.8676C26.4603 49.8676 25.9731 50.436 25.9731 51.137C25.9731 51.8381 26.4603 52.4064 27.0612 52.4064Z" fill="white"/>
<path d="M27.0611 52.6481C26.2148 52.769 25.429 52.1645 25.3686 51.2578C25.3081 50.3512 25.8521 49.6258 26.7588 49.5654C27.6655 49.5049 28.3909 50.0489 28.4513 50.9556C28.4513 51.0161 28.4513 51.0765 28.4513 51.1369C28.5118 51.9227 27.9073 52.5876 27.0611 52.6481ZM27.0611 50.1698C26.517 50.0489 26.0335 50.4116 25.973 50.8952C25.8521 51.4392 26.2148 51.9227 26.6984 51.9832C27.2424 52.1041 27.726 51.7414 27.7864 51.2578C27.7864 51.1974 27.7864 51.1369 27.7864 51.0765C27.9073 50.6534 27.5446 50.2303 27.0611 50.1698Z" fill="#CD88DA"/>
<path d="M29.9629 58.9344C29.9025 58.9344 29.7816 58.874 29.7211 58.8135L28.754 57.7255C28.6331 57.6046 28.6331 57.4233 28.754 57.3024C28.8749 57.1815 29.0562 57.1815 29.1771 57.3024L30.1443 58.3904C30.2651 58.5113 30.2651 58.6926 30.1443 58.8135C30.1443 58.9344 30.0234 58.9948 29.9629 58.9344Z" fill="#CD88DA"/>
<path d="M29.177 56.0331C28.9956 56.0331 28.8748 55.9122 28.8748 55.7308C28.8748 55.6704 28.9352 55.5495 28.9956 55.489L30.0837 54.5219C30.2046 54.401 30.3859 54.401 30.5068 54.5219C30.6277 54.6428 30.6277 54.8241 30.5068 54.945L29.4188 55.9122C29.3583 56.033 29.2374 56.0331 29.177 56.0331Z" fill="#CD88DA"/>
<path d="M27.6658 55.9121C27.5449 55.9121 27.4844 55.8517 27.424 55.7912L26.5173 54.6428C26.3964 54.5219 26.4569 54.3405 26.5778 54.2196C26.6986 54.0988 26.88 54.1592 27.0009 54.2801L27.9076 55.4286C28.0285 55.5495 27.968 55.7308 27.8471 55.8517C27.7867 55.9121 27.7262 55.9121 27.6658 55.9121Z" fill="#CD88DA"/>
<path d="M26.6988 58.8741C26.6383 58.8741 26.5779 58.8741 26.5175 58.8136C26.3966 58.6927 26.3361 58.5114 26.457 58.3905L27.3033 57.1816C27.4241 57.0607 27.6055 57.0002 27.7264 57.1211C27.8473 57.242 27.9077 57.4234 27.7868 57.5443L26.9406 58.7532C26.8801 58.8136 26.7592 58.8741 26.6988 58.8741Z" fill="#CD88DA"/>
<path d="M40.2991 55.0659H40.2386C40.0573 55.0054 39.9969 54.8845 40.0573 54.7032C42.2938 46.543 36.8537 42.6141 36.6119 42.4932C36.491 42.4327 36.4306 42.1909 36.491 42.07C36.5514 41.9492 36.7932 41.8887 36.9141 41.9492C36.9746 42.0096 42.9587 46.2408 40.6013 54.8241C40.5409 55.0054 40.42 55.0659 40.2991 55.0659Z" fill="black" fill-opacity="0.941176"/>
<path d="M30.3858 111.522V115.028L22.8906 116.781L15.9998 115.209V111.643L22.8906 113.275L30.3858 111.522Z" fill="black" fill-opacity="0.941176"/>
<path d="M22.8906 117.083H22.8301L15.9393 115.512C15.8184 115.512 15.6975 115.33 15.6975 115.209V111.704C15.6975 111.522 15.8184 111.401 15.9997 111.401H16.0602L22.8301 112.973L30.2649 111.22C30.3254 111.22 30.4463 111.22 30.5067 111.28C30.5672 111.341 30.6276 111.401 30.6276 111.522V115.028C30.6276 115.149 30.5067 115.27 30.3858 115.33L22.8906 117.083ZM16.302 114.968L22.8906 116.479L30.0836 114.786V111.885L22.951 113.517C22.8905 113.517 22.8906 113.517 22.8301 113.517L16.302 112.006V114.968Z" fill="#CD88DA"/>
<path d="M235.297 148.878C235.962 148.032 237.11 147.85 237.957 148.515L250.953 158.247C251.799 158.851 251.98 160.06 251.315 160.907C250.711 161.753 249.502 161.934 248.656 161.269L235.66 151.537C234.814 150.933 234.632 149.724 235.297 148.878Z" fill="white"/>
<path d="M249.804 161.995C249.32 161.995 248.837 161.813 248.474 161.571L235.478 151.84C234.511 151.114 234.33 149.724 235.055 148.757C235.78 147.79 237.171 147.608 238.138 148.334L251.134 158.066C252.101 158.791 252.282 160.181 251.557 161.148C251.134 161.632 250.469 161.995 249.804 161.995ZM236.808 148.455C236.748 148.455 236.627 148.455 236.566 148.455C236.143 148.515 235.78 148.696 235.478 149.059C234.934 149.784 235.055 150.752 235.78 151.296L248.776 161.027C249.502 161.571 250.469 161.45 251.013 160.725C251.255 160.362 251.375 159.939 251.315 159.516C251.255 159.093 251.073 158.73 250.711 158.428L237.715 148.696C237.473 148.515 237.171 148.455 236.808 148.455Z" fill="#CD88DA"/>
<path d="M221.757 169.429C220.85 168.825 220.609 167.676 221.213 166.77L233.302 148.334C233.907 147.427 235.055 147.185 235.962 147.79C236.868 148.394 237.11 149.543 236.506 150.449L224.417 168.885C223.812 169.732 222.664 169.973 221.757 169.429Z" fill="white"/>
<path d="M222.845 170.034C222.422 170.034 221.999 169.913 221.636 169.671C220.609 169.006 220.306 167.616 221.032 166.588L233.121 148.152C233.786 147.125 235.176 146.823 236.204 147.488C237.231 148.152 237.473 149.543 236.808 150.57L224.719 169.006C224.417 169.49 223.873 169.852 223.329 169.973C223.147 169.973 222.966 170.034 222.845 170.034ZM234.934 147.79C234.39 147.79 233.907 148.032 233.604 148.515L221.515 166.951C221.032 167.676 221.213 168.704 221.999 169.188C222.724 169.671 223.752 169.49 224.235 168.704L236.325 150.268C236.808 149.543 236.627 148.515 235.901 148.032C235.539 147.911 235.236 147.79 234.934 147.79Z" fill="#CD88DA"/>
<path d="M235.72 35.3607C236.566 35.3607 237.291 36.0257 237.291 36.9323V151.235C237.291 152.081 236.626 152.746 235.78 152.746C234.934 152.746 234.269 152.081 234.269 151.235V36.9323C234.148 36.0861 234.874 35.3607 235.72 35.3607Z" fill="black" fill-opacity="0.941176"/>
<path d="M235.72 153.049C234.753 153.049 233.907 152.202 233.907 151.235V36.9323C233.907 35.9047 234.753 35.0585 235.781 35.0585C236.808 35.0585 237.594 35.9047 237.594 36.9323V151.235C237.594 152.263 236.808 153.049 235.841 153.109C235.781 153.109 235.72 153.109 235.72 153.049ZM235.72 35.6629C235.055 35.6629 234.511 36.2069 234.511 36.9323V151.235C234.511 151.9 235.055 152.505 235.781 152.505C236.445 152.505 236.989 151.961 236.989 151.235V36.9323C236.989 36.2674 236.445 35.6629 235.72 35.6629Z" fill="#CD88DA"/>
<path d="M192.139 2.84098V58.6928C192.139 60.0831 193.287 61.2315 194.677 61.2315C194.738 61.2315 194.798 61.2315 194.919 61.2315C203.442 60.5062 229.011 56.2146 229.011 30.5856C229.011 5.25881 203.442 1.02761 194.919 0.302264C193.529 0.181373 192.32 1.20895 192.199 2.5992C192.139 2.65964 192.139 2.72009 192.139 2.84098Z" fill="white"/>
<path d="M194.677 61.5337C193.106 61.5337 191.836 60.2643 191.836 58.6927V2.84089C191.836 1.2693 193.106 -6.10352e-05 194.677 -6.10352e-05C194.738 -6.10352e-05 194.859 -6.10352e-05 194.919 -6.10352e-05C202.958 0.664842 229.313 4.8356 229.313 30.5855C229.313 56.6376 203.019 60.8688 194.919 61.5337H194.677ZM194.677 0.604396C194.133 0.604396 193.589 0.846179 193.166 1.20885C192.683 1.63197 192.441 2.23643 192.441 2.84089V58.6927C192.441 59.9017 193.408 60.9292 194.677 60.9292C194.738 60.9292 194.798 60.9292 194.859 60.9292C202.777 60.2643 228.708 56.0936 228.708 30.5855C228.708 5.37961 202.838 1.2693 194.859 0.604396H194.677Z" fill="#CD88DA"/>
<path d="M226.593 30.8878H194.133C193.952 30.8878 193.831 30.7669 193.831 30.5855C193.831 30.4042 193.952 30.2833 194.133 30.2833H226.593C226.774 30.2833 226.895 30.4042 226.895 30.5855C226.895 30.7669 226.774 30.8878 226.593 30.8878Z" fill="#CD88DA"/>
<path d="M226.592 27.3215C226.532 27.3215 226.471 27.3215 226.411 27.2611C226.29 27.1402 213.173 15.1115 194.193 15.8973C194.012 15.8973 193.891 15.7764 193.891 15.5951C193.891 15.4137 194.012 15.2928 194.193 15.2928C213.476 14.507 226.774 26.7171 226.894 26.838C227.015 26.9589 227.015 27.1402 226.894 27.2611C226.774 27.3215 226.713 27.3215 226.592 27.3215Z" fill="#CD88DA"/>
<path d="M194.133 49.8677C194.012 49.8677 193.892 49.7468 193.831 49.6259C193.831 49.4446 193.892 49.3237 194.073 49.2633C213.718 45.4552 226.23 33.7892 226.411 33.6683C226.532 33.5474 226.714 33.4869 226.834 33.6078C226.955 33.7287 227.016 33.9101 226.895 34.0309L226.834 34.0914C226.714 34.2727 214.02 45.9992 194.133 49.8677Z" fill="#CD88DA"/>
<path d="M231.307 20.8538H240.132C241.402 20.8538 242.429 21.8813 242.429 23.1507V38.3226C242.429 39.5919 241.402 40.6195 240.132 40.6195H231.307C230.038 40.6195 229.01 39.5919 229.01 38.3226V23.1507C228.95 21.8813 229.977 20.8538 231.307 20.8538Z" fill="white"/>
<path d="M240.133 40.9822H231.247C229.796 40.9822 228.648 39.8337 228.648 38.383V23.2112C228.648 21.7605 229.796 20.612 231.247 20.612H240.072C241.523 20.612 242.671 21.7605 242.671 23.2112V38.383C242.732 39.7733 241.583 40.9822 240.133 40.9822ZM231.308 21.156C230.22 21.156 229.313 22.0627 229.313 23.1507V38.3226C229.313 39.4106 230.22 40.3173 231.308 40.3173H240.133C241.221 40.3173 242.127 39.4106 242.127 38.3226V23.1507C242.127 22.0627 241.221 21.156 240.133 21.156H231.308Z" fill="#CD88DA"/>
<path d="M246.54 35.9652H242.429V25.5685H246.54C247.748 25.5685 248.776 26.5357 248.776 27.805V33.7892C248.776 34.9376 247.748 35.9652 246.54 35.9652Z" fill="black" fill-opacity="0.941176"/>
<path d="M246.539 36.2675H242.429C242.248 36.2675 242.127 36.1466 242.127 35.9652V25.5686C242.127 25.3872 242.248 25.2664 242.429 25.2664H246.539C247.93 25.2664 249.078 26.4148 249.078 27.8051V33.7288C249.078 35.119 247.93 36.2675 246.539 36.2675ZM242.792 35.663H246.539C247.628 35.663 248.474 34.8168 248.474 33.7288V27.8051C248.474 26.7171 247.628 25.8708 246.539 25.8708H242.792V35.663Z" fill="#CD88DA"/>
<path d="M236.082 147.85C236.989 147.246 238.138 147.488 238.742 148.394L250.831 166.83C251.436 167.737 251.194 168.885 250.287 169.49C249.38 170.094 248.232 169.852 247.628 168.946L235.538 150.51C234.934 149.603 235.236 148.394 236.082 147.85Z" fill="white"/>
<path d="M249.26 170.034C248.534 170.034 247.809 169.671 247.386 169.067L235.297 150.631C234.632 149.603 234.934 148.273 235.901 147.548C236.385 147.246 236.989 147.125 237.533 147.246C238.138 147.367 238.621 147.729 238.923 148.213L251.013 166.649C251.677 167.676 251.436 169.006 250.408 169.732C250.106 169.852 249.683 170.034 249.26 170.034ZM237.11 147.79C236.808 147.79 236.506 147.911 236.203 148.032C235.478 148.515 235.236 149.482 235.72 150.268L247.809 168.704C248.292 169.429 249.26 169.671 250.045 169.188C250.771 168.704 251.013 167.737 250.529 166.951L238.44 148.515C238.198 148.152 237.835 147.911 237.412 147.85C237.352 147.79 237.231 147.79 237.11 147.79Z" fill="#CD88DA"/>
</svg>
